<?xml version="1.0" encoding="UTF-8"?>
<!DOCTYPE svg PUBLIC "-//W3C//DTD SVG 1.1//EN" "http://www.w3.org/Graphics/SVG/1.1/DTD/svg11.dtd">
<!-- Creator: CorelDRAW X7 -->
<svg xmlns="http://www.w3.org/2000/svg" xml:space="preserve" width="2.16535in" height="2.16535in" version="1.1" style="shape-rendering:geometricPrecision; text-rendering:geometricPrecision; image-rendering:optimizeQuality; fill-rule:evenodd; clip-rule:evenodd"
viewBox="0 0 2165 2165"
 xmlns:xlink="http://www.w3.org/1999/xlink">
 <defs>
  <style type="text/css">
   <![CDATA[
    .fil0 {fill:black;fill-rule:nonzero}
   ]]>
  </style>
 </defs>
 <g id="Layer_x0020_1">
  <metadata id="CorelCorpID_0Corel-Layer"/>
  <path class="fil0" d="M1329 1707l-984 -361c47,82 78,162 94,242l-341 0 0 238 341 0c-16,80 -47,160 -94,241l984 -360zm379 -260c-71,0 -136,29 -183,76 -47,47 -76,112 -76,184 0,71 29,136 76,183 47,47 112,77 183,77 72,0 137,-30 184,-77 47,-47 76,-112 76,-183 0,-72 -29,-137 -76,-184 -47,-47 -112,-76 -184,-76zm85 174c22,21 36,52 36,86 0,33 -14,64 -36,86 -21,21 -51,35 -85,35 -33,0 -63,-14 -85,-35 -21,-22 -35,-53 -35,-86 0,-34 14,-65 35,-86 22,-22 52,-35 85,-35 34,0 64,13 85,35zm-85 -296l359 -981c-81,47 -161,78 -240,94l0 -340 -237 0 0 340c-79,-16 -159,-47 -240,-94l358 981z"/>
 </g>
</svg>
