<?xml version="1.0" encoding="UTF-8"?>
<!DOCTYPE svg PUBLIC "-//W3C//DTD SVG 1.1//EN" "http://www.w3.org/Graphics/SVG/1.1/DTD/svg11.dtd">
<!-- Creator: CorelDRAW X7 -->
<svg xmlns="http://www.w3.org/2000/svg" xml:space="preserve" width="2.16535in" height="2.16535in" version="1.1" style="shape-rendering:geometricPrecision; text-rendering:geometricPrecision; image-rendering:optimizeQuality; fill-rule:evenodd; clip-rule:evenodd"
viewBox="0 0 2165 2165"
 xmlns:xlink="http://www.w3.org/1999/xlink">
 <defs>
  <style type="text/css">
   <![CDATA[
    .fil0 {fill:black;fill-rule:nonzero}
   ]]>
  </style>
 </defs>
 <g id="Layer_x0020_1">
  <metadata id="CorelCorpID_0Corel-Layer"/>
  <path class="fil0" d="M742 1585c-20,20 -73,1 -118,-44 -44,-45 -64,-98 -43,-118l842 -842c20,-21 73,-1 118,43 45,45 64,98 44,118l-843 843zm570 -273l754 345c-72,20 -135,48 -189,84l190 190 -136 136 -190 -190c-36,54 -64,117 -84,189l-345 -754zm-458 -458l-755 -345c72,-20 135,-48 190,-85l-191 -190 136 -136 190 191c37,-55 65,-118 85,-190l345 755z"/>
 </g>
</svg>
