<?xml version="1.0" encoding="UTF-8"?>
<!DOCTYPE svg PUBLIC "-//W3C//DTD SVG 1.1//EN" "http://www.w3.org/Graphics/SVG/1.1/DTD/svg11.dtd">
<!-- Creator: CorelDRAW X7 -->
<svg xmlns="http://www.w3.org/2000/svg" xml:space="preserve" width="2.16535in" height="2.16535in" version="1.1" style="shape-rendering:geometricPrecision; text-rendering:geometricPrecision; image-rendering:optimizeQuality; fill-rule:evenodd; clip-rule:evenodd"
viewBox="0 0 2165 2165"
 xmlns:xlink="http://www.w3.org/1999/xlink">
 <defs>
  <style type="text/css">
   <![CDATA[
    .fil0 {fill:black}
   ]]>
  </style>
 </defs>
 <g id="Layer_x0020_1">
  <metadata id="CorelCorpID_0Corel-Layer"/>
  <path class="fil0" d="M1884 939l183 0 0 0c-2,7 -11,22 -15,30 -35,62 -81,149 -116,207 -22,38 -43,79 -66,118 -9,15 -62,109 -64,119 -9,-3 -14,-18 -19,-26 -6,-11 -11,-20 -16,-30l-216 -387c-5,-9 -14,-23 -16,-31l182 0c-5,-25 -8,-48 -15,-72 -30,-116 -81,-219 -151,-310 -12,-17 -35,-46 -49,-59l-44 -42c-39,-34 -80,-63 -124,-90 -55,-34 -117,-56 -181,-73 -153,-40 -339,-17 -472,56 -39,22 -80,44 -116,74l-51 43c-5,4 -7,7 -12,12 -5,4 -7,7 -12,12l-67 78c-14,18 -27,36 -39,56l-66 129c-10,23 -18,46 -25,72 -16,53 -28,108 -34,164 -3,31 -6,66 -6,96l6 93c8,80 30,166 60,236 48,115 90,171 172,262l24 24c6,5 7,7 12,11 30,26 60,51 94,71l61 35c43,24 90,39 136,52 177,49 386,19 539,-84 44,-29 94,-63 130,-103l62 -71c16,-20 31,-39 44,-61 20,6 122,76 143,83 -5,17 -48,72 -58,86 -12,17 -55,67 -68,78l-94 86c-124,103 -325,183 -486,184l-19 0c-89,0 -150,-4 -240,-29 -28,-8 -56,-16 -82,-27 -74,-31 -149,-69 -213,-121 -11,-9 -21,-16 -32,-25 -15,-13 -30,-26 -44,-40 -6,-7 -9,-9 -15,-15 -14,-14 -28,-28 -40,-44 -12,-16 -27,-29 -39,-46 -23,-33 -47,-66 -69,-101 -14,-25 -26,-51 -40,-76 -30,-54 -61,-149 -75,-213 -8,-33 -14,-64 -19,-100 -4,-32 -7,-65 -9,-98l0 -93c5,-100 22,-200 52,-291 10,-31 21,-56 32,-85 5,-12 12,-27 18,-38 7,-13 12,-26 19,-39 19,-36 42,-73 66,-107 16,-22 32,-44 50,-64l26 -31c5,-6 9,-7 14,-13l27 -28c48,-51 151,-126 213,-153 38,-17 76,-37 116,-49 121,-37 173,-43 299,-43 32,0 65,5 93,9 130,20 258,72 366,152l114 98c9,10 17,17 27,27l92 119c24,39 49,78 68,120l25 57c5,13 10,25 16,38 5,14 9,28 13,41 9,26 17,56 23,85 4,16 6,30 9,46 3,13 7,34 8,49z"/>
 </g>
</svg>
