<?xml version="1.0" encoding="UTF-8"?>
<!DOCTYPE svg PUBLIC "-//W3C//DTD SVG 1.1//EN" "http://www.w3.org/Graphics/SVG/1.1/DTD/svg11.dtd">
<!-- Creator: CorelDRAW X7 -->
<svg xmlns="http://www.w3.org/2000/svg" xml:space="preserve" width="2.16535in" height="2.16535in" version="1.1" style="shape-rendering:geometricPrecision; text-rendering:geometricPrecision; image-rendering:optimizeQuality; fill-rule:evenodd; clip-rule:evenodd"
viewBox="0 0 2165 2165"
 xmlns:xlink="http://www.w3.org/1999/xlink">
 <defs>
  <style type="text/css">
   <![CDATA[
    .fil0 {fill:black}
   ]]>
  </style>
 </defs>
 <g id="Layer_x0020_1">
  <metadata id="CorelCorpID_0Corel-Layer"/>
  <path class="fil0" d="M1083 1670l-760 -1257c171,60 340,100 508,120l0 -435 503 0 0 435c168,-20 337,-60 509,-120l-760 1257zm-135 -492l0 -525 140 0c53,0 87,3 103,8 25,8 46,25 62,52 17,26 25,60 25,102 0,32 -5,59 -14,81 -10,22 -22,39 -37,52 -14,12 -29,21 -45,25 -21,5 -51,7 -90,7l-57 0 0 198 -87 0zm87 -436l0 150 48 0c34,0 57,-3 68,-9 12,-5 21,-14 28,-26 6,-11 9,-25 9,-40 0,-20 -4,-35 -13,-48 -10,-12 -21,-20 -35,-23 -11,-3 -31,-4 -63,-4l-42 0zm-892 1100l1879 0c25,0 45,20 45,45l0 135c0,25 -20,45 -45,45l-1879 0c-24,0 -45,-20 -45,-45l0 -135c0,-25 21,-45 45,-45z"/>
 </g>
</svg>
