<?xml version="1.0" encoding="UTF-8"?>
<!DOCTYPE svg PUBLIC "-//W3C//DTD SVG 1.1//EN" "http://www.w3.org/Graphics/SVG/1.1/DTD/svg11.dtd">
<!-- Creator: CorelDRAW X7 -->
<svg xmlns="http://www.w3.org/2000/svg" xml:space="preserve" width="2.16535in" height="2.16535in" version="1.1" style="shape-rendering:geometricPrecision; text-rendering:geometricPrecision; image-rendering:optimizeQuality; fill-rule:evenodd; clip-rule:evenodd"
viewBox="0 0 2165 2165"
 xmlns:xlink="http://www.w3.org/1999/xlink">
 <defs>
  <style type="text/css">
   <![CDATA[
    .fil0 {fill:black}
   ]]>
  </style>
 </defs>
 <g id="Layer_x0020_1">
  <metadata id="CorelCorpID_0Corel-Layer"/>
  <path class="fil0" d="M1083 2067l337 -329c42,-42 91,-70 107,-131 -99,8 -170,55 -270,63l0 -286 111 0c0,-34 0,-62 0,-127l302 0c-8,100 -55,171 -63,270 64,-17 432,-402 460,-444l-329 -338c-42,-42 -70,-90 -131,-107 8,100 55,171 63,270l-302 0 0 -127c-37,0 -74,0 -111,0l0 -286c100,9 171,56 270,64 -17,-65 -402,-432 -444,-461l-338 330c-42,42 -90,69 -107,131 100,-8 171,-55 270,-64l0 286 -127 0 0 16 0 111 -286 0c9,-99 56,-170 64,-270 -61,16 -183,159 -234,211 -66,65 -181,165 -227,234l330 337c42,42 69,91 131,107 -8,-99 -55,-170 -64,-270l286 0 0 127 127 0 0 286c-99,-8 -170,-55 -270,-63 16,60 159,183 211,234 65,65 165,180 234,226z"/>
 </g>
</svg>
