<?xml version="1.0" encoding="UTF-8"?>
<!DOCTYPE svg PUBLIC "-//W3C//DTD SVG 1.1//EN" "http://www.w3.org/Graphics/SVG/1.1/DTD/svg11.dtd">
<!-- Creator: CorelDRAW X7 -->
<svg xmlns="http://www.w3.org/2000/svg" xml:space="preserve" width="2.16535in" height="2.16535in" version="1.1" style="shape-rendering:geometricPrecision; text-rendering:geometricPrecision; image-rendering:optimizeQuality; fill-rule:evenodd; clip-rule:evenodd"
viewBox="0 0 2165 2165"
 xmlns:xlink="http://www.w3.org/1999/xlink">
 <defs>
  <style type="text/css">
   <![CDATA[
    .fil0 {fill:black}
   ]]>
  </style>
 </defs>
 <g id="Layer_x0020_1">
  <metadata id="CorelCorpID_0Corel-Layer"/>
  <path class="fil0" d="M190 1923c-34,0 -51,-4 -76,-38l-15 -22c0,69 -6,100 21,144 17,29 54,60 98,60l1377 0c72,0 103,-75 124,-122 10,-21 18,-37 28,-59 18,-40 36,-73 54,-112l163 -343c16,-35 34,-78 53,-112 18,-33 50,-91 50,-129 0,-39 -31,-72 -68,-72l-1281 0c-49,0 -80,29 -101,61l-342 661c-10,19 -19,34 -32,50 -10,12 -35,33 -53,33zm-91 -1289l0 1102c0,67 81,117 117,62 13,-21 10,-26 10,-57l0 -793c0,-46 -11,-102 32,-102l730 0 0 -135 -254 0 0 -77c0,-65 -57,-127 -119,-127l-397 0c-61,0 -119,62 -119,127zm825 -110c0,30 17,51 40,51l151 0 0 339c0,38 27,68 63,68l127 0c36,0 64,-30 64,-68l0 -339 150 0c23,0 40,-21 40,-51 0,-22 -55,-91 -70,-111l-213 -295c-44,-57 -86,26 -105,51 -7,9 -12,15 -19,26l-194 268c-11,15 -34,39 -34,61zm572 322c151,0 127,-32 127,204l127 0 0 -212c0,-66 -58,-127 -119,-127l-135 0 0 135z"/>
 </g>
</svg>
