<?xml version="1.0" encoding="UTF-8"?>
<!DOCTYPE svg PUBLIC "-//W3C//DTD SVG 1.1//EN" "http://www.w3.org/Graphics/SVG/1.1/DTD/svg11.dtd">
<!-- Creator: CorelDRAW X7 -->
<svg xmlns="http://www.w3.org/2000/svg" xml:space="preserve" width="2.16535in" height="2.16535in" version="1.1" style="shape-rendering:geometricPrecision; text-rendering:geometricPrecision; image-rendering:optimizeQuality; fill-rule:evenodd; clip-rule:evenodd"
viewBox="0 0 2165 2165"
 xmlns:xlink="http://www.w3.org/1999/xlink">
 <defs>
  <style type="text/css">
   <![CDATA[
    .fil0 {fill:black}
   ]]>
  </style>
 </defs>
 <g id="Layer_x0020_1">
  <metadata id="CorelCorpID_0Corel-Layer"/>
  <path class="fil0" d="M281 939l-183 0 0 0c2,7 11,22 15,30 35,62 82,149 116,207 23,38 43,79 66,118 9,15 62,109 65,119 9,-3 13,-18 18,-26 6,-11 11,-20 17,-30l216 -387c4,-9 14,-23 16,-31l-183 0c5,-25 9,-48 15,-72 30,-116 81,-219 151,-310 13,-17 35,-46 50,-59l44 -42c38,-34 79,-63 123,-90 55,-34 117,-56 181,-73 153,-40 340,-17 472,56 40,22 81,44 116,74l51 43c5,4 7,7 12,12 5,4 8,7 13,12l66 78c14,18 27,36 39,56l66 129c10,23 18,46 26,72 16,53 27,108 33,164 4,31 7,66 6,96l-6 93c-8,80 -30,166 -59,236 -49,115 -90,171 -172,262l-25 24c-5,5 -7,7 -12,11 -30,26 -60,51 -94,71l-61 35c-42,24 -89,39 -136,52 -176,49 -385,19 -539,-84 -44,-29 -93,-63 -130,-103l-62 -71c-15,-20 -30,-39 -44,-61 -20,6 -122,76 -142,83 4,17 48,72 58,86 12,17 54,67 68,78l93 86c124,103 325,183 486,184l19 0c89,0 151,-4 240,-29 28,-8 56,-16 82,-27 75,-31 150,-69 214,-121 10,-9 20,-16 31,-25 15,-13 31,-26 44,-40 6,-7 10,-9 15,-15 14,-14 28,-28 40,-44 13,-16 27,-29 39,-46 24,-33 47,-66 69,-101 15,-25 26,-51 40,-76 30,-54 61,-149 76,-213 7,-33 13,-64 18,-100 5,-32 8,-65 9,-98l0 -93c-4,-100 -22,-200 -52,-291 -10,-31 -21,-56 -32,-85 -4,-12 -11,-27 -17,-38 -8,-13 -13,-26 -20,-39 -19,-36 -42,-73 -66,-107 -16,-22 -32,-44 -50,-64l-26 -31c-5,-6 -8,-7 -14,-13l-27 -28c-47,-51 -151,-126 -213,-153 -38,-17 -76,-37 -116,-49 -121,-37 -172,-43 -299,-43 -32,0 -64,5 -93,9 -130,20 -257,72 -366,152l-114 98c-9,10 -17,17 -26,27l-93 119c-24,39 -49,78 -68,120l-25 57c-5,13 -10,25 -15,38 -5,14 -10,28 -14,41 -8,26 -16,56 -23,85 -4,16 -6,30 -9,46 -2,13 -7,34 -8,49z"/>
 </g>
</svg>
