<?xml version="1.0" encoding="UTF-8"?>
<!DOCTYPE svg PUBLIC "-//W3C//DTD SVG 1.1//EN" "http://www.w3.org/Graphics/SVG/1.1/DTD/svg11.dtd">
<!-- Creator: CorelDRAW X7 -->
<svg xmlns="http://www.w3.org/2000/svg" xml:space="preserve" width="2.16535in" height="2.16535in" version="1.1" style="shape-rendering:geometricPrecision; text-rendering:geometricPrecision; image-rendering:optimizeQuality; fill-rule:evenodd; clip-rule:evenodd"
viewBox="0 0 2165 2165"
 xmlns:xlink="http://www.w3.org/1999/xlink">
 <defs>
  <style type="text/css">
   <![CDATA[
    .fil0 {fill:black}
   ]]>
  </style>
 </defs>
 <g id="Layer_x0020_1">
  <metadata id="CorelCorpID_0Corel-Layer"/>
  <path class="fil0" d="M818 1083l999 734c-48,-165 -79,-329 -95,-491l345 0 0 -486 -345 0c16,-163 47,-326 95,-492l-999 735zm984 828c36,28 44,82 17,121 -27,38 -78,46 -114,18l-1165 -898c-37,-28 -45,-82 -18,-120 5,-8 11,-14 18,-19l1165 -898c36,-28 87,-20 114,19 27,38 19,92 -17,120l-1075 829 1075 828zm-758 -269c37,28 45,82 18,120 -27,39 -78,47 -115,19l-815 -629c-37,-28 -44,-82 -18,-120 6,-8 12,-14 19,-19l814 -629c37,-28 88,-19 115,19 27,38 19,92 -18,121l-725 559 725 559z"/>
 </g>
</svg>
