<?xml version="1.0" encoding="UTF-8"?>
<!DOCTYPE svg PUBLIC "-//W3C//DTD SVG 1.1//EN" "http://www.w3.org/Graphics/SVG/1.1/DTD/svg11.dtd">
<!-- Creator: CorelDRAW X7 -->
<svg xmlns="http://www.w3.org/2000/svg" xml:space="preserve" width="2.16535in" height="2.16535in" version="1.1" style="shape-rendering:geometricPrecision; text-rendering:geometricPrecision; image-rendering:optimizeQuality; fill-rule:evenodd; clip-rule:evenodd"
viewBox="0 0 2165 2165"
 xmlns:xlink="http://www.w3.org/1999/xlink">
 <defs>
  <style type="text/css">
   <![CDATA[
    .fil0 {fill:black}
   ]]>
  </style>
 </defs>
 <g id="Layer_x0020_1">
  <metadata id="CorelCorpID_0Corel-Layer"/>
  <path class="fil0" d="M1023 1224l221 -141 -221 -141 0 106 -221 0 0 70 221 0 0 106zm274 135l0 -552 -543 0 -22 -25 0 -32 22 -25 585 2 11 3 7 7 214 321c5,7 8,16 8,24 0,9 -3,19 -8,26l-210 316 -7 8 -13 7 -9 2 -578 0 -22 -25 0 -32 22 -25 543 0zm-879 -1000c-91,65 -191,223 -237,330 -40,92 -39,109 -64,197 -7,27 -10,54 -11,82 -4,73 -10,70 -7,165 9,277 165,574 392,738 18,13 32,23 50,35l133 74c36,17 152,57 191,63 22,3 34,9 56,13 20,3 32,1 54,5 18,3 38,4 57,5 12,1 114,1 117,-1 17,-12 74,-165 83,-190 8,-19 23,-47 23,-64 -42,17 -159,21 -207,20 -37,-1 -112,-12 -152,-23 -17,-5 -32,-9 -49,-15 -67,-21 -131,-54 -188,-94 -187,-127 -316,-351 -323,-563 0,-20 -2,-41 -1,-62 8,-117 7,-126 43,-239 16,-52 55,-124 85,-171 18,-27 64,-89 95,-111l92 129c18,-20 209,-500 209,-507 -13,-4 -445,26 -477,29 -22,1 -50,0 -69,8l105 147zm493 -4c42,-17 159,-21 207,-20 209,3 445,130 571,306 89,125 152,310 141,454l-10 121c-4,12 -6,14 -8,28 -14,86 -64,188 -111,261 -18,27 -63,86 -93,107l-92 -128c-14,16 -21,41 -29,60l-52 128c-14,34 -128,303 -128,319l477 -29c22,-1 50,0 69,-8l-105 -147c94,-68 211,-253 254,-370 31,-83 27,-95 46,-157 16,-54 20,-190 19,-247 -2,-46 -12,-122 -24,-169 -14,-58 -30,-113 -57,-174 -69,-153 -176,-298 -311,-395l-103 -67c-11,-6 -15,-10 -26,-16 -12,-6 -15,-6 -27,-12 -79,-38 -190,-77 -274,-90 -20,-3 -33,-1 -54,-5 -33,-6 -168,-9 -174,-4 -13,9 -23,41 -32,63 -11,29 -74,173 -74,191z"/>
 </g>
</svg>
