<?xml version="1.0" encoding="UTF-8"?>
<!DOCTYPE svg PUBLIC "-//W3C//DTD SVG 1.1//EN" "http://www.w3.org/Graphics/SVG/1.1/DTD/svg11.dtd">
<!-- Creator: CorelDRAW X7 -->
<svg xmlns="http://www.w3.org/2000/svg" xml:space="preserve" width="2.16535in" height="2.16535in" version="1.1" style="shape-rendering:geometricPrecision; text-rendering:geometricPrecision; image-rendering:optimizeQuality; fill-rule:evenodd; clip-rule:evenodd"
viewBox="0 0 2165 2165"
 xmlns:xlink="http://www.w3.org/1999/xlink">
 <defs>
  <style type="text/css">
   <![CDATA[
    .fil0 {fill:black}
   ]]>
  </style>
 </defs>
 <g id="Layer_x0020_1">
  <metadata id="CorelCorpID_0Corel-Layer"/>
  <path class="fil0" d="M774 1470l514 -387 -514 -388 0 291 -514 0 0 194 514 0 0 290zm639 372l0 -1519 -1265 0 -50 -69 0 -87 50 -69 1363 6 25 9 17 19 496 881c12,20 18,44 18,68 0,24 -5,50 -17,70l-488 870 -18 20 -30 19 -21 7 -1345 0 -50 -69 0 -87 50 -69 1265 0z"/>
 </g>
</svg>
