<?xml version="1.0" encoding="UTF-8"?>
<!DOCTYPE svg PUBLIC "-//W3C//DTD SVG 1.1//EN" "http://www.w3.org/Graphics/SVG/1.1/DTD/svg11.dtd">
<!-- Creator: CorelDRAW X7 -->
<svg xmlns="http://www.w3.org/2000/svg" xml:space="preserve" width="2.16535in" height="2.16535in" version="1.1" style="shape-rendering:geometricPrecision; text-rendering:geometricPrecision; image-rendering:optimizeQuality; fill-rule:evenodd; clip-rule:evenodd"
viewBox="0 0 2165 2165"
 xmlns:xlink="http://www.w3.org/1999/xlink">
 <defs>
  <style type="text/css">
   <![CDATA[
    .fil0 {fill:black}
   ]]>
  </style>
 </defs>
 <g id="Layer_x0020_1">
  <metadata id="CorelCorpID_0Corel-Layer"/>
  <path class="fil0" d="M1152 2067c-23,-5 -213,-172 -234,-189l-632 -529c-16,-13 -49,-33 -54,-51l533 0c0,-169 -13,-275 -51,-426 -54,-214 -173,-410 -343,-571l-38 -33c-56,-48 -133,-105 -198,-146l-27 -17c-3,-2 -7,-4 -10,-7 76,0 349,77 418,101 142,48 249,97 376,170l130 84c49,35 91,75 136,113 70,62 175,202 216,269 37,63 79,146 102,215 14,40 28,79 38,118 6,23 10,42 15,64 4,18 12,48 14,66l524 0c-6,19 -204,176 -224,193 -53,44 -667,562 -691,576z"/>
 </g>
</svg>
