<?xml version="1.0" encoding="UTF-8"?>
<!DOCTYPE svg PUBLIC "-//W3C//DTD SVG 1.1//EN" "http://www.w3.org/Graphics/SVG/1.1/DTD/svg11.dtd">
<!-- Creator: CorelDRAW X7 -->
<svg xmlns="http://www.w3.org/2000/svg" xml:space="preserve" width="2.16535in" height="2.16535in" version="1.1" style="shape-rendering:geometricPrecision; text-rendering:geometricPrecision; image-rendering:optimizeQuality; fill-rule:evenodd; clip-rule:evenodd"
viewBox="0 0 2165 2165"
 xmlns:xlink="http://www.w3.org/1999/xlink">
 <defs>
  <style type="text/css">
   <![CDATA[
    .fil0 {fill:black}
   ]]>
  </style>
 </defs>
 <g id="Layer_x0020_1">
  <metadata id="CorelCorpID_0Corel-Layer"/>
  <path class="fil0" d="M1152 98c-23,5 -213,172 -234,190l-632 528c-16,14 -49,34 -54,51l533 0c0,170 -13,276 -51,426 -54,215 -173,410 -343,571l-38 33c-56,49 -133,106 -198,146l-27 17c-3,2 -7,5 -10,7 76,0 349,-77 418,-101 142,-48 249,-96 376,-170l130 -84c49,-34 91,-75 136,-113 70,-61 175,-201 216,-269 37,-63 79,-146 102,-214 14,-40 28,-79 38,-119 6,-23 10,-42 15,-64 4,-18 12,-47 14,-66l524 0c-6,-19 -204,-176 -224,-193 -53,-44 -667,-562 -691,-576z"/>
 </g>
</svg>
