<?xml version="1.0" encoding="UTF-8"?>
<!DOCTYPE svg PUBLIC "-//W3C//DTD SVG 1.1//EN" "http://www.w3.org/Graphics/SVG/1.1/DTD/svg11.dtd">
<!-- Creator: CorelDRAW X7 -->
<svg xmlns="http://www.w3.org/2000/svg" xml:space="preserve" width="2.16535in" height="2.16535in" version="1.1" style="shape-rendering:geometricPrecision; text-rendering:geometricPrecision; image-rendering:optimizeQuality; fill-rule:evenodd; clip-rule:evenodd"
viewBox="0 0 2165 2165"
 xmlns:xlink="http://www.w3.org/1999/xlink">
 <defs>
  <style type="text/css">
   <![CDATA[
    .fil0 {fill:black}
   ]]>
  </style>
 </defs>
 <g id="Layer_x0020_1">
  <metadata id="CorelCorpID_0Corel-Layer"/>
  <path class="fil0" d="M1014 98c22,5 212,172 233,190l633 528c15,14 48,34 54,51l-534 0c0,170 14,276 52,426 54,215 173,410 342,571l39 33c55,49 132,106 198,146l26 17c4,2 7,5 10,7 -76,0 -349,-77 -418,-101 -141,-48 -249,-96 -376,-170l-129 -84c-50,-34 -92,-75 -136,-113 -71,-61 -176,-201 -217,-269 -37,-63 -79,-146 -102,-214 -13,-40 -28,-79 -38,-119 -5,-23 -10,-42 -15,-64 -4,-18 -11,-47 -13,-66l-525 0c6,-19 204,-176 225,-193 52,-44 666,-562 691,-576z"/>
 </g>
</svg>
