<?xml version="1.0" encoding="UTF-8"?>
<!DOCTYPE svg PUBLIC "-//W3C//DTD SVG 1.1//EN" "http://www.w3.org/Graphics/SVG/1.1/DTD/svg11.dtd">
<!-- Creator: CorelDRAW X7 -->
<svg xmlns="http://www.w3.org/2000/svg" xml:space="preserve" width="2.16535in" height="2.16535in" version="1.1" style="shape-rendering:geometricPrecision; text-rendering:geometricPrecision; image-rendering:optimizeQuality; fill-rule:evenodd; clip-rule:evenodd"
viewBox="0 0 2165 2165"
 xmlns:xlink="http://www.w3.org/1999/xlink">
 <defs>
  <style type="text/css">
   <![CDATA[
    .fil0 {fill:black}
   ]]>
  </style>
 </defs>
 <g id="Layer_x0020_1">
  <metadata id="CorelCorpID_0Corel-Layer"/>
  <path class="fil0" d="M98 1014c5,22 172,212 190,233l528 633c14,15 34,48 51,54l0 -534c170,0 276,14 426,52 215,54 410,173 571,342l33 39c49,55 106,132 146,198l17 26c2,4 5,7 7,10 0,-76 -77,-349 -101,-418 -48,-141 -96,-249 -170,-376l-84 -129c-34,-50 -75,-92 -113,-136 -61,-71 -201,-176 -269,-217 -63,-37 -146,-79 -214,-102 -40,-13 -79,-28 -119,-38 -23,-5 -42,-10 -64,-15 -18,-4 -47,-11 -66,-13l0 -525c-19,6 -176,204 -193,225 -44,52 -562,666 -576,691z"/>
 </g>
</svg>
