<?xml version="1.0" encoding="UTF-8"?>
<!DOCTYPE svg PUBLIC "-//W3C//DTD SVG 1.1//EN" "http://www.w3.org/Graphics/SVG/1.1/DTD/svg11.dtd">
<!-- Creator: CorelDRAW X7 -->
<svg xmlns="http://www.w3.org/2000/svg" xml:space="preserve" width="2.16535in" height="2.16535in" version="1.1" style="shape-rendering:geometricPrecision; text-rendering:geometricPrecision; image-rendering:optimizeQuality; fill-rule:evenodd; clip-rule:evenodd"
viewBox="0 0 2165 2165"
 xmlns:xlink="http://www.w3.org/1999/xlink">
 <defs>
  <style type="text/css">
   <![CDATA[
    .fil0 {fill:black}
   ]]>
  </style>
 </defs>
 <g id="Layer_x0020_1">
  <metadata id="CorelCorpID_0Corel-Layer"/>
  <path class="fil0" d="M98 1152c5,-23 172,-213 190,-234l528 -632c14,-16 34,-49 51,-54l0 533c170,0 276,-13 426,-51 215,-54 410,-173 571,-343l33 -38c49,-56 106,-133 146,-198l17 -27c2,-3 5,-7 7,-10 0,76 -77,349 -101,418 -48,142 -96,249 -170,376l-84 130c-34,49 -75,91 -113,136 -61,70 -201,175 -269,216 -63,37 -146,79 -214,102 -40,14 -79,28 -119,38 -23,6 -42,10 -64,15 -18,4 -47,12 -66,14l0 524c-19,-6 -176,-204 -193,-224 -44,-53 -562,-667 -576,-691z"/>
 </g>
</svg>
