<?xml version="1.0" encoding="UTF-8"?>
<!DOCTYPE svg PUBLIC "-//W3C//DTD SVG 1.1//EN" "http://www.w3.org/Graphics/SVG/1.1/DTD/svg11.dtd">
<!-- Creator: CorelDRAW X7 -->
<svg xmlns="http://www.w3.org/2000/svg" xml:space="preserve" width="2.16535in" height="2.16535in" version="1.1" style="shape-rendering:geometricPrecision; text-rendering:geometricPrecision; image-rendering:optimizeQuality; fill-rule:evenodd; clip-rule:evenodd"
viewBox="0 0 2165 2165"
 xmlns:xlink="http://www.w3.org/1999/xlink">
 <defs>
  <style type="text/css">
   <![CDATA[
    .fil0 {fill:black}
   ]]>
  </style>
 </defs>
 <g id="Layer_x0020_1">
  <metadata id="CorelCorpID_0Corel-Layer"/>
  <path class="fil0" d="M2067 1152c-5,-23 -172,-213 -189,-234l-529 -632c-13,-16 -33,-49 -51,-54l0 533c-169,0 -275,-13 -426,-51 -214,-54 -410,-173 -571,-343l-33 -38c-48,-56 -105,-133 -146,-198l-17 -27c-2,-3 -4,-7 -7,-10 0,76 77,349 101,418 48,142 97,249 170,376l84 130c35,49 75,91 113,136 62,70 202,175 269,216 63,37 146,79 215,102 40,14 79,28 118,38 23,6 42,10 64,15 18,4 48,12 66,14l0 524c19,-6 176,-204 193,-224 44,-53 562,-667 576,-691z"/>
 </g>
</svg>
