<?xml version="1.0" encoding="UTF-8"?>
<!DOCTYPE svg PUBLIC "-//W3C//DTD SVG 1.1//EN" "http://www.w3.org/Graphics/SVG/1.1/DTD/svg11.dtd">
<!-- Creator: CorelDRAW X7 -->
<svg xmlns="http://www.w3.org/2000/svg" xml:space="preserve" width="2.16535in" height="2.16535in" version="1.1" style="shape-rendering:geometricPrecision; text-rendering:geometricPrecision; image-rendering:optimizeQuality; fill-rule:evenodd; clip-rule:evenodd"
viewBox="0 0 2165 2165"
 xmlns:xlink="http://www.w3.org/1999/xlink">
 <defs>
  <style type="text/css">
   <![CDATA[
    .fil0 {fill:black}
   ]]>
  </style>
 </defs>
 <g id="Layer_x0020_1">
  <metadata id="CorelCorpID_0Corel-Layer"/>
  <path class="fil0" d="M645 1081c0,109 56,235 129,308 332,331 901,-35 706,-486 -179,-413 -835,-298 -835,178zm66 22c0,-241 151,-392 393,-392 180,0 351,170 351,349 0,240 -153,392 -394,392 -179,0 -350,-170 -350,-349zm-613 -76c0,308 68,531 287,749 77,76 168,144 267,192 669,325 1415,-204 1415,-832 0,-308 -72,-534 -287,-749 -295,-294 -740,-371 -1120,-196 -307,141 -562,492 -562,836zm110 54c0,-401 293,-754 680,-847 402,-96 813,115 990,491 154,328 74,716 -180,969 -116,116 -257,196 -421,235 -460,110 -931,-184 -1045,-654 -10,-43 -24,-148 -24,-194zm689 -708c-29,-8 -87,-54 -131,-54 -126,0 -233,96 -197,250 -174,-41 -299,112 -232,263 20,45 23,20 35,64 -192,45 -181,329 0,371 -13,46 -55,59 -55,141 0,102 95,222 252,186 -44,179 123,292 264,230 45,-20 20,-23 64,-34 44,191 329,180 371,0 43,11 152,121 279,-6 65,-66 67,-115 50,-190 109,26 192,-26 228,-100 60,-126 -18,-179 -32,-227 181,-42 192,-326 0,-371 12,-44 15,-19 35,-64 63,-142 -54,-304 -231,-263 36,-153 -76,-250 -186,-250 -83,0 -96,42 -143,54 -43,-186 -328,-186 -371,0zm54 65c0,-191 263,-191 263,0 0,160 -263,160 -263,0zm-328 88c0,-192 263,-192 263,0 0,159 -263,159 -263,0zm657 0c0,-192 262,-192 262,0 0,159 -262,159 -262,0zm-580 174c129,31 220,-41 240,-131 47,13 60,55 143,55 82,0 96,-42 142,-55 21,90 111,161 240,131 -30,128 42,219 132,240 -114,213 -29,177 0,283 -91,21 -162,111 -132,240 -128,-31 -219,41 -240,131 -144,-76 -141,-76 -285,0 -21,-91 -111,-161 -240,-131 31,-129 -42,-219 -131,-240 12,-46 54,-59 54,-142 0,-82 -42,-95 -54,-141 109,-26 167,-159 131,-240zm-317 65c0,-191 262,-191 262,0 0,160 -262,160 -262,0zm1137 0c0,-191 263,-191 263,0 0,160 -263,160 -263,0zm-1225 327c0,-191 263,-191 263,0 0,160 -263,160 -263,0zm1313 0c0,-191 262,-191 262,0 0,160 -262,160 -262,0zm-1225 327c0,-191 262,-191 262,0 0,160 -262,160 -262,0zm1137 0c0,-191 263,-191 263,0 0,160 -263,160 -263,0zm-897 240c0,-191 263,-191 263,0 0,160 -263,160 -263,0zm657 0c0,-191 262,-191 262,0 0,160 -262,160 -262,0zm-329 87c0,-191 263,-191 263,0 0,160 -263,160 -263,0z"/>
 </g>
</svg>
