<?xml version="1.0" encoding="UTF-8"?>
<!DOCTYPE svg PUBLIC "-//W3C//DTD SVG 1.1//EN" "http://www.w3.org/Graphics/SVG/1.1/DTD/svg11.dtd">
<!-- Creator: CorelDRAW X7 -->
<svg xmlns="http://www.w3.org/2000/svg" xml:space="preserve" width="2.16535in" height="2.16535in" version="1.1" style="shape-rendering:geometricPrecision; text-rendering:geometricPrecision; image-rendering:optimizeQuality; fill-rule:evenodd; clip-rule:evenodd"
viewBox="0 0 2165 2165"
 xmlns:xlink="http://www.w3.org/1999/xlink">
 <defs>
  <style type="text/css">
   <![CDATA[
    .fil0 {fill:black}
   ]]>
  </style>
 </defs>
 <g id="Layer_x0020_1">
  <metadata id="CorelCorpID_0Corel-Layer"/>
  <path class="fil0" d="M161 1404c22,0 32,-18 46,-31l128 -115c42,-38 84,-82 130,-114l61 -58c11,-11 14,-9 24,-17 12,-10 9,-12 20,-22l193 -170c22,-20 66,-64 88,-77l208 285c-19,24 -43,39 -64,59 -9,10 -10,13 -19,23l-25 21c-55,51 -145,124 -188,171 -77,83 -171,151 -252,231l-30 30c-1,1 -4,3 -5,4 0,1 -1,2 -2,2l-48 45c-14,13 -34,21 -39,46 17,7 39,50 56,66 39,38 102,56 153,40l233 -87c17,-6 32,-8 48,-15 16,-6 31,-14 46,-19l187 -68c62,-24 120,-42 165,-102 7,6 22,21 27,29 7,8 6,10 10,17 9,14 7,8 15,18l71 102c23,37 35,87 40,132 7,56 25,132 63,167 10,9 20,16 31,25 34,29 92,39 138,45 7,-18 7,-10 23,-23 11,-9 14,-16 23,-24l176 -153c17,-20 56,-46 75,-68 13,-16 13,-10 25,-20 19,-16 4,-14 24,-29 16,-12 39,-29 51,-45 -3,-21 -18,-34 -30,-49 -12,-18 -22,-31 -35,-49l-411 -574c-18,-25 -57,-74 -69,-98 24,-31 192,-175 236,-215 13,-12 28,-17 32,-39 -31,-13 -45,-51 -83,-59 -43,-10 -79,-13 -114,2 -71,33 -125,113 -180,148 -15,10 -12,3 -28,17 -18,15 -32,33 -52,44 -22,-47 -79,-112 -112,-157 -12,-17 -32,-34 -35,-57 16,-5 101,-88 118,-103l54 -51c46,-42 88,-82 95,-155 4,-48 -14,-129 -47,-143l-265 235c-19,-39 -130,-183 -163,-229 -10,-14 -17,-23 -27,-37 -11,-15 -17,-30 -33,-38 -6,4 -456,402 -479,430l-252 469c-15,26 -80,141 -82,163l-6 59c-2,40 0,79 20,116 11,22 39,48 42,69z"/>
 </g>
</svg>
