<?xml version="1.0" encoding="UTF-8"?>
<!DOCTYPE svg PUBLIC "-//W3C//DTD SVG 1.1//EN" "http://www.w3.org/Graphics/SVG/1.1/DTD/svg11.dtd">
<!-- Creator: CorelDRAW X7 -->
<svg xmlns="http://www.w3.org/2000/svg" xml:space="preserve" width="2.16535in" height="2.16535in" version="1.1" style="shape-rendering:geometricPrecision; text-rendering:geometricPrecision; image-rendering:optimizeQuality; fill-rule:evenodd; clip-rule:evenodd"
viewBox="0 0 2165 2165"
 xmlns:xlink="http://www.w3.org/1999/xlink">
 <defs>
  <style type="text/css">
   <![CDATA[
    .fil0 {fill:black}
   ]]>
  </style>
 </defs>
 <g id="Layer_x0020_1">
  <metadata id="CorelCorpID_0Corel-Layer"/>
  <path class="fil0" d="M2067 601c0,41 -34,75 -75,75 -42,0 -76,-34 -76,-75l0 -214c0,-41 34,-75 76,-75 41,0 75,34 75,75l0 214zm0 426c0,42 -34,76 -75,76 -42,0 -76,-34 -76,-76l0 -213c0,-42 34,-75 76,-75 41,0 75,33 75,75l0 213zm-502 -778c-42,0 -75,-34 -75,-75 0,-42 33,-75 75,-75l213 0c42,0 75,33 75,75 0,41 -33,75 -75,75l-213 0zm-427 0c-42,0 -75,-34 -75,-75 0,-42 33,-76 75,-76l213 0c42,0 76,34 76,76 0,41 -34,75 -76,75l-213 0zm-989 216l1551 1551c50,50 121,64 186,37 65,-27 106,-87 106,-157l0 -584c0,-47 -17,-88 -50,-121l-967 -967c-34,-33 -74,-50 -121,-50l-584 0c-71,0 -131,40 -158,105 -27,65 -13,136 37,186z"/>
 </g>
</svg>
