<?xml version="1.0" encoding="UTF-8"?>
<!DOCTYPE svg PUBLIC "-//W3C//DTD SVG 1.1//EN" "http://www.w3.org/Graphics/SVG/1.1/DTD/svg11.dtd">
<!-- Creator: CorelDRAW X7 -->
<svg xmlns="http://www.w3.org/2000/svg" xml:space="preserve" width="2.16535in" height="2.16535in" version="1.1" style="shape-rendering:geometricPrecision; text-rendering:geometricPrecision; image-rendering:optimizeQuality; fill-rule:evenodd; clip-rule:evenodd"
viewBox="0 0 2165 2165"
 xmlns:xlink="http://www.w3.org/1999/xlink">
 <defs>
  <style type="text/css">
   <![CDATA[
    .fil0 {fill:black}
   ]]>
  </style>
 </defs>
 <g id="Layer_x0020_1">
  <metadata id="CorelCorpID_0Corel-Layer"/>
  <path class="fil0" d="M821 1685c29,-33 79,-115 107,-160 231,-359 588,-854 798,-1194 34,-55 70,-109 110,-162 44,-61 114,-104 185,-36 126,119 -42,301 -92,378 -151,234 -297,449 -457,685l-450 675c-229,342 -190,204 -575,-162 -97,-92 -173,-182 -269,-282 -171,-179 -31,-339 83,-301 36,13 246,239 279,275 36,39 34,39 70,72 59,56 135,162 211,212z"/>
 </g>
</svg>
