<?xml version="1.0" encoding="UTF-8"?>
<!DOCTYPE svg PUBLIC "-//W3C//DTD SVG 1.1//EN" "http://www.w3.org/Graphics/SVG/1.1/DTD/svg11.dtd">
<!-- Creator: CorelDRAW X7 -->
<svg xmlns="http://www.w3.org/2000/svg" xml:space="preserve" width="2.16535in" height="2.16535in" version="1.1" style="shape-rendering:geometricPrecision; text-rendering:geometricPrecision; image-rendering:optimizeQuality; fill-rule:evenodd; clip-rule:evenodd"
viewBox="0 0 2165 2165"
 xmlns:xlink="http://www.w3.org/1999/xlink">
 <defs>
  <style type="text/css">
   <![CDATA[
    .fil0 {fill:black}
   ]]>
  </style>
 </defs>
 <g id="Layer_x0020_1">
  <metadata id="CorelCorpID_0Corel-Layer"/>
  <path class="fil0" d="M1083 415c148,0 283,75 380,196 97,120 157,287 157,471l0 8 392 -972c7,-17 25,-25 39,-16 14,9 20,31 13,48l-764 1897c-7,18 -25,25 -39,16 -15,-9 -20,-30 -13,-48l162 -403c-90,87 -204,138 -327,138 -149,0 -283,-75 -381,-196 -97,-120 -157,-287 -157,-471l0 -8 -392 972c-7,18 -24,25 -39,16 -14,-9 -20,-30 -13,-48l765 -1897c7,-17 24,-25 39,-16 14,9 20,31 13,48l-163 404c91,-87 204,-139 328,-139zm0 73c-133,0 -253,66 -339,174 -87,107 -141,256 -141,421 0,164 54,313 141,420 86,108 206,175 339,175 132,0 252,-67 339,-175 87,-107 140,-256 140,-420 0,-165 -53,-314 -140,-421 -87,-108 -207,-174 -339,-174z"/>
 </g>
</svg>
