<?xml version="1.0" encoding="UTF-8"?>
<!DOCTYPE svg PUBLIC "-//W3C//DTD SVG 1.1//EN" "http://www.w3.org/Graphics/SVG/1.1/DTD/svg11.dtd">
<!-- Creator: CorelDRAW X7 -->
<svg xmlns="http://www.w3.org/2000/svg" xml:space="preserve" width="2.16535in" height="2.16535in" version="1.1" style="shape-rendering:geometricPrecision; text-rendering:geometricPrecision; image-rendering:optimizeQuality; fill-rule:evenodd; clip-rule:evenodd"
viewBox="0 0 2165 2165"
 xmlns:xlink="http://www.w3.org/1999/xlink">
 <defs>
  <style type="text/css">
   <![CDATA[
    .fil0 {fill:black;fill-rule:nonzero}
   ]]>
  </style>
 </defs>
 <g id="Layer_x0020_1">
  <metadata id="CorelCorpID_0Corel-Layer"/>
  <path class="fil0" d="M815 1071l-596 656c-42,45 -72,86 -92,124 -19,35 -29,66 -29,93 0,22 4,42 12,58 7,14 17,25 30,34 15,10 31,18 49,23 19,5 41,8 65,8 18,0 34,-1 47,-3 13,-1 25,-4 37,-8 12,-4 22,-8 32,-13 9,-4 18,-10 27,-16l28 -23 22 -22c215,-245 427,-492 641,-737l528 624 121 138c8,9 18,17 28,24 10,7 22,14 35,20 12,5 25,9 39,12 15,2 33,4 54,4 18,0 35,-2 50,-4 15,-3 30,-7 44,-13 12,-5 24,-11 34,-19 9,-7 18,-15 25,-24 7,-8 12,-18 16,-28 3,-10 5,-21 5,-32 0,-13 -2,-26 -7,-39 -4,-15 -12,-30 -21,-46 -11,-17 -25,-37 -42,-60 -18,-23 -39,-49 -63,-76 -203,-218 -398,-460 -592,-685l552 -622c44,-49 77,-93 98,-132 20,-34 30,-64 30,-88 0,-13 -4,-26 -10,-36 -7,-12 -18,-23 -32,-33l-1 -1c-14,-10 -31,-17 -49,-22 -20,-6 -42,-9 -68,-9 -15,0 -28,1 -40,3 -11,1 -21,4 -29,7l-2 0c-9,3 -18,7 -26,12 -10,5 -19,11 -27,18 -9,8 -19,17 -30,28 -209,231 -410,469 -614,702l-459 -560c-35,-43 -68,-81 -96,-111 -27,-29 -50,-51 -68,-65 -14,-11 -30,-19 -49,-25 -21,-6 -46,-9 -75,-9 -24,0 -46,3 -66,9 -19,5 -37,13 -53,24 -16,10 -27,21 -35,32 -6,10 -9,20 -9,31 0,15 2,30 7,46 5,16 12,32 22,50 11,18 25,39 42,62 16,23 36,49 59,76l528 614 -27 29z"/>
 </g>
</svg>
