<?xml version="1.0" encoding="UTF-8"?>
<!DOCTYPE svg PUBLIC "-//W3C//DTD SVG 1.1//EN" "http://www.w3.org/Graphics/SVG/1.1/DTD/svg11.dtd">
<!-- Creator: CorelDRAW X7 -->
<svg xmlns="http://www.w3.org/2000/svg" xml:space="preserve" width="2.16535in" height="2.16535in" version="1.1" style="shape-rendering:geometricPrecision; text-rendering:geometricPrecision; image-rendering:optimizeQuality; fill-rule:evenodd; clip-rule:evenodd"
viewBox="0 0 2165 2165"
 xmlns:xlink="http://www.w3.org/1999/xlink">
 <defs>
  <style type="text/css">
   <![CDATA[
    .fil0 {fill:black}
   ]]>
  </style>
 </defs>
 <g id="Layer_x0020_1">
  <metadata id="CorelCorpID_0Corel-Layer"/>
  <path class="fil0" d="M823 720l73 4c38,4 26,2 26,124 0,59 -8,146 4,196 17,-1 20,-4 41,-24 13,-12 23,-18 36,-30l219 -175c25,-20 48,-39 73,-58l183 -145c65,-48 27,-44 -34,-99 -13,-12 -22,-18 -36,-30l-125 -102c-64,-57 -176,-138 -240,-194 -10,-9 -103,-89 -112,-89 -11,0 -14,3 -14,13l0 273c-135,3 -346,73 -458,147 -43,29 -75,56 -111,90 -135,129 -250,356 -250,547 14,-9 79,-96 97,-117 44,-52 93,-103 146,-146 42,-33 85,-62 131,-88 93,-54 234,-97 351,-97zm412 1347c10,0 13,-3 13,-13l0 -273c38,0 135,-18 173,-27 100,-24 201,-64 285,-120 122,-80 215,-192 279,-323 36,-73 82,-210 82,-314 -16,11 -22,21 -33,37 -34,49 -49,62 -82,102 -28,35 -94,98 -131,126 -36,28 -91,67 -130,89 -108,60 -310,114 -430,90 -22,-4 -18,-3 -18,-30 1,-67 7,-246 -4,-290 -16,1 -19,5 -41,25l-125 102c-10,8 -11,8 -20,15 -98,78 -242,187 -329,262 -74,62 -102,51 -22,112 9,7 10,7 19,16l237 192c8,6 11,10 19,16l125 102c9,8 11,7 20,16l71 59c8,7 33,29 42,29z"/>
 </g>
</svg>
