<?xml version="1.0" encoding="UTF-8"?>
<!DOCTYPE svg PUBLIC "-//W3C//DTD SVG 1.1//EN" "http://www.w3.org/Graphics/SVG/1.1/DTD/svg11.dtd">
<!-- Creator: CorelDRAW X7 -->
<svg xmlns="http://www.w3.org/2000/svg" xml:space="preserve" width="2.16535in" height="2.16535in" version="1.1" style="shape-rendering:geometricPrecision; text-rendering:geometricPrecision; image-rendering:optimizeQuality; fill-rule:evenodd; clip-rule:evenodd"
viewBox="0 0 2165 2165"
 xmlns:xlink="http://www.w3.org/1999/xlink">
 <defs>
  <style type="text/css">
   <![CDATA[
    .fil0 {fill:black}
   ]]>
  </style>
 </defs>
 <g id="Layer_x0020_1">
  <metadata id="CorelCorpID_0Corel-Layer"/>
  <path class="fil0" d="M1779 591c0,126 -103,229 -230,229 -126,0 -229,-103 -229,-229 0,-127 103,-230 229,-230 127,0 230,103 230,230zm-848 -493c-11,0 -14,3 -14,13l0 273c-37,1 -135,18 -172,27 -101,24 -202,65 -286,120 -122,81 -215,192 -279,323 -35,73 -82,210 -82,314 16,-10 22,-20 34,-37 33,-49 48,-61 81,-101 29,-36 94,-99 131,-127 37,-28 91,-67 130,-89 108,-59 311,-114 430,-90 22,4 18,4 18,30 -1,67 -7,247 4,290 17,-1 20,-4 42,-24l125 -102c9,-8 11,-8 20,-16 51,-40 115,-90 177,-139 -39,-47 -62,-108 -62,-174 0,-74 29,-140 76,-190l-97 -78c-8,-6 -10,-10 -18,-17l-126 -102c-8,-7 -10,-7 -19,-15l-72 -60c-8,-6 -33,-29 -41,-29zm411 1347l-73 -3c-37,-5 -25,-3 -25,-125 0,-59 8,-146 -5,-196 -16,1 -19,5 -41,25 -13,11 -22,17 -36,29l-219 175c-24,20 -47,39 -73,58l-183 146c-64,48 -26,44 34,99 13,11 23,17 36,29l126 103c63,56 176,138 239,194 10,9 104,88 113,88 10,0 13,-3 13,-13l0 -273c135,-2 346,-73 458,-147 44,-28 75,-56 111,-90 135,-129 250,-356 250,-547 -14,9 -79,96 -97,117 -43,53 -93,104 -146,146 -41,34 -85,62 -131,89 -92,53 -234,96 -351,96z"/>
 </g>
</svg>
