<?xml version="1.0" encoding="UTF-8"?>
<!DOCTYPE svg PUBLIC "-//W3C//DTD SVG 1.1//EN" "http://www.w3.org/Graphics/SVG/1.1/DTD/svg11.dtd">
<!-- Creator: CorelDRAW X7 -->
<svg xmlns="http://www.w3.org/2000/svg" xml:space="preserve" width="2.16535in" height="2.16535in" version="1.1" style="shape-rendering:geometricPrecision; text-rendering:geometricPrecision; image-rendering:optimizeQuality; fill-rule:evenodd; clip-rule:evenodd"
viewBox="0 0 2165 2165"
 xmlns:xlink="http://www.w3.org/1999/xlink">
 <defs>
  <style type="text/css">
   <![CDATA[
    .fil0 {fill:black}
   ]]>
  </style>
 </defs>
 <g id="Layer_x0020_1">
  <metadata id="CorelCorpID_0Corel-Layer"/>
  <path class="fil0" d="M1909 1023l158 0 -250 475c-7,12 -11,22 -18,34 -6,11 -15,23 -18,37 -19,-14 -93,-164 -111,-200l-145 -273c-7,-12 -11,-22 -18,-34 -7,-12 -15,-23 -16,-39l154 0c0,-126 -63,-270 -126,-361 -13,-19 -19,-29 -34,-45 -14,-15 -25,-27 -39,-43 -207,-225 -546,-257 -803,-71 -18,14 -29,23 -45,36 -139,117 -238,332 -238,522 0,76 4,80 9,144 -57,14 -122,24 -183,35 -66,12 -72,26 -77,-6 -42,-261 46,-600 206,-787l53 -62c75,-83 157,-143 259,-197 234,-122 511,-115 746,-5 107,51 151,96 229,163 113,95 237,309 274,473 8,35 14,61 21,97 3,22 11,83 12,107zm-1285 632c-3,14 -63,99 -72,113 -15,22 -66,103 -77,112 -36,-20 -111,-96 -136,-130 -8,-10 -14,-14 -22,-25 -38,-49 -58,-79 -90,-136 -16,-30 -48,-90 -56,-125 46,-27 184,-80 238,-111 16,34 13,37 41,89 16,31 31,54 50,80 45,61 119,124 124,133zm356 129l27 0 0 283c-111,0 -205,-13 -303,-53 -23,-10 -53,-21 -76,-33 5,-23 101,-236 106,-259 45,12 110,62 246,62zm458 168l-123 57c-43,19 -92,31 -141,44 -6,-13 -48,-255 -48,-278l98 -32c35,-14 63,-25 91,-45 20,43 41,82 61,125 6,12 10,17 16,30 6,12 10,21 15,32 8,15 29,48 31,67z"/>
 </g>
</svg>
