<?xml version="1.0" encoding="UTF-8"?>
<!DOCTYPE svg PUBLIC "-//W3C//DTD SVG 1.1//EN" "http://www.w3.org/Graphics/SVG/1.1/DTD/svg11.dtd">
<!-- Creator: CorelDRAW X7 -->
<svg xmlns="http://www.w3.org/2000/svg" xml:space="preserve" width="2.16535in" height="2.16535in" version="1.1" style="shape-rendering:geometricPrecision; text-rendering:geometricPrecision; image-rendering:optimizeQuality; fill-rule:evenodd; clip-rule:evenodd"
viewBox="0 0 2165 2165"
 xmlns:xlink="http://www.w3.org/1999/xlink">
 <defs>
  <style type="text/css">
   <![CDATA[
    .fil0 {fill:black}
   ]]>
  </style>
 </defs>
 <g id="Layer_x0020_1">
  <metadata id="CorelCorpID_0Corel-Layer"/>
  <path class="fil0" d="M257 1023l-159 0 250 475c7,12 11,22 18,34 7,11 15,23 18,37 19,-14 93,-164 112,-200l144 -273c7,-12 11,-22 18,-34 7,-12 15,-23 17,-39l-154 0c0,-126 62,-270 125,-361 13,-19 19,-29 34,-45 14,-15 26,-27 40,-43 206,-225 546,-257 802,-71 19,14 29,23 46,36 138,117 237,332 237,522 0,76 -4,80 -9,144 57,14 122,24 183,35 66,12 72,26 77,-6 43,-261 -46,-600 -206,-787l-52 -62c-76,-83 -157,-143 -260,-197 -233,-122 -510,-115 -746,-5 -107,51 -151,96 -229,163 -113,95 -236,309 -274,473 -8,35 -14,61 -20,97 -4,22 -12,83 -12,107zm1284 632c4,14 63,99 73,113 15,22 65,103 77,112 35,-20 110,-96 136,-130 7,-10 13,-14 21,-25 38,-49 59,-79 90,-136 17,-30 49,-90 56,-125 -46,-27 -183,-80 -237,-111 -17,34 -14,37 -42,89 -16,31 -31,54 -50,80 -45,61 -118,124 -124,133zm-356 129l-26 0 0 283c110,0 205,-13 302,-53 24,-10 53,-21 76,-33 -5,-23 -101,-236 -106,-259 -45,12 -110,62 -246,62zm-458 168l124 57c43,19 91,31 140,44 6,-13 49,-255 49,-278l-99 -32c-35,-14 -63,-25 -90,-45 -21,43 -42,82 -62,125 -6,12 -10,17 -16,30 -6,12 -9,21 -15,32 -8,15 -29,48 -31,67z"/>
 </g>
</svg>
