<?xml version="1.0" encoding="UTF-8"?>
<!DOCTYPE svg PUBLIC "-//W3C//DTD SVG 1.1//EN" "http://www.w3.org/Graphics/SVG/1.1/DTD/svg11.dtd">
<!-- Creator: CorelDRAW X7 -->
<svg xmlns="http://www.w3.org/2000/svg" xml:space="preserve" width="2.16535in" height="2.16535in" version="1.1" style="shape-rendering:geometricPrecision; text-rendering:geometricPrecision; image-rendering:optimizeQuality; fill-rule:evenodd; clip-rule:evenodd"
viewBox="0 0 2165 2165"
 xmlns:xlink="http://www.w3.org/1999/xlink">
 <defs>
  <style type="text/css">
   <![CDATA[
    .fil0 {fill:black}
   ]]>
  </style>
 </defs>
 <g id="Layer_x0020_1">
  <metadata id="CorelCorpID_0Corel-Layer"/>
  <path class="fil0" d="M223 231l120 0 0 220 -120 -1 0 -182 0 -37zm-125 0l0 211c0,67 66,137 129,137l1350 0c52,0 120,-73 120,-128l0 -220c0,-61 -68,-133 -128,-133l-1346 0c-56,0 -125,74 -125,133zm246 568l0 219 -121 0 0 -215 121 -4zm-246 0l0 219c0,21 9,37 16,50 14,29 36,49 63,65 15,8 29,14 50,14l972 0c8,0 39,-32 46,-39 73,-69 198,-123 297,-131 51,-4 108,-4 155,8 0,-62 9,-174 -7,-220 -15,-45 -65,-99 -121,-99l-1346 0c-56,0 -125,73 -125,133zm125 758l0 -191 121 0 -1 220 -120 0 0 -29zm-125 -191l0 220c0,42 39,93 79,115 16,8 28,13 50,13l832 0c0,-34 -15,-61 -15,-174 0,-119 48,-234 93,-306l-871 0c-58,0 -82,1 -114,32 -22,21 -54,58 -54,100zm1191 170l0 -37 245 0 0 -265 124 0 0 265 246 0 0 128 -246 0 0 266 -124 0 0 -266 -245 0 0 -91zm-167 25c0,395 426,671 770,394 12,-10 19,-19 30,-30 84,-81 145,-217 145,-339 0,-135 -20,-210 -86,-314 -22,-34 -41,-56 -69,-81 -6,-5 -8,-9 -13,-14l-67 -50c-242,-139 -515,-57 -648,189 -8,14 -14,24 -21,41 -22,54 -41,129 -41,204z"/>
 </g>
</svg>
