<?xml version="1.0" encoding="UTF-8"?>
<!DOCTYPE svg PUBLIC "-//W3C//DTD SVG 1.1//EN" "http://www.w3.org/Graphics/SVG/1.1/DTD/svg11.dtd">
<!-- Creator: CorelDRAW X7 -->
<svg xmlns="http://www.w3.org/2000/svg" xml:space="preserve" width="2.16535in" height="2.16535in" version="1.1" style="shape-rendering:geometricPrecision; text-rendering:geometricPrecision; image-rendering:optimizeQuality; fill-rule:evenodd; clip-rule:evenodd"
viewBox="0 0 2165 2165"
 xmlns:xlink="http://www.w3.org/1999/xlink">
 <defs>
  <style type="text/css">
   <![CDATA[
    .fil0 {fill:black}
   ]]>
  </style>
 </defs>
 <g id="Layer_x0020_1">
  <metadata id="CorelCorpID_0Corel-Layer"/>
  <path class="fil0" d="M1152 196c218,17 414,112 560,258 145,145 241,341 258,559l97 0 0 139 -97 0c-17,218 -113,414 -258,560 -146,145 -342,241 -560,258l0 97 -139 0 0 -97c-218,-17 -414,-113 -559,-258 -146,-146 -241,-342 -258,-560l-98 0 0 -139 98 0c17,-218 112,-414 258,-559 145,-146 341,-241 559,-258l0 -98 139 0 0 98zm-817 817l678 0 0 -678c-179,17 -341,96 -461,217 -121,120 -200,282 -217,461zm1495 139l-678 0 0 678c180,-16 341,-96 462,-216 120,-121 200,-282 216,-462z"/>
 </g>
</svg>
