<?xml version="1.0" encoding="UTF-8"?>
<!DOCTYPE svg PUBLIC "-//W3C//DTD SVG 1.1//EN" "http://www.w3.org/Graphics/SVG/1.1/DTD/svg11.dtd">
<!-- Creator: CorelDRAW X7 -->
<svg xmlns="http://www.w3.org/2000/svg" xml:space="preserve" width="2.16535in" height="2.16535in" version="1.1" style="shape-rendering:geometricPrecision; text-rendering:geometricPrecision; image-rendering:optimizeQuality; fill-rule:evenodd; clip-rule:evenodd"
viewBox="0 0 2165 2165"
 xmlns:xlink="http://www.w3.org/1999/xlink">
 <defs>
  <style type="text/css">
   <![CDATA[
    .fil0 {fill:black}
   ]]>
  </style>
 </defs>
 <g id="Layer_x0020_1">
  <metadata id="CorelCorpID_0Corel-Layer"/>
  <path class="fil0" d="M1183 1604c0,123 17,184 80,278 15,22 30,38 48,57 10,9 16,16 26,24 11,9 18,17 30,25 90,61 169,79 279,79 107,0 217,-53 291,-127 20,-20 32,-31 48,-55 68,-100 82,-157 82,-281 0,-166 -114,-320 -263,-386 -188,-85 -409,-24 -535,143 -17,23 -27,41 -42,67 -23,42 -44,123 -44,176zm216 -54l151 0 0 -151 150 0 0 139c0,9 3,12 12,12l139 0 0 150 -139 0c-9,0 -12,3 -12,12l0 139 -150 0 0 -151 -151 0 0 -150zm-1301 -1262l0 1254c0,61 22,123 61,163 31,32 90,72 152,72l737 0 -12 -73c-2,-23 -7,-57 -7,-81 -71,0 -694,5 -727,-6 -28,-10 -49,-42 -49,-79l0 -930c0,-55 0,-80 26,-105 23,-23 73,-22 109,-22l1285 0c15,0 32,-1 47,-1 19,1 21,4 42,5 37,0 55,2 72,23 25,30 17,122 17,177 0,129 0,257 0,386 24,16 52,28 79,44 27,16 49,35 75,49 0,-160 0,-319 0,-479 0,-73 7,-172 -16,-223 -23,-47 -71,-99 -120,-119 -58,-23 -145,-17 -223,-17 -73,0 -668,9 -710,-11 0,-43 -7,-61 -22,-91 -38,-76 -112,-126 -213,-126l-386 0c-62,0 -108,31 -142,59 -31,27 -75,102 -75,131z"/>
 </g>
</svg>
