<?xml version="1.0" encoding="UTF-8"?>
<!DOCTYPE svg PUBLIC "-//W3C//DTD SVG 1.1//EN" "http://www.w3.org/Graphics/SVG/1.1/DTD/svg11.dtd">
<!-- Creator: CorelDRAW X7 -->
<svg xmlns="http://www.w3.org/2000/svg" xml:space="preserve" width="2.16535in" height="2.16535in" version="1.1" style="shape-rendering:geometricPrecision; text-rendering:geometricPrecision; image-rendering:optimizeQuality; fill-rule:evenodd; clip-rule:evenodd"
viewBox="0 0 2165 2165"
 xmlns:xlink="http://www.w3.org/1999/xlink">
 <defs>
  <style type="text/css">
   <![CDATA[
    .fil0 {fill:black}
   ]]>
  </style>
 </defs>
 <g id="Layer_x0020_1">
  <metadata id="CorelCorpID_0Corel-Layer"/>
  <path class="fil0" d="M680 862c-9,-160 18,-326 76,-447 51,-104 134,-218 257,-246 70,-15 144,1 197,35 58,38 89,76 126,128 229,322 134,1010 -213,1089 -152,35 -264,-80 -319,-162 -65,-96 -114,-244 -124,-397zm343 -760c-392,67 -529,796 -265,1195 190,287 502,247 663,-67 140,-273 130,-688 -41,-940 -37,-55 -80,-103 -141,-141 -60,-38 -138,-60 -216,-47zm-382 1282c31,-81 -3,-129 -78,-114 -55,-74 -161,-302 -197,-389 -51,-124 -155,-413 -190,-556 -4,-15 -10,-46 -19,-53 -24,-17 -36,10 -30,34 40,178 169,525 229,664 39,88 100,211 148,292 3,5 25,37 26,44 3,19 -12,33 4,67 8,15 19,28 36,34 32,10 26,-9 49,22 315,422 667,304 941,-84 78,-110 151,-228 219,-366 107,-218 182,-389 266,-621 6,-17 15,-34 20,-52 7,-24 -6,-50 -29,-34 -7,5 -118,293 -128,316 -97,234 -166,379 -292,592 -26,44 -87,137 -118,173 -34,39 -64,84 -101,117 -12,12 -24,24 -37,36 -91,84 -236,177 -400,131 -104,-29 -181,-95 -252,-172 -22,-23 -52,-54 -67,-81zm-116 530c-81,18 -386,75 -427,122l4 29c29,9 76,-16 106,-25 86,-26 249,-71 329,-77 26,52 99,45 114,-19 314,-24 403,-41 733,-9 161,16 338,50 495,93 37,10 128,47 158,36 16,-43 -9,-43 -43,-53 -430,-130 -905,-181 -1345,-116 -28,-50 -70,-58 -105,-20 -12,12 -11,23 -19,39zm720 -859c-12,101 -94,189 -199,173 -89,-14 -167,-109 -151,-230 13,-100 98,-186 201,-169 86,14 163,109 149,226zm-217 -288c-117,25 -213,150 -188,309 21,132 132,240 269,214 112,-21 215,-146 191,-308 -19,-130 -133,-246 -272,-215z"/>
 </g>
</svg>
