<?xml version="1.0" encoding="UTF-8"?>
<!DOCTYPE svg PUBLIC "-//W3C//DTD SVG 1.1//EN" "http://www.w3.org/Graphics/SVG/1.1/DTD/svg11.dtd">
<!-- Creator: CorelDRAW X7 -->
<svg xmlns="http://www.w3.org/2000/svg" xml:space="preserve" width="2.16535in" height="2.16535in" version="1.1" style="shape-rendering:geometricPrecision; text-rendering:geometricPrecision; image-rendering:optimizeQuality; fill-rule:evenodd; clip-rule:evenodd"
viewBox="0 0 2165 2165"
 xmlns:xlink="http://www.w3.org/1999/xlink">
 <defs>
  <style type="text/css">
   <![CDATA[
    .fil0 {fill:black}
   ]]>
  </style>
 </defs>
 <g id="Layer_x0020_1">
  <metadata id="CorelCorpID_0Corel-Layer"/>
  <path class="fil0" d="M1056 222c0,93 25,86 53,130 -42,22 -29,12 -49,54 -110,0 -325,-11 -415,8 -112,23 -183,125 -183,250l0 635c0,69 17,126 48,165 23,29 80,82 127,83l0 89c-101,24 -85,189 20,189l1138 0c20,0 46,-19 57,-31 44,-47 27,-124 -30,-151 -32,-15 -27,8 -27,-86l34 0 0 -1136c0,-25 -65,-15 -112,-15l-384 0c-3,-34 -28,-54 -63,-54 107,-96 60,-254 -93,-254 -58,0 -121,65 -121,124zm826 1335l48 0c71,0 137,-105 137,-223l0 -710c0,-67 -23,-119 -50,-160 -47,-71 -66,-58 -135,-58l0 1151zm-1571 -938l0 715c0,57 50,103 107,104l0 -923c-60,0 -107,46 -107,104zm-111 263c-46,0 56,0 11,0 -130,0 -112,-10 -112,129 0,23 12,35 34,35l67 0c0,40 1,60 48,60 29,0 39,-20 39,-50l0 -174c0,-54 -82,-63 -87,0zm445 1011l1154 0c42,0 76,33 76,75l0 24c0,41 -34,75 -76,75l-1154 0c-42,0 -75,-34 -75,-75l0 -24c0,-42 33,-75 75,-75z"/>
 </g>
</svg>
