<?xml version="1.0" encoding="UTF-8"?>
<!DOCTYPE svg PUBLIC "-//W3C//DTD SVG 1.1//EN" "http://www.w3.org/Graphics/SVG/1.1/DTD/svg11.dtd">
<!-- Creator: CorelDRAW X7 -->
<svg xmlns="http://www.w3.org/2000/svg" xml:space="preserve" width="2.16535in" height="2.16535in" version="1.1" style="shape-rendering:geometricPrecision; text-rendering:geometricPrecision; image-rendering:optimizeQuality; fill-rule:evenodd; clip-rule:evenodd"
viewBox="0 0 2165 2165"
 xmlns:xlink="http://www.w3.org/1999/xlink">
 <defs>
  <style type="text/css">
   <![CDATA[
    .fil0 {fill:black}
   ]]>
  </style>
 </defs>
 <g id="Layer_x0020_1">
  <metadata id="CorelCorpID_0Corel-Layer"/>
  <path class="fil0" d="M1144 1298c-175,33 -276,-91 -250,-283l250 283zm-858 -215c105,-200 169,-269 300,-410l207 227c-16,76 -49,159 -31,259 45,258 302,348 484,247l190 217c-129,48 -194,109 -370,106 -141,-3 -247,-55 -346,-116 -143,-91 -389,-378 -434,-530zm-85 -832l261 283 -150 182c-58,73 -146,225 -194,322 -33,68 -21,65 14,127 237,425 657,913 1222,697 79,-30 150,-85 208,-107l278 312c40,-21 116,-106 134,-147 -137,-116 -1570,-1770 -1650,-1822 -39,32 -103,95 -123,153zm546 82l120 145c285,-75 427,-47 636,120 80,64 163,138 217,217 44,64 142,188 169,271l-198 314c49,35 68,85 121,116 294,-460 333,-372 121,-701 -79,-122 -237,-303 -351,-384 -72,-50 -146,-96 -236,-130 -255,-97 -390,-36 -599,32zm671 749c-12,-216 -134,-357 -329,-368 35,66 110,133 162,190 44,48 122,147 167,178z"/>
 </g>
</svg>
