<?xml version="1.0" encoding="UTF-8"?>
<!DOCTYPE svg PUBLIC "-//W3C//DTD SVG 1.1//EN" "http://www.w3.org/Graphics/SVG/1.1/DTD/svg11.dtd">
<!-- Creator: CorelDRAW X7 -->
<svg xmlns="http://www.w3.org/2000/svg" xml:space="preserve" width="2.16535in" height="2.16535in" version="1.1" style="shape-rendering:geometricPrecision; text-rendering:geometricPrecision; image-rendering:optimizeQuality; fill-rule:evenodd; clip-rule:evenodd"
viewBox="0 0 2165 2165"
 xmlns:xlink="http://www.w3.org/1999/xlink">
 <defs>
  <style type="text/css">
   <![CDATA[
    .fil0 {fill:black}
   ]]>
  </style>
 </defs>
 <g id="Layer_x0020_1">
  <metadata id="CorelCorpID_0Corel-Layer"/>
  <path class="fil0" d="M282 1093c35,-154 234,-411 305,-499 395,-491 853,-275 1155,206 25,40 140,230 140,278 1,82 -361,761 -787,773 -372,10 -689,-450 -813,-758zm1781 16c49,-132 -340,-720 -611,-892 -363,-231 -697,-104 -972,206 -98,112 -319,436 -378,639 -17,61 29,129 58,190 28,58 56,111 87,165 187,331 481,639 813,650 476,15 852,-554 1003,-958zm-1014 -238c89,-31 177,53 195,150 24,133 -38,250 -115,274 -216,68 -306,-347 -80,-424zm-20 -216c-440,112 -317,969 123,856 158,-40 298,-258 256,-520 -33,-203 -189,-385 -379,-336z"/>
 </g>
</svg>
