<?xml version="1.0" encoding="UTF-8"?>
<!DOCTYPE svg PUBLIC "-//W3C//DTD SVG 1.1//EN" "http://www.w3.org/Graphics/SVG/1.1/DTD/svg11.dtd">
<!-- Creator: CorelDRAW X7 -->
<svg xmlns="http://www.w3.org/2000/svg" xml:space="preserve" width="2.16535in" height="2.16535in" version="1.1" style="shape-rendering:geometricPrecision; text-rendering:geometricPrecision; image-rendering:optimizeQuality; fill-rule:evenodd; clip-rule:evenodd"
viewBox="0 0 2165 2165"
 xmlns:xlink="http://www.w3.org/1999/xlink">
 <defs>
  <style type="text/css">
   <![CDATA[
    .fil0 {fill:black}
   ]]>
  </style>
 </defs>
 <g id="Layer_x0020_1">
  <metadata id="CorelCorpID_0Corel-Layer"/>
  <path class="fil0" d="M409 1224c0,-64 51,-110 111,-110l1125 0c61,0 111,47 111,110l0 684 -1347 0 0 -684zm-311 -931l0 1580c0,110 78,194 167,194l1636 0c87,0 166,-83 166,-194l0 -1099c0,-36 -10,-78 -22,-102l-257 -474c-41,-71 -33,-55 -194,-55 -15,0 -24,3 -34,8 -19,85 7,473 -8,522 -12,38 -47,79 -94,79l-750 0c-47,0 -88,-44 -97,-86 -5,-25 -1,-504 -1,-554 -9,-6 -11,-14 -22,-14l-323 0c-88,0 -167,83 -167,195zm695 -84l0 366c0,27 20,40 47,40l174 0c21,0 47,-12 47,-31l0 -380c0,-22 -17,-35 -38,-35l-183 0c-27,0 -47,13 -47,40zm-200 1218l980 0 0 -119 -980 0 0 119zm0 309l980 0 0 -119 -980 0 0 119z"/>
 </g>
</svg>
