<?xml version="1.0" encoding="UTF-8"?>
<!DOCTYPE svg PUBLIC "-//W3C//DTD SVG 1.1//EN" "http://www.w3.org/Graphics/SVG/1.1/DTD/svg11.dtd">
<!-- Creator: CorelDRAW X7 -->
<svg xmlns="http://www.w3.org/2000/svg" xml:space="preserve" width="2.16535in" height="2.16535in" version="1.1" style="shape-rendering:geometricPrecision; text-rendering:geometricPrecision; image-rendering:optimizeQuality; fill-rule:evenodd; clip-rule:evenodd"
viewBox="0 0 2165 2165"
 xmlns:xlink="http://www.w3.org/1999/xlink">
 <defs>
  <style type="text/css">
   <![CDATA[
    .fil0 {fill:black}
   ]]>
  </style>
 </defs>
 <g id="Layer_x0020_1">
  <metadata id="CorelCorpID_0Corel-Layer"/>
  <path class="fil0" d="M1086 1568c0,36 1,41 4,73 2,11 4,28 7,38l3 13c3,12 9,34 13,46 3,7 5,15 9,22l16 36c2,5 5,10 8,15 4,7 8,15 12,21l11 17c7,12 16,24 25,35l63 65 16 13c10,8 20,15 31,22l23 15c6,4 27,15 34,19l43 18c3,1 7,2 11,4 14,6 37,11 52,15 2,0 4,1 6,1 8,2 17,3 26,5 16,3 51,6 69,6 36,0 41,0 73,-4l51 -9 23 -7c8,-2 16,-4 23,-7 7,-3 15,-5 22,-8l21 -10c18,-8 32,-15 49,-25 1,-1 2,-1 3,-2 1,0 1,-1 2,-1l31 -22c4,-2 6,-4 9,-6l9 -7c1,-1 2,-2 4,-3l6 -5c7,-7 15,-13 22,-20l18 -19c2,-1 2,-2 4,-4 5,-4 10,-10 14,-16l26 -34c2,-1 2,-3 3,-4l9 -14c1,-1 2,-2 3,-4l17 -29c5,-10 10,-20 15,-30l11 -27c5,-13 7,-22 11,-34 7,-22 13,-52 16,-75 3,-25 4,-46 4,-73 0,-10 -1,-19 -1,-29 0,-12 -7,-53 -10,-65 0,-3 0,-4 -1,-6l-9 -36c-3,-10 -10,-29 -14,-39l-14 -31c-2,-5 -5,-10 -8,-15 -4,-9 -9,-18 -15,-26l-16 -26c-2,-1 -2,-3 -3,-4 -2,-2 -2,-3 -4,-4 -5,-8 -11,-14 -16,-22 -2,-1 -2,-2 -4,-4 0,-1 0,-1 -1,-2 -4,-5 -8,-10 -13,-14l-7 -8c-1,-1 -2,-2 -4,-3l-7 -8c-2,-1 -3,-2 -4,-4 -4,-3 -7,-7 -12,-11 -5,-4 -10,-9 -16,-13l-12 -10c-2,-1 -3,-2 -4,-4 -2,-1 -3,-2 -5,-3 -12,-8 -23,-17 -36,-24l-34 -19c-5,-3 -10,-5 -15,-7 -5,-2 -11,-5 -16,-7l-16 -7c-9,-3 -18,-6 -28,-9 -11,-4 -24,-7 -36,-10 -14,-3 -30,-6 -45,-8 -25,-3 -46,-4 -73,-4 -12,0 -23,0 -35,2 -10,1 -24,2 -34,4 -4,1 -8,1 -12,2l-55 13c-2,1 -4,2 -6,2l-22 8c-12,5 -21,8 -32,14l-25 12c-8,4 -16,9 -24,13l-16 11c-13,8 -25,17 -37,27l-13 10c-1,1 -1,1 -2,2 0,0 -1,1 -2,2l-27 25c-5,7 -12,13 -18,20l-17 20c-1,2 -2,3 -3,4l-22 31c-4,6 -8,13 -12,19 -5,8 -10,20 -16,29l-20 47 -8 22c-5,14 -8,28 -12,42l-6 32c-1,4 -1,9 -2,13 -2,18 -4,36 -4,56zm185 -1210l214 -98 184 184 -92 214 33 94 221 83 0 260 -6 2 -17 -9c-5,-3 -11,-6 -17,-8 -5,-3 -12,-6 -17,-8l-18 -7c-10,-4 -20,-7 -30,-11 -13,-4 -26,-7 -39,-10 -16,-4 -33,-7 -50,-9 -28,-3 -50,-4 -79,-4 -14,0 -26,0 -39,2 -11,1 -26,2 -37,4 -4,1 -9,2 -14,3l-59 14c-3,1 -4,1 -7,2l-24 9c-8,3 -15,6 -22,9 9,-35 15,-71 15,-109 0,-225 -182,-406 -406,-406 -225,0 -406,181 -406,406 0,224 181,406 406,406 38,0 74,-5 109,-15l-9 22 -9 24c-5,15 -9,30 -12,45l-7 35c-1,4 -1,10 -2,14 -2,20 -4,40 -4,62 0,39 0,44 4,79 1,12 4,31 7,43l3 13c3,14 10,38 15,51 3,8 6,16 9,24l18 39c3,6 5,12 9,17l1 2 -2 5 -260 0 -87 -216 -89 -44 -215 98 -184 -183 92 -215 -32 -94 -222 -82 0 -260 217 -87 43 -89 -98 -215 184 -184 214 92 94 -32 83 -222 259 0 87 217 90 43zm-2 1530c3,4 25,23 28,26 10,8 20,16 31,23 20,14 45,29 70,39 58,25 112,38 179,38 34,0 66,-4 97,-10 30,-7 55,-17 81,-28 38,-15 85,-47 115,-75 3,-3 12,-10 14,-13 -1,-5 -7,-17 -10,-22 -9,-19 -25,-44 -37,-59l-15 -17c-3,-3 -5,-6 -8,-9 -4,-4 -9,-9 -12,-11 -5,-6 -25,-22 -31,-26 -125,-88 -290,-82 -407,14 -6,5 -11,10 -17,15 -9,9 -22,24 -30,34 -12,14 -29,40 -38,58 -2,5 -9,18 -10,23zm297 -609c-26,2 -48,8 -69,19 -18,10 -35,22 -49,38 -13,13 -26,32 -34,53 -9,23 -14,48 -12,76 2,25 8,49 18,68 6,10 11,19 17,27 4,4 7,8 10,12 15,17 41,36 65,45 22,8 48,14 75,12 26,-2 49,-8 69,-19 19,-10 36,-22 50,-38 12,-14 25,-32 33,-53 9,-23 14,-49 12,-76 -1,-25 -8,-49 -18,-68 -5,-10 -11,-19 -17,-27 -3,-4 -7,-8 -10,-12 -2,-2 -3,-4 -5,-6 -16,-15 -35,-30 -60,-39 -22,-8 -48,-14 -75,-12z"/>
 </g>
</svg>
