<?xml version="1.0" encoding="UTF-8"?>
<!DOCTYPE svg PUBLIC "-//W3C//DTD SVG 1.1//EN" "http://www.w3.org/Graphics/SVG/1.1/DTD/svg11.dtd">
<!-- Creator: CorelDRAW X7 -->
<svg xmlns="http://www.w3.org/2000/svg" xml:space="preserve" width="2.16535in" height="2.16535in" version="1.1" style="shape-rendering:geometricPrecision; text-rendering:geometricPrecision; image-rendering:optimizeQuality; fill-rule:evenodd; clip-rule:evenodd"
viewBox="0 0 2165 2165"
 xmlns:xlink="http://www.w3.org/1999/xlink">
 <defs>
  <style type="text/css">
   <![CDATA[
    .fil0 {fill:black}
   ]]>
  </style>
 </defs>
 <g id="Layer_x0020_1">
  <metadata id="CorelCorpID_0Corel-Layer"/>
  <path class="fil0" d="M1737 1520c87,-17 182,8 249,76 108,108 108,282 0,390 -108,108 -282,108 -390,0 -67,-67 -92,-162 -75,-249l-837 -838c-143,55 -322,3 -436,-111 -113,-113 -202,-484 -113,-395l227 227 195 -65 65 -195c-76,-76 -152,-152 -228,-227 -88,-89 294,12 396,113 127,128 169,292 110,436l837 838zm-314 240l-241 -239c-32,7 -65,11 -99,11 -249,0 -451,-201 -451,-449 0,-33 3,-63 10,-93 -29,5 -57,7 -89,7 -124,0 -232,-42 -300,-110l-131 52 0 287 245 92 36 103 -102 238 204 203 238 -109 100 48 96 240 288 0 91 -245 105 -36zm100 -581l234 240 1 -3 45 -94 241 -96 0 -287 -246 -91 -36 -104 102 -237 -204 -203 -238 108 -99 -48 -96 -239 -288 0 -38 100c74,80 117,201 117,337 0,27 -2,51 -6,77 23,-3 47,-5 71,-5 249,0 450,201 450,449 0,32 -4,65 -10,96zm187 531c-45,44 -45,117 0,162 45,45 118,45 162,0 45,-45 45,-117 0,-162 -44,-45 -117,-45 -162,0z"/>
 </g>
</svg>
