<?xml version="1.0" encoding="UTF-8"?>
<!DOCTYPE svg PUBLIC "-//W3C//DTD SVG 1.1//EN" "http://www.w3.org/Graphics/SVG/1.1/DTD/svg11.dtd">
<!-- Creator: CorelDRAW X7 -->
<svg xmlns="http://www.w3.org/2000/svg" xml:space="preserve" width="2.16535in" height="2.16535in" version="1.1" style="shape-rendering:geometricPrecision; text-rendering:geometricPrecision; image-rendering:optimizeQuality; fill-rule:evenodd; clip-rule:evenodd"
viewBox="0 0 2165 2165"
 xmlns:xlink="http://www.w3.org/1999/xlink">
 <defs>
  <style type="text/css">
   <![CDATA[
    .fil0 {fill:black}
   ]]>
  </style>
 </defs>
 <g id="Layer_x0020_1">
  <metadata id="CorelCorpID_0Corel-Layer"/>
  <path class="fil0" d="M1602 1251c0,-248 -132,-466 -331,-589l-257 541c7,16 11,32 11,50 0,34 -15,65 -38,88l32 596c331,-58 583,-343 583,-686zm-694 784l-35 -661c-57,-12 -99,-62 -99,-121 0,-68 56,-124 125,-124 7,0 14,1 21,2l285 -602c-44,-19 -90,-33 -137,-43 -56,-13 -114,-19 -173,-19 -220,0 -419,88 -563,230 -144,142 -234,338 -234,554 0,217 90,413 234,555 144,142 343,230 563,230l13 -1zm-7 -853c41,0 73,32 73,72 0,40 -32,72 -73,72 -41,0 -73,-32 -73,-72 0,-40 32,-72 73,-72zm816 -35l150 0 0 -837 200 0 0 1757 -200 0 0 -711 -150 0 0 -209zm-90 -585l-139 -371c31,18 62,30 93,36l0 -129 91 0 0 129c31,-6 62,-18 93,-36l-138 371z"/>
 </g>
</svg>
