<?xml version="1.0" encoding="UTF-8"?>
<!DOCTYPE svg PUBLIC "-//W3C//DTD SVG 1.1//EN" "http://www.w3.org/Graphics/SVG/1.1/DTD/svg11.dtd">
<!-- Creator: CorelDRAW X7 -->
<svg xmlns="http://www.w3.org/2000/svg" xml:space="preserve" width="2.16535in" height="2.16535in" version="1.1" style="shape-rendering:geometricPrecision; text-rendering:geometricPrecision; image-rendering:optimizeQuality; fill-rule:evenodd; clip-rule:evenodd"
viewBox="0 0 2165 2165"
 xmlns:xlink="http://www.w3.org/1999/xlink">
 <defs>
  <style type="text/css">
   <![CDATA[
    .fil0 {fill:black}
   ]]>
  </style>
 </defs>
 <g id="Layer_x0020_1">
  <metadata id="CorelCorpID_0Corel-Layer"/>
  <path class="fil0" d="M1149 995c53,0 96,41 96,91 0,50 -43,90 -96,90 -53,0 -96,-40 -96,-90 0,-50 43,-91 96,-91zm9 1072l-46 -831c-74,-15 -130,-77 -130,-151 0,-86 74,-156 165,-156 9,0 18,1 27,3l373 -756c-58,-23 -118,-42 -180,-54 -73,-16 -149,-24 -226,-24 -288,0 -549,111 -737,289 -189,178 -306,424 -306,696 0,272 117,518 306,696 188,178 449,288 737,288l17 0zm909 -984c0,-312 -173,-586 -434,-740l-336 679c9,19 14,40 14,63 0,43 -19,82 -49,110l41 748c434,-72 764,-430 764,-860z"/>
 </g>
</svg>
