<?xml version="1.0" encoding="UTF-8"?>
<!DOCTYPE svg PUBLIC "-//W3C//DTD SVG 1.1//EN" "http://www.w3.org/Graphics/SVG/1.1/DTD/svg11.dtd">
<!-- Creator: CorelDRAW X7 -->
<svg xmlns="http://www.w3.org/2000/svg" xml:space="preserve" width="2.16535in" height="2.16535in" version="1.1" style="shape-rendering:geometricPrecision; text-rendering:geometricPrecision; image-rendering:optimizeQuality; fill-rule:evenodd; clip-rule:evenodd"
viewBox="0 0 2165 2165"
 xmlns:xlink="http://www.w3.org/1999/xlink">
 <defs>
  <style type="text/css">
   <![CDATA[
    .fil0 {fill:black}
   ]]>
  </style>
 </defs>
 <g id="Layer_x0020_1">
  <metadata id="CorelCorpID_0Corel-Layer"/>
  <path class="fil0" d="M141 140l913 0 0 940 -913 0 0 -940zm-43 -21l0 984c0,12 10,21 21,21l956 0c12,0 20,-8 20,-21l0 -988c0,-7 -9,-17 -16,-17l-965 0c-8,0 -16,12 -16,21zm106 924l70 0c33,0 35,-44 0,-44l-54 0c0,-101 30,-213 67,-303l14 -31c30,-52 67,-123 109,-167l22 -26c15,10 41,49 59,49 15,0 20,-12 20,-24 0,-12 -15,-23 -22,-30 -9,-9 -19,-17 -25,-27 7,-6 16,-14 23,-21 33,-34 117,-89 162,-112 52,-26 108,-47 165,-61 25,-7 50,-11 76,-15 24,-4 57,-7 83,-7 0,43 -7,81 23,81 14,0 20,-11 20,-26l0 -76c0,-12 -10,-23 -20,-23 -86,0 -190,17 -269,46 -13,5 -24,9 -37,15 -47,19 -97,44 -138,73 -6,4 -11,7 -17,11 -47,33 -89,72 -129,113 -10,9 -16,18 -25,28 -20,22 -53,69 -68,92 -68,104 -114,230 -128,355 -2,16 -5,36 -6,51l-2 51c1,19 8,28 27,28zm634 -119c0,-95 115,-76 115,-11l0 11c0,31 -27,54 -63,54 -25,0 -52,-28 -52,-54zm-302 -350l0 74c0,17 7,26 22,26 23,0 21,-25 21,-49l231 237c-10,23 -15,29 -15,58 0,106 142,143 191,43 19,-39 9,-84 -17,-116 -4,-4 -7,-6 -12,-10 -23,-19 -42,-22 -69,-22 -21,0 -34,9 -48,17l-230 -239c36,-1 48,1 48,-28 0,-9 -11,-16 -21,-16l-81 0c-14,0 -20,11 -20,25zm-259 -311l4 0c1,13 11,27 14,40l-32 0c3,-15 10,-25 14,-40zm-79 165c10,0 15,-3 20,-12l27 -69 68 0 17 45c8,22 10,36 32,36 14,0 16,-16 16,-26l-78 -203c-9,-23 -25,-24 -37,-12 -7,7 -42,102 -46,114l-39 100c-2,14 6,27 20,27zm1869 1126c0,-163 -84,-306 -211,-386l-163 354c4,10 7,21 7,33 0,22 -10,42 -24,57l20 390c211,-37 371,-224 371,-448zm-442 513l-22 -433c-36,-8 -63,-41 -63,-79 0,-45 36,-81 80,-81 4,0 9,0 13,1l181 -394c-28,-12 -57,-22 -87,-29 -36,-8 -73,-12 -110,-12 -140,0 -267,58 -358,151 -92,92 -149,221 -149,363 0,141 57,270 149,363 91,93 218,150 358,150l8 0zm-4 -559c26,0 47,21 47,47 0,26 -21,48 -47,48 -26,0 -47,-22 -47,-48 0,-26 21,-47 47,-47z"/>
 </g>
</svg>
