<?xml version="1.0" encoding="UTF-8"?>
<!DOCTYPE svg PUBLIC "-//W3C//DTD SVG 1.1//EN" "http://www.w3.org/Graphics/SVG/1.1/DTD/svg11.dtd">
<!-- Creator: CorelDRAW X7 -->
<svg xmlns="http://www.w3.org/2000/svg" xml:space="preserve" width="2.16535in" height="2.16535in" version="1.1" style="shape-rendering:geometricPrecision; text-rendering:geometricPrecision; image-rendering:optimizeQuality; fill-rule:evenodd; clip-rule:evenodd"
viewBox="0 0 2165 2165"
 xmlns:xlink="http://www.w3.org/1999/xlink">
 <defs>
  <style type="text/css">
   <![CDATA[
    .fil0 {fill:black}
   ]]>
  </style>
 </defs>
 <g id="Layer_x0020_1">
  <metadata id="CorelCorpID_0Corel-Layer"/>
  <path class="fil0" d="M884 1621l-32 -602c-76,-12 -134,-78 -134,-157 0,-88 71,-159 159,-159 12,0 24,1 36,4l259 -549c-43,-18 -88,-32 -133,-42 -55,-12 -111,-18 -168,-18 -213,0 -406,86 -546,223 -140,138 -227,328 -227,539 0,210 87,400 227,538 140,138 333,223 546,223l13 0zm1072 -955l0 475 4 0c36,-7 71,-20 107,-40l-159 419 -159 -419c35,20 71,33 106,40l5 0 0 -475 -5 0c-35,7 -71,20 -106,40l159 -419 159 419c-36,-20 -71,-33 -107,-40l-4 0zm-541 1210c0,38 5,65 15,82 14,24 34,36 60,36 20,0 38,-9 52,-27 15,-18 22,-46 22,-82 0,-40 -7,-69 -21,-87 -14,-17 -32,-26 -54,-26 -21,0 -39,8 -53,26 -14,17 -21,44 -21,78zm238 182l-83 0 0 -51c-14,20 -30,35 -49,45 -18,10 -37,15 -56,15 -39,0 -73,-16 -100,-49 -28,-32 -42,-77 -42,-135 0,-60 14,-105 41,-136 27,-31 61,-46 102,-46 38,0 70,16 98,49l0 -174 89 0 0 482zm-660 -1185l-105 0 0 105c28,-3 53,-15 71,-34 19,-18 31,-43 34,-71zm-232 -22l105 0 0 -105c-27,3 -52,15 -71,34 -19,19 -31,44 -34,71zm127 -126c34,2 64,17 87,40 22,22 37,53 39,86l0 22c-2,34 -17,64 -39,86 -23,23 -53,38 -87,40l-22 0c-33,-2 -64,-17 -86,-40 -23,-22 -38,-52 -40,-86l0 -22c2,-33 17,-64 40,-86 22,-23 53,-38 86,-40l22 0zm669 135c0,-242 -128,-453 -321,-573l-229 483c18,26 29,58 29,92 0,56 -29,106 -73,134l29 529c321,-56 565,-333 565,-665z"/>
 </g>
</svg>
