<?xml version="1.0" encoding="UTF-8"?>
<!DOCTYPE svg PUBLIC "-//W3C//DTD SVG 1.1//EN" "http://www.w3.org/Graphics/SVG/1.1/DTD/svg11.dtd">
<!-- Creator: CorelDRAW X7 -->
<svg xmlns="http://www.w3.org/2000/svg" xml:space="preserve" width="2.16535in" height="2.16535in" version="1.1" style="shape-rendering:geometricPrecision; text-rendering:geometricPrecision; image-rendering:optimizeQuality; fill-rule:evenodd; clip-rule:evenodd"
viewBox="0 0 2165 2165"
 xmlns:xlink="http://www.w3.org/1999/xlink">
 <defs>
  <style type="text/css">
   <![CDATA[
    .fil0 {fill:black;fill-rule:nonzero}
   ]]>
  </style>
 </defs>
 <g id="Layer_x0020_1">
  <metadata id="CorelCorpID_0Corel-Layer"/>
  <path class="fil0" d="M220 342c-67,0 -122,-55 -122,-122 0,-67 55,-122 122,-122l259 0c67,0 122,55 122,122l0 840 305 763 353 0 306 -763 0 -840c0,-67 54,-122 121,-122l259 0c67,0 122,55 122,122 0,67 -55,122 -122,122l-137 0 0 741c0,15 -3,30 -9,45l-341 854c-16,49 -62,85 -117,85l-517 0c-48,0 -94,-29 -113,-77l-341 -854c-8,-16 -13,-34 -13,-53l0 -741 -137 0z"/>
 </g>
</svg>
