<?xml version="1.0" encoding="UTF-8"?>
<!DOCTYPE svg PUBLIC "-//W3C//DTD SVG 1.1//EN" "http://www.w3.org/Graphics/SVG/1.1/DTD/svg11.dtd">
<!-- Creator: CorelDRAW X7 -->
<svg xmlns="http://www.w3.org/2000/svg" xml:space="preserve" width="2.16535in" height="2.16535in" version="1.1" style="shape-rendering:geometricPrecision; text-rendering:geometricPrecision; image-rendering:optimizeQuality; fill-rule:evenodd; clip-rule:evenodd"
viewBox="0 0 2165 2165"
 xmlns:xlink="http://www.w3.org/1999/xlink">
 <defs>
  <style type="text/css">
   <![CDATA[
    .fil0 {fill:black}
   ]]>
  </style>
 </defs>
 <g id="Layer_x0020_1">
  <metadata id="CorelCorpID_0Corel-Layer"/>
  <path class="fil0" d="M1085 1908l-1 0c-69,-2 -140,0 -210,0 -90,0 -186,-3 -274,1l0 0 -105 0c-47,0 -99,5 -140,-12 -37,-15 -64,-41 -80,-73 -23,-45 -18,-79 -18,-133l0 -1214c0,-51 -5,-93 17,-135 17,-31 43,-58 78,-73 43,-18 91,-13 141,-13l380 0c28,0 46,-3 65,11 28,21 32,76 32,121 1,53 -6,264 7,297 18,42 55,43 109,43 60,0 252,-4 298,7 50,12 62,36 62,92l0 127 159 0 0 -99c0,-50 5,-133 -9,-175 -23,-73 -110,-157 -162,-209 -15,-14 -30,-32 -47,-45 -24,-20 -53,-46 -73,-68 -26,-31 -104,-111 -136,-140 -9,-7 -16,-16 -25,-23 -122,-99 -116,-96 -278,-96 -124,0 -248,0 -372,0 -62,0 -116,-4 -174,12 -46,12 -96,41 -121,66 -67,62 -110,127 -110,260l0 1292c0,65 7,106 31,157 36,76 108,143 203,169 55,15 114,11 173,11 41,0 415,2 528,0l165 0c59,0 118,4 173,-11 95,-26 167,-94 203,-169 24,-51 31,-93 31,-157l0 -4 -159 0c1,36 0,64 -18,98 -16,32 -43,58 -80,73 -40,17 -93,12 -140,12l-123 0zm-167 -892l1019 0c71,0 130,58 130,129l0 389c0,71 -59,129 -130,129l-1019 0c-72,0 -131,-58 -131,-129l0 -389c0,-71 59,-129 131,-129zm183 371l0 -61 156 0 0 143c-15,14 -37,27 -66,39 -29,11 -58,16 -88,16 -37,0 -70,-8 -98,-23 -28,-16 -49,-38 -63,-68 -14,-29 -21,-61 -21,-95 0,-37 8,-70 24,-99 15,-29 38,-51 68,-67 23,-12 52,-18 86,-18 45,0 80,10 105,28 25,19 41,45 48,78l-72 13c-5,-17 -15,-31 -29,-42 -13,-10 -31,-15 -52,-15 -31,0 -56,10 -75,30 -19,20 -28,50 -28,89 0,43 9,74 28,96 19,21 44,31 75,31 15,0 30,-3 45,-8 15,-6 28,-14 39,-22l0 -45 -82 0zm186 131l124 -186 -112 -171 85 0 70 106 71 -106 85 0 -113 171 124 186 -87 0 -80 -121 -79 121 -88 0zm371 0l0 -357 117 0c44,0 72,2 86,5 20,6 38,17 51,35 14,18 21,41 21,70 0,22 -4,40 -12,55 -8,15 -18,27 -30,35 -12,9 -25,14 -38,17 -17,3 -42,5 -75,5l-47 0 0 135 -73 0zm73 -297l0 102 40 0c28,0 47,-2 57,-6 9,-3 17,-9 22,-17 6,-8 8,-18 8,-28 0,-13 -3,-24 -11,-32 -8,-9 -17,-14 -29,-16 -9,-2 -26,-3 -52,-3l-35 0z"/>
 </g>
</svg>
