<?xml version="1.0" encoding="UTF-8"?>
<!DOCTYPE svg PUBLIC "-//W3C//DTD SVG 1.1//EN" "http://www.w3.org/Graphics/SVG/1.1/DTD/svg11.dtd">
<!-- Creator: CorelDRAW X7 -->
<svg xmlns="http://www.w3.org/2000/svg" xml:space="preserve" width="2.16535in" height="2.16535in" version="1.1" style="shape-rendering:geometricPrecision; text-rendering:geometricPrecision; image-rendering:optimizeQuality; fill-rule:evenodd; clip-rule:evenodd"
viewBox="0 0 2165 2165"
 xmlns:xlink="http://www.w3.org/1999/xlink">
 <defs>
  <style type="text/css">
   <![CDATA[
    .fil0 {fill:black}
   ]]>
  </style>
 </defs>
 <g id="Layer_x0020_1">
  <metadata id="CorelCorpID_0Corel-Layer"/>
  <path class="fil0" d="M1058 1563c-170,0 -386,-159 -386,86 0,74 294,194 390,242 148,73 314,176 469,176 269,0 536,-234 536,-504 0,-136 -79,-254 -129,-353 -79,-157 -102,-275 -257,-275 -123,0 -5,88 51,235 11,27 16,85 -41,54 -18,-10 -85,-153 -97,-178 -85,-169 -106,-133 -225,-123 7,84 150,279 150,332 0,67 -54,35 -75,1l-98 -200c-38,-96 -79,-100 -201,-72 14,59 125,249 163,320 53,101 -12,120 -56,42 -17,-30 -23,-52 -41,-83 -19,-33 -27,-41 -45,-78l-263 -466c-31,-53 -55,-116 -132,-116 -144,0 -104,133 -73,207 18,43 40,83 61,125 95,191 198,439 299,628zm-960 -1157l0 1058c0,350 366,308 561,308 0,0 -164,-222 46,-312 41,-18 74,-18 107,-12 35,6 98,17 121,28 -5,-22 -197,-460 -239,-489 -54,-36 -197,-56 -197,-286 0,-330 561,-366 561,25 0,95 -43,72 50,209 139,-73 116,7 216,-56 123,-77 236,6 252,10 73,15 -16,-47 216,-13 1,-339 77,-778 -311,-778l-1071 0c-178,0 -312,132 -312,308z"/>
 </g>
</svg>
