<?xml version="1.0" encoding="UTF-8"?>
<!DOCTYPE svg PUBLIC "-//W3C//DTD SVG 1.1//EN" "http://www.w3.org/Graphics/SVG/1.1/DTD/svg11.dtd">
<!-- Creator: CorelDRAW X7 -->
<svg xmlns="http://www.w3.org/2000/svg" xml:space="preserve" width="2.16535in" height="2.16535in" version="1.1" style="shape-rendering:geometricPrecision; text-rendering:geometricPrecision; image-rendering:optimizeQuality; fill-rule:evenodd; clip-rule:evenodd"
viewBox="0 0 2165 2165"
 xmlns:xlink="http://www.w3.org/1999/xlink">
 <defs>
  <style type="text/css">
   <![CDATA[
    .fil0 {fill:black}
   ]]>
  </style>
 </defs>
 <g id="Layer_x0020_1">
  <metadata id="CorelCorpID_0Corel-Layer"/>
  <path class="fil0" d="M286 1098c102,15 199,133 358,239l0 -224 0 -111 0 -612c0,-52 67,-94 150,-94l17 0c82,0 150,42 150,94l0 612 64 0 0 -809c0,-52 67,-95 150,-95l17 0c83,0 150,43 150,95l0 809 50 0 0 -687c0,-52 67,-94 150,-94l16 0c83,0 151,42 151,94l0 687 41 0 0 -503c0,-52 67,-94 150,-94l16 0c83,0 150,42 150,94l0 503 1 0 0 667c0,0 0,398 -712,398 -443,0 -631,-130 -690,-219 0,0 -441,-483 -533,-594 -92,-111 20,-175 154,-156z"/>
 </g>
</svg>
