<?xml version="1.0" encoding="UTF-8"?>
<!DOCTYPE svg PUBLIC "-//W3C//DTD SVG 1.1//EN" "http://www.w3.org/Graphics/SVG/1.1/DTD/svg11.dtd">
<!-- Creator: CorelDRAW X7 -->
<svg xmlns="http://www.w3.org/2000/svg" xml:space="preserve" width="2.16535in" height="2.16535in" version="1.1" style="shape-rendering:geometricPrecision; text-rendering:geometricPrecision; image-rendering:optimizeQuality; fill-rule:evenodd; clip-rule:evenodd"
viewBox="0 0 2165 2165"
 xmlns:xlink="http://www.w3.org/1999/xlink">
 <defs>
  <style type="text/css">
   <![CDATA[
    .fil0 {fill:black}
   ]]>
  </style>
 </defs>
 <g id="Layer_x0020_1">
  <metadata id="CorelCorpID_0Corel-Layer"/>
  <path class="fil0" d="M379 1227l0 748c0,49 35,92 73,92l477 0 0 -589 307 0 0 589 477 0c21,0 37,-13 49,-25 10,-11 24,-37 24,-57l0 -758c0,-13 -22,-28 -39,-47 -15,-17 -28,-29 -44,-46l-266 -275c-73,-81 -188,-190 -265,-274l-89 -91c-16,13 -28,28 -43,43l-133 137c-30,32 -58,61 -88,92 -16,16 -30,29 -45,45 -79,87 -190,191 -265,275l-120 125c-7,7 -10,2 -10,16zm-281 -139c0,28 2,34 19,59 10,14 16,24 27,38 49,67 51,114 128,29 21,-23 41,-44 63,-66l124 -129c21,-24 41,-44 63,-66l528 -553c14,-13 19,-19 33,-31l372 387c21,23 42,42 63,65 21,23 41,44 63,66l124 129c54,62 130,133 184,193 10,12 21,23 31,34 50,52 79,-28 127,-94 11,-16 18,-31 20,-43l0 -22c-6,-33 -39,-56 -63,-82 -11,-13 -23,-25 -35,-37l-72 -74c-14,-16 -97,-108 -111,-112l0 -536c0,-59 12,-140 -34,-140l-250 0c-17,0 -29,27 -31,53l0 290 -266 -279c-50,-54 -67,-69 -134,-69 -64,0 -118,79 -170,130 -121,121 -269,280 -390,407l-390 408c-10,11 -23,23 -23,45z"/>
 </g>
</svg>
