<?xml version="1.0" encoding="UTF-8"?>
<!DOCTYPE svg PUBLIC "-//W3C//DTD SVG 1.1//EN" "http://www.w3.org/Graphics/SVG/1.1/DTD/svg11.dtd">
<!-- Creator: CorelDRAW X7 -->
<svg xmlns="http://www.w3.org/2000/svg" xml:space="preserve" width="2.16535in" height="2.16535in" version="1.1" style="shape-rendering:geometricPrecision; text-rendering:geometricPrecision; image-rendering:optimizeQuality; fill-rule:evenodd; clip-rule:evenodd"
viewBox="0 0 2165 2165"
 xmlns:xlink="http://www.w3.org/1999/xlink">
 <defs>
  <style type="text/css">
   <![CDATA[
    .fil0 {fill:black}
   ]]>
  </style>
 </defs>
 <g id="Layer_x0020_1">
  <metadata id="CorelCorpID_0Corel-Layer"/>
  <path class="fil0" d="M98 1472c0,35 18,38 48,55 24,14 173,107 187,107 24,0 47,-19 47,-43 0,-38 -62,-62 -106,-88 -22,-13 -40,-24 -62,-38 -26,-15 -48,-33 -74,-33 -22,0 -40,17 -40,40zm0 -254c0,34 15,37 45,54 47,26 325,197 347,201 22,5 49,-12 49,-45 0,-26 -19,-34 -36,-44 -38,-22 -338,-206 -357,-206 -27,0 -48,11 -48,40zm0 -254c0,22 3,28 22,41l175 103c40,24 338,205 355,205 53,0 64,-56 26,-81l-175 -103c-25,-15 -46,-27 -70,-42 -29,-17 -268,-163 -285,-163 -27,0 -48,11 -48,40zm1552 -512c-25,-14 -46,-26 -70,-41l-432 -255c-96,-58 -65,-53 -263,66l-399 236c-13,8 -20,12 -33,19l-244 145c-59,35 -111,49 -111,96 0,32 54,51 78,65 31,19 60,36 89,53 61,37 122,71 182,108 26,15 343,210 366,210 45,0 59,-50 29,-76 -30,-26 -232,-139 -264,-158l-264 -156c-29,-17 -64,-33 -89,-54 26,-6 698,-409 738,-433 17,-10 96,-62 108,-63 8,-1 55,29 63,35l453 266c-15,22 -70,72 -93,94 -32,32 -61,62 -93,94l-1262 1262c-18,17 -41,34 -41,62 0,28 23,40 48,40 24,0 74,-60 92,-78 40,-41 229,-237 257,-255 56,37 119,71 177,105l354 209c54,32 58,19 112,-13l123 -71c10,-7 19,-11 30,-18l706 -418c18,-11 50,-22 50,-48 0,-32 -19,-48 -48,-48 -16,0 -45,22 -60,30 -90,49 -198,116 -288,170 -40,24 -77,45 -117,69 -62,38 -450,271 -463,271 -13,0 -110,-64 -128,-74 -22,-13 -41,-26 -63,-37 -22,-13 -41,-26 -65,-39 -61,-33 -200,-114 -256,-152l94 -96 358 211c82,44 57,40 190,-40l671 -397c10,-6 19,-10 31,-17 13,-8 17,-12 32,-20 24,-13 112,-57 112,-85 0,-55 -46,-56 -79,-35 -143,88 -290,169 -434,256 -76,46 -153,90 -229,135 -39,24 -77,45 -115,68 -18,11 -104,68 -119,68 -6,0 -76,-44 -89,-51l-264 -156 94 -96c25,8 104,59 127,73l92 55c55,33 61,14 170,-52l736 -435c40,-24 110,-54 110,-88 0,-28 -22,-44 -48,-44 -19,0 -213,120 -233,132 -42,25 -681,408 -695,408 -21,0 -158,-102 -195,-111l97 -99c105,69 94,60 165,19 22,-12 42,-23 64,-36l244 -145c42,-25 82,-49 125,-73l428 -254c22,-13 48,-23 48,-55 0,-30 -46,-50 -69,-63l-248 -148c18,-28 216,-218 257,-259 18,-18 80,-70 80,-94 0,-30 -16,-48 -48,-48 -24,0 -78,64 -96,83 -41,41 -245,252 -273,271zm-611 742c5,-19 138,-144 154,-160 38,-38 453,-458 473,-471l187 111c11,6 18,10 30,17 12,8 21,12 33,19 -9,12 -86,54 -105,65l-713 422c-29,18 -31,12 -59,-3z"/>
 </g>
</svg>
