<?xml version="1.0" encoding="UTF-8"?>
<!DOCTYPE svg PUBLIC "-//W3C//DTD SVG 1.1//EN" "http://www.w3.org/Graphics/SVG/1.1/DTD/svg11.dtd">
<!-- Creator: CorelDRAW X7 -->
<svg xmlns="http://www.w3.org/2000/svg" xml:space="preserve" width="2.16535in" height="2.16535in" version="1.1" style="shape-rendering:geometricPrecision; text-rendering:geometricPrecision; image-rendering:optimizeQuality; fill-rule:evenodd; clip-rule:evenodd"
viewBox="0 0 2165 2165"
 xmlns:xlink="http://www.w3.org/1999/xlink">
 <defs>
  <style type="text/css">
   <![CDATA[
    .fil0 {fill:black}
   ]]>
  </style>
 </defs>
 <g id="Layer_x0020_1">
  <metadata id="CorelCorpID_0Corel-Layer"/>
  <path class="fil0" d="M98 1454l0 26c27,36 76,56 115,79 90,54 826,485 857,508l26 0 742 -440c61,-36 124,-74 186,-110 19,-11 34,-15 41,-36 10,-33 -23,-76 -70,-46l-230 136c-182,104 -373,221 -555,328 -152,89 -109,85 -186,41l-832 -492c-58,-36 -65,-28 -94,6zm0 -514l0 27c27,34 79,58 117,80l371 219c83,50 165,98 247,146 35,21 228,142 252,141 19,-1 107,-57 127,-70 114,-71 251,-145 371,-219l431 -255c22,-13 47,-20 52,-48 5,-28 -16,-49 -42,-50 -24,0 -275,156 -314,179l-618 366c-17,7 -30,-8 -60,-26l-805 -475c-39,-23 -69,-52 -101,-41 -16,6 -18,15 -28,26zm0 257l0 27c22,28 26,26 57,44l680 403c36,21 226,142 254,138 14,-2 645,-375 744,-436 40,-25 83,-49 123,-73 21,-12 41,-24 63,-37 23,-13 45,-20 48,-48 2,-29 -21,-50 -50,-46 -17,2 -408,237 -434,252l-433 257c-80,48 -55,47 -123,6l-802 -474c-77,-44 -84,-64 -127,-13zm0 -513l0 26c26,34 79,59 117,80l742 439c25,15 106,70 131,66 20,-2 812,-474 931,-546 23,-13 47,-21 48,-51 1,-36 -61,-62 -106,-88 -201,-119 -422,-246 -618,-366 -30,-18 -236,-142 -252,-145 -28,-5 -103,48 -128,63l-808 477c-40,23 -31,14 -57,45zm1840 13c-32,22 -70,42 -105,63 -113,67 -737,440 -749,441 -10,1 -778,-456 -857,-503 10,-12 183,-110 210,-126 87,-52 635,-378 645,-379 15,0 566,333 644,378 38,21 69,41 107,62 18,11 35,22 52,32 16,9 41,21 53,32z"/>
 </g>
</svg>
