<?xml version="1.0" encoding="UTF-8"?>
<!DOCTYPE svg PUBLIC "-//W3C//DTD SVG 1.1//EN" "http://www.w3.org/Graphics/SVG/1.1/DTD/svg11.dtd">
<!-- Creator: CorelDRAW X7 -->
<svg xmlns="http://www.w3.org/2000/svg" xml:space="preserve" width="2.16535in" height="2.16535in" version="1.1" style="shape-rendering:geometricPrecision; text-rendering:geometricPrecision; image-rendering:optimizeQuality; fill-rule:evenodd; clip-rule:evenodd"
viewBox="0 0 2165 2165"
 xmlns:xlink="http://www.w3.org/1999/xlink">
 <defs>
  <style type="text/css">
   <![CDATA[
    .fil0 {fill:black}
   ]]>
  </style>
 </defs>
 <g id="Layer_x0020_1">
  <metadata id="CorelCorpID_0Corel-Layer"/>
  <path class="fil0" d="M693 917c-13,-119 -13,-346 41,-436 138,-226 545,-248 700,5 60,98 47,309 41,432l-782 -1zm-250 0c-130,10 -193,-21 -282,49 -77,59 -61,128 -61,229 0,188 0,375 0,562 0,92 -14,183 40,247 55,65 141,63 261,63l1354 0c318,0 310,-66 310,-303 0,-189 0,-379 0,-569 0,-113 19,-167 -65,-233 -81,-66 -163,-32 -277,-46 -12,-243 37,-400 -112,-585 -253,-316 -823,-306 -1059,5 -152,201 -97,328 -109,581z"/>
 </g>
</svg>
