<?xml version="1.0" encoding="UTF-8"?>
<!DOCTYPE svg PUBLIC "-//W3C//DTD SVG 1.1//EN" "http://www.w3.org/Graphics/SVG/1.1/DTD/svg11.dtd">
<!-- Creator: CorelDRAW X7 -->
<svg xmlns="http://www.w3.org/2000/svg" xml:space="preserve" width="2.16535in" height="2.16535in" version="1.1" style="shape-rendering:geometricPrecision; text-rendering:geometricPrecision; image-rendering:optimizeQuality; fill-rule:evenodd; clip-rule:evenodd"
viewBox="0 0 2165 2165"
 xmlns:xlink="http://www.w3.org/1999/xlink">
 <defs>
  <style type="text/css">
   <![CDATA[
    .fil0 {fill:black}
   ]]>
  </style>
 </defs>
 <g id="Layer_x0020_1">
  <metadata id="CorelCorpID_0Corel-Layer"/>
  <path class="fil0" d="M1787 1559c-83,-83 -125,-131 -203,-212 -58,-59 -158,-149 -202,-214 30,-103 130,-222 106,-441 -62,-557 -754,-780 -1173,-415 -312,272 -290,784 83,1029 324,213 508,91 743,44l407 413 197 200c72,72 150,163 274,52 160,-141 -126,-349 -232,-456zm-763 -306c-705,272 -1129,-690 -460,-987 305,-135 631,18 750,285 132,297 -49,610 -290,702z"/>
 </g>
</svg>
