<?xml version="1.0" encoding="UTF-8"?>
<!DOCTYPE svg PUBLIC "-//W3C//DTD SVG 1.1//EN" "http://www.w3.org/Graphics/SVG/1.1/DTD/svg11.dtd">
<!-- Creator: CorelDRAW X7 -->
<svg xmlns="http://www.w3.org/2000/svg" xml:space="preserve" width="2.16535in" height="2.16535in" version="1.1" style="shape-rendering:geometricPrecision; text-rendering:geometricPrecision; image-rendering:optimizeQuality; fill-rule:evenodd; clip-rule:evenodd"
viewBox="0 0 2165 2165"
 xmlns:xlink="http://www.w3.org/1999/xlink">
 <defs>
  <style type="text/css">
   <![CDATA[
    .fil0 {fill:black}
   ]]>
  </style>
 </defs>
 <g id="Layer_x0020_1">
  <metadata id="CorelCorpID_0Corel-Layer"/>
  <path class="fil0" d="M567 234l-51 0 0 239 51 0 0 -239zm1363 23l-1364 0 0 193 1457 0 0 -100c0,-51 -42,-93 -93,-93zm-1671 -22l52 0 0 239 -52 0 0 -239zm-83 23l85 0 0 193 -85 0c-43,0 -78,-35 -78,-78l0 -37c0,-43 35,-78 78,-78zm144 1035l194 0 0 68 -194 0 0 -68zm54 -548l83 0 0 548 -83 0 0 -548zm-54 -70l191 0 0 68 -191 0 0 -68zm25 -577l141 0 0 577 -141 0 0 -577zm233 1420c-19,0 -34,-16 -34,-35 0,-19 15,-34 34,-34l89 0c14,0 26,8 31,20l115 0c4,0 8,7 8,14l0 0c0,8 -4,14 -8,14l-115 0c-5,12 -17,21 -31,21l-89 0zm-162 -125c48,0 88,41 88,91 0,49 -40,90 -88,90 -49,0 -89,-41 -89,-90 0,-50 40,-91 89,-91zm1510 131l-404 0 0 402c107,-9 203,-57 275,-128 72,-71 119,-167 129,-274zm-890 -82l404 0 0 -402c-107,9 -203,57 -275,128 -72,72 -119,167 -129,274zm486 -485c130,10 247,67 333,153 87,86 144,203 154,332l58 0 0 82 -58 0c-10,130 -67,246 -154,332 -86,87 -203,143 -333,153l0 58 -82 0 0 -58c-130,-10 -247,-66 -333,-153 -87,-86 -144,-202 -154,-332l-58 0 0 -82 58 0c10,-129 67,-246 154,-332 86,-86 203,-143 333,-153l0 -58 82 0 0 58z"/>
 </g>
</svg>
