<?xml version="1.0" encoding="UTF-8"?>
<!DOCTYPE svg PUBLIC "-//W3C//DTD SVG 1.1//EN" "http://www.w3.org/Graphics/SVG/1.1/DTD/svg11.dtd">
<!-- Creator: CorelDRAW X7 -->
<svg xmlns="http://www.w3.org/2000/svg" xml:space="preserve" width="2.16535in" height="2.16535in" version="1.1" style="shape-rendering:geometricPrecision; text-rendering:geometricPrecision; image-rendering:optimizeQuality; fill-rule:evenodd; clip-rule:evenodd"
viewBox="0 0 2165 2165"
 xmlns:xlink="http://www.w3.org/1999/xlink">
 <defs>
  <style type="text/css">
   <![CDATA[
    .fil0 {fill:black;fill-rule:nonzero}
   ]]>
  </style>
 </defs>
 <g id="Layer_x0020_1">
  <metadata id="CorelCorpID_0Corel-Layer"/>
  <path class="fil0" d="M220 2067c-67,0 -122,-55 -122,-122 0,-67 55,-122 122,-122l1725 0c67,0 122,55 122,122 0,67 -55,122 -122,122l-1725 0zm0 -863c-67,0 -122,-54 -122,-121 0,-68 55,-122 122,-122l1725 0c67,0 122,54 122,122 0,67 -55,121 -122,121l-1725 0zm0 -862c-67,0 -122,-55 -122,-122 0,-67 55,-122 122,-122l1725 0c67,0 122,55 122,122 0,67 -55,122 -122,122l-1725 0z"/>
 </g>
</svg>
