<?xml version="1.0" encoding="UTF-8"?>
<!DOCTYPE svg PUBLIC "-//W3C//DTD SVG 1.1//EN" "http://www.w3.org/Graphics/SVG/1.1/DTD/svg11.dtd">
<!-- Creator: CorelDRAW X7 -->
<svg xmlns="http://www.w3.org/2000/svg" xml:space="preserve" width="2.16535in" height="2.16535in" version="1.1" style="shape-rendering:geometricPrecision; text-rendering:geometricPrecision; image-rendering:optimizeQuality; fill-rule:evenodd; clip-rule:evenodd"
viewBox="0 0 2165 2165"
 xmlns:xlink="http://www.w3.org/1999/xlink">
 <defs>
  <style type="text/css">
   <![CDATA[
    .fil0 {fill:black}
   ]]>
  </style>
 </defs>
 <g id="Layer_x0020_1">
  <metadata id="CorelCorpID_0Corel-Layer"/>
  <path class="fil0" d="M1531 614c-10,-125 159,-266 356,6 357,493 148,1096 -324,1331 -754,375 -1605,-210 -1445,-992 27,-130 86,-240 159,-339 199,-269 368,-135 358,-9 -6,66 -29,71 -64,106 -279,284 -212,699 65,923 319,258 778,160 981,-86 407,-492 -78,-845 -86,-940zm-603 434c-23,-177 0,-507 -1,-701 -1,-112 -1,-207 107,-241 105,-32 194,45 204,133 20,188 0,496 0,697 0,125 -6,209 -112,238 -106,28 -187,-40 -198,-126z"/>
 </g>
</svg>
