<?xml version="1.0" encoding="UTF-8"?>
<!DOCTYPE svg PUBLIC "-//W3C//DTD SVG 1.1//EN" "http://www.w3.org/Graphics/SVG/1.1/DTD/svg11.dtd">
<!-- Creator: CorelDRAW X7 -->
<svg xmlns="http://www.w3.org/2000/svg" xml:space="preserve" width="2.16535in" height="2.16535in" version="1.1" style="shape-rendering:geometricPrecision; text-rendering:geometricPrecision; image-rendering:optimizeQuality; fill-rule:evenodd; clip-rule:evenodd"
viewBox="0 0 2165 2165"
 xmlns:xlink="http://www.w3.org/1999/xlink">
 <defs>
  <style type="text/css">
   <![CDATA[
    .fil0 {fill:black}
   ]]>
  </style>
 </defs>
 <g id="Layer_x0020_1">
  <metadata id="CorelCorpID_0Corel-Layer"/>
  <path class="fil0" d="M1451 295l196 1c-6,-12 -83,-75 -97,-86 -35,-29 -60,-57 -98,-83l-1 168zm-1105 652l118 0 1 -332 -116 -2 -3 334zm1354 -312l0 310 117 3 1 -194 1 -38 -2 -103 -116 2 -1 20zm-1212 1431l1190 1c7,-24 6,-450 -1,-467 -11,-11 -843,-5 -891,-5 -67,0 -245,-7 -299,3 -8,50 -9,426 1,468zm114 -388c-1,-2 -3,-1 -5,-2 0,-27 14,-21 46,-20 250,5 552,0 808,0 20,0 40,0 60,0 45,-1 48,-5 55,8 15,23 -26,18 -44,18 -20,0 -40,0 -60,0 -109,0 -788,4 -841,0l-19 -4zm96 66c-48,0 -118,10 -100,-20 6,-11 745,-6 869,-6 49,0 117,-11 99,18 -8,13 -34,8 -60,8l-808 0zm-102 50c8,-24 36,-14 108,-14 260,0 564,4 818,0 36,-1 44,-8 46,19 -1,1 -3,0 -4,2 -4,8 -101,4 -113,4l-830 1c-40,-4 -11,2 -25,-12zm1 67c3,-30 9,-20 101,-20l808 0c9,0 24,-1 33,0 20,0 21,-3 27,8 19,29 -49,18 -99,18l-807 0c-21,1 -46,4 -63,-6zm0 61c3,-26 7,-20 41,-19 259,3 544,0 807,0l94 -1c21,1 20,-3 27,8 15,23 -21,20 -38,20l-917 -3c-12,-2 -7,0 -14,-5zm2 66l-1 -19c19,-6 904,-9 970,-2l0 21c-30,10 -953,7 -969,0zm-113 -1042l1194 2c2,-37 12,-653 -7,-626l-19 -4c-34,-3 -171,4 -223,-1 -16,-42 7,-164 -6,-216l-937 -3c-10,38 -3,166 -3,212 -1,88 -5,589 1,636zm-22 741l1 -32 -55 -4c-5,-23 -7,-91 1,-108 12,-10 871,-3 1007,-4 63,0 292,-7 337,3 6,25 3,53 3,78 0,52 -11,23 -57,35l0 32c65,8 200,2 272,2 109,0 93,-69 93,-155 0,-157 0,-315 0,-472 0,-105 -51,-98 -160,-98l-1647 0c-111,0 -161,-7 -160,98 1,157 0,315 0,472 0,85 -14,154 94,155 74,0 202,5 271,-2zm1249 -618c72,-18 96,73 36,89 -82,21 -105,-73 -36,-89zm191 -1c75,-18 96,81 28,92 -76,11 -95,-75 -28,-92z"/>
 </g>
</svg>
