<?xml version="1.0" encoding="UTF-8"?>
<!DOCTYPE svg PUBLIC "-//W3C//DTD SVG 1.1//EN" "http://www.w3.org/Graphics/SVG/1.1/DTD/svg11.dtd">
<!-- Creator: CorelDRAW X7 -->
<svg xmlns="http://www.w3.org/2000/svg" xml:space="preserve" width="2.16535in" height="2.16535in" version="1.1" style="shape-rendering:geometricPrecision; text-rendering:geometricPrecision; image-rendering:optimizeQuality; fill-rule:evenodd; clip-rule:evenodd"
viewBox="0 0 2165 2165"
 xmlns:xlink="http://www.w3.org/1999/xlink">
 <defs>
  <style type="text/css">
   <![CDATA[
    .fil0 {fill:black}
   ]]>
  </style>
 </defs>
 <g id="Layer_x0020_1">
  <metadata id="CorelCorpID_0Corel-Layer"/>
  <path class="fil0" d="M1159 166c-71,10 -124,35 -173,84 -5,5 -13,12 -18,18 -43,52 -79,134 -68,226 19,150 154,280 328,258 150,-18 280,-154 258,-328 -7,-61 -29,-107 -65,-152 -52,-68 -159,-120 -262,-106zm897 1755c26,49 5,110 -47,135 -52,25 -116,5 -142,-45 -69,-131 -123,-280 -159,-437 -36,-157 -54,-323 -54,-491 0,-169 18,-335 54,-492 36,-157 90,-305 159,-437 26,-50 90,-70 142,-45 52,25 73,86 47,136 -61,116 -109,247 -141,389 -33,142 -50,294 -50,449 0,154 17,306 50,448 32,142 80,274 141,390zm-1958 -1060l556 0c40,0 73,32 73,72l0 286c0,40 -33,72 -73,72l-556 0 0 -430zm678 96l531 0 0 239 -531 0 0 -239zm580 0l77 0c64,0 116,51 116,114l0 10c0,63 -52,115 -116,115l-77 0 0 -239zm-85 -376l-15 -39 -128 0 -15 40c-6,16 -11,27 -15,32 -4,6 -11,8 -20,8 -8,0 -15,-3 -22,-8 -6,-6 -9,-13 -9,-20 0,-5 1,-9 2,-14 2,-4 4,-11 7,-19l81 -205c2,-5 5,-12 8,-21 4,-8 7,-15 11,-20 3,-6 8,-10 14,-13 6,-4 13,-6 22,-6 9,0 16,2 22,6 6,3 11,7 15,13 3,5 7,11 9,17 3,6 6,14 10,24l82 203c6,16 10,27 10,34 0,7 -3,14 -9,20 -7,6 -14,9 -23,9 -5,0 -9,0 -12,-2 -4,-2 -7,-4 -9,-8 -3,-3 -5,-7 -8,-14 -3,-6 -5,-12 -8,-17zm-126 -87l94 0 -47 -130 -47 130z"/>
 </g>
</svg>
