<?xml version="1.0" encoding="UTF-8"?>
<!DOCTYPE svg PUBLIC "-//W3C//DTD SVG 1.1//EN" "http://www.w3.org/Graphics/SVG/1.1/DTD/svg11.dtd">
<!-- Creator: CorelDRAW X7 -->
<svg xmlns="http://www.w3.org/2000/svg" xml:space="preserve" width="2.16535in" height="2.16535in" version="1.1" style="shape-rendering:geometricPrecision; text-rendering:geometricPrecision; image-rendering:optimizeQuality; fill-rule:evenodd; clip-rule:evenodd"
viewBox="0 0 2165 2165"
 xmlns:xlink="http://www.w3.org/1999/xlink">
 <defs>
  <style type="text/css">
   <![CDATA[
    .fil0 {fill:black;fill-rule:nonzero}
   ]]>
  </style>
 </defs>
 <g id="Layer_x0020_1">
  <metadata id="CorelCorpID_0Corel-Layer"/>
  <path class="fil0" d="M1208 2067c-53,-149 -106,-299 -192,-361 -40,-29 -97,-46 -151,-62 -81,-24 -158,-46 -219,-105 -62,-60 -88,-137 -115,-217 -18,-55 -37,-112 -67,-150 -31,-40 -80,-71 -139,-98 -67,-30 -147,-55 -227,-80l60 -194c85,26 171,53 249,89 86,39 162,88 215,157 52,66 76,139 100,210 19,57 37,110 63,135 26,25 80,41 136,58 71,21 145,43 212,91 137,98 201,279 264,458l-189 69zm568 -1969l291 294 -371 376c-27,27 -71,27 -97,0l-194 -196c-27,-27 -27,-71 0,-98l371 -376zm-387 523l161 163 -355 359 -162 -163 356 -359zm-388 392l162 163 -52 52c-43,43 -112,43 -155,0l-7 -6c-42,-43 -42,-114 0,-157l52 -52z"/>
 </g>
</svg>
