<?xml version="1.0" encoding="UTF-8"?>
<!DOCTYPE svg PUBLIC "-//W3C//DTD SVG 1.1//EN" "http://www.w3.org/Graphics/SVG/1.1/DTD/svg11.dtd">
<!-- Creator: CorelDRAW X7 -->
<svg xmlns="http://www.w3.org/2000/svg" xml:space="preserve" width="2.16535in" height="2.16535in" version="1.1" style="shape-rendering:geometricPrecision; text-rendering:geometricPrecision; image-rendering:optimizeQuality; fill-rule:evenodd; clip-rule:evenodd"
viewBox="0 0 2165 2165"
 xmlns:xlink="http://www.w3.org/1999/xlink">
 <defs>
  <style type="text/css">
   <![CDATA[
    .fil0 {fill:black;fill-rule:nonzero}
   ]]>
  </style>
 </defs>
 <g id="Layer_x0020_1">
  <metadata id="CorelCorpID_0Corel-Layer"/>
  <path class="fil0" d="M874 1812l18 -144c12,3 53,49 65,60 15,15 182,180 186,193 -48,26 -97,49 -146,74 -19,9 -137,71 -147,72l0 0c4,-9 12,-108 12,-128 -12,-1 -103,-36 -114,-41 -53,-22 -60,-29 -104,-53 -40,-22 -78,-51 -113,-80 -5,-4 -7,-6 -11,-9 -31,-26 -63,-58 -89,-88 -3,-4 -4,-5 -8,-10 -4,-4 -5,-6 -9,-11 -33,-41 -72,-93 -95,-140l-38 -79c-8,-19 -38,-98 -40,-118 9,2 7,6 13,20 50,105 106,175 191,251l51 41c39,30 83,61 127,84 66,37 122,65 195,89 13,5 42,16 56,17zm450 -1582c26,2 163,63 190,79 55,32 101,59 150,103l51 47c39,40 71,84 103,129 38,51 122,226 122,268 -10,-7 -36,-69 -50,-91 -26,-40 -30,-45 -59,-82 -14,-18 -53,-56 -69,-73 -26,-26 -47,-42 -75,-66l-40 -30c-80,-54 -137,-87 -229,-124 -16,-7 -88,-35 -106,-36 -1,10 -4,23 -5,35l-13 110c-21,-14 -45,-42 -64,-61 -22,-22 -42,-42 -63,-64 -17,-17 -97,-95 -110,-112 -5,-6 -12,-9 -14,-18 9,-2 135,-67 146,-73 20,-10 135,-72 147,-73l-12 132zm743 1100c-23,-1 -88,-12 -125,-12 -6,12 -15,42 -20,56 -28,84 -91,205 -153,275l-95 98c-25,24 -58,50 -87,69 -4,3 -6,5 -10,8 -30,19 -55,33 -88,49 -18,9 -34,18 -53,26 -33,15 -75,31 -114,40 2,-7 4,-7 20,-14 9,-3 16,-7 25,-11 84,-43 134,-86 199,-153l33 -38c4,-4 4,-5 8,-9l24 -30c80,-108 125,-195 171,-324 4,-11 16,-42 16,-55 -11,0 -24,-3 -36,-4 -10,-2 -26,-4 -37,-5 -12,-2 -69,-7 -74,-9 2,-8 8,-11 14,-16 5,-6 11,-11 16,-17 29,-35 145,-148 186,-189 10,-11 20,-24 33,-31 13,24 25,47 37,72 14,28 109,211 110,224zm-1201 -1100c-8,2 -16,7 -24,11 -8,4 -15,6 -23,11 -17,8 -30,16 -46,25 -36,22 -49,34 -81,59l-46 41c-13,12 -18,21 -26,29 -28,29 -39,44 -65,76l-44 61c-5,8 -8,14 -14,22 -31,48 -75,137 -94,188 -6,16 -34,91 -35,107 27,6 66,7 95,11 12,2 21,3 33,3 -8,16 -167,172 -187,192 -8,8 -57,59 -66,61 -7,-14 -143,-284 -145,-295l0 0c12,2 128,16 147,16 4,-18 13,-40 19,-58 7,-21 14,-38 22,-57 7,-18 15,-35 24,-53 41,-82 119,-188 184,-246 4,-4 5,-4 10,-8 98,-92 206,-149 333,-192 7,-3 28,-11 29,-4zm13 1182l-35 36c-28,31 -76,32 -106,3l-5 -5c-30,-28 -31,-77 -2,-107l35 -37 113 110zm260 -275l-238 252 -114 -109 239 -252 113 109zm350 -276l-250 263c-18,19 -48,19 -66,1l-137 -131c-18,-18 -19,-48 -1,-67l249 -263 205 197z"/>
 </g>
</svg>
