<?xml version="1.0" encoding="UTF-8"?>
<!DOCTYPE svg PUBLIC "-//W3C//DTD SVG 1.1//EN" "http://www.w3.org/Graphics/SVG/1.1/DTD/svg11.dtd">
<!-- Creator: CorelDRAW X7 -->
<svg xmlns="http://www.w3.org/2000/svg" xml:space="preserve" width="2.16535in" height="2.16535in" version="1.1" style="shape-rendering:geometricPrecision; text-rendering:geometricPrecision; image-rendering:optimizeQuality; fill-rule:evenodd; clip-rule:evenodd"
viewBox="0 0 2165 2165"
 xmlns:xlink="http://www.w3.org/1999/xlink">
 <defs>
  <style type="text/css">
   <![CDATA[
    .fil0 {fill:black}
   ]]>
  </style>
 </defs>
 <g id="Layer_x0020_1">
  <metadata id="CorelCorpID_0Corel-Layer"/>
  <path class="fil0" d="M1006 166c72,10 124,35 173,84 6,5 14,12 19,18 42,52 78,134 67,226 -18,150 -154,280 -328,258 -150,-18 -279,-154 -258,-328 7,-61 30,-107 65,-152 52,-68 159,-120 262,-106zm-35 311c23,0 39,4 50,11 12,7 17,18 17,34 0,32 -21,47 -65,47l-68 0 0 -92 66 0zm-66 -127l52 0c23,0 40,2 52,8 11,5 17,15 17,31 0,8 -2,15 -6,21 -4,8 -11,14 -20,17 -8,3 -21,4 -37,4l-58 0 0 -81zm71 267c17,0 31,-1 44,-2 12,-2 23,-5 33,-9 15,-7 27,-17 36,-31 9,-14 14,-30 14,-48 0,-38 -21,-64 -62,-77 31,-14 47,-38 47,-69 0,-9 -1,-18 -4,-26 -3,-8 -8,-16 -13,-23 -6,-7 -13,-12 -20,-17 -9,-5 -19,-9 -30,-10 -11,-2 -24,-3 -39,-3l-102 0c-14,0 -24,3 -30,9 -6,6 -9,16 -9,30l0 237c0,14 3,24 9,30 6,6 16,9 30,9l96 0zm-866 1304c-26,49 -6,110 46,135 53,25 116,5 142,-45 70,-131 123,-280 159,-437 36,-157 55,-323 55,-491 0,-169 -19,-335 -55,-492 -36,-157 -89,-305 -159,-437 -26,-50 -89,-70 -142,-45 -52,25 -72,86 -46,136 61,116 108,247 141,389 32,142 49,294 49,449 0,154 -17,306 -49,448 -33,142 -80,274 -141,390zm699 -964l-77 0c-64,0 -116,51 -116,114l0 10c0,63 52,115 116,115l77 0 0 -239zm581 0l-532 0 0 239 532 0 0 -239zm677 -96l-556 0c-40,0 -73,32 -73,72l0 286c0,40 33,72 73,72l556 0 0 -430z"/>
 </g>
</svg>
