<?xml version="1.0" encoding="UTF-8"?>
<!DOCTYPE svg PUBLIC "-//W3C//DTD SVG 1.1//EN" "http://www.w3.org/Graphics/SVG/1.1/DTD/svg11.dtd">
<!-- Creator: CorelDRAW X7 -->
<svg xmlns="http://www.w3.org/2000/svg" xml:space="preserve" width="2.16535in" height="2.16535in" version="1.1" style="shape-rendering:geometricPrecision; text-rendering:geometricPrecision; image-rendering:optimizeQuality; fill-rule:evenodd; clip-rule:evenodd"
viewBox="0 0 2165 2165"
 xmlns:xlink="http://www.w3.org/1999/xlink">
 <defs>
  <style type="text/css">
   <![CDATA[
    .fil0 {fill:black}
   ]]>
  </style>
 </defs>
 <g id="Layer_x0020_1">
  <metadata id="CorelCorpID_0Corel-Layer"/>
  <path class="fil0" d="M1999 1159c-10,-71 -35,-124 -83,-173 -6,-5 -13,-13 -19,-18 -52,-43 -133,-79 -226,-68 -150,19 -280,154 -258,328 19,150 154,280 328,258 61,-7 108,-29 153,-65 67,-52 119,-159 105,-262zm-1754 897c-50,26 -111,5 -136,-47 -25,-52 -5,-116 45,-142 132,-69 280,-123 437,-159 157,-36 323,-54 492,-54 168,0 334,18 491,54 157,36 306,90 437,159 50,26 70,90 45,142 -25,52 -86,73 -135,47 -116,-61 -248,-109 -390,-141 -142,-33 -294,-50 -448,-50 -155,0 -307,17 -449,50 -142,32 -273,80 -389,141zm1059 -1958l0 556c0,40 -32,73 -71,73l-287 0c-40,0 -72,-33 -72,-73l0 -556 430 0zm-95 678l0 531 -239 0 0 -531 239 0zm0 580l0 77c0,64 -52,116 -115,116l-10 0c-63,0 -114,-52 -114,-116l0 -77 239 0zm637 -104c0,10 -2,20 -7,32 -5,12 -13,23 -23,34 -11,12 -24,21 -41,28 -16,7 -36,10 -58,10 -16,0 -31,-1 -45,-4 -14,-3 -26,-8 -37,-15 -11,-7 -21,-15 -31,-26 -8,-10 -15,-21 -21,-34 -6,-12 -10,-25 -13,-39 -3,-14 -5,-29 -5,-44 0,-25 4,-48 11,-68 8,-20 18,-38 32,-52 14,-14 30,-25 49,-32 18,-8 38,-12 59,-12 25,0 48,6 68,16 20,10 35,23 46,37 10,15 16,30 16,43 0,7 -3,14 -8,19 -5,6 -12,9 -19,9 -8,0 -14,-2 -18,-6 -4,-4 -9,-11 -14,-20 -8,-16 -18,-27 -29,-35 -12,-8 -25,-12 -42,-12 -26,0 -47,10 -63,30 -15,20 -23,48 -23,85 0,25 4,45 10,61 7,17 17,29 30,37 12,8 27,12 44,12 18,0 34,-5 47,-14 12,-9 22,-22 28,-40 3,-8 6,-15 10,-20 4,-6 11,-8 20,-8 7,0 14,2 19,8 6,5 8,12 8,20z"/>
 </g>
</svg>
