<?xml version="1.0" encoding="UTF-8"?>
<!DOCTYPE svg PUBLIC "-//W3C//DTD SVG 1.1//EN" "http://www.w3.org/Graphics/SVG/1.1/DTD/svg11.dtd">
<!-- Creator: CorelDRAW X7 -->
<svg xmlns="http://www.w3.org/2000/svg" xml:space="preserve" width="2.16535in" height="2.16535in" version="1.1" style="shape-rendering:geometricPrecision; text-rendering:geometricPrecision; image-rendering:optimizeQuality; fill-rule:evenodd; clip-rule:evenodd"
viewBox="0 0 2165 2165"
 xmlns:xlink="http://www.w3.org/1999/xlink">
 <defs>
  <style type="text/css">
   <![CDATA[
    .fil0 {fill:black;fill-rule:nonzero}
   ]]>
  </style>
 </defs>
 <g id="Layer_x0020_1">
  <metadata id="CorelCorpID_0Corel-Layer"/>
  <path class="fil0" d="M1973 1167l-1780 0c-52,0 -95,42 -95,94 0,28 13,53 32,70l680 707c36,37 95,39 132,3 38,-36 39,-96 3,-133l-531 -553 1559 0c52,0 94,-42 94,-94 0,-52 -42,-94 -94,-94zm-1780 -168l1780 0c52,0 94,-42 94,-94 0,-28 -12,-53 -31,-71l-680 -707c-36,-37 -96,-38 -133,-2 -37,36 -39,95 -3,132l532 553 -1559 0c-52,0 -95,43 -95,95 0,52 43,94 95,94z"/>
 </g>
</svg>
