<?xml version="1.0" encoding="UTF-8"?>
<!DOCTYPE svg PUBLIC "-//W3C//DTD SVG 1.1//EN" "http://www.w3.org/Graphics/SVG/1.1/DTD/svg11.dtd">
<!-- Creator: CorelDRAW X7 -->
<svg xmlns="http://www.w3.org/2000/svg" xml:space="preserve" width="2.16535in" height="2.16535in" version="1.1" style="shape-rendering:geometricPrecision; text-rendering:geometricPrecision; image-rendering:optimizeQuality; fill-rule:evenodd; clip-rule:evenodd"
viewBox="0 0 2165 2165"
 xmlns:xlink="http://www.w3.org/1999/xlink">
 <defs>
  <style type="text/css">
   <![CDATA[
    .fil0 {fill:black}
   ]]>
  </style>
 </defs>
 <g id="Layer_x0020_1">
  <metadata id="CorelCorpID_0Corel-Layer"/>
  <path class="fil0" d="M1121 1338l0 -395c-74,56 -123,84 -149,84 -12,0 -23,-5 -32,-14 -10,-10 -14,-21 -14,-34 0,-15 4,-26 14,-33 9,-6 25,-15 49,-26 35,-17 63,-34 84,-53 21,-18 40,-38 56,-61 16,-23 27,-36 32,-42 5,-5 14,-7 28,-7 15,0 27,5 37,17 9,12 14,28 14,50l0 497c0,59 -20,88 -60,88 -18,0 -32,-6 -43,-18 -11,-12 -16,-29 -16,-53zm-1023 -355c1,48 5,120 28,158 17,27 49,51 82,60 32,8 68,9 97,-4 21,-10 24,-12 42,-26l16 -17c46,-56 18,-113 18,-172 0,-65 24,-143 53,-191 23,-36 33,-53 66,-84 34,-32 60,-52 103,-72 49,-24 122,-42 191,-42l552 0c27,0 48,11 60,26 16,21 15,34 15,68 0,27 0,55 0,82 0,27 7,48 40,48 16,0 26,-9 36,-16l398 -279c11,-8 20,-14 28,-24 17,-23 17,-54 2,-77 -12,-19 -68,-54 -88,-68 -42,-30 -81,-57 -122,-86l-213 -150c-23,-17 -26,-19 -43,-19l-6 0 0 0c-13,0 -32,15 -32,36 -1,26 2,120 -1,135 -6,40 -38,59 -81,58l-502 0c-22,0 -50,-1 -71,1 -21,1 -45,3 -66,5 -74,8 -157,33 -221,63 -44,21 -70,35 -110,63 -8,5 -14,9 -21,15 -29,23 -66,55 -91,83 -5,7 -10,12 -16,19 -10,12 -20,26 -29,39l-27 42c-55,103 -86,197 -87,325l0 1zm1678 100c0,45 9,55 9,100 0,96 -47,208 -120,276 -78,73 -177,114 -293,114l-552 0c-28,0 -48,-12 -60,-27 -17,-20 -15,-33 -15,-68 0,-27 -1,-55 0,-82 0,-26 -7,-48 -41,-48 -18,0 -47,24 -65,37l-306 215c-22,15 -41,28 -62,43 -23,16 -38,27 -42,61 -1,12 6,32 11,39 15,22 65,52 88,68l336 237c27,19 21,19 49,19 13,0 31,-14 32,-36 0,-25 -2,-120 0,-134 6,-41 38,-59 81,-59l503 0c68,0 67,1 137,-6 138,-14 295,-84 391,-173 42,-40 64,-62 97,-109 73,-105 113,-242 113,-369 0,-44 -6,-121 -28,-157 -34,-55 -116,-83 -179,-55 -20,9 -35,17 -49,34 -20,22 -35,47 -35,80z"/>
 </g>
</svg>
