<?xml version="1.0" encoding="UTF-8"?>
<!DOCTYPE svg PUBLIC "-//W3C//DTD SVG 1.1//EN" "http://www.w3.org/Graphics/SVG/1.1/DTD/svg11.dtd">
<!-- Creator: CorelDRAW X7 -->
<svg xmlns="http://www.w3.org/2000/svg" xml:space="preserve" width="2.16535in" height="2.16535in" version="1.1" style="shape-rendering:geometricPrecision; text-rendering:geometricPrecision; image-rendering:optimizeQuality; fill-rule:evenodd; clip-rule:evenodd"
viewBox="0 0 2165 2165"
 xmlns:xlink="http://www.w3.org/1999/xlink">
 <defs>
  <style type="text/css">
   <![CDATA[
    .fil0 {fill:black}
   ]]>
  </style>
 </defs>
 <g id="Layer_x0020_1">
  <metadata id="CorelCorpID_0Corel-Layer"/>
  <path class="fil0" d="M1513 1991c-13,-25 -17,-31 -28,-50 -1,5 -2,10 -2,14 0,7 1,12 3,17 1,4 4,7 6,10 4,3 7,5 11,7 3,1 6,1 10,2zm-254 -146c-181,0 -422,1 -485,1 -98,0 -196,0 -294,0 -45,0 -96,5 -135,-11 -35,-15 -62,-40 -77,-71 -22,-43 -17,-76 -17,-128l0 -1172c0,-50 -5,-90 17,-130 15,-30 41,-56 75,-71 40,-17 87,-12 135,-12l365 0c27,0 45,-4 63,10 27,21 31,73 31,117 0,51 -7,255 7,286 17,41 53,43 104,43 58,0 242,-5 287,6 48,11 60,34 59,89 0,141 0,366 0,553 44,-39 96,-69 153,-89l0 -437c0,-48 5,-129 -8,-169 -23,-71 -106,-152 -156,-202 -14,-14 -29,-31 -45,-44 -24,-19 -51,-43 -70,-65 -25,-30 -100,-107 -132,-135 -8,-7 -15,-16 -24,-23 -117,-95 -111,-92 -266,-92 -120,0 -239,0 -359,0 -59,0 -112,-4 -167,11 -44,13 -92,40 -117,64 -64,60 -105,123 -105,251l0 1248c0,62 7,102 30,152 34,72 104,137 195,162 53,15 110,11 167,11 33,0 572,2 855,2 -37,-45 -67,-98 -86,-155zm243 -405l25 -25 -3 1c-5,2 -8,4 -12,7 -4,3 -6,6 -8,10 -1,2 -1,4 -2,7zm-434 -262l-53 0 0 266 53 0c9,0 17,-7 17,-14l0 -55 120 0c6,0 11,-4 11,-9l0 -100c0,-5 -5,-9 -11,-9l-120 0 0 -65c0,-7 -8,-14 -17,-14zm-399 -32l308 0c6,0 10,3 10,8l0 311c0,4 -4,8 -10,8l-308 0c-5,0 -10,-4 -10,-8l0 -311c0,-5 5,-8 10,-8zm-91 32l54 0 0 266 -54 0c-9,0 -16,-7 -16,-14l0 -55 -121 0c-6,0 -10,-4 -10,-9l0 -100c0,-5 4,-9 10,-9l121 0 0 -65c0,-7 7,-14 16,-14zm1123 160c101,0 193,41 259,107 66,66 107,157 107,257 0,101 -41,192 -107,258 -66,66 -158,107 -259,107 -101,0 -192,-41 -258,-107 -66,-66 -107,-157 -107,-258 0,-100 41,-191 107,-257 66,-66 157,-107 258,-107zm-46 362l-104 151c-8,10 -13,20 -17,29 -3,8 -4,15 -4,21 0,5 0,10 2,14 1,3 3,5 5,8 2,2 5,4 8,5 4,1 8,2 12,2 3,0 6,-1 8,-1 2,0 4,-1 7,-2 1,-1 3,-2 5,-3 2,-1 3,-2 5,-4l5 -5 3 -5c38,-57 75,-114 112,-170l92 144 22 32c1,2 3,4 4,5 2,2 4,4 6,5 3,1 5,2 7,3 3,0 6,1 10,1 3,0 6,-1 9,-1 2,-1 5,-2 7,-3 2,-1 4,-3 6,-5 2,-1 3,-3 4,-5 2,-2 2,-4 3,-7 1,-2 1,-4 1,-7 0,-3 0,-6 -1,-9 -1,-3 -2,-7 -4,-11 -2,-4 -4,-8 -7,-14 -3,-5 -7,-11 -11,-17 -35,-50 -70,-106 -103,-158l96 -144c8,-11 13,-21 17,-30 3,-8 5,-15 5,-21 0,-3 0,-6 -2,-8 -1,-3 -3,-5 -5,-8l0 0c-3,-2 -6,-4 -9,-5 -3,-1 -7,-2 -12,-2 -2,0 -5,0 -7,1 -1,0 -3,1 -5,1l0 0c-2,1 -3,2 -5,3 -1,1 -3,3 -4,4 -2,2 -4,4 -6,7 -36,53 -71,108 -107,162l-80 -129c-6,-11 -12,-19 -17,-26 -4,-7 -8,-12 -11,-15 -3,-3 -6,-5 -9,-6 -3,-1 -8,-2 -13,-2 -4,0 -8,1 -12,2 -3,1 -6,3 -9,5 -3,3 -5,6 -6,8 -1,2 -1,5 -1,7 0,4 0,7 1,11 1,3 2,7 4,11 1,4 4,9 7,15 3,5 6,11 10,17l92 142 -4 7z"/>
 </g>
</svg>
