<?xml version="1.0" encoding="UTF-8"?>
<!DOCTYPE svg PUBLIC "-//W3C//DTD SVG 1.1//EN" "http://www.w3.org/Graphics/SVG/1.1/DTD/svg11.dtd">
<!-- Creator: CorelDRAW X7 -->
<svg xmlns="http://www.w3.org/2000/svg" xml:space="preserve" width="2.16535in" height="2.16535in" version="1.1" style="shape-rendering:geometricPrecision; text-rendering:geometricPrecision; image-rendering:optimizeQuality; fill-rule:evenodd; clip-rule:evenodd"
viewBox="0 0 2165 2165"
 xmlns:xlink="http://www.w3.org/1999/xlink">
 <defs>
  <style type="text/css">
   <![CDATA[
    .fil0 {fill:black}
   ]]>
  </style>
 </defs>
 <g id="Layer_x0020_1">
  <metadata id="CorelCorpID_0Corel-Layer"/>
  <path class="fil0" d="M1697 1181l-135 0 0 797 135 0c22,0 41,-18 41,-41l0 -165 302 0c15,0 27,-13 27,-28l0 -299c0,-15 -12,-28 -27,-28l-302 0 0 -195c0,-22 -19,-41 -41,-41zm-1094 -313l-229 -616c51,30 102,49 153,59l0 -213 152 0 0 213c51,-10 102,-29 153,-59l-229 616zm-134 313l134 0 0 797 -134 0c-23,0 -42,-18 -42,-41l0 -165 -301 0c-15,0 -28,-13 -28,-28l0 -299c0,-15 13,-28 28,-28l301 0 0 -195c0,-22 19,-41 42,-41zm227 -98l773 0c14,0 25,11 25,24l0 935c0,14 -11,25 -25,25l-773 0c-13,0 -25,-11 -25,-25l0 -935c0,-13 12,-24 25,-24z"/>
 </g>
</svg>
