<?xml version="1.0" encoding="UTF-8"?>
<!DOCTYPE svg PUBLIC "-//W3C//DTD SVG 1.1//EN" "http://www.w3.org/Graphics/SVG/1.1/DTD/svg11.dtd">
<!-- Creator: CorelDRAW X7 -->
<svg xmlns="http://www.w3.org/2000/svg" xml:space="preserve" width="2.16535in" height="2.16535in" version="1.1" style="shape-rendering:geometricPrecision; text-rendering:geometricPrecision; image-rendering:optimizeQuality; fill-rule:evenodd; clip-rule:evenodd"
viewBox="0 0 2165 2165"
 xmlns:xlink="http://www.w3.org/1999/xlink">
 <defs>
  <style type="text/css">
   <![CDATA[
    .fil0 {fill:black}
   ]]>
  </style>
 </defs>
 <g id="Layer_x0020_1">
  <metadata id="CorelCorpID_0Corel-Layer"/>
  <path class="fil0" d="M918 1016l1019 0c71,0 130,58 130,129l0 389c0,71 -59,129 -130,129l-1019 0c-72,0 -131,-58 -131,-129l0 -389c0,-71 59,-129 131,-129zm312 155c-7,0 -12,4 -12,9l0 319c0,5 5,9 12,9l394 0c7,0 13,-4 13,-9l0 -319c0,-5 -6,-9 -13,-9l-394 0zm510 34l-68 0 0 272 68 0c11,0 21,-6 21,-14l0 -56 153 0c8,0 14,-4 14,-10l0 -102c0,-5 -6,-9 -14,-9l-153 0 0 -67c0,-8 -10,-14 -21,-14zm-626 0c-11,0 -21,6 -21,14l0 67 -153 0c-8,0 -14,4 -14,9l0 102c0,6 6,10 14,10l153 0 0 56c0,8 10,14 21,14l69 0 0 -272 -69 0zm-29 703l-1 0c-69,-2 -140,0 -210,0 -90,0 -186,-3 -274,1l0 0 -105 0c-47,0 -99,5 -140,-12 -37,-15 -64,-41 -80,-73 -23,-45 -18,-79 -18,-133l0 -1214c0,-51 -5,-93 17,-135 17,-31 43,-58 78,-73 43,-18 91,-13 141,-13l380 0c28,0 46,-3 65,11 28,21 32,76 32,121 1,53 -6,264 7,297 18,42 55,43 109,43 60,0 252,-4 298,7 50,12 62,36 62,92l0 139 159 0 0 -111c0,-50 5,-133 -9,-175 -23,-73 -110,-157 -162,-209 -15,-15 -30,-32 -47,-45 -24,-20 -53,-46 -73,-68 -26,-31 -104,-111 -136,-140 -9,-7 -16,-16 -25,-23 -122,-99 -116,-96 -278,-96 -124,0 -248,0 -372,0 -62,0 -116,-4 -174,12 -46,12 -96,41 -121,66 -67,62 -110,127 -110,260l0 1292c0,65 7,106 31,157 36,76 108,143 203,169 55,15 114,11 173,11 41,0 415,2 528,0l165 0c59,0 118,4 173,-11 95,-26 167,-94 203,-169 24,-51 31,-93 31,-157l0 -16 -159 0c1,42 2,72 -18,110 -16,32 -43,58 -80,73 -40,17 -93,12 -140,12l-123 0z"/>
 </g>
</svg>
