<?xml version="1.0" encoding="UTF-8"?>
<!DOCTYPE svg PUBLIC "-//W3C//DTD SVG 1.1//EN" "http://www.w3.org/Graphics/SVG/1.1/DTD/svg11.dtd">
<!-- Creator: CorelDRAW X7 -->
<svg xmlns="http://www.w3.org/2000/svg" xml:space="preserve" width="2.16535in" height="2.16535in" version="1.1" style="shape-rendering:geometricPrecision; text-rendering:geometricPrecision; image-rendering:optimizeQuality; fill-rule:evenodd; clip-rule:evenodd"
viewBox="0 0 2165 2165"
 xmlns:xlink="http://www.w3.org/1999/xlink">
 <defs>
  <style type="text/css">
   <![CDATA[
    .fil0 {fill:black}
   ]]>
  </style>
 </defs>
 <g id="Layer_x0020_1">
  <metadata id="CorelCorpID_0Corel-Layer"/>
  <path class="fil0" d="M1314 1909l-1 0c-68,-3 -139,-1 -209,-1 -89,0 -184,-3 -272,1l0 0 -104 0c-47,0 -99,5 -139,-12 -37,-15 -64,-41 -80,-73 -22,-45 -18,-79 -18,-133l0 -1214c0,-51 -4,-93 18,-135 16,-31 43,-58 77,-73 42,-18 91,-13 140,-13l377 0c28,0 46,-3 65,11 28,21 32,76 32,121 1,53 -7,264 7,297 18,42 55,43 108,43 60,0 250,-4 296,7 50,12 62,36 62,92 -1,202 -2,405 0,607l0 0 0 257c0,54 4,88 -18,132 -16,32 -43,58 -79,73 -41,17 -93,13 -140,13l-122 0zm516 -636c2,-7 1,-18 0,-43l0 -3 0 -2 0 -6 0 -6 0 -6 0 -6 0 -5 0 -6 0 -6 0 -6 0 -5 0 -6 0 -6 0 -6 0 -6 0 -5 0 -6 0 -6 0 -6 0 -5 0 -6 0 -6 0 -6 0 -6 0 -5 0 -6 0 -6 0 -6 0 -5 0 -6 0 -6 0 -6 0 -2 0 -194c0,-50 6,-133 -8,-175 -24,-73 -110,-157 -161,-209 -15,-14 -30,-32 -47,-45 -24,-20 -52,-46 -72,-68 -26,-31 -104,-111 -136,-140 -8,-7 -16,-16 -25,-23 -121,-99 -115,-96 -275,-96 -124,0 -247,0 -370,0 -62,0 -116,-4 -173,12 -46,12 -95,41 -121,66 -66,62 -108,127 -108,260l0 1293c0,64 6,105 30,156 36,76 108,143 202,169 55,15 113,11 172,11 41,0 412,2 524,0l164 0c59,0 118,4 173,-11 93,-26 166,-94 201,-169 24,-51 30,-93 30,-157l0 -456zm-1000 -56l55 0 0 275 -55 0c-10,0 -17,-7 -17,-14l0 -57 -125 0c-6,0 -11,-5 -11,-10l0 -103c0,-5 5,-10 11,-10l125 0 0 -67c0,-8 7,-14 17,-14zm93 -34l319 0c6,0 10,4 10,9l0 322c0,5 -4,8 -10,8l-319 0c-5,0 -10,-3 -10,-8l0 -322c0,-5 5,-9 10,-9zm413 34l-56 0 0 275 56 0c9,0 17,-7 17,-14l0 -57 124 0c6,0 11,-5 11,-10l0 -103c0,-5 -5,-10 -11,-10l-124 0 0 -67c0,-8 -8,-14 -17,-14z"/>
 </g>
</svg>
