<?xml version="1.0" encoding="UTF-8"?>
<!DOCTYPE svg PUBLIC "-//W3C//DTD SVG 1.1//EN" "http://www.w3.org/Graphics/SVG/1.1/DTD/svg11.dtd">
<!-- Creator: CorelDRAW X7 -->
<svg xmlns="http://www.w3.org/2000/svg" xml:space="preserve" width="2.16535in" height="2.16535in" version="1.1" style="shape-rendering:geometricPrecision; text-rendering:geometricPrecision; image-rendering:optimizeQuality; fill-rule:evenodd; clip-rule:evenodd"
viewBox="0 0 2165 2165"
 xmlns:xlink="http://www.w3.org/1999/xlink">
 <defs>
  <style type="text/css">
   <![CDATA[
    .fil0 {fill:black}
   ]]>
  </style>
 </defs>
 <g id="Layer_x0020_1">
  <metadata id="CorelCorpID_0Corel-Layer"/>
  <path class="fil0" d="M735 1357c39,44 94,71 153,71 60,0 114,-27 154,-71 39,-43 63,-104 63,-170 0,-67 -24,-128 -63,-171 -39,-44 -94,-71 -154,-71 -60,0 -114,27 -153,71 -39,43 -63,104 -63,171 0,66 24,127 63,170zm1332 -554l-1 -37 -2 -35 -4 -36 -6 -34 -7 -34 -8 -34 -10 -32 -12 -32 -12 -32 -14 -30 -16 -29 -16 -29 -18 -28 -18 -26 -20 -26 -21 -24 -22 -24 -23 -22 -24 -21 -25 -19 -25 -19 -27 -17 -27 -15 -28 -14 -29 -13 -29 -11 -30 -9 -31 -8 -31 -6 -31 -5 -32 -3 -33 -1 -33 1 -32 3 -31 5 -31 6 -31 8 -30 9 -525 166 38 -11 38 -10 39 -8 39 -6 40 -3 41 -1 41 1 40 3 39 6 39 8 38 10 38 11 37 14 35 16 35 18 35 19 33 21 32 23 31 25 29 26 29 28 28 29 26 30 25 32 23 33 22 35 21 36 19 37 17 38 16 39 14 40 12 40 11 42 9 43 7 43 5 44 3 45 1 45 -1 46 -3 44 -5 44 -7 44 -9 42 -11 42 -12 41 -14 40 -16 39 -17 38 -19 37 -21 36 -22 34 -23 33 -25 32 361 -453 20 -25 18 -27 18 -27 16 -29 16 -29 14 -31 12 -31 12 -32 10 -33 8 -33 7 -34 6 -35 4 -35 2 -36 1 -36zm-1179 690c-75,0 -144,-35 -194,-90 -49,-56 -80,-132 -80,-216 0,-85 31,-161 80,-217 50,-55 119,-89 194,-89 76,0 145,34 194,89 50,56 81,132 81,217 0,84 -31,161 -80,216 -50,55 -119,90 -195,90zm-442 187c113,126 270,204 442,204 173,0 330,-78 443,-204 113,-126 184,-301 184,-493 0,-193 -71,-368 -184,-494 -113,-126 -270,-204 -443,-204 -172,0 -329,78 -442,204 -114,126 -184,301 -184,494 0,192 70,367 184,493zm1001 -1116c-143,-159 -340,-258 -559,-258 -218,0 -415,99 -558,258 -143,159 -232,379 -232,623 0,243 89,463 232,622 143,159 340,258 558,258 219,0 416,-99 559,-258 143,-159 231,-379 231,-622 0,-244 -88,-464 -231,-623zm-559 1385c-189,0 -360,-86 -483,-223 -124,-139 -201,-329 -201,-539 0,-211 77,-402 201,-539 123,-138 294,-224 483,-224 189,0 360,86 484,224 124,137 200,328 200,539 0,210 -76,400 -200,538 -124,138 -295,224 -484,224z"/>
 </g>
</svg>
