<?xml version="1.0" encoding="UTF-8"?>
<!DOCTYPE svg PUBLIC "-//W3C//DTD SVG 1.1//EN" "http://www.w3.org/Graphics/SVG/1.1/DTD/svg11.dtd">
<!-- Creator: CorelDRAW X7 -->
<svg xmlns="http://www.w3.org/2000/svg" xml:space="preserve" width="2.16535in" height="2.16535in" version="1.1" style="shape-rendering:geometricPrecision; text-rendering:geometricPrecision; image-rendering:optimizeQuality; fill-rule:evenodd; clip-rule:evenodd"
viewBox="0 0 2165 2165"
 xmlns:xlink="http://www.w3.org/1999/xlink">
 <defs>
  <style type="text/css">
   <![CDATA[
    .fil0 {fill:black}
   ]]>
  </style>
 </defs>
 <g id="Layer_x0020_1">
  <metadata id="CorelCorpID_0Corel-Layer"/>
  <path class="fil0" d="M982 1924l-1 0c-61,-2 -125,-1 -188,0 -81,-1 -166,-3 -245,0l0 0 -94 0c-42,0 -89,5 -126,-10 -33,-14 -57,-38 -72,-67 -20,-40 -16,-70 -16,-119l0 -1094c0,-47 -4,-84 16,-122 14,-28 39,-52 70,-66 38,-16 81,-12 126,-12l340 0c25,0 42,-3 59,10 24,19 28,68 28,109 1,48 -6,238 7,268 16,37 49,39 97,39 54,0 225,-4 267,6 45,10 56,32 56,83 -1,182 -2,365 0,548l0 0 0 231c0,48 4,79 -16,119 -15,29 -39,52 -72,66 -36,15 -84,11 -126,11l-110 0zm618 -194l-1 0c-49,-1 -100,-1 -151,0l0 -379c1,-6 0,-16 0,-39l0 -2 0 -3 0 -5 0 -5 0 -5 0 -5 0 -6 0 -5 0 -5 0 -5 0 -5 0 -6 0 -5 0 -5 0 -5 0 -6 0 -5 0 -5 0 -5 0 -5 0 -6 0 -5 0 -5 0 -5 0 -5 0 -6 0 -5 0 -5 0 -5 0 -5 0 -6 0 -5 0 -2 0 -175c0,-45 5,-120 -8,-158 -21,-66 -99,-141 -145,-188 -13,-13 -27,-29 -42,-41 -22,-18 -48,-41 -65,-61 -24,-28 -94,-100 -123,-126 -7,-7 -14,-15 -22,-21 -78,-63 -97,-80 -153,-85 14,-18 32,-32 54,-42 38,-16 82,-11 126,-11l340 0c25,0 42,-4 59,10 25,19 28,68 29,109 0,48 -6,238 6,267 16,38 49,39 97,39 54,0 226,-4 268,6 44,11 55,32 55,83 0,183 -2,366 0,548l0 0 0 231c0,49 4,79 -16,119 -14,29 -39,53 -72,67 -36,15 -83,10 -125,10l-111 0zm-167 143c50,0 94,0 121,0l147 -1c54,0 106,4 156,-10 84,-23 150,-84 181,-152 22,-46 28,-84 28,-141l0 -411c1,-7 0,-17 0,-39l0 -3 0 -2 0 -5 0 -6 0 -5 0 -5 0 -5 0 -5 0 -6 0 -5 0 -5 0 -5 0 -6 0 -5 0 -5 0 -5 0 -5 0 -6 0 -5 0 -5 0 -5 0 -5 0 -6 0 -5 0 -5 0 -5 0 -5 0 -6 0 -5 0 -5 0 -5 0 -5 0 -2 0 -176c0,-44 5,-119 -7,-158 -22,-65 -99,-141 -146,-187 -13,-14 -27,-30 -42,-42 -22,-17 -47,-40 -65,-61 -23,-27 -93,-100 -123,-126 -7,-7 -14,-14 -22,-21 -109,-89 -104,-86 -248,-86 -112,0 -223,0 -334,0 -55,0 -104,-4 -156,11 -41,11 -85,37 -109,59 -37,35 -66,72 -82,123l-271 0c-56,0 -104,-3 -156,11 -41,12 -86,37 -109,59 -60,57 -98,115 -98,235l0 1166c0,57 6,95 28,141 32,68 97,129 181,152 50,14 103,10 156,10 36,0 371,2 473,0l147 0c53,0 106,3 156,-10 84,-24 149,-84 181,-152 5,-11 9,-21 13,-31zm-888 -572l50 0 0 247 -50 0c-8,0 -15,-5 -15,-12l0 -52 -112 0c-6,0 -10,-4 -10,-8l0 -93c0,-5 4,-9 10,-9l112 0 0 -61c0,-7 7,-12 15,-12zm85 -31l287 0c5,0 9,3 9,8l0 290c0,4 -4,8 -9,8l-287 0c-5,0 -9,-4 -9,-8l0 -290c0,-5 4,-8 9,-8zm372 31l-50 0 0 247 50 0c8,0 15,-5 15,-12l0 -52 112 0c6,0 10,-4 10,-8l0 -93c0,-5 -4,-9 -10,-9l-112 0 0 -61c0,-7 -7,-12 -15,-12z"/>
 </g>
</svg>
