<?xml version="1.0" encoding="UTF-8"?>
<!DOCTYPE svg PUBLIC "-//W3C//DTD SVG 1.1//EN" "http://www.w3.org/Graphics/SVG/1.1/DTD/svg11.dtd">
<!-- Creator: CorelDRAW X7 -->
<svg xmlns="http://www.w3.org/2000/svg" xml:space="preserve" width="2.16535in" height="2.16535in" version="1.1" style="shape-rendering:geometricPrecision; text-rendering:geometricPrecision; image-rendering:optimizeQuality; fill-rule:evenodd; clip-rule:evenodd"
viewBox="0 0 2165 2165"
 xmlns:xlink="http://www.w3.org/1999/xlink">
 <defs>
  <style type="text/css">
   <![CDATA[
    .fil0 {fill:black}
   ]]>
  </style>
 </defs>
 <g id="Layer_x0020_1">
  <metadata id="CorelCorpID_0Corel-Layer"/>
  <path class="fil0" d="M1701 1338c101,0 193,41 259,107 66,66 107,157 107,257 0,101 -41,192 -107,258 -66,66 -158,107 -259,107 -101,0 -192,-41 -258,-107 -66,-66 -107,-157 -107,-258 0,-100 41,-191 107,-257 66,-66 157,-107 258,-107zm-40 157l0 168 -163 0 0 78 163 0 0 168 81 0 0 -168 163 0 0 -78 -163 0 0 -168 -81 0zm-1083 -317l54 0 0 266 -54 0c-9,0 -16,-7 -16,-14l0 -55 -121 0c-6,0 -10,-4 -10,-9l0 -100c0,-5 4,-9 10,-9l121 0 0 -65c0,-7 7,-14 16,-14zm91 -32l308 0c6,0 10,3 10,8l0 311c0,4 -4,8 -10,8l-308 0c-5,0 -10,-4 -10,-8l0 -311c0,-5 5,-8 10,-8zm399 32l-53 0 0 266 53 0c9,0 17,-7 17,-14l0 -55 120 0c6,0 11,-4 11,-9l0 -100c0,-5 -5,-9 -11,-9l-120 0 0 -65c0,-7 -8,-14 -17,-14zm191 667c-181,0 -422,1 -485,1 -98,0 -196,0 -294,0 -45,0 -96,5 -135,-11 -35,-15 -62,-40 -77,-71 -22,-43 -17,-76 -17,-128l0 -1172c0,-50 -5,-90 17,-130 15,-30 41,-56 75,-71 40,-17 87,-12 135,-12l365 0c27,0 45,-4 63,10 27,21 31,73 31,117 0,51 -7,255 7,286 17,41 53,43 104,43 58,0 242,-5 287,6 48,11 60,34 59,89 0,141 0,366 0,553 44,-39 96,-69 153,-89l0 -437c0,-48 5,-129 -8,-169 -23,-71 -106,-152 -156,-202 -14,-14 -29,-31 -45,-44 -24,-19 -51,-43 -70,-65 -25,-30 -100,-107 -132,-135 -8,-7 -15,-16 -24,-23 -117,-95 -111,-92 -266,-92 -120,0 -239,0 -359,0 -59,0 -112,-4 -167,11 -44,13 -92,40 -117,64 -64,60 -105,123 -105,251l0 1248c0,62 7,102 30,152 34,72 104,137 195,162 53,15 110,11 167,11 33,0 572,2 855,2 -37,-45 -67,-98 -86,-155z"/>
 </g>
</svg>
