<?xml version="1.0" encoding="UTF-8"?>
<!DOCTYPE svg PUBLIC "-//W3C//DTD SVG 1.1//EN" "http://www.w3.org/Graphics/SVG/1.1/DTD/svg11.dtd">
<!-- Creator: CorelDRAW X7 -->
<svg xmlns="http://www.w3.org/2000/svg" xml:space="preserve" width="2.16535in" height="2.16535in" version="1.1" style="shape-rendering:geometricPrecision; text-rendering:geometricPrecision; image-rendering:optimizeQuality; fill-rule:evenodd; clip-rule:evenodd"
viewBox="0 0 2165 2165"
 xmlns:xlink="http://www.w3.org/1999/xlink">
 <defs>
  <style type="text/css">
   <![CDATA[
    .fil0 {fill:black}
   ]]>
  </style>
 </defs>
 <g id="Layer_x0020_1">
  <metadata id="CorelCorpID_0Corel-Layer"/>
  <path class="fil0" d="M1216 2067c20,0 225,-66 270,-79 13,-4 16,-3 24,-11l232 -231c18,-18 137,-133 142,-142 -5,-9 -104,-105 -120,-122 -18,-18 -110,-116 -123,-122 -46,52 -96,102 -144,154l-208 220c-6,6 -6,4 -12,8 -9,7 -31,94 -37,113 -12,40 -40,136 -53,171 -9,24 5,41 29,41zm-639 -889l53 0 0 266 -53 0c-9,0 -16,-7 -16,-14l0 -55 -120 0c-7,0 -11,-4 -11,-9l0 -100c0,-5 4,-9 11,-9l120 0 0 -65c0,-7 7,-14 16,-14zm90 -32l308 0c6,0 10,3 10,8l0 311c0,4 -4,8 -10,8l-308 0c-5,0 -9,-4 -9,-8l0 -311c0,-5 4,-8 9,-8zm399 32l-54 0 0 266 54 0c9,0 16,-7 16,-14l0 -55 120 0c6,0 11,-4 11,-9l0 -100c0,-5 -5,-9 -11,-9l-120 0 0 -65c0,-7 -7,-14 -16,-14zm-41 819c0,-23 11,-54 17,-76 5,-17 19,-61 20,-75 -94,-3 -195,0 -290,0 -98,0 -195,0 -293,0 -45,0 -96,5 -135,-11 -35,-15 -61,-40 -76,-71 -22,-43 -18,-76 -18,-128l0 -1172c0,-50 -4,-90 17,-130 16,-30 41,-56 75,-71 41,-17 87,-12 135,-12l364 0c27,0 45,-4 63,10 26,21 30,73 31,117 0,51 -7,255 6,286 18,41 53,43 105,43 57,0 241,-5 286,6 48,11 59,34 59,89 0,195 -2,391 0,586 10,-6 116,-115 134,-132 24,-24 18,-15 18,-70 0,-119 0,-238 0,-357 0,-48 5,-129 -8,-169 -23,-71 -106,-152 -156,-202 -14,-14 -29,-31 -44,-44 -24,-19 -51,-43 -70,-65 -25,-30 -100,-107 -131,-135 -9,-7 -16,-16 -25,-23 -116,-95 -111,-92 -265,-92 -119,0 -239,0 -358,0 -59,0 -111,-4 -166,11 -45,13 -92,40 -117,64 -64,60 -105,123 -105,251l0 1248c0,62 7,102 30,152 34,72 104,137 194,162 53,15 110,11 167,11 45,0 515,2 536,-1zm703 -713l224 226c7,-3 101,-93 110,-114 13,-33 -2,-68 -17,-89 -13,-16 -40,-40 -57,-57 -39,-38 -81,-99 -143,-75 -24,10 -71,58 -90,80 -8,10 -20,18 -27,29z"/>
 </g>
</svg>
