<?xml version="1.0" encoding="UTF-8"?>
<!DOCTYPE svg PUBLIC "-//W3C//DTD SVG 1.1//EN" "http://www.w3.org/Graphics/SVG/1.1/DTD/svg11.dtd">
<!-- Creator: CorelDRAW X7 -->
<svg xmlns="http://www.w3.org/2000/svg" xml:space="preserve" width="2.16535in" height="2.16535in" version="1.1" style="shape-rendering:geometricPrecision; text-rendering:geometricPrecision; image-rendering:optimizeQuality; fill-rule:evenodd; clip-rule:evenodd"
viewBox="0 0 2165 2165"
 xmlns:xlink="http://www.w3.org/1999/xlink">
 <defs>
  <style type="text/css">
   <![CDATA[
    .fil0 {fill:black}
   ]]>
  </style>
 </defs>
 <g id="Layer_x0020_1">
  <metadata id="CorelCorpID_0Corel-Layer"/>
  <path class="fil0" d="M416 1398c48,0 88,40 88,90 0,51 -40,91 -88,91 -49,0 -89,-40 -89,-91 0,-50 40,-90 89,-90zm162 125c-19,0 -34,-16 -34,-35 0,-19 15,-35 34,-35l89 0c14,0 26,9 31,21l115 0c4,0 8,6 8,14l0 0c0,8 -4,14 -8,14l-115 0c-5,12 -17,21 -31,21l-89 0zm924 -613c312,0 565,259 565,578 0,320 -253,579 -565,579 -312,0 -565,-259 -565,-579 0,-319 253,-578 565,-578zm-1156 -812l140 0 0 579 -140 0 0 -579zm-26 579l191 0 0 69 -191 0 0 -69zm54 71l83 0 0 549 -83 0 0 -549zm-54 549l194 0 0 69 -194 0 0 -69zm-144 -1038l85 0 0 193 -85 0c-42,0 -78,-35 -78,-78l0 -37c0,-43 36,-78 78,-78zm83 -24l52 0 0 241 -52 0 0 -241zm1671 22l-1364 0 0 194 1457 0 0 -101c0,-51 -42,-93 -93,-93zm-1362 -23l-52 0 0 240 52 0 0 -240z"/>
 </g>
</svg>
