<?xml version="1.0" encoding="UTF-8"?>
<!DOCTYPE svg PUBLIC "-//W3C//DTD SVG 1.1//EN" "http://www.w3.org/Graphics/SVG/1.1/DTD/svg11.dtd">
<!-- Creator: CorelDRAW X7 -->
<svg xmlns="http://www.w3.org/2000/svg" xml:space="preserve" width="2.16535in" height="2.16535in" version="1.1" style="shape-rendering:geometricPrecision; text-rendering:geometricPrecision; image-rendering:optimizeQuality; fill-rule:evenodd; clip-rule:evenodd"
viewBox="0 0 2165 2165"
 xmlns:xlink="http://www.w3.org/1999/xlink">
 <defs>
  <style type="text/css">
   <![CDATA[
    .fil0 {fill:black;fill-rule:nonzero}
   ]]>
  </style>
 </defs>
 <g id="Layer_x0020_1">
  <metadata id="CorelCorpID_0Corel-Layer"/>
  <path class="fil0" d="M927 1628l13 -108c9,2 40,36 49,45 11,11 136,134 139,144 -36,19 -73,37 -109,55 -15,7 -103,54 -110,54l0 0c3,-7 9,-80 9,-95 -10,-1 -77,-27 -86,-31 -39,-17 -44,-22 -77,-40 -30,-16 -59,-38 -85,-60 -3,-2 -5,-4 -8,-6 -23,-20 -47,-43 -66,-66 -3,-3 -3,-4 -6,-7 -3,-4 -4,-5 -7,-8 -25,-31 -54,-70 -71,-105l-29 -60c-5,-13 -28,-72 -29,-88 7,2 5,5 10,16 37,78 78,130 142,187l38 31c30,22 62,45 95,63 50,27 91,48 146,66 9,3 32,12 42,13zm336 -1182c20,1 121,46 142,59 41,24 75,44 112,76l38 36c30,29 53,63 78,96 27,38 91,169 91,200 -8,-5 -28,-52 -38,-68 -20,-30 -22,-33 -44,-61 -10,-14 -40,-42 -52,-54 -19,-20 -35,-32 -56,-50l-30 -22c-59,-41 -102,-65 -170,-93 -13,-5 -67,-26 -80,-27 -1,8 -3,17 -4,26l-10 83c-15,-11 -33,-32 -47,-46 -16,-16 -32,-31 -48,-48 -12,-12 -72,-71 -82,-83 -3,-5 -9,-8 -10,-14 7,-2 101,-50 109,-54 15,-8 101,-54 110,-55l-9 99zm555 821c-17,0 -66,-9 -93,-9 -5,9 -12,32 -15,42 -21,63 -68,154 -114,206l-72 73c-18,18 -43,37 -64,52 -4,2 -5,4 -8,6 -23,14 -41,24 -66,36 -13,7 -25,13 -39,20 -25,11 -57,23 -86,30 2,-6 4,-6 16,-11 7,-2 11,-5 18,-8 63,-32 100,-65 149,-115l25 -28c2,-3 3,-4 5,-6l18 -23c60,-81 94,-145 128,-242 3,-8 12,-32 12,-41 -8,-1 -17,-2 -26,-3 -8,-1 -21,-3 -28,-4 -9,-1 -52,-5 -56,-6 2,-6 7,-9 11,-13 4,-4 8,-8 12,-12 21,-26 108,-111 138,-142 9,-8 15,-17 26,-23 9,18 18,36 27,54 10,21 81,158 82,167zm-897 -821c-6,1 -12,5 -18,8 -6,3 -11,4 -17,8 -13,6 -23,12 -34,18 -28,17 -37,26 -61,45l-34 31c-10,8 -14,15 -20,21 -21,22 -29,33 -49,57l-32 46c-4,6 -7,10 -11,16 -23,36 -56,102 -71,141 -4,11 -25,67 -26,79 20,5 50,6 71,9 9,1 17,2 25,2 -6,11 -125,128 -140,143 -5,6 -42,44 -49,46 -5,-11 -107,-212 -108,-221l0 0c9,2 95,12 110,12 3,-13 9,-29 14,-43 5,-15 10,-29 16,-43 5,-13 12,-26 18,-39 31,-62 89,-141 138,-184 3,-3 4,-3 7,-6 73,-69 154,-111 249,-144 6,-1 21,-8 22,-2zm162 -348c271,0 518,111 696,289 178,178 288,424 288,696 0,271 -110,517 -288,695 -178,179 -425,289 -696,289 -272,0 -518,-110 -696,-288 -178,-179 -289,-425 -289,-696 0,-272 111,-518 289,-696 178,-178 424,-289 696,-289zm604 380c-155,-154 -368,-250 -604,-250 -236,0 -450,96 -605,250 -154,155 -250,369 -250,605 0,236 96,449 250,604 155,155 369,250 605,250 236,0 449,-95 604,-250 155,-155 250,-368 250,-604 0,-236 -95,-450 -250,-605z"/>
 </g>
</svg>
