<?xml version="1.0" encoding="UTF-8"?>
<!DOCTYPE svg PUBLIC "-//W3C//DTD SVG 1.1//EN" "http://www.w3.org/Graphics/SVG/1.1/DTD/svg11.dtd">
<!-- Creator: CorelDRAW X7 -->
<svg xmlns="http://www.w3.org/2000/svg" xml:space="preserve" width="2.16535in" height="2.16535in" version="1.1" style="shape-rendering:geometricPrecision; text-rendering:geometricPrecision; image-rendering:optimizeQuality; fill-rule:evenodd; clip-rule:evenodd"
viewBox="0 0 2165 2165"
 xmlns:xlink="http://www.w3.org/1999/xlink">
 <defs>
  <style type="text/css">
   <![CDATA[
    .fil0 {fill:black;fill-rule:nonzero}
   ]]>
  </style>
 </defs>
 <g id="Layer_x0020_1">
  <metadata id="CorelCorpID_0Corel-Layer"/>
  <path class="fil0" d="M1083 98c271,0 518,111 696,289 178,178 288,424 288,696 0,271 -110,517 -288,695 -178,179 -425,289 -696,289 -272,0 -518,-110 -696,-288 -178,-179 -289,-425 -289,-696 0,-272 111,-518 289,-696 178,-178 424,-289 696,-289zm604 380c-155,-154 -368,-250 -604,-250 -236,0 -450,96 -605,250 -154,155 -250,369 -250,605 0,236 96,449 250,604 155,155 369,250 605,250 236,0 449,-95 604,-250 155,-155 250,-368 250,-604 0,-236 -95,-450 -250,-605zm-9 -10l-227 507c-14,-48 -32,-89 -56,-124l-260 268 -89 -86 259 -268c-36,-23 -78,-40 -125,-52l498 -245z"/>
 </g>
</svg>
