<?xml version="1.0" encoding="UTF-8"?>
<!DOCTYPE svg PUBLIC "-//W3C//DTD SVG 1.1//EN" "http://www.w3.org/Graphics/SVG/1.1/DTD/svg11.dtd">
<!-- Creator: CorelDRAW X7 -->
<svg xmlns="http://www.w3.org/2000/svg" xml:space="preserve" width="2.16535in" height="2.16535in" version="1.1" style="shape-rendering:geometricPrecision; text-rendering:geometricPrecision; image-rendering:optimizeQuality; fill-rule:evenodd; clip-rule:evenodd"
viewBox="0 0 2165 2165"
 xmlns:xlink="http://www.w3.org/1999/xlink">
 <defs>
  <style type="text/css">
   <![CDATA[
    .fil0 {fill:black;fill-rule:nonzero}
   ]]>
  </style>
 </defs>
 <g id="Layer_x0020_1">
  <metadata id="CorelCorpID_0Corel-Layer"/>
  <path class="fil0" d="M123 1665c0,26 3,50 43,50l334 0c61,0 53,-89 13,-89l-359 0c-21,0 -31,13 -31,39zm190 -531c0,26 2,50 43,50l466 0c63,0 54,-89 13,-89l-496 0c-10,0 -26,12 -26,39zm327 -888c0,21 6,50 26,50l568 0c29,0 46,-89 -21,-89l-526 0c-21,0 -47,13 -47,39zm-542 407c0,19 -1,56 35,56l483 0c21,0 35,-14 37,-40 1,-20 -12,-49 -28,-49l-501 0c-10,0 -26,20 -26,33zm1686 -296c0,-78 -3,-137 -59,-202 -52,-60 -133,-74 -196,-34 -11,7 -18,11 -28,20l-13 16c-57,68 -75,171 -45,264 11,33 16,42 34,67 1,1 2,2 2,3 50,68 116,85 189,57 61,-24 116,-120 116,-191zm-610 319c67,0 73,10 95,11 -2,21 -30,85 -40,105l-124 308c-33,88 -48,116 -99,183 -67,88 -174,133 -265,80 -41,-24 -35,-33 -86,-33 -65,0 -124,124 -57,208 36,46 146,93 198,93 116,0 153,1 262,-72 40,-27 109,-100 133,-146 50,35 57,27 124,80 44,34 135,102 168,150 7,10 8,12 15,25 33,62 95,248 124,324 25,66 38,75 93,75 44,0 86,-54 86,-112 0,-32 -21,-86 -30,-112 -7,-18 -13,-31 -20,-52l-57 -155c-63,-138 -50,-145 -165,-248 -54,-48 -86,-79 -145,-120 2,-26 10,-30 18,-50l146 -352c29,0 61,22 137,22 119,0 258,-97 319,-199 37,-61 63,-76 63,-147 0,-89 -112,-149 -172,-51 -41,65 -52,91 -120,135 -131,85 -258,-49 -367,-121 -344,-225 -616,181 -601,285 6,41 29,72 55,85 82,41 114,-35 150,-91 29,-46 101,-108 162,-108z"/>
 </g>
</svg>
