<?xml version="1.0" encoding="UTF-8"?>
<!DOCTYPE svg PUBLIC "-//W3C//DTD SVG 1.1//EN" "http://www.w3.org/Graphics/SVG/1.1/DTD/svg11.dtd">
<!-- Creator: CorelDRAW X7 -->
<svg xmlns="http://www.w3.org/2000/svg" xml:space="preserve" width="2.16535in" height="2.16535in" version="1.1" style="shape-rendering:geometricPrecision; text-rendering:geometricPrecision; image-rendering:optimizeQuality; fill-rule:evenodd; clip-rule:evenodd"
viewBox="0 0 2165 2165"
 xmlns:xlink="http://www.w3.org/1999/xlink">
 <defs>
  <style type="text/css">
   <![CDATA[
    .fil0 {fill:black}
   ]]>
  </style>
 </defs>
 <g id="Layer_x0020_1">
  <metadata id="CorelCorpID_0Corel-Layer"/>
  <path class="fil0" d="M1768 1747c0,-95 154,-117 154,0 0,105 -154,77 -154,0zm-1384 -1628c60,84 268,210 268,290 0,63 -129,214 -247,214 -41,0 -236,-219 -289,-252 -83,333 147,542 392,543 237,0 243,91 436,259l465 426c131,124 306,352 451,352 107,0 207,-90 207,-204 0,-103 -103,-169 -163,-225l-810 -761c-77,-72 -133,-112 -132,-255 2,-234 -214,-407 -382,-407 -149,0 -76,-7 -196,20zm-175 1677c0,137 154,271 299,271 93,0 107,-64 183,-138l231 -248c27,-31 53,-53 76,-85l119 -208 -235 -225c-37,24 -66,41 -104,62 -30,18 -76,39 -102,59 -67,52 -184,192 -243,248l-158 161c-28,33 -66,57 -66,103zm1559 -1425c34,66 -11,82 -81,147l-405 366 95 95c31,-18 57,-46 81,-75l260 -250c30,-28 53,-49 83,-77 72,-68 45,-60 101,-70 50,-9 31,10 93,-78 23,-34 48,-63 72,-97 -28,-39 -53,-52 -93,-78 -45,37 -156,91 -206,117z"/>
 </g>
</svg>
