<?xml version="1.0" encoding="UTF-8"?>
<!DOCTYPE svg PUBLIC "-//W3C//DTD SVG 1.1//EN" "http://www.w3.org/Graphics/SVG/1.1/DTD/svg11.dtd">
<!-- Creator: CorelDRAW X7 -->
<svg xmlns="http://www.w3.org/2000/svg" xml:space="preserve" width="2.16535in" height="2.16535in" version="1.1" style="shape-rendering:geometricPrecision; text-rendering:geometricPrecision; image-rendering:optimizeQuality; fill-rule:evenodd; clip-rule:evenodd"
viewBox="0 0 2165 2165"
 xmlns:xlink="http://www.w3.org/1999/xlink">
 <defs>
  <style type="text/css">
   <![CDATA[
    .fil0 {fill:black}
   ]]>
  </style>
 </defs>
 <g id="Layer_x0020_1">
  <metadata id="CorelCorpID_0Corel-Layer"/>
  <path class="fil0" d="M461 662l0 -165 358 0 0 165 -358 0zm0 331l0 -248 358 0 0 248 -358 0zm179 1074l541 -793c-122,38 -242,63 -362,76l0 -274 -358 0 0 274c-120,-13 -240,-38 -363,-76l542 793zm1328 -1969c55,0 99,47 99,104 0,58 -44,104 -99,104l-1672 0c-55,0 -99,-46 -99,-104 0,-57 44,-104 99,-104l1672 0zm6 393c51,0 93,47 93,104 0,57 -42,103 -93,103l-705 0c-52,0 -93,-46 -93,-103 0,-57 41,-104 93,-104l705 0zm0 393c51,0 93,46 93,103 0,58 -42,104 -93,104l-705 0c-52,0 -94,-46 -94,-104 0,-57 42,-103 94,-103l705 0z"/>
 </g>
</svg>
