<?xml version="1.0" encoding="UTF-8"?>
<!DOCTYPE svg PUBLIC "-//W3C//DTD SVG 1.1//EN" "http://www.w3.org/Graphics/SVG/1.1/DTD/svg11.dtd">
<!-- Creator: CorelDRAW X7 -->
<svg xmlns="http://www.w3.org/2000/svg" xml:space="preserve" width="2.16535in" height="2.16535in" version="1.1" style="shape-rendering:geometricPrecision; text-rendering:geometricPrecision; image-rendering:optimizeQuality; fill-rule:evenodd; clip-rule:evenodd"
viewBox="0 0 2165 2165"
 xmlns:xlink="http://www.w3.org/1999/xlink">
 <defs>
  <style type="text/css">
   <![CDATA[
    .fil0 {fill:black}
   ]]>
  </style>
 </defs>
 <g id="Layer_x0020_1">
  <metadata id="CorelCorpID_0Corel-Layer"/>
  <path class="fil0" d="M1631 1341c-11,5 -19,9 -30,17 -32,25 -70,66 -120,143 -27,41 -56,90 -87,141 -98,167 -213,361 -323,410 -8,4 -16,7 -24,9l0 0c-63,18 -119,-6 -166,-52 -41,-40 -75,-98 -102,-160 -19,-42 -34,-87 -45,-129l0 0c-40,-151 -27,-266 -20,-385 -177,-39 -335,-242 -497,-447 -35,-38 -35,-96 -1,-134 1,-1 2,-2 1,-1 -35,-76 -66,-152 -88,-221 -32,-101 -43,-189 -13,-252 32,-66 104,-98 195,-112l1 0c28,-4 50,-6 82,-8 7,-15 17,-25 31,-36l0 0c22,-16 51,-26 83,-26 31,0 61,10 82,26l1 0c25,19 41,46 41,76 0,31 -16,58 -41,76 -22,16 -51,26 -83,26 -32,0 -61,-10 -83,-26 -15,-11 -25,-21 -32,-38 -28,2 -46,4 -70,8 -68,10 -120,30 -138,68 -20,42 -10,111 17,194 20,66 51,140 84,215 24,0 49,10 68,29l0 0 2 2 5 6c153,194 307,388 417,388 47,1 101,-40 158,-101 69,-74 139,-177 208,-279 19,-28 49,-42 80,-41 76,-172 138,-332 101,-408 -26,-53 -108,-71 -216,-76 -7,14 -17,23 -30,33l0 0c-22,16 -51,26 -83,26 -32,0 -61,-10 -83,-26 -25,-18 -41,-45 -41,-76 0,-30 16,-57 41,-76l0 0c22,-16 51,-26 83,-26 32,0 61,10 83,26 16,12 27,23 33,41 133,7 240,33 282,120 51,106 -14,285 -100,474 29,33 33,83 7,121 -75,109 -149,218 -227,301 -83,89 -168,150 -265,160 -12,112 -19,215 17,353l0 0c10,39 24,78 40,116 22,52 50,98 81,128 23,24 49,36 75,29l0 0c3,-1 7,-2 11,-4 82,-37 189,-217 280,-371 32,-54 62,-104 88,-145 58,-88 104,-137 144,-167 33,-25 59,-35 85,-44 9,-43 30,-78 59,-108 40,-41 95,-67 157,-67 61,0 116,26 156,67l0 0c40,41 65,97 65,160 0,62 -25,119 -65,160 -40,40 -95,66 -156,66 -61,0 -117,-26 -157,-67l0 1c-28,-30 -49,-66 -58,-107z"/>
 </g>
</svg>
