<?xml version="1.0" encoding="UTF-8"?>
<!DOCTYPE svg PUBLIC "-//W3C//DTD SVG 1.1//EN" "http://www.w3.org/Graphics/SVG/1.1/DTD/svg11.dtd">
<!-- Creator: CorelDRAW X7 -->
<svg xmlns="http://www.w3.org/2000/svg" xml:space="preserve" width="2.16535in" height="2.16535in" version="1.1" style="shape-rendering:geometricPrecision; text-rendering:geometricPrecision; image-rendering:optimizeQuality; fill-rule:evenodd; clip-rule:evenodd"
viewBox="0 0 2165 2165"
 xmlns:xlink="http://www.w3.org/1999/xlink">
 <defs>
  <style type="text/css">
   <![CDATA[
    .fil0 {fill:black;fill-rule:nonzero}
   ]]>
  </style>
 </defs>
 <g id="Layer_x0020_1">
  <metadata id="CorelCorpID_0Corel-Layer"/>
  <path class="fil0" d="M1083 2067l-985 0 0 -67c0,-281 111,-536 289,-720 178,-184 424,-298 696,-298 271,0 517,114 696,298 178,184 288,439 288,720l0 67 -984 0zm-852 -134l1704 0c-16,-218 -108,-413 -248,-558 -155,-160 -368,-259 -604,-259 -236,0 -450,99 -605,259 -140,145 -232,340 -247,558zm852 -1091l-215 -595c49,29 96,48 144,57l0 -206 142 0 0 206c47,-9 95,-28 143,-57l-214 595z"/>
 </g>
</svg>
