<?xml version="1.0" encoding="UTF-8"?>
<!DOCTYPE svg PUBLIC "-//W3C//DTD SVG 1.1//EN" "http://www.w3.org/Graphics/SVG/1.1/DTD/svg11.dtd">
<!-- Creator: CorelDRAW X7 -->
<svg xmlns="http://www.w3.org/2000/svg" xml:space="preserve" width="2.16535in" height="2.16535in" version="1.1" style="shape-rendering:geometricPrecision; text-rendering:geometricPrecision; image-rendering:optimizeQuality; fill-rule:evenodd; clip-rule:evenodd"
viewBox="0 0 2165 2165"
 xmlns:xlink="http://www.w3.org/1999/xlink">
 <defs>
  <style type="text/css">
   <![CDATA[
    .fil0 {fill:black}
   ]]>
  </style>
 </defs>
 <g id="Layer_x0020_1">
  <metadata id="CorelCorpID_0Corel-Layer"/>
  <path class="fil0" d="M915 953l149 -75 128 139 -64 163 23 71 154 62 0 197 -151 65 -30 68 68 162 -128 140 -149 -70 -65 25 -58 167 -181 0 -60 -164 -62 -33 -150 75 -128 -139 64 -163 -23 -71 -154 -62 0 -197 151 -65 30 -68 -68 -162 128 -140 149 70 66 -25 57 -167 181 0 60 164 63 33zm-213 151c156,0 282,138 282,307 0,170 -126,308 -282,308 -157,0 -283,-138 -283,-308 0,-169 126,-307 283,-307zm1111 -251l97 -48 84 90 -42 106 15 46 100 41 0 128 -98 42 -20 44 45 106 -84 91 -97 -46 -42 16 -38 109 -117 0 -40 -106 -40 -22 -98 49 -83 -91 42 -106 -15 -46 -100 -40 0 -128 98 -43 19 -44 -44 -106 83 -90 98 45 42 -16 37 -109 118 0 40 107 40 21zm-139 99c102,0 184,89 184,200 0,110 -82,200 -184,200 -101,0 -184,-90 -184,-200 0,-111 83,-200 184,-200zm-292 -741l85 -43 74 80 -37 93 13 40 88 36 0 113 -86 37 -17 39 39 93 -73 79 -86 -39 -37 14 -33 95 -104 0 -34 -93 -36 -19 -85 42 -74 -79 37 -93 -13 -41 -88 -35 0 -113 86 -37 18 -39 -40 -93 74 -80 85 40 38 -14 32 -96 104 0 34 94 36 19zm-122 87c89,0 162,78 162,175 0,97 -73,176 -162,176 -89,0 -162,-79 -162,-176 0,-97 73,-175 162,-175z"/>
 </g>
</svg>
