<?xml version="1.0" encoding="UTF-8"?>
<!DOCTYPE svg PUBLIC "-//W3C//DTD SVG 1.1//EN" "http://www.w3.org/Graphics/SVG/1.1/DTD/svg11.dtd">
<!-- Creator: CorelDRAW X7 -->
<svg xmlns="http://www.w3.org/2000/svg" xml:space="preserve" width="2.16535in" height="2.16535in" version="1.1" style="shape-rendering:geometricPrecision; text-rendering:geometricPrecision; image-rendering:optimizeQuality; fill-rule:evenodd; clip-rule:evenodd"
viewBox="0 0 2165 2165"
 xmlns:xlink="http://www.w3.org/1999/xlink">
 <defs>
  <style type="text/css">
   <![CDATA[
    .fil0 {fill:black;fill-rule:nonzero}
   ]]>
  </style>
 </defs>
 <g id="Layer_x0020_1">
  <metadata id="CorelCorpID_0Corel-Layer"/>
  <path class="fil0" d="M1572 98c136,0 260,56 350,145l0 1c90,90 145,213 145,349 0,69 -14,135 -40,195l-370 1000c-4,13 -8,25 -13,37l0 0 0 0c-21,47 -49,90 -85,125 -72,72 -171,117 -281,117 -79,0 -153,-23 -215,-64l-805 -452c-11,-5 -23,-12 -34,-19 -16,-10 -30,-22 -44,-36l0 0c-50,-51 -82,-120 -82,-196 0,-77 32,-146 82,-197l0 0 7 -7 0 0c9,-8 18,-15 27,-22l1008 -830c90,-90 213,-146 350,-146zm214 942c-65,31 -137,48 -214,48 -137,0 -260,-55 -350,-145 -90,-89 -145,-213 -145,-350 0,-18 1,-36 3,-54l-620 496c43,13 81,37 113,68l0 0c50,51 81,120 81,197 0,76 -31,145 -81,196l0 0c-17,17 -36,32 -57,44l373 210c-5,-26 -8,-53 -8,-80 0,-110 45,-209 117,-281 72,-72 171,-116 280,-116 110,0 209,44 281,116l0 0c26,27 49,57 67,89l160 -438zm-373 495c-34,-34 -82,-55 -135,-55 -52,0 -100,21 -134,55 -34,35 -56,82 -56,135 0,52 22,100 56,134 34,35 82,56 134,56 53,0 100,-21 135,-56 34,-34 55,-81 55,-134 0,-53 -21,-101 -55,-135l0 0zm-986 -286l0 0c-13,-12 -31,-20 -51,-20 -19,0 -37,8 -50,20l0 0c-13,13 -20,31 -20,51 0,19 7,37 20,50l0 0c13,13 31,21 50,21 20,0 38,-8 51,-21l0 0c13,-13 20,-31 20,-50 0,-20 -7,-38 -20,-51zm1349 -860c-52,-51 -124,-83 -204,-83 -80,0 -152,32 -204,84 -52,52 -84,124 -84,203 0,80 32,152 84,204 52,52 124,84 204,84 80,0 152,-32 204,-84 52,-52 84,-124 84,-204 0,-79 -32,-151 -84,-203l0 -1z"/>
 </g>
</svg>
