<?xml version="1.0" encoding="UTF-8"?>
<!DOCTYPE svg PUBLIC "-//W3C//DTD SVG 1.1//EN" "http://www.w3.org/Graphics/SVG/1.1/DTD/svg11.dtd">
<!-- Creator: CorelDRAW X7 -->
<svg xmlns="http://www.w3.org/2000/svg" xml:space="preserve" width="2.16535in" height="2.16535in" version="1.1" style="shape-rendering:geometricPrecision; text-rendering:geometricPrecision; image-rendering:optimizeQuality; fill-rule:evenodd; clip-rule:evenodd"
viewBox="0 0 2165 2165"
 xmlns:xlink="http://www.w3.org/1999/xlink">
 <defs>
  <style type="text/css">
   <![CDATA[
    .fil0 {fill:black}
   ]]>
  </style>
 </defs>
 <g id="Layer_x0020_1">
  <metadata id="CorelCorpID_0Corel-Layer"/>
  <path class="fil0" d="M1950 704l0 -66 -311 0 0 66 30 0 0 1236 -76 0c-28,0 -51,23 -51,51l0 76 508 0 0 -76c0,-28 -23,-51 -51,-51l-79 0 0 -1236 30 0zm117 -286l0 179 -1969 2 0 -80c0,-56 45,-101 99,-101l1870 0zm-149 -219l0 107 31 0 0 66 -312 0 0 -66 31 0 0 -107c0,-55 45,-101 101,-101l48 0c56,0 101,46 101,101z"/>
 </g>
</svg>
