<?xml version="1.0" encoding="UTF-8"?>
<!DOCTYPE svg PUBLIC "-//W3C//DTD SVG 1.1//EN" "http://www.w3.org/Graphics/SVG/1.1/DTD/svg11.dtd">
<!-- Creator: CorelDRAW X7 -->
<svg xmlns="http://www.w3.org/2000/svg" xml:space="preserve" width="2.16535in" height="2.16535in" version="1.1" style="shape-rendering:geometricPrecision; text-rendering:geometricPrecision; image-rendering:optimizeQuality; fill-rule:evenodd; clip-rule:evenodd"
viewBox="0 0 2165 2165"
 xmlns:xlink="http://www.w3.org/1999/xlink">
 <defs>
  <style type="text/css">
   <![CDATA[
    .fil0 {fill:black}
   ]]>
  </style>
 </defs>
 <g id="Layer_x0020_1">
  <metadata id="CorelCorpID_0Corel-Layer"/>
  <path class="fil0" d="M1083 1883c-25,0 -47,-8 -66,-24 -19,-17 -29,-40 -29,-70 0,-26 9,-48 27,-66 19,-18 41,-28 67,-28 26,0 49,10 67,28 19,18 28,40 28,66 0,29 -9,53 -28,69 -19,17 -41,25 -66,25zm-69 -413l-20 -301c-4,-58 -6,-100 -6,-126 0,-35 9,-62 27,-81 19,-20 42,-29 72,-29 36,0 60,12 72,37 12,25 18,61 18,108 0,27 -1,55 -4,84l-27 309c-3,37 -9,65 -19,85 -9,20 -25,30 -48,30 -22,0 -38,-10 -46,-29 -9,-19 -15,-48 -19,-87zm1053 597l-984 -1969 -985 1969 1969 0z"/>
 </g>
</svg>
