<?xml version="1.0" encoding="UTF-8"?>
<!DOCTYPE svg PUBLIC "-//W3C//DTD SVG 1.1//EN" "http://www.w3.org/Graphics/SVG/1.1/DTD/svg11.dtd">
<!-- Creator: CorelDRAW X7 -->
<svg xmlns="http://www.w3.org/2000/svg" xml:space="preserve" width="2.16535in" height="2.16535in" version="1.1" style="shape-rendering:geometricPrecision; text-rendering:geometricPrecision; image-rendering:optimizeQuality; fill-rule:evenodd; clip-rule:evenodd"
viewBox="0 0 2165 2165"
 xmlns:xlink="http://www.w3.org/1999/xlink">
 <defs>
  <style type="text/css">
   <![CDATA[
    .fil0 {fill:black}
   ]]>
  </style>
 </defs>
 <g id="Layer_x0020_1">
  <metadata id="CorelCorpID_0Corel-Layer"/>
  <path class="fil0" d="M712 1308l-37 -45 -19 16 37 45 19 -16zm-186 123l47 32 13 -20 -46 -32 -14 20zm101 -82l-37 -38 -16 16 37 38 16 -16zm470 57l37 -44 20 16 -38 44 -19 -16zm217 93l-46 32 -14 -20 46 -32 14 20zm-165 -32l37 -37 16 16 -37 38 -16 -17zm918 168l0 432 -1969 0 0 -527 701 0 0 61 1268 0 0 34zm-1321 -671l375 -371 166 502 547 -539 -463 -458 -55 55 -666 660 78 169 18 -18zm238 68c21,-2 42,5 58,21 15,15 22,35 21,56 -1,21 -11,43 -28,60 -17,16 -38,26 -60,27 -21,1 -42,-6 -57,-21 -15,-15 -22,-36 -21,-57 1,-21 10,-42 27,-59 17,-17 39,-26 60,-27zm259 120l-150 -462 -378 374 152 474 379 -376 -3 -10z"/>
 </g>
</svg>
