<?xml version="1.0" encoding="UTF-8"?>
<!DOCTYPE svg PUBLIC "-//W3C//DTD SVG 1.1//EN" "http://www.w3.org/Graphics/SVG/1.1/DTD/svg11.dtd">
<!-- Creator: CorelDRAW X7 -->
<svg xmlns="http://www.w3.org/2000/svg" xml:space="preserve" width="2.16535in" height="2.16535in" version="1.1" style="shape-rendering:geometricPrecision; text-rendering:geometricPrecision; image-rendering:optimizeQuality; fill-rule:evenodd; clip-rule:evenodd"
viewBox="0 0 2165 2165"
 xmlns:xlink="http://www.w3.org/1999/xlink">
 <defs>
  <style type="text/css">
   <![CDATA[
    .fil0 {fill:black}
   ]]>
  </style>
 </defs>
 <g id="Layer_x0020_1">
  <metadata id="CorelCorpID_0Corel-Layer"/>
  <path class="fil0" d="M1994 1994l7 -617c0,-78 19,-149 -22,-221 -85,100 -107,209 -191,309l-265 -265 103 -103 -514 -514c-54,-54 -75,-13 -147,59l-264 -264c99,-85 209,-107 308,-191 -76,-45 -772,-28 -837,-15l-8 617c0,78 -19,148 23,220 84,-99 106,-209 191,-308l279 279 -118 117 544 544 117 -118 265 265c-100,84 -209,106 -309,191 71,41 317,22 411,22 122,0 320,13 427,-7zm-1135 -1143l98 0 0 260c0,42 1,68 3,81 4,19 14,35 29,47 16,12 37,18 64,18 27,0 48,-6 62,-17 13,-11 22,-25 24,-42 3,-16 5,-43 5,-81l0 -266 97 0 0 253c0,57 -3,98 -8,122 -5,24 -15,44 -29,60 -14,17 -33,30 -56,39 -24,10 -54,15 -92,15 -46,0 -80,-5 -104,-16 -24,-10 -42,-24 -56,-41 -14,-17 -23,-35 -27,-54 -6,-27 -10,-68 -10,-121l0 -257zm-114 716l-147 -146 -500 499 147 147 500 -500zm1322 -1322l-147 -147 -470 471 147 146 470 -470z"/>
 </g>
</svg>
