<?xml version="1.0" encoding="UTF-8"?>
<!DOCTYPE svg PUBLIC "-//W3C//DTD SVG 1.1//EN" "http://www.w3.org/Graphics/SVG/1.1/DTD/svg11.dtd">
<!-- Creator: CorelDRAW X7 -->
<svg xmlns="http://www.w3.org/2000/svg" xml:space="preserve" width="2.16535in" height="2.16535in" version="1.1" style="shape-rendering:geometricPrecision; text-rendering:geometricPrecision; image-rendering:optimizeQuality; fill-rule:evenodd; clip-rule:evenodd"
viewBox="0 0 2165 2165"
 xmlns:xlink="http://www.w3.org/1999/xlink">
 <defs>
  <style type="text/css">
   <![CDATA[
    .fil0 {fill:black}
   ]]>
  </style>
 </defs>
 <g id="Layer_x0020_1">
  <metadata id="CorelCorpID_0Corel-Layer"/>
  <path class="fil0" d="M98 1729c10,10 81,62 91,69 31,21 64,42 99,62 63,36 143,77 222,105 188,67 361,102 573,102 109,0 210,-10 311,-29 96,-18 177,-43 260,-73 120,-42 273,-126 368,-200 10,-9 38,-29 45,-36 -3,-14 -24,-46 -32,-60 -28,-50 -81,-117 -120,-157l-47 -46c-10,-8 -16,-15 -25,-23 -14,-12 -31,-24 -39,-31 -17,-15 -81,-57 -100,-68 -398,-237 -928,-221 -1301,37 -19,14 -36,27 -54,41 -31,23 -72,62 -99,90 -37,38 -92,108 -120,156 -7,14 -28,47 -32,61zm951 -1629c-83,6 -155,21 -220,50 -60,27 -115,59 -160,101 -39,37 -80,85 -107,143 -28,60 -45,129 -39,202 6,68 27,131 60,183 17,27 34,51 54,72 11,12 21,22 32,33 49,46 131,95 207,119 71,23 154,38 241,32 81,-5 157,-22 219,-50 62,-27 115,-58 160,-101 40,-37 81,-85 107,-143 28,-60 45,-129 39,-202 -6,-68 -26,-131 -60,-183 -16,-27 -33,-51 -53,-72 -12,-12 -21,-22 -32,-33 -6,-5 -11,-9 -17,-14 -50,-42 -113,-80 -190,-105 -71,-23 -155,-38 -241,-32z"/>
 </g>
</svg>
