<?xml version="1.0" encoding="UTF-8"?>
<!DOCTYPE svg PUBLIC "-//W3C//DTD SVG 1.1//EN" "http://www.w3.org/Graphics/SVG/1.1/DTD/svg11.dtd">
<!-- Creator: CorelDRAW X7 -->
<svg xmlns="http://www.w3.org/2000/svg" xml:space="preserve" width="2.16535in" height="2.16535in" version="1.1" style="shape-rendering:geometricPrecision; text-rendering:geometricPrecision; image-rendering:optimizeQuality; fill-rule:evenodd; clip-rule:evenodd"
viewBox="0 0 2165 2165"
 xmlns:xlink="http://www.w3.org/1999/xlink">
 <defs>
  <style type="text/css">
   <![CDATA[
    .fil0 {fill:black}
   ]]>
  </style>
 </defs>
 <g id="Layer_x0020_1">
  <metadata id="CorelCorpID_0Corel-Layer"/>
  <path class="fil0" d="M1003 2067l159 0 0 -508 -159 0 0 508zm0 -1429l159 0 0 -540 -159 0 0 540zm-91 628l127 -191 -115 -176 87 0 72 109 72 -109 87 0 -115 176 126 191 -89 0 -81 -124 -82 124 -89 0zm-814 -183l330 337c42,42 69,91 131,107 -8,-99 -55,-170 -64,-270l286 0 0 111 556 0c58,0 47,-33 47,-111l286 0c-8,100 -55,171 -63,270 64,-17 432,-402 460,-444l-329 -338c-42,-42 -70,-90 -131,-107 8,100 55,171 63,270l-302 0 0 -127 -587 0 0 127 -286 0c9,-99 56,-170 64,-270 -61,16 -183,159 -234,211 -66,65 -181,165 -227,234z"/>
 </g>
</svg>
