<?xml version="1.0" encoding="UTF-8"?>
<!DOCTYPE svg PUBLIC "-//W3C//DTD SVG 1.1//EN" "http://www.w3.org/Graphics/SVG/1.1/DTD/svg11.dtd">
<!-- Creator: CorelDRAW X7 -->
<svg xmlns="http://www.w3.org/2000/svg" xml:space="preserve" width="2.16535in" height="2.16535in" version="1.1" style="shape-rendering:geometricPrecision; text-rendering:geometricPrecision; image-rendering:optimizeQuality; fill-rule:evenodd; clip-rule:evenodd"
viewBox="0 0 2165 2165"
 xmlns:xlink="http://www.w3.org/1999/xlink">
 <defs>
  <style type="text/css">
   <![CDATA[
    .fil0 {fill:black}
   ]]>
  </style>
 </defs>
 <g id="Layer_x0020_1">
  <metadata id="CorelCorpID_0Corel-Layer"/>
  <path class="fil0" d="M172 1994l-8 -618c0,-77 -19,-148 23,-220 84,100 106,209 191,309l264 -265 -103 -103 514 -514c54,-54 76,-13 147,59l265 -264c-100,-85 -209,-107 -309,-191 76,-45 772,-28 838,-15l7 617c0,78 19,148 -22,220 -85,-99 -107,-209 -191,-308l-279 279 117 117 -543 544 -118 -118 -264 265c99,84 209,106 308,191 -71,41 -316,22 -411,22 -122,0 -320,13 -426,-7zm1249 -427l146 -146 500 499 -147 147 -499 -500zm-1323 -1322l147 -147 470 471 -146 146 -471 -470zm788 1087l390 0 0 -81 -272 0 262 -324 0 -75 -351 0 0 81 224 0 -253 312 0 87z"/>
 </g>
</svg>
