<?xml version="1.0" encoding="UTF-8"?>
<!DOCTYPE svg PUBLIC "-//W3C//DTD SVG 1.1//EN" "http://www.w3.org/Graphics/SVG/1.1/DTD/svg11.dtd">
<!-- Creator: CorelDRAW X7 -->
<svg xmlns="http://www.w3.org/2000/svg" xml:space="preserve" width="2.16535in" height="2.16535in" version="1.1" style="shape-rendering:geometricPrecision; text-rendering:geometricPrecision; image-rendering:optimizeQuality; fill-rule:evenodd; clip-rule:evenodd"
viewBox="0 0 2165 2165"
 xmlns:xlink="http://www.w3.org/1999/xlink">
 <defs>
  <style type="text/css">
   <![CDATA[
    .fil0 {fill:black;fill-rule:nonzero}
   ]]>
  </style>
 </defs>
 <g id="Layer_x0020_1">
  <metadata id="CorelCorpID_0Corel-Layer"/>
  <path class="fil0" d="M1083 98c271,0 517,111 696,289 178,178 288,424 288,696 0,271 -110,517 -288,696 -179,178 -425,288 -696,288 -272,0 -518,-110 -696,-288 -178,-179 -289,-425 -289,-696 0,-272 111,-518 289,-696 178,-178 424,-289 696,-289zm191 758c41,0 45,5 58,6 0,11 -18,46 -24,57l-77 168c-20,48 -30,63 -61,100 -42,48 -108,73 -165,43 -25,-13 -21,-18 -53,-18 -40,0 -76,68 -35,114 23,25 91,51 123,51 72,0 95,0 162,-40 25,-15 68,-54 83,-79 31,19 35,15 76,43 27,19 84,56 104,82 5,6 5,7 10,14 20,34 59,135 76,177 16,35 24,40 58,40 28,0 53,-29 53,-61 0,-17 -13,-46 -18,-61 -4,-9 -8,-17 -13,-28l-35 -85c-39,-75 -31,-79 -102,-135 -33,-26 -53,-43 -90,-65 1,-14 6,-17 11,-28l90 -192c19,0 38,12 85,12 74,0 161,-52 198,-108 23,-33 39,-42 39,-80 0,-49 -69,-82 -107,-28 -25,35 -32,49 -74,73 -81,47 -160,-26 -227,-65 -214,-123 -382,98 -372,155 3,22 17,39 34,46 50,23 70,-19 93,-50 18,-24 62,-58 100,-58zm378 -174c0,-43 -2,-75 -37,-110 -32,-33 -82,-41 -121,-19 -7,4 -12,6 -17,11l-8 9c-36,37 -47,93 -28,143 7,19 10,24 21,37 0,1 1,1 1,2 31,37 72,46 117,31 38,-13 72,-66 72,-104zm-1163 161c0,11 -1,31 22,31l417 0c13,0 22,-8 23,-22 1,-11 -7,-27 -17,-27l-429 0c-6,0 -16,11 -16,18zm375 -222c0,12 4,28 16,28l431 0c18,0 29,-49 -13,-49l-404 0c-13,0 -30,7 -30,21zm-242 485c0,14 2,27 27,27l407 0c39,0 33,-49 8,-49l-426 0c-6,0 -16,7 -16,22zm-157 289c0,14 2,27 27,27l364 0c38,0 33,-48 8,-48l-380 0c-12,0 -19,7 -19,21z"/>
 </g>
</svg>
