<?xml version="1.0" encoding="UTF-8"?>
<!DOCTYPE svg PUBLIC "-//W3C//DTD SVG 1.1//EN" "http://www.w3.org/Graphics/SVG/1.1/DTD/svg11.dtd">
<!-- Creator: CorelDRAW X7 -->
<svg xmlns="http://www.w3.org/2000/svg" xml:space="preserve" width="2.16535in" height="2.16535in" version="1.1" style="shape-rendering:geometricPrecision; text-rendering:geometricPrecision; image-rendering:optimizeQuality; fill-rule:evenodd; clip-rule:evenodd"
viewBox="0 0 2165 2165"
 xmlns:xlink="http://www.w3.org/1999/xlink">
 <defs>
  <style type="text/css">
   <![CDATA[
    .fil0 {fill:black}
   ]]>
  </style>
 </defs>
 <g id="Layer_x0020_1">
  <metadata id="CorelCorpID_0Corel-Layer"/>
  <path class="fil0" d="M1083 98c-544,0 -985,441 -985,985 0,543 441,984 985,984 543,0 984,-441 984,-984 0,-544 -441,-985 -984,-985zm-95 469c0,55 15,51 32,77 -25,14 -18,7 -29,33 -67,0 -195,-7 -250,4 -67,14 -109,75 -109,150l0 382c0,41 10,75 28,98 14,18 48,50 77,50l0 54c-61,14 -51,113 11,113l683 0c13,0 28,-11 35,-18 26,-29 15,-75 -18,-91 -20,-9 -17,5 -17,-52l21 0 0 -681c0,-15 -40,-9 -67,-9l-231 0c-2,-21 -17,-33 -38,-33 64,-57 36,-152 -55,-152 -35,0 -73,39 -73,75zm496 800l28 0c43,0 82,-62 82,-134l0 -425c0,-41 -13,-72 -30,-96 -28,-43 -39,-35 -80,-35l0 690zm-943 -562l0 428c0,35 30,62 64,63l0 -554c-36,0 -64,28 -64,63zm-67 157c-27,0 34,0 7,0 -78,0 -67,-6 -67,78 0,14 7,21 20,21l40 0c0,23 1,35 29,35 18,0 24,-12 24,-29l0 -105c0,-32 -50,-38 -53,0zm267 607l693 0c25,0 45,20 45,45l0 14c0,25 -20,45 -45,45l-693 0c-25,0 -45,-20 -45,-45l0 -14c0,-25 20,-45 45,-45z"/>
 </g>
</svg>
