<?xml version="1.0" encoding="UTF-8"?>
<!DOCTYPE svg PUBLIC "-//W3C//DTD SVG 1.1//EN" "http://www.w3.org/Graphics/SVG/1.1/DTD/svg11.dtd">
<!-- Creator: CorelDRAW X7 -->
<svg xmlns="http://www.w3.org/2000/svg" xml:space="preserve" width="2.16535in" height="2.16535in" version="1.1" style="shape-rendering:geometricPrecision; text-rendering:geometricPrecision; image-rendering:optimizeQuality; fill-rule:evenodd; clip-rule:evenodd"
viewBox="0 0 2165 2165"
 xmlns:xlink="http://www.w3.org/1999/xlink">
 <defs>
  <style type="text/css">
   <![CDATA[
    .fil0 {fill:black}
   ]]>
  </style>
 </defs>
 <g id="Layer_x0020_1">
  <metadata id="CorelCorpID_0Corel-Layer"/>
  <path class="fil0" d="M1083 98c-544,0 -985,441 -985,985 0,543 441,984 985,984 543,0 984,-441 984,-984 0,-544 -441,-985 -984,-985zm590 943c-3,14 -103,128 -113,140l-318 380c-8,9 -19,29 -30,32l0 -320c-102,0 -165,8 -256,31 -128,33 -246,104 -342,206l-20 23c-29,33 -63,79 -88,119l-10 15c-1,3 -3,4 -4,6 0,-45 46,-209 60,-251 29,-84 59,-149 103,-225l50 -78c21,-29 45,-55 68,-81 37,-43 121,-106 161,-130 38,-23 88,-48 129,-62 24,-8 47,-16 71,-22 14,-4 25,-6 38,-9 11,-3 29,-7 40,-8l0 -315c11,4 105,122 116,135 26,31 337,399 345,414z"/>
 </g>
</svg>
