<?xml version="1.0" encoding="UTF-8"?>
<!DOCTYPE svg PUBLIC "-//W3C//DTD SVG 1.1//EN" "http://www.w3.org/Graphics/SVG/1.1/DTD/svg11.dtd">
<!-- Creator: CorelDRAW X7 -->
<svg xmlns="http://www.w3.org/2000/svg" xml:space="preserve" width="2.16535in" height="2.16535in" version="1.1" style="shape-rendering:geometricPrecision; text-rendering:geometricPrecision; image-rendering:optimizeQuality; fill-rule:evenodd; clip-rule:evenodd"
viewBox="0 0 2165 2165"
 xmlns:xlink="http://www.w3.org/1999/xlink">
 <defs>
  <style type="text/css">
   <![CDATA[
    .fil0 {fill:black}
   ]]>
  </style>
 </defs>
 <g id="Layer_x0020_1">
  <metadata id="CorelCorpID_0Corel-Layer"/>
  <path class="fil0" d="M1083 2067c-544,0 -985,-441 -985,-984 0,-544 441,-985 985,-985 543,0 984,441 984,985 0,543 -441,984 -984,984zm-229 -269l0 -394 -147 0 0 -53 354 0 0 53 -147 0 0 394 -60 0zm249 -143l56 -5c2,22 8,41 18,55 10,15 25,26 45,35 20,9 43,13 69,13 22,0 42,-3 59,-10 18,-6 30,-16 39,-27 8,-12 13,-25 13,-39 0,-14 -4,-26 -13,-36 -8,-11 -21,-20 -40,-27 -12,-4 -38,-12 -80,-22 -41,-9 -69,-19 -86,-27 -21,-12 -37,-26 -47,-42 -11,-17 -16,-35 -16,-56 0,-23 6,-44 19,-63 13,-20 32,-35 56,-45 25,-10 52,-15 82,-15 33,0 63,5 88,16 25,10 45,26 58,47 14,21 21,44 22,70l-56 5c-4,-29 -14,-50 -31,-64 -18,-15 -44,-22 -78,-22 -36,0 -62,7 -79,20 -16,13 -24,29 -24,47 0,16 6,30 17,40 12,10 41,21 89,32 48,11 81,20 99,28 26,12 46,27 58,46 12,18 18,39 18,63 0,24 -6,46 -20,67 -14,21 -33,38 -59,49 -25,12 -54,18 -86,18 -40,0 -74,-6 -101,-18 -28,-12 -49,-29 -64,-53 -16,-24 -24,-50 -25,-80zm-215 -1009c-5,-70 9,-142 38,-196 25,-45 66,-96 128,-108 35,-6 72,1 99,16 29,16 44,33 63,56 114,141 66,443 -107,478 -76,15 -132,-35 -159,-72 -33,-42 -57,-106 -62,-174zm171 -333c-196,29 -264,349 -132,524 95,126 251,109 331,-29 70,-120 65,-302 -20,-412 -19,-25 -40,-46 -71,-63 -30,-16 -69,-26 -108,-20zm-191 562c16,-35 -1,-56 -39,-50 -27,-32 -80,-132 -98,-170 -26,-55 -78,-182 -95,-244 -2,-7 -5,-21 -10,-24 -12,-7 -18,5 -15,16 20,77 85,230 115,291 19,39 50,92 74,128 1,2 12,16 13,19 1,8 -6,15 2,30 4,6 9,12 18,14 16,5 13,-3 24,10 158,185 334,134 471,-37 39,-48 75,-100 109,-160 54,-96 91,-171 133,-273 3,-7 8,-14 10,-23 4,-10 -3,-21 -14,-14 -4,2 -59,128 -64,138 -49,103 -83,167 -146,260 -13,19 -44,60 -59,76 -17,17 -32,37 -51,51 -6,5 -12,11 -18,16 -46,37 -118,78 -200,58 -52,-13 -91,-42 -126,-76 -11,-10 -26,-24 -34,-36zm-58 233c-40,8 -193,33 -213,54l2 12c14,4 38,-7 53,-11 43,-11 124,-31 164,-34 13,23 50,20 57,-8 157,-10 202,-18 366,-4 81,7 170,22 248,41 19,5 64,21 79,16 8,-19 -4,-19 -21,-23 -215,-57 -453,-80 -673,-51 -14,-22 -35,-26 -52,-9 -6,5 -6,10 -10,17zm360 -377c-6,44 -47,83 -100,76 -44,-6 -83,-48 -75,-101 7,-44 49,-81 101,-74 43,6 81,48 74,99zm-108 -126c-59,11 -107,66 -94,136 10,57 66,104 134,93 56,-9 108,-64 96,-135 -10,-57 -67,-108 -136,-94z"/>
 </g>
</svg>
