<?xml version="1.0" encoding="UTF-8"?>
<!DOCTYPE svg PUBLIC "-//W3C//DTD SVG 1.1//EN" "http://www.w3.org/Graphics/SVG/1.1/DTD/svg11.dtd">
<!-- Creator: CorelDRAW X7 -->
<svg xmlns="http://www.w3.org/2000/svg" xml:space="preserve" width="2.16535in" height="2.16535in" version="1.1" style="shape-rendering:geometricPrecision; text-rendering:geometricPrecision; image-rendering:optimizeQuality; fill-rule:evenodd; clip-rule:evenodd"
viewBox="0 0 2165 2165"
 xmlns:xlink="http://www.w3.org/1999/xlink">
 <defs>
  <style type="text/css">
   <![CDATA[
    .fil0 {fill:black}
   ]]>
  </style>
 </defs>
 <g id="Layer_x0020_1">
  <metadata id="CorelCorpID_0Corel-Layer"/>
  <path class="fil0" d="M1083 98c-544,0 -985,441 -985,985 0,543 441,984 985,984 543,0 984,-441 984,-984 0,-544 -441,-985 -984,-985zm590 1026c-3,-13 -103,-128 -113,-140l-318 -379c-8,-10 -19,-29 -30,-33l0 320c-102,0 -165,-8 -256,-31 -128,-32 -246,-104 -342,-205l-20 -23c-29,-34 -63,-80 -88,-119l-10 -16c-1,-2 -3,-4 -4,-6 0,46 46,209 60,251 29,85 59,149 103,225l50 78c21,30 45,55 68,82 37,42 121,105 161,129 38,23 88,48 129,62 24,8 47,16 71,22 14,4 25,6 38,10 11,2 29,7 40,8l0 314c11,-3 105,-122 116,-134 26,-32 337,-400 345,-415z"/>
 </g>
</svg>
