<?xml version="1.0" encoding="UTF-8"?>
<!DOCTYPE svg PUBLIC "-//W3C//DTD SVG 1.1//EN" "http://www.w3.org/Graphics/SVG/1.1/DTD/svg11.dtd">
<!-- Creator: CorelDRAW X7 -->
<svg xmlns="http://www.w3.org/2000/svg" xml:space="preserve" width="2.16535in" height="2.16535in" version="1.1" style="shape-rendering:geometricPrecision; text-rendering:geometricPrecision; image-rendering:optimizeQuality; fill-rule:evenodd; clip-rule:evenodd"
viewBox="0 0 2165 2165"
 xmlns:xlink="http://www.w3.org/1999/xlink">
 <defs>
  <style type="text/css">
   <![CDATA[
    .fil0 {fill:black}
   ]]>
  </style>
 </defs>
 <g id="Layer_x0020_1">
  <metadata id="CorelCorpID_0Corel-Layer"/>
  <path class="fil0" d="M1083 98c543,0 984,441 984,985 0,543 -441,984 -984,984 -544,0 -985,-441 -985,-984 0,-544 441,-985 985,-985zm-591 1208l0 15c16,21 46,34 69,48 54,32 496,290 514,304l16 0 445 -264c36,-21 74,-44 112,-66 11,-6 20,-9 24,-21 6,-20 -14,-46 -42,-28l-138 82c-109,62 -224,132 -333,196 -91,54 -66,52 -111,25l-500 -295c-34,-22 -38,-17 -56,4zm0 -309l0 16c16,21 47,35 70,48l223 132c49,30 99,58 148,87 21,13 137,85 151,85 12,-1 64,-34 76,-42 69,-43 151,-87 223,-131l258 -153c14,-8 29,-13 32,-29 3,-17 -10,-30 -25,-30 -15,0 -165,94 -189,107l-371 220c-10,4 -18,-5 -36,-16l-483 -285c-23,-14 -41,-31 -60,-24 -10,3 -11,8 -17,15zm0 154l0 16c13,17 16,16 34,27l408 242c21,12 136,85 152,83 9,-2 388,-226 447,-262 24,-15 49,-29 74,-44 13,-7 24,-14 38,-22 13,-8 26,-12 28,-29 2,-17 -12,-30 -30,-28 -10,2 -244,143 -260,152l-260 154c-48,29 -33,28 -74,4l-481 -285c-46,-27 -50,-38 -76,-8zm0 -308l0 16c16,20 47,35 70,48l445 263c15,10 64,42 79,40 12,-1 487,-284 559,-327 13,-9 28,-13 28,-31 1,-22 -36,-37 -64,-53 -120,-71 -253,-147 -370,-219 -18,-11 -142,-86 -151,-88 -17,-3 -62,29 -77,38l-485 286c-24,15 -18,9 -34,27zm1104 8c-19,14 -42,25 -63,38 -68,40 -442,264 -449,265 -6,0 -468,-274 -514,-302 5,-7 109,-66 125,-76 53,-31 381,-227 387,-227 9,0 340,200 387,227 23,12 41,24 64,37 10,6 21,13 31,19 10,5 24,13 32,19z"/>
 </g>
</svg>
