<?xml version="1.0" encoding="UTF-8"?>
<!DOCTYPE svg PUBLIC "-//W3C//DTD SVG 1.1//EN" "http://www.w3.org/Graphics/SVG/1.1/DTD/svg11.dtd">
<!-- Creator: CorelDRAW X7 -->
<svg xmlns="http://www.w3.org/2000/svg" xml:space="preserve" width="2.16535in" height="2.16535in" version="1.1" style="shape-rendering:geometricPrecision; text-rendering:geometricPrecision; image-rendering:optimizeQuality; fill-rule:evenodd; clip-rule:evenodd"
viewBox="0 0 2165 2165"
 xmlns:xlink="http://www.w3.org/1999/xlink">
 <defs>
  <style type="text/css">
   <![CDATA[
    .fil0 {fill:black}
   ]]>
  </style>
 </defs>
 <g id="Layer_x0020_1">
  <metadata id="CorelCorpID_0Corel-Layer"/>
  <path class="fil0" d="M1270 1798l60 0 0 -394 147 0 0 -53 -354 0 0 53 147 0 0 394zm-246 -156c-8,37 -24,66 -47,85 -23,19 -50,28 -84,28 -27,0 -52,-7 -75,-21 -24,-14 -41,-35 -52,-63 -11,-29 -16,-62 -16,-100 0,-29 4,-58 14,-86 9,-27 25,-50 48,-66 23,-17 52,-25 86,-25 30,0 55,8 75,22 19,15 34,39 45,72l58 -14c-12,-41 -33,-73 -64,-96 -30,-23 -68,-34 -113,-34 -39,0 -75,9 -108,27 -33,18 -58,44 -76,79 -18,34 -27,75 -27,121 0,43 8,83 24,120 16,38 39,66 69,85 30,20 69,30 117,30 47,0 86,-13 118,-38 33,-26 55,-63 67,-111l-59 -15zm59 425c-544,0 -985,-441 -985,-984 0,-544 441,-985 985,-985 543,0 984,441 984,985 0,543 -441,984 -984,984zm-401 -1327c18,-55 118,-146 153,-177 198,-174 427,-98 577,73 13,14 70,82 70,99 1,29 -180,270 -393,274 -186,4 -345,-160 -407,-269zm891 6c24,-47 -170,-256 -305,-317 -182,-82 -349,-37 -486,73 -50,40 -160,155 -190,227 -8,22 15,46 29,68 14,20 29,39 44,58 93,118 240,227 406,231 238,5 426,-197 502,-340zm-507 -85c44,-11 88,19 97,54 12,47 -19,88 -57,97 -108,24 -153,-123 -40,-151zm-10 -76c-220,39 -159,344 61,304 79,-15 150,-92 128,-185 -16,-72 -94,-137 -189,-119z"/>
 </g>
</svg>
