<?xml version="1.0" encoding="UTF-8"?>
<!DOCTYPE svg PUBLIC "-//W3C//DTD SVG 1.1//EN" "http://www.w3.org/Graphics/SVG/1.1/DTD/svg11.dtd">
<!-- Creator: CorelDRAW X7 -->
<svg xmlns="http://www.w3.org/2000/svg" xml:space="preserve" width="2.16535in" height="2.16535in" version="1.1" style="shape-rendering:geometricPrecision; text-rendering:geometricPrecision; image-rendering:optimizeQuality; fill-rule:evenodd; clip-rule:evenodd"
viewBox="0 0 2165 2165"
 xmlns:xlink="http://www.w3.org/1999/xlink">
 <defs>
  <style type="text/css">
   <![CDATA[
    .fil0 {fill:black}
   ]]>
  </style>
 </defs>
 <g id="Layer_x0020_1">
  <metadata id="CorelCorpID_0Corel-Layer"/>
  <path class="fil0" d="M1083 98c-544,0 -985,441 -985,985 0,543 441,984 985,984 543,0 984,-441 984,-984 0,-544 -441,-985 -984,-985zm392 1247c52,-10 109,5 150,46 64,64 64,169 0,234 -65,64 -169,64 -234,0 -41,-41 -56,-98 -46,-150l-502 -502c-85,32 -193,1 -261,-67 -68,-68 -122,-291 -68,-237l136 136 117 -39 39 -117c-45,-45 -91,-91 -136,-136 -53,-54 176,7 237,68 76,76 102,175 66,261l502 503zm-188 144l-145 -143c-19,4 -39,6 -59,6 -150,0 -271,-120 -271,-269 0,-20 2,-38 6,-56 -17,3 -34,4 -53,4 -75,0 -139,-25 -180,-66l-79 32 0 172 147 55 22 62 -61 142 122 122 143 -65 60 29 57 143 173 0 55 -146 63 -22zm60 -349l140 144 1 -1 27 -57 144 -57 0 -172 -147 -55 -22 -63 62 -142 -123 -122 -143 65 -59 -28 -58 -144 -173 0 -22 60c44,48 70,121 70,202 0,17 -1,31 -4,47 14,-3 28,-4 43,-4 149,0 270,121 270,270 0,19 -2,39 -6,57zm112 319c27,-27 71,-27 97,0 28,27 28,70 1,97 -27,27 -71,27 -98,0 -27,-27 -27,-70 0,-97z"/>
 </g>
</svg>
