<?xml version="1.0" encoding="UTF-8"?>
<!DOCTYPE svg PUBLIC "-//W3C//DTD SVG 1.1//EN" "http://www.w3.org/Graphics/SVG/1.1/DTD/svg11.dtd">
<!-- Creator: CorelDRAW X7 -->
<svg xmlns="http://www.w3.org/2000/svg" xml:space="preserve" width="2.16535in" height="2.16535in" version="1.1" style="shape-rendering:geometricPrecision; text-rendering:geometricPrecision; image-rendering:optimizeQuality; fill-rule:evenodd; clip-rule:evenodd"
viewBox="0 0 2165 2165"
 xmlns:xlink="http://www.w3.org/1999/xlink">
 <defs>
  <style type="text/css">
   <![CDATA[
    .fil0 {fill:black}
   ]]>
  </style>
 </defs>
 <g id="Layer_x0020_1">
  <metadata id="CorelCorpID_0Corel-Layer"/>
  <path class="fil0" d="M1083 98c-544,0 -985,441 -985,985 0,543 441,984 985,984 543,0 984,-441 984,-984 0,-544 -441,-985 -984,-985zm107 825l0 619c0,43 -11,75 -31,97 -20,22 -46,33 -77,33 -32,0 -57,-11 -77,-33 -19,-23 -29,-55 -29,-97l0 -613c0,-42 10,-74 29,-95 20,-22 45,-33 77,-33 31,0 57,11 77,33 20,21 31,51 31,89zm-106 -221c-30,0 -55,-9 -77,-27 -21,-19 -31,-45 -31,-78 0,-30 11,-55 32,-75 22,-19 47,-29 76,-29 28,0 52,9 73,26 22,18 33,44 33,78 0,33 -11,59 -32,77 -21,18 -45,28 -74,28z"/>
 </g>
</svg>
