<?xml version="1.0" encoding="UTF-8"?>
<!DOCTYPE svg PUBLIC "-//W3C//DTD SVG 1.1//EN" "http://www.w3.org/Graphics/SVG/1.1/DTD/svg11.dtd">
<!-- Creator: CorelDRAW X7 -->
<svg xmlns="http://www.w3.org/2000/svg" xml:space="preserve" width="2.16535in" height="2.16535in" version="1.1" style="shape-rendering:geometricPrecision; text-rendering:geometricPrecision; image-rendering:optimizeQuality; fill-rule:evenodd; clip-rule:evenodd"
viewBox="0 0 2165 2165"
 xmlns:xlink="http://www.w3.org/1999/xlink">
 <defs>
  <style type="text/css">
   <![CDATA[
    .fil0 {fill:black}
   ]]>
  </style>
 </defs>
 <g id="Layer_x0020_1">
  <metadata id="CorelCorpID_0Corel-Layer"/>
  <path class="fil0" d="M1083 1673c-31,0 -59,-10 -82,-31 -24,-20 -36,-49 -36,-86 0,-32 11,-60 34,-82 23,-23 50,-34 83,-34 33,0 60,11 84,34 23,22 34,50 34,82 0,37 -12,65 -35,86 -23,21 -50,31 -82,31zm-86 -513l-25 -374c-4,-72 -7,-125 -7,-157 0,-43 11,-77 34,-101 23,-24 52,-36 89,-36 45,0 75,16 89,46 16,31 23,76 23,134 0,34 -2,69 -5,105l-34 384c-4,46 -11,81 -23,106 -12,24 -32,36 -59,36 -28,0 -48,-12 -59,-35 -10,-24 -18,-60 -23,-108zm86 -1062c-544,0 -985,441 -985,985 0,543 441,984 985,984 543,0 984,-441 984,-984 0,-544 -441,-985 -984,-985z"/>
 </g>
</svg>
