<?xml version="1.0" encoding="UTF-8"?>
<!DOCTYPE svg PUBLIC "-//W3C//DTD SVG 1.1//EN" "http://www.w3.org/Graphics/SVG/1.1/DTD/svg11.dtd">
<!-- Creator: CorelDRAW X7 -->
<svg xmlns="http://www.w3.org/2000/svg" xml:space="preserve" width="2.16535in" height="2.16535in" version="1.1" style="shape-rendering:geometricPrecision; text-rendering:geometricPrecision; image-rendering:optimizeQuality; fill-rule:evenodd; clip-rule:evenodd"
viewBox="0 0 2165 2165"
 xmlns:xlink="http://www.w3.org/1999/xlink">
 <defs>
  <style type="text/css">
   <![CDATA[
    .fil0 {fill:black}
   ]]>
  </style>
 </defs>
 <g id="Layer_x0020_1">
  <metadata id="CorelCorpID_0Corel-Layer"/>
  <path class="fil0" d="M1083 98c-544,0 -985,441 -985,985 0,543 441,984 985,984 543,0 984,-441 984,-984 0,-544 -441,-985 -984,-985zm-591 482l88 -88 282 282 -88 88 -282 -282zm793 794l89 -89 299 300 -88 88 -300 -299zm-320 -142l0 -52 152 -187 -135 0 0 -49 211 0 0 45 -158 195 164 0 0 48 -234 0zm-429 397l-4 -370c0,-47 -12,-89 13,-132 51,60 64,125 115,185l158 -159 -61 -62 308 -308c32,-32 45,-8 88,35l159 -158c-60,-51 -125,-64 -185,-115 45,-26 463,-17 502,-9l5 370c0,47 11,89 -14,133 -50,-60 -64,-126 -114,-186l-168 168 71 70 -326 327 -71 -71 -159 159c60,50 126,64 186,114 -43,25 -190,14 -247,14 -73,0 -192,8 -256,-5z"/>
 </g>
</svg>
