<?xml version="1.0" encoding="UTF-8"?>
<!DOCTYPE svg PUBLIC "-//W3C//DTD SVG 1.1//EN" "http://www.w3.org/Graphics/SVG/1.1/DTD/svg11.dtd">
<!-- Creator: CorelDRAW X7 -->
<svg xmlns="http://www.w3.org/2000/svg" xml:space="preserve" width="2.16535in" height="2.16535in" version="1.1" style="shape-rendering:geometricPrecision; text-rendering:geometricPrecision; image-rendering:optimizeQuality; fill-rule:evenodd; clip-rule:evenodd"
viewBox="0 0 2165 2165"
 xmlns:xlink="http://www.w3.org/1999/xlink">
 <defs>
  <style type="text/css">
   <![CDATA[
    .fil0 {fill:black;fill-rule:nonzero}
   ]]>
  </style>
 </defs>
 <g id="Layer_x0020_1">
  <metadata id="CorelCorpID_0Corel-Layer"/>
  <path class="fil0" d="M1083 98c-272,0 -518,111 -696,289 -178,178 -289,424 -289,696 0,271 111,517 289,696 178,178 424,288 696,288 271,0 517,-110 696,-288 178,-179 288,-425 288,-696 0,-272 -110,-518 -288,-696 -179,-178 -425,-289 -696,-289zm-121 981l111 111 -35 36c-30,29 -78,29 -107,0l-4 -5c-30,-29 -30,-77 -1,-106l36 -36zm267 -266l111 111 -245 244 -111 -111 245 -244zm266 -356l200 200 -255 256c-19,18 -48,18 -67,0l-133 -134c-18,-18 -18,-48 0,-66l255 -256zm-391 1340c-36,-102 -73,-204 -132,-246 -27,-20 -66,-31 -104,-42 -55,-16 -108,-32 -150,-72 -43,-41 -61,-93 -79,-147 -13,-38 -26,-76 -46,-102 -21,-28 -56,-49 -96,-67 -46,-20 -101,-37 -156,-54l41 -133c59,18 117,37 171,61 60,26 112,60 149,107 35,45 52,95 68,143 13,38 26,75 43,92 18,17 55,28 94,39 49,14 100,29 146,62 94,67 138,190 182,312l-131 47z"/>
 </g>
</svg>
