<?xml version="1.0" encoding="UTF-8"?>
<!DOCTYPE svg PUBLIC "-//W3C//DTD SVG 1.1//EN" "http://www.w3.org/Graphics/SVG/1.1/DTD/svg11.dtd">
<!-- Creator: CorelDRAW X7 -->
<svg xmlns="http://www.w3.org/2000/svg" xml:space="preserve" width="2.16535in" height="2.16535in" version="1.1" style="shape-rendering:geometricPrecision; text-rendering:geometricPrecision; image-rendering:optimizeQuality; fill-rule:evenodd; clip-rule:evenodd"
viewBox="0 0 2165 2165"
 xmlns:xlink="http://www.w3.org/1999/xlink">
 <defs>
  <style type="text/css">
   <![CDATA[
    .fil0 {fill:black}
   ]]>
  </style>
 </defs>
 <g id="Layer_x0020_1">
  <metadata id="CorelCorpID_0Corel-Layer"/>
  <path class="fil0" d="M1083 98c-544,0 -985,441 -985,985 0,543 441,984 985,984 543,0 984,-441 984,-984 0,-544 -441,-985 -984,-985zm345 1512c-7,-15 -10,-19 -16,-30 -1,3 -2,5 -2,8 0,4 1,7 2,10 1,3 2,5 4,6 2,2 4,3 6,4 2,1 4,1 6,2zm-152 -88c-109,0 -253,1 -291,1 -59,0 -118,0 -176,0 -28,0 -58,3 -81,-7 -22,-9 -37,-24 -47,-43 -13,-25 -10,-45 -10,-76l0 -703c0,-30 -3,-54 10,-79 9,-18 25,-33 45,-42 24,-10 53,-8 81,-8l219 0c16,0 27,-2 38,7 16,12 18,44 19,70 0,31 -4,153 4,172 10,24 31,25 62,25 35,0 146,-3 172,4 29,7 36,20 36,53 0,85 0,220 0,332 26,-23 57,-42 92,-54l0 -262c0,-28 3,-77 -5,-101 -14,-43 -64,-91 -94,-121 -8,-8 -17,-19 -27,-26 -14,-12 -30,-27 -42,-40 -15,-17 -60,-64 -79,-81 -5,-4 -9,-9 -14,-13 -70,-57 -67,-56 -160,-56 -72,0 -143,0 -215,0 -36,0 -67,-2 -100,7 -27,8 -56,24 -70,38 -39,37 -63,74 -63,151l0 749c0,37 3,61 17,91 21,43 63,82 117,97 32,9 66,7 100,7 20,0 344,1 514,1 -23,-27 -41,-59 -52,-93zm146 -243l15 -15 -2 1c-3,1 -5,2 -7,4 -2,2 -4,4 -5,6 -1,1 -1,2 -1,4zm-261 -157l-32 0 0 159 32 0c6,0 10,-4 10,-8l0 -33 72 0c4,0 7,-3 7,-6l0 -59c0,-3 -3,-6 -7,-6l-72 0 0 -39c0,-4 -4,-8 -10,-8zm-239 -20l185 0c3,0 6,3 6,5l0 187c0,3 -3,5 -6,5l-185 0c-3,0 -6,-2 -6,-5l0 -187c0,-2 3,-5 6,-5zm-55 20l33 0 0 159 -33 0c-5,0 -9,-4 -9,-8l0 -33 -73 0c-3,0 -6,-3 -6,-6l0 -59c0,-3 3,-6 6,-6l73 0 0 -39c0,-4 4,-8 9,-8zm674 96c61,0 116,24 155,64 40,39 65,94 65,154 0,61 -25,116 -65,155 -39,40 -94,64 -155,64 -60,0 -115,-24 -155,-64 -40,-39 -64,-94 -64,-155 0,-60 24,-115 64,-154 40,-40 95,-64 155,-64zm-28 217l-62 91c-4,6 -8,12 -10,17 -2,5 -3,9 -3,13 0,3 1,6 2,8 0,2 1,3 3,5 1,1 3,2 5,3 2,0 4,1 7,1 1,0 3,0 4,-1 2,0 3,0 4,-1 2,0 3,-1 4,-1 1,-1 2,-2 2,-3l3 -3 3 -3c22,-34 44,-68 67,-102l55 86 13 20c1,1 2,2 3,3 1,1 2,2 3,3 2,0 3,1 4,1 2,1 4,1 6,1 2,0 4,0 5,-1 2,0 3,-1 5,-1 1,-1 2,-2 3,-3 2,-1 2,-2 3,-3 1,-2 1,-3 2,-4 0,-2 0,-3 0,-5 0,-2 0,-3 0,-5 -1,-2 -2,-4 -3,-7 -1,-2 -2,-5 -4,-8 -2,-3 -4,-7 -7,-10 -21,-31 -41,-64 -62,-95l58 -86c5,-7 8,-13 10,-19 3,-5 4,-9 4,-12 0,-2 -1,-4 -1,-5 -1,-2 -2,-3 -4,-5l0 0c-1,-1 -3,-2 -5,-3 -2,-1 -4,-1 -7,-1 -2,0 -3,0 -4,0 -1,1 -3,1 -3,1l-1 0c-1,1 -1,1 -2,2 -1,1 -2,2 -3,3 -1,1 -2,2 -3,4 -22,31 -43,64 -64,97l-49 -78c-3,-6 -7,-11 -10,-15 -2,-4 -5,-7 -7,-9 -1,-2 -3,-3 -5,-4 -2,0 -5,-1 -8,-1 -2,0 -5,0 -7,1 -2,1 -3,2 -5,4 -2,1 -3,3 -4,4 0,1 -1,3 -1,4 0,2 0,5 1,7 0,2 1,4 2,7 1,2 3,5 5,8 1,3 3,7 6,11l55 85 -3 4z"/>
 </g>
</svg>
