<?xml version="1.0" encoding="UTF-8"?>
<!DOCTYPE svg PUBLIC "-//W3C//DTD SVG 1.1//EN" "http://www.w3.org/Graphics/SVG/1.1/DTD/svg11.dtd">
<!-- Creator: CorelDRAW X7 -->
<svg xmlns="http://www.w3.org/2000/svg" xml:space="preserve" width="2.16535in" height="2.16535in" version="1.1" style="shape-rendering:geometricPrecision; text-rendering:geometricPrecision; image-rendering:optimizeQuality; fill-rule:evenodd; clip-rule:evenodd"
viewBox="0 0 2165 2165"
 xmlns:xlink="http://www.w3.org/1999/xlink">
 <defs>
  <style type="text/css">
   <![CDATA[
    .fil0 {fill:black}
   ]]>
  </style>
 </defs>
 <g id="Layer_x0020_1">
  <metadata id="CorelCorpID_0Corel-Layer"/>
  <path class="fil0" d="M1083 98c-544,0 -985,441 -985,985 0,543 441,984 985,984 543,0 984,-441 984,-984 0,-544 -441,-985 -984,-985zm368 1139c-6,3 -11,6 -18,11 -19,15 -42,40 -72,86 -16,24 -34,54 -52,85 -59,99 -128,216 -194,245 -5,3 -10,4 -15,6l0 0c-37,10 -71,-4 -99,-32 -25,-23 -45,-58 -61,-95 -11,-26 -20,-53 -27,-78l0 0c-24,-91 -16,-159 -12,-231 -106,-24 -201,-145 -299,-268 -20,-23 -20,-58 0,-81 1,0 1,0 1,0 -21,-46 -40,-91 -53,-132 -19,-61 -26,-114 -8,-152 19,-40 62,-59 117,-67l0 0c17,-3 31,-4 50,-5 4,-9 10,-15 18,-21l1 0c13,-10 30,-16 49,-16 19,0 37,6 50,16l0 0c15,11 24,27 24,45 0,19 -9,35 -24,46 -13,9 -31,15 -50,15 -19,0 -37,-6 -50,-15 -9,-7 -15,-13 -19,-23 -17,1 -27,2 -42,4 -41,7 -72,19 -83,42 -12,25 -5,66 10,116 13,39 32,84 51,129 15,0 30,6 41,17l0 0 1 1 3 4c92,116 184,233 250,233 29,0 61,-24 95,-61 41,-44 83,-106 125,-167 12,-17 30,-25 48,-25 45,-103 82,-199 61,-244 -16,-33 -65,-43 -130,-46 -5,8 -10,14 -18,20l0 0c-13,9 -31,15 -50,15 -19,0 -37,-6 -50,-15 -15,-11 -24,-27 -24,-46 0,-18 9,-34 24,-45l0 0c13,-10 31,-16 50,-16 19,0 37,6 50,16 10,7 16,13 20,24 79,4 143,20 169,72 30,63 -9,171 -60,285 17,19 19,49 4,72 -45,65 -90,131 -136,181 -50,53 -101,90 -159,96 -8,67 -12,129 10,212l0 0c6,23 14,46 24,69 14,31 30,59 48,77 15,14 30,21 45,17l1 0c2,0 4,-1 6,-2 49,-23 113,-130 168,-223 19,-32 37,-62 53,-87 35,-52 62,-82 87,-100 19,-15 35,-21 51,-26 5,-26 17,-47 35,-65 24,-25 57,-40 94,-40 36,0 70,15 94,40l0 0c24,24 39,58 39,96 0,37 -15,71 -39,96 -24,24 -58,39 -94,39 -37,0 -70,-15 -94,-39l0 0c-17,-18 -30,-40 -35,-65z"/>
 </g>
</svg>
