<?xml version="1.0" encoding="UTF-8"?>
<!DOCTYPE svg PUBLIC "-//W3C//DTD SVG 1.1//EN" "http://www.w3.org/Graphics/SVG/1.1/DTD/svg11.dtd">
<!-- Creator: CorelDRAW X7 -->
<svg xmlns="http://www.w3.org/2000/svg" xml:space="preserve" width="2.16535in" height="2.16535in" version="1.1" style="shape-rendering:geometricPrecision; text-rendering:geometricPrecision; image-rendering:optimizeQuality; fill-rule:evenodd; clip-rule:evenodd"
viewBox="0 0 2165 2165"
 xmlns:xlink="http://www.w3.org/1999/xlink">
 <defs>
  <style type="text/css">
   <![CDATA[
    .fil0 {fill:black}
   ]]>
  </style>
 </defs>
 <g id="Layer_x0020_1">
  <metadata id="CorelCorpID_0Corel-Layer"/>
  <path class="fil0" d="M1083 98c-544,0 -985,441 -985,985 0,543 441,984 985,984 543,0 984,-441 984,-984 0,-544 -441,-985 -984,-985zm546 1531l5 -370c0,-47 11,-89 -14,-132 -50,60 -64,125 -114,185l-159 -159 62 -62 -309 -308c-32,-32 -45,-8 -88,35l-159 -158c60,-51 126,-64 186,-115 -46,-26 -464,-17 -503,-9l-4 370c0,47 -12,89 13,133 51,-60 64,-126 115,-186l167 168 -70 70 326 327 70 -71 159 159c-60,50 -125,64 -185,114 42,25 190,14 247,14 72,0 192,8 255,-5zm-680 -685l58 0 0 156c0,25 1,41 2,48 3,12 9,21 18,28 9,8 22,11 38,11 16,0 28,-3 37,-10 8,-7 13,-15 15,-25 1,-10 2,-26 2,-49l0 -159 59 0 0 151c0,35 -2,59 -5,74 -3,14 -9,26 -17,36 -9,10 -20,17 -34,23 -14,6 -33,9 -55,9 -28,0 -49,-3 -63,-9 -14,-7 -25,-15 -33,-25 -9,-10 -14,-21 -17,-32 -3,-17 -5,-41 -5,-73l0 -154zm-69 430l-88 -89 -300 300 88 88 300 -299zm793 -794l-88 -88 -282 282 88 88 282 -282z"/>
 </g>
</svg>
