<?xml version="1.0" encoding="UTF-8"?>
<!DOCTYPE svg PUBLIC "-//W3C//DTD SVG 1.1//EN" "http://www.w3.org/Graphics/SVG/1.1/DTD/svg11.dtd">
<!-- Creator: CorelDRAW X7 -->
<svg xmlns="http://www.w3.org/2000/svg" xml:space="preserve" width="2.16535in" height="2.16535in" version="1.1" style="shape-rendering:geometricPrecision; text-rendering:geometricPrecision; image-rendering:optimizeQuality; fill-rule:evenodd; clip-rule:evenodd"
viewBox="0 0 2165 2165"
 xmlns:xlink="http://www.w3.org/1999/xlink">
 <defs>
  <style type="text/css">
   <![CDATA[
    .fil0 {fill:black}
   ]]>
  </style>
 </defs>
 <g id="Layer_x0020_1">
  <metadata id="CorelCorpID_0Corel-Layer"/>
  <path class="fil0" d="M1083 98c-544,0 -985,441 -985,985 0,543 441,984 985,984 543,0 984,-441 984,-984 0,-544 -441,-985 -984,-985zm28 1339l-456 -754c103,36 204,60 305,72l0 -261 302 0 0 261c101,-12 202,-36 305,-72l-456 754zm-81 -295l0 -315 84 0c32,0 53,2 62,5 15,5 27,15 37,31 10,16 15,36 15,61 0,19 -2,36 -8,49 -6,13 -13,23 -22,31 -9,7 -18,12 -27,15 -13,3 -31,4 -54,4l-34 0 0 119 -53 0zm53 -262l0 90 28 0c21,0 34,-2 41,-5 7,-3 13,-8 17,-15 4,-7 6,-16 6,-25 0,-11 -3,-21 -9,-28 -5,-8 -12,-13 -21,-15 -6,-1 -18,-2 -37,-2l-25 0zm-535 660l1127 0c15,0 27,12 27,27l0 81c0,15 -12,27 -27,27l-1127 0c-15,0 -27,-12 -27,-27l0 -81c0,-15 12,-27 27,-27z"/>
 </g>
</svg>
