<?xml version="1.0" encoding="UTF-8"?>
<!DOCTYPE svg PUBLIC "-//W3C//DTD SVG 1.1//EN" "http://www.w3.org/Graphics/SVG/1.1/DTD/svg11.dtd">
<!-- Creator: CorelDRAW X7 -->
<svg xmlns="http://www.w3.org/2000/svg" xml:space="preserve" width="2.16535in" height="2.16535in" version="1.1" style="shape-rendering:geometricPrecision; text-rendering:geometricPrecision; image-rendering:optimizeQuality; fill-rule:evenodd; clip-rule:evenodd"
viewBox="0 0 2165 2165"
 xmlns:xlink="http://www.w3.org/1999/xlink">
 <defs>
  <style type="text/css">
   <![CDATA[
    .fil0 {fill:black}
   ]]>
  </style>
 </defs>
 <g id="Layer_x0020_1">
  <metadata id="CorelCorpID_0Corel-Layer"/>
  <path class="fil0" d="M1083 98c-544,0 -985,441 -985,985 0,543 441,984 985,984 543,0 984,-441 984,-984 0,-544 -441,-985 -984,-985zm57 930c32,0 58,25 58,55 0,30 -26,54 -58,54 -32,0 -57,-24 -57,-54 0,-30 25,-55 57,-55zm6 643l-28 -498c-44,-9 -78,-47 -78,-91 0,-52 44,-93 99,-93 5,0 11,0 16,1l224 -453c-35,-14 -71,-25 -108,-33 -44,-9 -89,-14 -135,-14 -173,0 -330,66 -443,173 -113,107 -183,255 -183,418 0,163 70,311 183,417 113,107 270,173 443,173l10 0zm545 -590c0,-187 -104,-352 -260,-444l-202 408c5,11 8,24 8,37 0,26 -11,49 -29,66l25 449c260,-43 458,-258 458,-516z"/>
 </g>
</svg>
