<?xml version="1.0" encoding="UTF-8"?>
<!DOCTYPE svg PUBLIC "-//W3C//DTD SVG 1.1//EN" "http://www.w3.org/Graphics/SVG/1.1/DTD/svg11.dtd">
<!-- Creator: CorelDRAW X7 -->
<svg xmlns="http://www.w3.org/2000/svg" xml:space="preserve" width="2.16535in" height="2.16535in" version="1.1" style="shape-rendering:geometricPrecision; text-rendering:geometricPrecision; image-rendering:optimizeQuality; fill-rule:evenodd; clip-rule:evenodd"
viewBox="0 0 2165 2165"
 xmlns:xlink="http://www.w3.org/1999/xlink">
 <defs>
  <style type="text/css">
   <![CDATA[
    .fil0 {fill:black}
   ]]>
  </style>
 </defs>
 <g id="Layer_x0020_1">
  <metadata id="CorelCorpID_0Corel-Layer"/>
  <path class="fil0" d="M1083 98c-544,0 -985,441 -985,985 0,543 441,984 985,984 543,0 984,-441 984,-984 0,-544 -441,-985 -984,-985zm152 1480l-1 0c-45,-1 -91,0 -137,0 -59,0 -121,-2 -179,0l0 0 -68 0c-31,0 -65,3 -92,-7 -24,-9 -42,-25 -52,-44 -15,-27 -12,-47 -12,-79l0 -728c0,-32 -3,-56 11,-82 11,-18 29,-34 51,-43 28,-11 60,-8 92,-8l248 0c18,0 30,-2 43,6 18,13 21,46 21,73 0,32 -5,158 5,178 11,25 35,26 70,26 40,0 165,-3 195,4 33,7 41,21 41,55 -1,122 -2,243 0,365l0 0 0 154c0,32 3,52 -12,79 -10,19 -28,35 -52,44 -27,10 -61,7 -92,7l-80 0zm339 -381c1,-4 0,-11 0,-26l0 -2 0 -1 0 -4 0 -3 0 -4 0 -3 0 -3 0 -4 0 -3 0 -4 0 -3 0 -4 0 -3 0 -4 0 -3 0 -4 0 -3 0 -4 0 -3 0 -4 0 -3 0 -4 0 -3 0 -3 0 -4 0 -3 0 -4 0 -3 0 -4 0 -3 0 -4 0 -3 0 -1 0 -117c0,-30 4,-80 -5,-105 -16,-44 -72,-94 -106,-125 -10,-9 -20,-20 -31,-28 -16,-11 -35,-27 -47,-40 -17,-19 -69,-67 -90,-84 -5,-5 -10,-10 -16,-14 -80,-59 -76,-58 -181,-58 -81,0 -162,0 -243,0 -41,0 -76,-2 -114,8 -30,7 -62,24 -79,39 -44,38 -71,77 -71,156l0 776c0,38 4,63 20,94 23,45 70,86 132,101 36,9 74,7 113,7 27,0 271,1 345,0l107 -1c39,0 78,3 114,-6 61,-16 109,-56 132,-101 16,-31 20,-56 20,-94l0 -274zm-658 -34l37 0 0 165 -37 0c-6,0 -11,-4 -11,-8l0 -35 -81 0c-5,0 -8,-2 -8,-5l0 -62c0,-3 3,-6 8,-6l81 0 0 -40c0,-5 5,-9 11,-9zm62 -20l209 0c4,0 7,2 7,5l0 193c0,3 -3,5 -7,5l-209 0c-4,0 -7,-2 -7,-5l0 -193c0,-3 3,-5 7,-5zm271 20l-36 0 0 165 36 0c6,0 11,-4 11,-8l0 -35 82 0c4,0 7,-2 7,-5l0 -62c0,-3 -3,-6 -7,-6l-82 0 0 -40c0,-5 -5,-9 -11,-9z"/>
 </g>
</svg>
