<?xml version="1.0" encoding="UTF-8"?>
<!DOCTYPE svg PUBLIC "-//W3C//DTD SVG 1.1//EN" "http://www.w3.org/Graphics/SVG/1.1/DTD/svg11.dtd">
<!-- Creator: CorelDRAW X7 -->
<svg xmlns="http://www.w3.org/2000/svg" xml:space="preserve" width="2.16535in" height="2.16535in" version="1.1" style="shape-rendering:geometricPrecision; text-rendering:geometricPrecision; image-rendering:optimizeQuality; fill-rule:evenodd; clip-rule:evenodd"
viewBox="0 0 2165 2165"
 xmlns:xlink="http://www.w3.org/1999/xlink">
 <defs>
  <style type="text/css">
   <![CDATA[
    .fil0 {fill:black}
   ]]>
  </style>
 </defs>
 <g id="Layer_x0020_1">
  <metadata id="CorelCorpID_0Corel-Layer"/>
  <path class="fil0" d="M1083 98c-544,0 -985,441 -985,985 0,543 441,984 985,984 543,0 984,-441 984,-984 0,-544 -441,-985 -984,-985zm-222 1127c23,26 56,42 92,42 35,0 68,-16 92,-42 23,-27 38,-63 38,-103 0,-40 -15,-76 -38,-102 -24,-27 -56,-43 -92,-43 -36,0 -69,16 -92,42 -24,27 -38,63 -38,103 0,40 14,76 38,103zm799 -333l-1 -22 -1 -21 -3 -22 -3 -20 -4 -21 -5 -20 -6 -20 -7 -19 -8 -18 -8 -19 -9 -17 -10 -18 -11 -16 -11 -16 -12 -15 -12 -15 -13 -14 -14 -13 -15 -13 -14 -12 -16 -11 -16 -10 -16 -9 -17 -9 -17 -7 -18 -7 -18 -6 -18 -4 -19 -4 -19 -3 -19 -1 -19 -1 -20 1 -19 1 -19 3 -19 4 -18 4 -18 6 -315 100 22 -7 23 -6 24 -5 23 -3 24 -2 25 -1 24 1 24 2 24 3 23 5 23 6 23 7 22 8 21 10 21 10 21 12 20 13 19 13 18 15 18 16 17 16 17 18 16 18 14 19 15 20 13 21 12 22 12 22 10 22 9 24 9 24 7 24 7 25 5 26 4 26 3 26 2 27 1 27 -1 28 -2 26 -3 27 -4 26 -5 25 -7 26 -7 24 -9 24 -9 23 -10 23 -12 22 -12 22 -13 21 -14 20 -15 19 216 -272 12 -15 11 -16 11 -17 10 -17 9 -18 8 -18 8 -19 7 -19 6 -20 5 -20 4 -20 3 -21 3 -21 1 -21 1 -22zm-707 414c-46,0 -87,-21 -117,-54 -30,-33 -48,-79 -48,-130 0,-51 18,-96 48,-130 30,-33 71,-54 117,-54 45,0 86,21 116,54 30,33 48,79 48,130 0,51 -18,97 -48,130 -30,33 -71,54 -116,54zm-266 112c68,76 162,123 266,123 103,0 197,-47 265,-123 68,-76 110,-180 110,-296 0,-116 -42,-220 -110,-296 -68,-76 -162,-123 -265,-123 -104,0 -198,47 -266,123 -68,76 -110,180 -110,296 0,116 42,220 110,296zm601 -669c-86,-96 -204,-155 -335,-155 -131,0 -250,59 -336,155 -85,95 -138,227 -138,373 0,146 53,278 138,374 86,95 205,154 336,154 131,0 249,-59 335,-154 86,-96 139,-228 139,-374 0,-146 -53,-278 -139,-373zm-335 830c-114,0 -216,-51 -291,-134 -74,-82 -120,-197 -120,-323 0,-126 46,-241 120,-323 75,-83 177,-134 291,-134 113,0 215,51 290,134 74,82 120,197 120,323 0,126 -46,241 -120,323 -75,83 -177,134 -290,134z"/>
 </g>
</svg>
