<?xml version="1.0" encoding="UTF-8"?>
<!DOCTYPE svg PUBLIC "-//W3C//DTD SVG 1.1//EN" "http://www.w3.org/Graphics/SVG/1.1/DTD/svg11.dtd">
<!-- Creator: CorelDRAW X7 -->
<svg xmlns="http://www.w3.org/2000/svg" xml:space="preserve" width="2.16535in" height="2.16535in" version="1.1" style="shape-rendering:geometricPrecision; text-rendering:geometricPrecision; image-rendering:optimizeQuality; fill-rule:evenodd; clip-rule:evenodd"
viewBox="0 0 2165 2165"
 xmlns:xlink="http://www.w3.org/1999/xlink">
 <defs>
  <style type="text/css">
   <![CDATA[
    .fil0 {fill:black}
   ]]>
  </style>
 </defs>
 <g id="Layer_x0020_1">
  <metadata id="CorelCorpID_0Corel-Layer"/>
  <path class="fil0" d="M1083 98c-544,0 -985,441 -985,985 0,543 441,984 985,984 543,0 984,-441 984,-984 0,-544 -441,-985 -984,-985zm-422 1072l0 448c0,29 20,55 43,55l286 0 0 -353 185 0 0 353 286 0c13,0 22,-7 29,-15 6,-6 15,-22 15,-34l0 -454c0,-8 -14,-18 -24,-29 -9,-10 -17,-18 -26,-27l-159 -165c-44,-49 -113,-114 -160,-165l-53 -55c-10,8 -17,17 -26,26l-80 83c-18,19 -34,36 -53,55 -9,9 -17,17 -26,27 -48,52 -115,114 -160,165l-72 74c-4,5 -5,2 -5,11zm-169 -84c0,16 1,21 11,35 6,9 10,15 16,23 30,40 31,68 77,17 13,-13 25,-26 38,-39l74 -78c13,-14 25,-26 38,-39l317 -332c8,-8 11,-12 20,-19l223 232c13,14 25,26 38,40 12,13 24,26 38,39l74 78c33,37 78,79 111,116 6,7 12,13 18,20 30,31 47,-17 76,-57 7,-9 11,-18 12,-26l0 -12c-3,-20 -23,-34 -37,-50 -7,-8 -14,-15 -22,-22l-43 -44c-8,-10 -58,-65 -66,-68l0 -321c0,-35 7,-84 -21,-84l-150 0c-10,0 -17,16 -18,32l0 174 -160 -168c-30,-32 -40,-41 -80,-41 -38,0 -71,47 -102,78 -73,72 -162,168 -234,244l-234 245c-7,6 -14,14 -14,27z"/>
 </g>
</svg>
