<?xml version="1.0" encoding="UTF-8"?>
<!DOCTYPE svg PUBLIC "-//W3C//DTD SVG 1.1//EN" "http://www.w3.org/Graphics/SVG/1.1/DTD/svg11.dtd">
<!-- Creator: CorelDRAW X7 -->
<svg xmlns="http://www.w3.org/2000/svg" xml:space="preserve" width="2.16535in" height="2.16535in" version="1.1" style="shape-rendering:geometricPrecision; text-rendering:geometricPrecision; image-rendering:optimizeQuality; fill-rule:evenodd; clip-rule:evenodd"
viewBox="0 0 2165 2165"
 xmlns:xlink="http://www.w3.org/1999/xlink">
 <defs>
  <style type="text/css">
   <![CDATA[
    .fil0 {fill:black}
   ]]>
  </style>
 </defs>
 <g id="Layer_x0020_1">
  <metadata id="CorelCorpID_0Corel-Layer"/>
  <path class="fil0" d="M1083 98c-544,0 -985,441 -985,985 0,543 441,984 985,984 543,0 984,-441 984,-984 0,-544 -441,-985 -984,-985zm2 1276c0,21 0,24 2,44 1,6 3,16 4,23l2 7c2,8 5,21 8,28 2,4 3,9 5,13l10 22c1,3 3,6 5,9 2,4 4,8 7,13l6 9c5,8 10,15 15,21l38 39 10 8c6,5 12,10 18,14l14 8c4,3 16,10 21,12l25 10c2,1 5,2 7,3 8,3 22,7 31,9 2,0 3,0 4,1 5,1 10,2 15,3 10,2 31,3 42,3 21,0 25,0 44,-2l30 -6 14 -4c5,-1 10,-2 14,-4 4,-2 9,-3 13,-5l13 -5c11,-5 19,-10 29,-16 1,0 1,0 2,-1 0,0 0,0 1,-1l19 -13c2,-1 3,-2 5,-3l5 -4c1,-1 2,-2 3,-2l3 -3c5,-4 9,-8 14,-12l11 -11c1,-1 1,-2 2,-3 3,-3 6,-6 8,-10l16 -20c1,-1 1,-2 2,-3l5 -8c1,-1 1,-1 2,-3l10 -17c3,-6 6,-12 9,-18l6 -16c4,-8 5,-13 7,-20 5,-13 8,-32 10,-45 2,-16 2,-28 2,-44 0,-6 0,-12 0,-17 -1,-8 -4,-33 -6,-40 0,-1 -1,-2 -1,-3l-6 -22c-1,-6 -5,-17 -8,-23l-8 -19c-1,-3 -3,-6 -5,-9 -2,-5 -6,-11 -9,-16l-10 -15c0,-1 -1,-1 -2,-2 0,-1 -1,-2 -2,-3 -2,-4 -6,-8 -9,-13 -1,-1 -2,-1 -3,-2 0,-1 0,-1 0,-1 -3,-3 -5,-6 -8,-9l-4 -5c-1,0 -2,-1 -3,-2l-4 -4c-1,-1 -2,-2 -2,-3 -3,-2 -5,-4 -7,-6 -4,-3 -7,-6 -10,-8l-8 -6c0,-1 -1,-2 -2,-2 -1,-1 -2,-2 -3,-2 -7,-5 -14,-10 -21,-15l-21 -11c-3,-2 -6,-3 -9,-5 -3,-1 -6,-3 -9,-4l-10 -3c-5,-3 -11,-5 -17,-6 -7,-3 -14,-4 -21,-6 -9,-2 -18,-4 -27,-5 -16,-2 -28,-2 -44,-2 -7,0 -14,0 -21,1 -6,0 -15,1 -20,2 -3,1 -5,1 -8,2l-33 8c-1,0 -2,0 -3,1l-13 4c-7,3 -13,5 -20,8l-15 8c-5,2 -9,5 -14,8l-10 6c-8,5 -15,11 -22,16l-8 7c0,0 0,0 -1,0 0,1 0,1 -1,2l-16 15c-4,4 -8,7 -11,12l-10 12c-1,1 -2,2 -2,3l-13 18c-3,3 -5,7 -7,11 -4,5 -7,12 -10,18l-12 28 -5 13c-3,8 -5,17 -7,25l-4 19c0,3 0,6 -1,8 -1,11 -2,22 -2,34zm110 -726l129 -59 110 110 -55 129 20 57 133 49 0 156 -4 1 -10 -5c-3,-2 -7,-4 -10,-5 -3,-1 -7,-4 -10,-5l-11 -4c-6,-2 -12,-4 -18,-6 -8,-3 -16,-5 -24,-7 -10,-2 -20,-4 -29,-5 -17,-2 -31,-2 -48,-2 -8,0 -16,0 -24,1 -6,0 -15,1 -22,2 -2,1 -5,1 -8,2l-36 9c-1,0 -2,0 -3,1l-15 5c-5,2 -9,3 -13,5 5,-20 8,-42 8,-65 0,-135 -109,-244 -243,-244 -135,0 -244,109 -244,244 0,134 109,244 244,244 23,0 45,-3 66,-9l-6 13 -5 14c-3,9 -6,18 -8,27l-4 21c0,3 -1,6 -1,9 -1,12 -3,23 -3,37 0,23 1,27 3,47 1,8 3,19 4,26l2 8c2,8 6,23 9,30 2,5 3,10 5,15l11 24c2,3 3,6 5,9l1 2 -1 3 -156 0 -52 -130 -54 -26 -129 59 -110 -111 55 -128 -19 -57 -133 -49 0 -156 130 -52 26 -54 -59 -128 110 -111 129 55 56 -19 50 -133 156 0 52 130 53 26zm383 731c0,-64 -35,-121 -88,-153l-68 141c2,4 3,8 3,12 0,9 -4,17 -10,23l9 154c87,-15 154,-88 154,-177zm-184 203l-9 -171c-15,-3 -26,-16 -26,-32 0,-17 15,-32 33,-32 2,0 4,1 5,1l76 -156c-12,-5 -24,-8 -37,-11 -14,-3 -30,-5 -45,-5 -58,0 -111,23 -149,59 -38,37 -61,88 -61,144 0,56 23,107 61,143 38,37 91,60 149,60l3 0zm-2 -221c11,0 20,8 20,19 0,10 -9,18 -20,18 -10,0 -19,-8 -19,-18 0,-11 9,-19 19,-19z"/>
 </g>
</svg>
