<?xml version="1.0" encoding="UTF-8"?>
<!DOCTYPE svg PUBLIC "-//W3C//DTD SVG 1.1//EN" "http://www.w3.org/Graphics/SVG/1.1/DTD/svg11.dtd">
<!-- Creator: CorelDRAW X7 -->
<svg xmlns="http://www.w3.org/2000/svg" xml:space="preserve" width="2.16535in" height="2.16535in" version="1.1" style="shape-rendering:geometricPrecision; text-rendering:geometricPrecision; image-rendering:optimizeQuality; fill-rule:evenodd; clip-rule:evenodd"
viewBox="0 0 2165 2165"
 xmlns:xlink="http://www.w3.org/1999/xlink">
 <defs>
  <style type="text/css">
   <![CDATA[
    .fil0 {fill:black}
   ]]>
  </style>
 </defs>
 <g id="Layer_x0020_1">
  <metadata id="CorelCorpID_0Corel-Layer"/>
  <path class="fil0" d="M1083 2067c543,0 984,-441 984,-984 0,-544 -441,-985 -984,-985 -544,0 -985,441 -985,985 0,543 441,984 985,984zm0 -1567c76,0 145,31 196,81 50,50 81,119 81,196l0 3 201 -404c4,-7 13,-10 20,-6 8,3 11,12 7,20l-394 787c-3,7 -12,10 -20,7 -7,-4 -10,-13 -6,-20l83 -168c-46,36 -105,58 -168,58 -77,0 -146,-31 -196,-81 -50,-51 -81,-120 -81,-196l0 -3 -202 403c-4,7 -13,10 -20,7 -8,-4 -10,-13 -7,-20l394 -788c4,-7 13,-10 20,-6 7,3 10,12 7,20l-84 167c47,-36 105,-57 169,-57zm0 30c-69,0 -130,27 -175,72 -45,45 -72,106 -72,175 0,68 27,130 72,174 45,45 106,73 175,73 68,0 130,-28 174,-73 45,-44 73,-106 73,-174 0,-69 -28,-130 -73,-175 -44,-45 -106,-72 -174,-72zm-59 1112l59 15c-12,48 -34,85 -67,111 -32,25 -71,38 -118,38 -48,0 -87,-10 -117,-30 -30,-19 -53,-47 -69,-85 -16,-37 -24,-77 -24,-120 0,-46 9,-87 27,-121 18,-35 43,-61 76,-79 33,-18 69,-27 108,-27 45,0 83,11 113,34 31,23 52,55 64,96l-58 14c-11,-33 -26,-57 -45,-72 -20,-14 -45,-22 -75,-22 -34,0 -63,8 -86,25 -23,16 -39,39 -48,66 -10,28 -14,57 -14,86 0,38 5,71 16,100 11,28 28,49 52,63 23,14 48,21 75,21 34,0 61,-9 84,-28 23,-19 39,-48 47,-85zm246 156l0 -394 -147 0 0 -53 354 0 0 53 -147 0 0 394 -60 0z"/>
 </g>
</svg>
