<?xml version="1.0" encoding="UTF-8"?>
<!DOCTYPE svg PUBLIC "-//W3C//DTD SVG 1.1//EN" "http://www.w3.org/Graphics/SVG/1.1/DTD/svg11.dtd">
<!-- Creator: CorelDRAW X7 -->
<svg xmlns="http://www.w3.org/2000/svg" xml:space="preserve" width="2.16535in" height="2.16535in" version="1.1" style="shape-rendering:geometricPrecision; text-rendering:geometricPrecision; image-rendering:optimizeQuality; fill-rule:evenodd; clip-rule:evenodd"
viewBox="0 0 2165 2165"
 xmlns:xlink="http://www.w3.org/1999/xlink">
 <defs>
  <style type="text/css">
   <![CDATA[
    .fil0 {fill:black}
   ]]>
  </style>
 </defs>
 <g id="Layer_x0020_1">
  <metadata id="CorelCorpID_0Corel-Layer"/>
  <path class="fil0" d="M1083 98c-544,0 -985,441 -985,985 0,543 441,984 985,984 543,0 984,-441 984,-984 0,-544 -441,-985 -984,-985zm-61 1490l0 0c-37,-2 -76,-1 -113,-1 -49,0 -100,-1 -147,1l0 0 -57 0c-25,0 -53,2 -75,-7 -20,-8 -34,-22 -43,-39 -12,-25 -10,-43 -10,-72l0 -657c0,-28 -2,-50 10,-73 8,-17 23,-31 42,-39 22,-10 48,-7 75,-7l204 0c15,0 25,-2 35,6 15,11 18,40 18,65 0,29 -4,143 4,160 9,23 29,24 58,24 32,0 135,-2 160,4 27,6 33,19 33,49 0,110 0,220 0,329l0 0 0 139c0,29 3,47 -9,71 -9,18 -23,32 -43,40 -22,9 -50,7 -76,7l-66 0zm371 -117l0 0c-30,-1 -61,0 -91,0l0 -227c0,-4 0,-10 0,-24l0 -1 0 -1 0 -4 0 -3 0 -3 0 -3 0 -3 0 -3 0 -3 0 -3 0 -4 0 -3 0 -3 0 -3 0 -3 0 -3 0 -3 0 -3 0 -4 0 -3 0 -3 0 -3 0 -3 0 -3 0 -3 0 -3 0 -4 0 -3 0 -3 0 -3 0 -3 0 -3 0 -1 0 -105c0,-27 3,-72 -5,-95 -13,-40 -59,-85 -87,-113 -8,-8 -16,-18 -25,-25 -13,-10 -29,-24 -39,-36 -14,-17 -56,-60 -74,-76 -4,-4 -8,-9 -13,-13 -47,-37 -58,-48 -92,-50 8,-11 19,-20 33,-25 22,-10 49,-8 75,-8l204 0c15,0 25,-1 35,6 15,12 17,41 18,66 0,29 -4,143 4,160 9,23 29,24 58,24 32,0 135,-2 160,3 27,7 33,20 33,50 0,110 0,219 0,329l0 0 0 139c0,29 3,47 -9,71 -9,17 -23,32 -43,40 -22,9 -50,6 -76,6l-66 0zm-100 86c30,0 56,0 72,0l89 -1c32,0 64,3 93,-6 51,-14 90,-50 109,-91 13,-28 17,-50 17,-85l0 -246c0,-4 0,-10 0,-24l0 -1 0 -2 0 -3 0 -3 0 -3 0 -3 0 -3 0 -3 0 -4 0 -3 0 -3 0 -3 0 -3 0 -3 0 -3 0 -3 0 -4 0 -3 0 -3 0 -3 0 -3 0 -3 0 -3 0 -3 0 -4 0 -3 0 -3 0 -3 0 -3 0 -3 0 -3 0 -3 0 -1 0 -106c0,-26 3,-72 -5,-94 -13,-40 -59,-85 -87,-113 -8,-8 -16,-18 -25,-25 -13,-10 -29,-24 -39,-37 -14,-16 -56,-60 -74,-75 -4,-4 -9,-9 -13,-13 -66,-53 -62,-52 -149,-52 -67,0 -134,0 -200,0 -34,0 -63,-2 -94,7 -25,7 -51,22 -65,35 -23,22 -40,43 -50,75l-162 0c-34,0 -63,-3 -94,6 -25,7 -51,22 -65,36 -36,33 -59,69 -59,140l0 700c0,34 4,57 17,85 19,40 58,77 109,91 29,8 61,6 93,6 22,0 223,1 283,0l89 0c32,0 64,2 93,-6 51,-14 90,-51 109,-92 3,-6 6,-12 8,-18zm-533 -344l30 0 0 149 -30 0c-5,0 -9,-3 -9,-8l0 -30 -67 0c-4,0 -6,-3 -6,-6l0 -55c0,-3 2,-5 6,-5l67 0 0 -37c0,-4 4,-8 9,-8zm51 -18l172 0c3,0 6,2 6,5l0 174c0,3 -3,5 -6,5l-172 0c-3,0 -6,-2 -6,-5l0 -174c0,-3 3,-5 6,-5zm223 18l-30 0 0 149 30 0c5,0 9,-3 9,-8l0 -30 68 0c3,0 6,-3 6,-6l0 -55c0,-3 -3,-5 -6,-5l-68 0 0 -37c0,-4 -4,-8 -9,-8z"/>
 </g>
</svg>
