<?xml version="1.0" encoding="UTF-8"?>
<!DOCTYPE svg PUBLIC "-//W3C//DTD SVG 1.1//EN" "http://www.w3.org/Graphics/SVG/1.1/DTD/svg11.dtd">
<!-- Creator: CorelDRAW X7 -->
<svg xmlns="http://www.w3.org/2000/svg" xml:space="preserve" width="2.16535in" height="2.16535in" version="1.1" style="shape-rendering:geometricPrecision; text-rendering:geometricPrecision; image-rendering:optimizeQuality; fill-rule:evenodd; clip-rule:evenodd"
viewBox="0 0 2165 2165"
 xmlns:xlink="http://www.w3.org/1999/xlink">
 <defs>
  <style type="text/css">
   <![CDATA[
    .fil0 {fill:black}
   ]]>
  </style>
 </defs>
 <g id="Layer_x0020_1">
  <metadata id="CorelCorpID_0Corel-Layer"/>
  <path class="fil0" d="M1083 98c-544,0 -985,441 -985,985 0,543 441,984 985,984 543,0 984,-441 984,-984 0,-544 -441,-985 -984,-985zm0 394c163,0 310,66 417,173 107,107 173,255 173,418 0,163 -66,310 -173,417 -107,107 -254,173 -417,173 -163,0 -311,-66 -418,-173 -107,-107 -173,-254 -173,-417 0,-163 66,-311 173,-418 107,-107 255,-173 418,-173zm362 228c-93,-93 -221,-150 -362,-150 -142,0 -270,57 -363,150 -93,93 -150,221 -150,363 0,141 57,270 150,362 93,93 221,150 363,150 141,0 269,-57 362,-150 93,-92 150,-221 150,-362 0,-142 -57,-270 -150,-363zm-5 -6l-137 304c-8,-29 -19,-53 -33,-74l-156 161 -53 -52 155 -161c-21,-14 -46,-24 -75,-31l299 -147z"/>
 </g>
</svg>
