<?xml version="1.0" encoding="UTF-8"?>
<!DOCTYPE svg PUBLIC "-//W3C//DTD SVG 1.1//EN" "http://www.w3.org/Graphics/SVG/1.1/DTD/svg11.dtd">
<!-- Creator: CorelDRAW X7 -->
<svg xmlns="http://www.w3.org/2000/svg" xml:space="preserve" width="2.16535in" height="2.16535in" version="1.1" style="shape-rendering:geometricPrecision; text-rendering:geometricPrecision; image-rendering:optimizeQuality; fill-rule:evenodd; clip-rule:evenodd"
viewBox="0 0 2165 2165"
 xmlns:xlink="http://www.w3.org/1999/xlink">
 <defs>
  <style type="text/css">
   <![CDATA[
    .fil0 {fill:black}
   ]]>
  </style>
 </defs>
 <g id="Layer_x0020_1">
  <metadata id="CorelCorpID_0Corel-Layer"/>
  <path class="fil0" d="M1083 2067c-544,0 -985,-441 -985,-984 0,-544 441,-985 985,-985 543,0 984,441 984,985 0,543 -441,984 -984,984zm-566 -1009c-14,-13 -36,-13 -49,0 -14,14 -14,36 0,49 106,106 211,212 379,156 79,-26 168,-89 256,-152 84,-60 168,-120 237,-143 63,-21 115,-11 163,16 50,28 98,76 146,123 13,14 35,14 49,0 13,-13 13,-35 0,-49 -51,-51 -102,-101 -162,-135 -63,-35 -134,-49 -218,-21 -79,27 -167,90 -255,152 -84,60 -169,121 -237,143 -127,43 -218,-48 -309,-139zm240 -72l94 -250c-21,12 -42,20 -63,24l0 -87 -62 0 0 87c-20,-4 -41,-12 -62,-24l93 250zm666 195l-94 251c22,-12 42,-20 63,-24l0 87 62 0 0 -87c21,4 41,12 62,24l-93 -251z"/>
 </g>
</svg>
