<?xml version="1.0" encoding="UTF-8"?>
<!DOCTYPE svg PUBLIC "-//W3C//DTD SVG 1.1//EN" "http://www.w3.org/Graphics/SVG/1.1/DTD/svg11.dtd">
<!-- Creator: CorelDRAW X7 -->
<svg xmlns="http://www.w3.org/2000/svg" xml:space="preserve" width="2.16535in" height="2.16535in" version="1.1" style="shape-rendering:geometricPrecision; text-rendering:geometricPrecision; image-rendering:optimizeQuality; fill-rule:evenodd; clip-rule:evenodd"
viewBox="0 0 2165 2165"
 xmlns:xlink="http://www.w3.org/1999/xlink">
 <defs>
  <style type="text/css">
   <![CDATA[
    .fil0 {fill:black}
   ]]>
  </style>
 </defs>
 <g id="Layer_x0020_1">
  <metadata id="CorelCorpID_0Corel-Layer"/>
  <path class="fil0" d="M1083 98c-544,0 -985,441 -985,985 0,543 441,984 985,984 543,0 984,-441 984,-984 0,-544 -441,-985 -984,-985zm-161 978l-358 393c-24,27 -43,52 -55,75 -11,21 -17,39 -17,55 0,14 3,25 7,35 4,8 10,15 18,21 9,6 19,11 29,14 12,3 25,4 40,4 10,0 20,0 28,-1 7,-1 15,-3 22,-5 7,-2 13,-5 19,-8 5,-3 11,-6 16,-10l17 -14 13 -13c129,-147 256,-295 385,-442l316 375 73 82c5,5 11,10 17,15 6,4 13,8 21,12 7,3 15,5 23,7 10,1 20,2 33,2 11,0 21,-1 30,-2 9,-2 18,-5 26,-8 8,-3 15,-7 21,-11 5,-4 10,-9 15,-15 4,-5 7,-10 9,-17 2,-5 3,-12 3,-19 0,-8 -1,-16 -4,-23 -2,-9 -7,-18 -13,-28 -6,-10 -14,-22 -25,-36 -11,-14 -23,-29 -38,-45 -121,-131 -238,-277 -355,-412l331 -372c27,-30 47,-57 59,-80 12,-20 18,-38 18,-52 0,-8 -2,-16 -6,-22 -4,-7 -10,-14 -19,-20l0 0c-9,-6 -19,-11 -30,-14 -12,-3 -25,-5 -41,-5 -9,0 -17,1 -24,2 -6,1 -12,2 -17,4l-1 0c-6,2 -11,4 -16,7 -6,3 -11,7 -16,11 -6,5 -12,10 -18,17 -125,138 -246,281 -368,421l-276 -336c-21,-26 -40,-48 -58,-67 -16,-17 -29,-30 -40,-39 -9,-6 -18,-11 -30,-15 -12,-3 -27,-5 -45,-5 -14,0 -28,2 -39,5 -12,3 -22,8 -32,14 -10,7 -17,13 -21,20 -4,6 -5,12 -5,18 0,10 1,19 4,28 3,10 7,20 13,30 6,11 15,23 25,37 10,14 22,30 36,46l316 368 -16 18z"/>
 </g>
</svg>
