<?xml version="1.0" encoding="UTF-8"?>
<!DOCTYPE svg PUBLIC "-//W3C//DTD SVG 1.1//EN" "http://www.w3.org/Graphics/SVG/1.1/DTD/svg11.dtd">
<!-- Creator: CorelDRAW X7 -->
<svg xmlns="http://www.w3.org/2000/svg" xml:space="preserve" width="2.16535in" height="2.16535in" version="1.1" style="shape-rendering:geometricPrecision; text-rendering:geometricPrecision; image-rendering:optimizeQuality; fill-rule:evenodd; clip-rule:evenodd"
viewBox="0 0 2165 2165"
 xmlns:xlink="http://www.w3.org/1999/xlink">
 <defs>
  <style type="text/css">
   <![CDATA[
    .fil0 {fill:black}
   ]]>
  </style>
 </defs>
 <g id="Layer_x0020_1">
  <metadata id="CorelCorpID_0Corel-Layer"/>
  <path class="fil0" d="M1083 98c-544,0 -985,441 -985,985 0,543 441,984 985,984 543,0 984,-441 984,-984 0,-544 -441,-985 -984,-985zm-585 636c-22,0 -33,27 -20,46 6,6 11,10 20,10l51 0c23,0 33,-27 20,-46 -6,-6 -11,-10 -20,-10l-51 0zm1083 56c22,0 33,-27 20,-46 -6,-6 -11,-10 -20,-10l-51 0c-23,0 -34,27 -20,46 5,6 11,10 20,10l51 0zm-206 0c22,0 33,-27 20,-46 -6,-6 -11,-10 -20,-10l-52 0c-22,0 -33,27 -20,46 6,6 11,10 20,10l52 0zm-207 0c23,0 34,-27 20,-46 -6,-6 -11,-10 -20,-10l-51 0c-22,0 -33,27 -20,46 6,6 11,10 20,10l51 0zm-206 0c22,0 33,-27 20,-46 -6,-6 -11,-10 -20,-10l-51 0c-23,0 -34,27 -20,46 5,6 11,10 20,10l51 0zm-206 0c22,0 33,-27 19,-46 -5,-6 -10,-10 -19,-10l-52 0c-22,0 -33,27 -20,46 6,6 11,10 20,10l52 0zm-258 585c-22,0 -33,27 -20,47 6,6 11,10 20,10l51 0c23,0 33,-27 20,-47 -6,-6 -11,-10 -20,-10l-51 0zm1083 57c22,0 33,-27 20,-47 -6,-6 -11,-10 -20,-10l-51 0c-23,0 -34,27 -20,47 5,6 11,10 20,10l51 0zm-206 0c22,0 33,-27 20,-47 -6,-6 -11,-10 -20,-10l-52 0c-22,0 -33,27 -20,47 6,6 11,10 20,10l52 0zm-207 0c23,0 34,-27 20,-47 -6,-6 -11,-10 -20,-10l-51 0c-22,0 -33,27 -20,47 6,6 11,10 20,10l51 0zm-206 0c22,0 33,-27 20,-47 -6,-6 -11,-10 -20,-10l-51 0c-23,0 -34,27 -20,47 5,6 11,10 20,10l51 0zm-206 0c22,0 33,-27 19,-47 -5,-6 -10,-10 -19,-10l-52 0c-22,0 -33,27 -20,47 6,6 11,10 20,10l52 0zm-109 -321c-2,0 -4,0 -6,0l-143 0c-14,0 -26,-13 -26,-28 0,-16 12,-29 26,-29l136 0c76,-83 153,-162 274,-118 57,20 120,69 183,118l577 0c14,0 25,13 25,29 0,15 -11,28 -25,28l-136 0c-35,39 -71,76 -112,102 -47,28 -100,40 -163,17 -56,-21 -119,-69 -183,-119l-427 0zm436 -520l-94 -251c21,12 42,20 63,24l0 -87 62 0 0 87c20,-4 41,-12 62,-24l-93 251zm0 984l-94 251c21,-12 42,-20 63,-24l0 86 62 0 0 -86c20,4 41,12 62,24l-93 -251z"/>
 </g>
</svg>
