<?xml version="1.0" encoding="UTF-8"?>
<!DOCTYPE svg PUBLIC "-//W3C//DTD SVG 1.1//EN" "http://www.w3.org/Graphics/SVG/1.1/DTD/svg11.dtd">
<!-- Creator: CorelDRAW X7 -->
<svg xmlns="http://www.w3.org/2000/svg" xml:space="preserve" width="2.16535in" height="2.16535in" version="1.1" style="shape-rendering:geometricPrecision; text-rendering:geometricPrecision; image-rendering:optimizeQuality; fill-rule:evenodd; clip-rule:evenodd"
viewBox="0 0 2165 2165"
 xmlns:xlink="http://www.w3.org/1999/xlink">
 <defs>
  <style type="text/css">
   <![CDATA[
    .fil0 {fill:black}
   ]]>
  </style>
 </defs>
 <g id="Layer_x0020_1">
  <metadata id="CorelCorpID_0Corel-Layer"/>
  <path class="fil0" d="M1083 98c-544,0 -985,441 -985,985 0,543 441,984 985,984 543,0 984,-441 984,-984 0,-544 -441,-985 -984,-985zm-518 540c-40,0 -73,-33 -73,-73 0,-40 33,-73 73,-73l155 0c41,0 73,33 73,73l0 504 184 458 212 0 183 -458 0 -504c0,-40 33,-73 73,-73l155 0c41,0 73,33 73,73 0,40 -32,73 -73,73l-82 0 0 445c0,9 -2,18 -5,27l-205 512c-10,30 -37,51 -70,51l-311 0c-28,0 -56,-17 -67,-46l-205 -512c-5,-10 -8,-21 -8,-32l0 -445 -82 0z"/>
 </g>
</svg>
