<?xml version="1.0" encoding="UTF-8"?>
<!DOCTYPE svg PUBLIC "-//W3C//DTD SVG 1.1//EN" "http://www.w3.org/Graphics/SVG/1.1/DTD/svg11.dtd">
<!-- Creator: CorelDRAW X7 -->
<svg xmlns="http://www.w3.org/2000/svg" xml:space="preserve" width="2.16535in" height="2.16535in" version="1.1" style="shape-rendering:geometricPrecision; text-rendering:geometricPrecision; image-rendering:optimizeQuality; fill-rule:evenodd; clip-rule:evenodd"
viewBox="0 0 2165 2165"
 xmlns:xlink="http://www.w3.org/1999/xlink">
 <defs>
  <style type="text/css">
   <![CDATA[
    .fil0 {fill:black}
   ]]>
  </style>
 </defs>
 <g id="Layer_x0020_1">
  <metadata id="CorelCorpID_0Corel-Layer"/>
  <path class="fil0" d="M1083 98c-544,0 -985,441 -985,985 0,543 441,984 985,984 543,0 984,-441 984,-984 0,-544 -441,-985 -984,-985zm221 512l117 1c-3,-7 -50,-45 -58,-52 -21,-17 -36,-34 -59,-50l0 101zm-663 391l71 0 0 -199 -70 -1 -1 200zm812 -187l0 186 70 2 1 -116 0 -23 -1 -62 -69 1 -1 12zm-727 858l714 1c4,-14 3,-270 -1,-280 -6,-6 -506,-3 -534,-3 -41,0 -147,-4 -180,2 -4,30 -5,255 1,280zm68 -232c0,-1 -2,-1 -3,-1 0,-17 9,-13 28,-12 150,2 331,0 484,0 13,0 25,0 37,0 27,-1 28,-3 33,4 9,15 -16,11 -27,11 -12,0 -24,0 -36,0 -65,0 -473,3 -504,0l-12 -2zm58 40c-29,0 -71,6 -60,-13 4,-6 447,-3 521,-3 30,0 70,-7 60,11 -5,7 -21,5 -37,5l-484 0zm-61 30c4,-15 21,-9 64,-9 156,0 339,3 491,0 22,-1 26,-5 28,12 -1,0 -2,0 -3,1 -2,4 -60,2 -68,2l-497 1c-24,-3 -7,1 -15,-7zm1 39c1,-17 5,-11 60,-11l484 0c6,0 15,-1 21,-1 12,1 12,-1 16,5 11,18 -30,11 -60,11l-484 1c-12,0 -28,2 -37,-5zm-1 37c2,-15 4,-12 25,-11 156,2 326,0 484,0l57 -1c12,1 12,-2 16,5 9,14 -13,12 -23,12l-550 -1c-7,-2 -4,-1 -9,-4zm2 40l-1 -11c11,-4 542,-6 582,-2l0 13c-18,6 -572,4 -581,0zm-68 -625l716 1c1,-23 7,-392 -4,-376l-11 -2c-21,-2 -103,2 -134,-1 -10,-25 4,-98 -4,-130l-562 -1c-6,23 -2,99 -2,127 0,53 -3,353 1,382zm-14 444l1 -19 -33 -3c-3,-13 -4,-54 1,-64 7,-6 522,-2 604,-2 38,0 175,-5 202,1 4,15 2,32 2,47 0,31 -7,14 -34,21l0 19c38,5 120,1 163,1 65,0 56,-41 56,-92 0,-95 0,-189 0,-284 0,-63 -31,-59 -96,-59l-989 0c-66,1 -96,-4 -96,59 1,95 0,189 0,284 0,50 -8,92 57,92 44,1 121,4 162,-1zm750 -371c43,-10 58,45 21,54 -49,12 -62,-44 -21,-54zm114 0c46,-11 58,49 17,55 -46,7 -57,-45 -17,-55z"/>
 </g>
</svg>
