<?xml version="1.0" encoding="UTF-8"?>
<!DOCTYPE svg PUBLIC "-//W3C//DTD SVG 1.1//EN" "http://www.w3.org/Graphics/SVG/1.1/DTD/svg11.dtd">
<!-- Creator: CorelDRAW X7 -->
<svg xmlns="http://www.w3.org/2000/svg" xml:space="preserve" width="2.16535in" height="2.16535in" version="1.1" style="shape-rendering:geometricPrecision; text-rendering:geometricPrecision; image-rendering:optimizeQuality; fill-rule:evenodd; clip-rule:evenodd"
viewBox="0 0 2165 2165"
 xmlns:xlink="http://www.w3.org/1999/xlink">
 <defs>
  <style type="text/css">
   <![CDATA[
    .fil0 {fill:black}
   ]]>
  </style>
 </defs>
 <g id="Layer_x0020_1">
  <metadata id="CorelCorpID_0Corel-Layer"/>
  <path class="fil0" d="M1083 98c-544,0 -985,441 -985,985 0,543 441,984 985,984 543,0 984,-441 984,-984 0,-544 -441,-985 -984,-985zm14 1351c-102,0 -232,-95 -232,52 0,44 177,116 234,145 89,44 189,106 282,106 161,0 321,-141 321,-303 0,-81 -47,-152 -77,-212 -48,-94 -61,-165 -154,-165 -74,0 -4,53 31,141 6,16 9,52 -26,33 -10,-6 -50,-92 -58,-107 -51,-101 -63,-80 -134,-74 4,51 89,168 89,199 0,41 -32,21 -45,1l-58 -120c-23,-57 -48,-60 -121,-43 8,35 75,149 98,192 32,60 -7,72 -34,25 -10,-18 -14,-31 -24,-50 -12,-20 -16,-24 -28,-46l-157 -280c-19,-32 -33,-70 -79,-70 -87,0 -63,80 -44,125 11,25 24,49 36,74 58,115 119,264 180,377zm-576 -694l0 635c0,210 220,184 337,184 0,0 -99,-132 27,-187 25,-10 44,-10 64,-7 21,4 59,11 73,17 -3,-13 -118,-276 -144,-293 -32,-22 -118,-34 -118,-172 0,-198 337,-220 337,15 0,57 -26,43 30,125 83,-43 70,5 130,-33 73,-46 141,4 150,6 45,9 -9,-28 131,-8 0,-204 45,-466 -187,-466l-643 0c-107,0 -187,79 -187,184z"/>
 </g>
</svg>
