<?xml version="1.0" encoding="UTF-8"?>
<!DOCTYPE svg PUBLIC "-//W3C//DTD SVG 1.1//EN" "http://www.w3.org/Graphics/SVG/1.1/DTD/svg11.dtd">
<!-- Creator: CorelDRAW X7 -->
<svg xmlns="http://www.w3.org/2000/svg" xml:space="preserve" width="2.16535in" height="2.16535in" version="1.1" style="shape-rendering:geometricPrecision; text-rendering:geometricPrecision; image-rendering:optimizeQuality; fill-rule:evenodd; clip-rule:evenodd"
viewBox="0 0 2165 2165"
 xmlns:xlink="http://www.w3.org/1999/xlink">
 <defs>
  <style type="text/css">
   <![CDATA[
    .fil0 {fill:black}
   ]]>
  </style>
 </defs>
 <g id="Layer_x0020_1">
  <metadata id="CorelCorpID_0Corel-Layer"/>
  <path class="fil0" d="M1083 98c-544,0 -985,441 -985,985 0,543 441,984 985,984 543,0 984,-441 984,-984 0,-544 -441,-985 -984,-985zm86 1164l-43 -2c-23,-2 -16,-1 -16,-74 0,-36 5,-88 -2,-118 -10,1 -12,3 -25,15 -8,7 -14,10 -22,18l-131 104c-15,13 -29,24 -44,35l-110 88c-39,28 -16,26 21,59 8,7 13,11 21,18l75 61c39,34 106,83 144,116 6,6 62,54 68,54 6,0 8,-2 8,-8l0 -164c81,-1 207,-44 275,-88 26,-17 45,-34 66,-54 81,-77 150,-214 150,-328 -8,5 -47,57 -58,70 -26,31 -56,62 -88,88 -24,19 -50,37 -78,53 -56,32 -141,57 -211,57zm-247 -808c-6,0 -8,2 -8,8l0 164c-22,0 -81,11 -103,16 -61,14 -121,39 -172,72 -73,48 -129,115 -167,194 -21,44 -49,126 -49,188 10,-6 13,-12 20,-22 20,-29 29,-37 49,-61 17,-21 56,-59 78,-76 22,-17 55,-40 79,-53 64,-36 186,-68 258,-54 13,2 10,2 10,18 0,40 -4,148 3,174 10,-1 11,-3 24,-15l76 -61c5,-5 6,-5 12,-9 30,-25 69,-54 106,-84 -23,-28 -37,-65 -37,-104 0,-44 17,-85 45,-114l-58 -47c-4,-4 -6,-6 -11,-10l-75 -61c-5,-5 -6,-5 -12,-10l-43 -35c-5,-4 -20,-18 -25,-18zm509 296c0,-76 -62,-138 -137,-138 -77,0 -138,62 -138,138 0,76 61,137 138,137 75,0 137,-61 137,-137z"/>
 </g>
</svg>
