<?xml version="1.0" encoding="UTF-8"?>
<!DOCTYPE svg PUBLIC "-//W3C//DTD SVG 1.1//EN" "http://www.w3.org/Graphics/SVG/1.1/DTD/svg11.dtd">
<!-- Creator: CorelDRAW X7 -->
<svg xmlns="http://www.w3.org/2000/svg" xml:space="preserve" width="2.16535in" height="2.16535in" version="1.1" style="shape-rendering:geometricPrecision; text-rendering:geometricPrecision; image-rendering:optimizeQuality; fill-rule:evenodd; clip-rule:evenodd"
viewBox="0 0 2165 2165"
 xmlns:xlink="http://www.w3.org/1999/xlink">
 <defs>
  <style type="text/css">
   <![CDATA[
    .fil0 {fill:black}
   ]]>
  </style>
 </defs>
 <g id="Layer_x0020_1">
  <metadata id="CorelCorpID_0Corel-Layer"/>
  <path class="fil0" d="M1073 1673c-31,0 -59,-10 -83,-31 -24,-20 -35,-49 -35,-86 0,-33 11,-60 34,-83 23,-22 51,-33 84,-33 33,0 61,11 83,33 23,23 34,50 34,83 0,36 -12,65 -35,86 -24,21 -51,31 -82,31zm-380 -855c0,-49 16,-99 47,-150 32,-51 78,-93 139,-126 61,-33 132,-50 213,-50 76,0 142,14 200,42 58,28 102,65 133,113 32,48 48,100 48,156 0,44 -9,83 -27,117 -18,33 -39,62 -64,86 -25,24 -69,65 -133,122 -18,16 -32,30 -43,42 -10,13 -18,24 -23,34 -6,10 -9,20 -12,30 -3,10 -8,28 -13,54 -10,54 -41,81 -93,81 -27,0 -50,-9 -68,-27 -19,-17 -28,-44 -28,-78 0,-44 7,-82 20,-114 14,-32 32,-60 54,-84 22,-24 53,-53 91,-86 33,-29 57,-52 72,-66 15,-15 27,-32 37,-50 10,-18 15,-38 15,-59 0,-42 -15,-77 -46,-105 -31,-29 -71,-43 -120,-43 -57,0 -99,14 -126,43 -27,29 -50,72 -69,128 -18,58 -51,88 -100,88 -30,0 -54,-10 -74,-31 -20,-21 -30,-43 -30,-67zm390 -720c-544,0 -985,441 -985,985 0,543 441,984 985,984 543,0 984,-441 984,-984 0,-544 -441,-985 -984,-985z"/>
 </g>
</svg>
