<?xml version="1.0" encoding="UTF-8"?>
<!DOCTYPE svg PUBLIC "-//W3C//DTD SVG 1.1//EN" "http://www.w3.org/Graphics/SVG/1.1/DTD/svg11.dtd">
<!-- Creator: CorelDRAW X7 -->
<svg xmlns="http://www.w3.org/2000/svg" xml:space="preserve" width="2.16535in" height="2.16535in" version="1.1" style="shape-rendering:geometricPrecision; text-rendering:geometricPrecision; image-rendering:optimizeQuality; fill-rule:evenodd; clip-rule:evenodd"
viewBox="0 0 2165 2165"
 xmlns:xlink="http://www.w3.org/1999/xlink">
 <defs>
  <style type="text/css">
   <![CDATA[
    .fil0 {fill:black}
   ]]>
  </style>
 </defs>
 <g id="Layer_x0020_1">
  <metadata id="CorelCorpID_0Corel-Layer"/>
  <path class="fil0" d="M1083 98c-544,0 -985,441 -985,985 0,543 441,984 985,984 543,0 984,-441 984,-984 0,-544 -441,-985 -984,-985zm-48 1575l95 0 0 -305 -95 0 0 305zm0 -857l95 0 0 -324 -95 0 0 324zm-55 377l76 -115 -68 -105 51 0 44 65 43 -65 52 0 -69 105 76 115 -54 0 -48 -75 -49 75 -54 0zm-488 -110l198 202c25,25 42,55 78,64 -5,-59 -33,-102 -38,-162l172 0 0 67 333 0c35,0 29,-20 29,-67l171 0c-5,60 -33,103 -38,162 39,-10 259,-241 276,-266l-197 -203c-26,-25 -42,-54 -79,-64 5,60 33,102 38,162l-181 0 0 -76 -352 0 0 76 -172 0c5,-60 33,-102 38,-162 -36,10 -109,95 -140,126 -39,40 -108,99 -136,141z"/>
 </g>
</svg>
