<?xml version="1.0" encoding="UTF-8"?>
<!DOCTYPE svg PUBLIC "-//W3C//DTD SVG 1.1//EN" "http://www.w3.org/Graphics/SVG/1.1/DTD/svg11.dtd">
<!-- Creator: CorelDRAW X7 -->
<svg xmlns="http://www.w3.org/2000/svg" xml:space="preserve" width="2.16535in" height="2.16535in" version="1.1" style="shape-rendering:geometricPrecision; text-rendering:geometricPrecision; image-rendering:optimizeQuality; fill-rule:evenodd; clip-rule:evenodd"
viewBox="0 0 2165 2165"
 xmlns:xlink="http://www.w3.org/1999/xlink">
 <defs>
  <style type="text/css">
   <![CDATA[
    .fil0 {fill:black}
   ]]>
  </style>
 </defs>
 <g id="Layer_x0020_1">
  <metadata id="CorelCorpID_0Corel-Layer"/>
  <path class="fil0" d="M1083 2067c543,0 984,-441 984,-984 0,-544 -441,-985 -984,-985 -544,0 -985,441 -985,985 0,543 441,984 985,984zm20 -412l56 -5c2,22 8,41 18,55 10,15 25,26 45,35 20,9 43,13 69,13 22,0 42,-3 59,-10 18,-6 30,-16 39,-27 8,-12 13,-25 13,-39 0,-14 -4,-26 -13,-36 -8,-11 -21,-20 -40,-27 -12,-4 -38,-12 -80,-22 -41,-9 -69,-19 -86,-27 -21,-12 -37,-26 -47,-42 -11,-17 -16,-35 -16,-56 0,-23 6,-44 19,-63 13,-20 32,-35 56,-45 25,-10 52,-15 82,-15 33,0 63,5 88,16 25,10 45,26 58,47 14,21 21,44 22,70l-56 5c-4,-29 -14,-50 -31,-64 -18,-15 -44,-22 -78,-22 -36,0 -62,7 -79,20 -16,13 -24,29 -24,47 0,16 6,30 17,40 12,10 41,21 89,32 48,11 81,20 99,28 26,12 46,27 58,46 12,18 18,39 18,63 0,24 -6,46 -20,67 -14,21 -33,38 -59,49 -25,12 -54,18 -86,18 -40,0 -74,-6 -101,-18 -28,-12 -49,-29 -64,-53 -16,-24 -24,-50 -25,-80zm-249 143l0 -394 -147 0 0 -53 354 0 0 53 -147 0 0 394 -60 0zm229 -1268c-69,0 -130,27 -175,72 -45,45 -72,106 -72,175 0,68 27,130 72,174 45,45 106,73 175,73 68,0 130,-28 174,-73 45,-44 73,-106 73,-174 0,-69 -28,-130 -73,-175 -44,-45 -106,-72 -174,-72zm0 -30c76,0 145,31 196,81 50,50 81,119 81,196l0 3 201 -404c4,-7 13,-10 20,-6 8,3 11,12 7,20l-394 787c-3,7 -12,10 -20,7 -7,-4 -10,-13 -6,-20l83 -168c-46,36 -105,58 -168,58 -77,0 -146,-31 -196,-81 -50,-51 -81,-120 -81,-196l0 -3 -202 403c-4,7 -13,10 -20,7 -8,-4 -10,-13 -7,-20l394 -788c4,-7 13,-10 20,-6 7,3 10,12 7,20l-84 167c47,-36 105,-57 169,-57z"/>
 </g>
</svg>
