<?xml version="1.0" encoding="UTF-8"?>
<!DOCTYPE svg PUBLIC "-//W3C//DTD SVG 1.1//EN" "http://www.w3.org/Graphics/SVG/1.1/DTD/svg11.dtd">
<!-- Creator: CorelDRAW X7 -->
<svg xmlns="http://www.w3.org/2000/svg" xml:space="preserve" width="2.16535in" height="2.16535in" version="1.1" style="shape-rendering:geometricPrecision; text-rendering:geometricPrecision; image-rendering:optimizeQuality; fill-rule:evenodd; clip-rule:evenodd"
viewBox="0 0 2165 2165"
 xmlns:xlink="http://www.w3.org/1999/xlink">
 <defs>
  <style type="text/css">
   <![CDATA[
    .fil0 {fill:black}
   ]]>
  </style>
 </defs>
 <g id="Layer_x0020_1">
  <metadata id="CorelCorpID_0Corel-Layer"/>
  <path class="fil0" d="M1083 98c-544,0 -985,441 -985,985 0,543 441,984 985,984 543,0 984,-441 984,-984 0,-544 -441,-985 -984,-985zm-475 468c-65,46 -136,159 -169,236 -29,65 -28,77 -46,140 -5,20 -7,39 -8,59 -3,51 -7,50 -4,117 6,198 117,410 279,527 13,9 23,16 36,24l95 54c26,12 108,40 136,45 15,2 25,6 40,9 15,2 23,1 39,4 13,2 27,3 41,4 8,0 81,0 83,-2 12,-8 53,-117 60,-135 5,-14 16,-34 16,-46 -30,13 -114,15 -148,14 -27,0 -80,-8 -108,-16 -13,-3 -23,-6 -36,-10 -47,-16 -93,-39 -134,-68 -134,-91 -225,-250 -230,-402 -1,-14 -2,-29 -1,-44 6,-84 5,-89 30,-171 12,-37 40,-88 61,-121 13,-20 46,-64 68,-79l66 91c12,-14 149,-356 149,-361 -9,-3 -318,18 -341,20 -15,1 -36,0 -49,6l75 105zm352 -3c30,-12 114,-15 148,-14 149,2 318,93 408,218 63,89 108,222 101,324l-8 87c-2,8 -4,10 -5,20 -10,61 -46,134 -80,185 -13,20 -45,62 -66,78l-66 -92c-10,11 -15,29 -21,43l-37 91c-10,24 -91,217 -91,227l340 -20c16,-1 37,0 50,-6l-75 -105c67,-48 151,-180 181,-263 22,-60 19,-69 33,-113 12,-39 15,-135 13,-176 -1,-33 -8,-87 -16,-120 -10,-42 -22,-82 -41,-125 -50,-109 -126,-212 -223,-282l-73 -47c-8,-5 -11,-8 -19,-12 -8,-5 -10,-4 -19,-9 -56,-27 -135,-55 -195,-64 -15,-2 -24,-1 -39,-4 -24,-4 -120,-6 -124,-3 -10,7 -17,30 -23,45 -8,22 -53,124 -53,137zm80 620l158 -100 -158 -101 0 76 -158 0 0 50 158 0 0 75zm196 97l0 -395 -388 0 -16 -17 0 -23 16 -18 418 1 8 3 5 5 152 229c4,5 6,11 6,17 0,7 -2,13 -5,19l-150 225 -6 5 -9 5 -6 2 -413 0 -16 -18 0 -22 16 -18 388 0z"/>
 </g>
</svg>
