<?xml version="1.0" encoding="UTF-8"?>
<!DOCTYPE svg PUBLIC "-//W3C//DTD SVG 1.1//EN" "http://www.w3.org/Graphics/SVG/1.1/DTD/svg11.dtd">
<!-- Creator: CorelDRAW X7 -->
<svg xmlns="http://www.w3.org/2000/svg" xml:space="preserve" width="2.16535in" height="2.16535in" version="1.1" style="shape-rendering:geometricPrecision; text-rendering:geometricPrecision; image-rendering:optimizeQuality; fill-rule:evenodd; clip-rule:evenodd"
viewBox="0 0 2165 2165"
 xmlns:xlink="http://www.w3.org/1999/xlink">
 <defs>
  <style type="text/css">
   <![CDATA[
    .fil0 {fill:black}
   ]]>
  </style>
 </defs>
 <g id="Layer_x0020_1">
  <metadata id="CorelCorpID_0Corel-Layer"/>
  <path class="fil0" d="M1083 98c-544,0 -985,441 -985,985 0,543 441,984 985,984 543,0 984,-441 984,-984 0,-544 -441,-985 -984,-985zm-481 898l-110 0 0 0c1,5 7,14 9,18 21,37 49,90 69,125 14,22 26,47 40,70 5,10 38,66 39,72 5,-2 8,-11 11,-16 3,-6 6,-11 10,-18l129 -232c3,-5 9,-14 10,-19l-110 0c4,-15 6,-28 10,-43 17,-69 48,-131 90,-186 8,-10 21,-28 30,-35l26 -25c23,-21 48,-38 74,-54 33,-21 71,-34 109,-44 92,-24 204,-10 283,33 24,13 49,27 70,45l30 26c3,2 5,4 8,7 3,2 4,4 7,7l40 47c8,11 16,21 23,34l40 77c6,14 11,28 15,43 10,32 17,65 21,99 1,18 3,39 3,57l-4 56c-4,48 -18,99 -35,141 -30,69 -54,103 -103,158l-15 14c-3,3 -4,4 -7,7 -18,16 -37,30 -57,43l-37 20c-25,15 -53,24 -81,32 -106,29 -231,11 -324,-51 -26,-17 -56,-38 -77,-62l-38 -42c-9,-12 -18,-24 -26,-37 -12,3 -73,46 -85,50 2,10 28,43 34,52 8,10 33,40 41,47l56 51c75,62 195,110 292,110l11 0c53,0 91,-2 144,-17 17,-5 34,-10 49,-16 45,-19 90,-41 128,-73 7,-5 13,-10 19,-15 9,-8 19,-15 27,-24 3,-4 5,-5 9,-9 8,-8 17,-17 24,-26 7,-10 16,-18 23,-28 14,-20 29,-39 41,-61 9,-14 16,-30 24,-45 19,-33 37,-89 46,-128 4,-20 8,-38 11,-60 3,-19 4,-39 5,-59l0 -56c-2,-60 -13,-119 -31,-174 -6,-19 -12,-34 -19,-51 -3,-7 -7,-17 -11,-23 -4,-8 -7,-15 -11,-23 -12,-22 -25,-44 -40,-64 -9,-14 -19,-27 -30,-39l-15 -19c-4,-3 -6,-4 -9,-8l-16 -16c-29,-31 -91,-76 -128,-92 -23,-10 -45,-22 -69,-30 -73,-22 -104,-25 -180,-25 -19,0 -39,3 -55,5 -79,12 -155,44 -220,92l-69 58c-5,6 -10,10 -15,16l-56 72c-15,23 -29,47 -41,72l-15 34c-3,8 -6,15 -9,23 -3,8 -6,16 -8,24 -5,16 -10,34 -14,52 -2,9 -4,17 -5,27 -2,8 -5,21 -5,29z"/>
 </g>
</svg>
