<?xml version="1.0" encoding="UTF-8"?>
<!DOCTYPE svg PUBLIC "-//W3C//DTD SVG 1.1//EN" "http://www.w3.org/Graphics/SVG/1.1/DTD/svg11.dtd">
<!-- Creator: CorelDRAW X7 -->
<svg xmlns="http://www.w3.org/2000/svg" xml:space="preserve" width="2.16535in" height="2.16535in" version="1.1" style="shape-rendering:geometricPrecision; text-rendering:geometricPrecision; image-rendering:optimizeQuality; fill-rule:evenodd; clip-rule:evenodd"
viewBox="0 0 2165 2165"
 xmlns:xlink="http://www.w3.org/1999/xlink">
 <defs>
  <style type="text/css">
   <![CDATA[
    .fil0 {fill:black}
   ]]>
  </style>
 </defs>
 <g id="Layer_x0020_1">
  <metadata id="CorelCorpID_0Corel-Layer"/>
  <path class="fil0" d="M1083 98c-544,0 -985,441 -985,985 0,543 441,984 985,984 543,0 984,-441 984,-984 0,-544 -441,-985 -984,-985zm41 452c131,11 249,68 336,155 88,88 145,205 155,336l58 0 0 83 -58 0c-10,131 -67,249 -155,336 -87,88 -205,145 -336,155l0 58 -83 0 0 -58c-131,-10 -248,-67 -336,-155 -87,-87 -144,-205 -155,-336l-58 0 0 -83 58 0c11,-131 68,-248 155,-336 88,-87 205,-144 336,-155l0 -58 83 0 0 58zm-490 491l407 0 0 -407c-108,10 -205,58 -277,130 -72,72 -120,169 -130,277zm897 83l-407 0 0 407c108,-10 205,-58 277,-130 72,-72 120,-169 130,-277z"/>
 </g>
</svg>
