<?xml version="1.0" encoding="UTF-8"?>
<!DOCTYPE svg PUBLIC "-//W3C//DTD SVG 1.1//EN" "http://www.w3.org/Graphics/SVG/1.1/DTD/svg11.dtd">
<!-- Creator: CorelDRAW X7 -->
<svg xmlns="http://www.w3.org/2000/svg" xml:space="preserve" width="2.16535in" height="2.16535in" version="1.1" style="shape-rendering:geometricPrecision; text-rendering:geometricPrecision; image-rendering:optimizeQuality; fill-rule:evenodd; clip-rule:evenodd"
viewBox="0 0 2165 2165"
 xmlns:xlink="http://www.w3.org/1999/xlink">
 <defs>
  <style type="text/css">
   <![CDATA[
    .fil0 {fill:black}
   ]]>
  </style>
 </defs>
 <g id="Layer_x0020_1">
  <metadata id="CorelCorpID_0Corel-Layer"/>
  <path class="fil0" d="M1083 98c-544,0 -985,441 -985,985 0,543 441,984 985,984 543,0 984,-441 984,-984 0,-544 -441,-985 -984,-985zm0 1555l-591 0 0 -40c0,-169 66,-321 173,-432 107,-110 255,-179 418,-179 163,0 310,69 417,179 107,111 173,263 173,432l0 40 -590 0zm-512 -80l1023 0c-10,-131 -65,-248 -149,-335 -92,-96 -221,-155 -362,-155 -142,0 -270,59 -363,155 -84,87 -139,204 -149,335zm512 -655l-129 -357c29,18 58,29 86,35l0 -124 85 0 0 124c29,-6 57,-17 86,-35l-128 357z"/>
 </g>
</svg>
