<?xml version="1.0" encoding="UTF-8"?>
<!DOCTYPE svg PUBLIC "-//W3C//DTD SVG 1.1//EN" "http://www.w3.org/Graphics/SVG/1.1/DTD/svg11.dtd">
<!-- Creator: CorelDRAW X7 -->
<svg xmlns="http://www.w3.org/2000/svg" xml:space="preserve" width="2.16535in" height="2.16535in" version="1.1" style="shape-rendering:geometricPrecision; text-rendering:geometricPrecision; image-rendering:optimizeQuality; fill-rule:evenodd; clip-rule:evenodd"
viewBox="0 0 2165 2165"
 xmlns:xlink="http://www.w3.org/1999/xlink">
 <defs>
  <style type="text/css">
   <![CDATA[
    .fil0 {fill:black}
   ]]>
  </style>
 </defs>
 <g id="Layer_x0020_1">
  <metadata id="CorelCorpID_0Corel-Layer"/>
  <path class="fil0" d="M1083 98c543,0 984,441 984,985 0,543 -441,984 -984,984 -544,0 -985,-441 -985,-984 0,-544 441,-985 985,-985zm422 1271c-49,-50 -75,-79 -122,-128 -34,-35 -94,-89 -121,-128 18,-62 78,-133 64,-265 -38,-334 -453,-468 -704,-249 -187,163 -174,471 50,618 194,127 305,54 446,26l244 248 118 120c43,43 90,98 165,31 96,-85 -76,-209 -140,-273zm-457 -184c-423,163 -678,-414 -277,-592 184,-82 379,10 450,171 79,178 -29,365 -173,421z"/>
 </g>
</svg>
