<?xml version="1.0" encoding="UTF-8"?>
<!DOCTYPE svg PUBLIC "-//W3C//DTD SVG 1.1//EN" "http://www.w3.org/Graphics/SVG/1.1/DTD/svg11.dtd">
<!-- Creator: CorelDRAW X7 -->
<svg xmlns="http://www.w3.org/2000/svg" xml:space="preserve" width="2.16535in" height="2.16535in" version="1.1" style="shape-rendering:geometricPrecision; text-rendering:geometricPrecision; image-rendering:optimizeQuality; fill-rule:evenodd; clip-rule:evenodd"
viewBox="0 0 2165 2165"
 xmlns:xlink="http://www.w3.org/1999/xlink">
 <defs>
  <style type="text/css">
   <![CDATA[
    .fil0 {fill:black}
   ]]>
  </style>
 </defs>
 <g id="Layer_x0020_1">
  <metadata id="CorelCorpID_0Corel-Layer"/>
  <path class="fil0" d="M1083 2067c-544,0 -985,-441 -985,-984 0,-544 441,-985 985,-985 543,0 984,441 984,985 0,543 -441,984 -984,984zm-59 -425l59 15c-12,48 -34,85 -67,111 -32,25 -71,38 -118,38 -48,0 -87,-10 -117,-30 -30,-19 -53,-47 -69,-85 -16,-37 -24,-77 -24,-120 0,-46 9,-87 27,-121 18,-35 43,-61 76,-79 33,-18 69,-27 108,-27 45,0 83,11 113,34 31,23 52,55 64,96l-58 14c-11,-33 -26,-57 -45,-72 -20,-14 -45,-22 -75,-22 -34,0 -63,8 -86,25 -23,16 -39,39 -48,66 -10,28 -14,57 -14,86 0,38 5,71 16,100 11,28 28,49 52,63 23,14 48,21 75,21 34,0 61,-9 84,-28 23,-19 39,-48 47,-85zm246 156l0 -394 -147 0 0 -53 354 0 0 53 -147 0 0 394 -60 0zm-382 -1152c-5,-70 9,-142 38,-196 25,-45 66,-96 128,-108 35,-6 72,1 99,16 29,16 44,33 63,56 114,141 66,443 -107,478 -76,15 -132,-35 -159,-72 -33,-42 -57,-106 -62,-174zm171 -333c-196,29 -264,349 -132,524 95,126 251,109 331,-29 70,-120 65,-302 -20,-412 -19,-25 -40,-46 -71,-63 -30,-16 -69,-26 -108,-20zm-191 562c16,-35 -1,-56 -39,-50 -27,-32 -80,-132 -98,-170 -26,-55 -78,-182 -95,-244 -2,-7 -5,-21 -10,-24 -12,-7 -18,5 -15,16 20,77 85,230 115,291 19,39 50,92 74,128 1,2 12,16 13,19 1,8 -6,15 2,30 4,6 9,12 18,14 16,5 13,-3 24,10 158,185 334,134 471,-37 39,-48 75,-100 109,-160 54,-96 91,-171 133,-273 3,-7 8,-14 10,-23 4,-10 -3,-21 -14,-14 -4,2 -59,128 -64,138 -49,103 -83,167 -146,260 -13,19 -44,60 -59,76 -17,17 -32,37 -51,51 -6,5 -12,11 -18,16 -46,37 -118,78 -200,58 -52,-13 -91,-42 -126,-76 -11,-10 -26,-24 -34,-36zm-58 233c-40,8 -193,33 -213,54l2 12c14,4 38,-7 53,-11 43,-11 124,-31 164,-34 13,23 50,20 57,-8 157,-10 202,-18 366,-4 81,7 170,22 248,41 19,5 64,21 79,16 8,-19 -4,-19 -21,-23 -215,-57 -453,-80 -673,-51 -14,-22 -35,-26 -52,-9 -6,5 -6,10 -10,17zm360 -377c-6,44 -47,83 -100,76 -44,-6 -83,-48 -75,-101 7,-44 49,-81 101,-74 43,6 81,48 74,99zm-108 -126c-59,11 -107,66 -94,136 10,57 66,104 134,93 56,-9 108,-64 96,-135 -10,-57 -67,-108 -136,-94z"/>
 </g>
</svg>
