<?xml version="1.0" encoding="UTF-8"?>
<!DOCTYPE svg PUBLIC "-//W3C//DTD SVG 1.1//EN" "http://www.w3.org/Graphics/SVG/1.1/DTD/svg11.dtd">
<!-- Creator: CorelDRAW X7 -->
<svg xmlns="http://www.w3.org/2000/svg" xml:space="preserve" width="2.16535in" height="2.16535in" version="1.1" style="shape-rendering:geometricPrecision; text-rendering:geometricPrecision; image-rendering:optimizeQuality; fill-rule:evenodd; clip-rule:evenodd"
viewBox="0 0 2165 2165"
 xmlns:xlink="http://www.w3.org/1999/xlink">
 <defs>
  <style type="text/css">
   <![CDATA[
    .fil0 {fill:black}
   ]]>
  </style>
 </defs>
 <g id="Layer_x0020_1">
  <metadata id="CorelCorpID_0Corel-Layer"/>
  <path class="fil0" d="M1083 98c-544,0 -985,441 -985,985 0,543 441,984 985,984 543,0 984,-441 984,-984 0,-544 -441,-985 -984,-985zm-632 1509c6,9 52,50 58,56 20,18 41,35 64,51 40,29 91,62 142,85 121,54 232,82 368,82 70,0 135,-8 200,-23 61,-14 113,-35 167,-59 77,-34 174,-102 235,-163 7,-7 25,-23 29,-29 -2,-11 -15,-37 -20,-48 -18,-41 -52,-95 -77,-128l-30 -38c-6,-6 -11,-11 -16,-18 -9,-9 -20,-19 -26,-25 -10,-12 -51,-46 -63,-55 -256,-193 -596,-179 -835,30 -13,11 -24,22 -35,33 -20,19 -47,51 -64,73 -24,31 -59,87 -77,127 -4,11 -18,38 -20,49zm610 -1322c-53,5 -100,17 -141,41 -39,21 -74,48 -103,82 -25,30 -51,69 -69,116 -17,49 -28,105 -24,164 3,55 17,106 38,149 11,21 21,41 34,58 8,9 14,17 21,26 31,38 84,77 133,97 46,19 99,31 155,26 51,-4 100,-18 140,-40 40,-23 74,-48 103,-82 26,-31 52,-70 69,-117 18,-48 29,-105 25,-163 -4,-56 -17,-107 -39,-149 -10,-22 -21,-42 -34,-59 -7,-9 -13,-17 -21,-26 -3,-4 -7,-7 -11,-12 -31,-34 -72,-64 -121,-85 -46,-18 -100,-31 -155,-26z"/>
 </g>
</svg>
