<?xml version="1.0" encoding="UTF-8"?>
<!DOCTYPE svg PUBLIC "-//W3C//DTD SVG 1.1//EN" "http://www.w3.org/Graphics/SVG/1.1/DTD/svg11.dtd">
<!-- Creator: CorelDRAW X7 -->
<svg xmlns="http://www.w3.org/2000/svg" xml:space="preserve" width="2.16535in" height="2.16535in" version="1.1" style="shape-rendering:geometricPrecision; text-rendering:geometricPrecision; image-rendering:optimizeQuality; fill-rule:evenodd; clip-rule:evenodd"
viewBox="0 0 2165 2165"
 xmlns:xlink="http://www.w3.org/1999/xlink">
 <defs>
  <style type="text/css">
   <![CDATA[
    .fil0 {fill:black}
   ]]>
  </style>
 </defs>
 <g id="Layer_x0020_1">
  <metadata id="CorelCorpID_0Corel-Layer"/>
  <path class="fil0" d="M1083 98c-544,0 -985,441 -985,985 0,543 441,984 985,984 543,0 984,-441 984,-984 0,-544 -441,-985 -984,-985zm-401 1174c30,0 53,24 53,54 0,30 -23,55 -53,55 -29,0 -53,-25 -53,-55 0,-30 24,-54 53,-54zm98 75c-11,0 -21,-10 -21,-21 0,-12 10,-21 21,-21l53 0c9,0 16,5 19,13l69 0c2,0 5,3 5,8l0 0c0,4 -3,8 -5,8l-69 0c-3,8 -10,13 -19,13l-53 0zm554 -368c187,0 339,155 339,347 0,192 -152,347 -339,347 -187,0 -339,-155 -339,-347 0,-192 152,-347 339,-347zm-709 -140l15 0 0 -347 84 0 0 347 16 0 0 41 -33 0 0 331 34 0 0 42 -116 0 0 -42 33 0 0 -331 -33 0 0 -41zm-86 -251l50 0 0 -14 30 0 0 144 -30 0 0 -14 -50 0c-26,0 -47,-21 -47,-47l0 -22c0,-26 21,-47 47,-47zm235 -15l0 15 817 0c31,0 56,25 56,55l0 61 -873 0 0 14 -31 0 0 -145 31 0z"/>
 </g>
</svg>
