<?xml version="1.0" encoding="UTF-8"?>
<!DOCTYPE svg PUBLIC "-//W3C//DTD SVG 1.1//EN" "http://www.w3.org/Graphics/SVG/1.1/DTD/svg11.dtd">
<!-- Creator: CorelDRAW X7 -->
<svg xmlns="http://www.w3.org/2000/svg" xml:space="preserve" width="2.16535in" height="2.16535in" version="1.1" style="shape-rendering:geometricPrecision; text-rendering:geometricPrecision; image-rendering:optimizeQuality; fill-rule:evenodd; clip-rule:evenodd"
viewBox="0 0 2165 2165"
 xmlns:xlink="http://www.w3.org/1999/xlink">
 <defs>
  <style type="text/css">
   <![CDATA[
    .fil0 {fill:black}
   ]]>
  </style>
 </defs>
 <g id="Layer_x0020_1">
  <metadata id="CorelCorpID_0Corel-Layer"/>
  <path class="fil0" d="M1083 98c-544,0 -985,441 -985,985 0,543 441,984 985,984 543,0 984,-441 984,-984 0,-544 -441,-985 -984,-985zm-101 907l90 -45 76 83 -38 98 14 43 92 37 0 118 -90 39 -19 41 41 97 -76 84 -90 -42 -39 15 -35 100 -108 0 -36 -98 -38 -20 -89 45 -77 -84 38 -97 -13 -43 -93 -37 0 -118 91 -39 18 -41 -41 -97 76 -84 90 42 39 -15 35 -100 108 0 37 98 37 20zm-128 91c94,0 170,82 170,184 0,102 -76,184 -170,184 -94,0 -170,-82 -170,-184 0,-102 76,-184 170,-184zm667 -151l58 -29 50 54 -25 63 9 28 60 25 0 76 -59 26 -11 26 26 64 -50 54 -58 -27 -26 10 -22 65 -71 0 -23 -64 -25 -13 -58 29 -50 -54 25 -63 -9 -28 -60 -25 0 -76 59 -26 12 -26 -27 -64 50 -54 58 27 26 -10 22 -65 71 0 24 64 24 13zm-83 59c61,0 110,54 110,120 0,66 -49,120 -110,120 -61,0 -111,-54 -111,-120 0,-66 50,-120 111,-120zm-176 -444l52 -26 43 48 -22 56 8 24 53 21 0 68 -52 22 -10 24 23 55 -43 48 -52 -24 -22 9 -20 57 -62 0 -21 -56 -21 -11 -51 25 -44 -48 22 -55 -8 -25 -53 -21 0 -68 52 -22 10 -23 -23 -56 44 -48 51 24 22 -8 20 -58 62 0 21 56 21 12zm-73 52c54,0 97,47 97,105 0,58 -43,106 -97,106 -53,0 -97,-48 -97,-106 0,-58 44,-105 97,-105z"/>
 </g>
</svg>
