<?xml version="1.0" encoding="UTF-8"?>
<!DOCTYPE svg PUBLIC "-//W3C//DTD SVG 1.1//EN" "http://www.w3.org/Graphics/SVG/1.1/DTD/svg11.dtd">
<!-- Creator: CorelDRAW X7 -->
<svg xmlns="http://www.w3.org/2000/svg" xml:space="preserve" width="2.16535in" height="2.16535in" version="1.1" style="shape-rendering:geometricPrecision; text-rendering:geometricPrecision; image-rendering:optimizeQuality; fill-rule:evenodd; clip-rule:evenodd"
viewBox="0 0 2165 2165"
 xmlns:xlink="http://www.w3.org/1999/xlink">
 <defs>
  <style type="text/css">
   <![CDATA[
    .fil0 {fill:black;fill-rule:nonzero}
   ]]>
  </style>
 </defs>
 <g id="Layer_x0020_1">
  <metadata id="CorelCorpID_0Corel-Layer"/>
  <path class="fil0" d="M1083 98c-272,0 -518,111 -696,289 -178,178 -289,424 -289,696 0,271 111,517 289,696 178,178 424,288 696,288 271,0 517,-110 696,-288 178,-179 288,-425 288,-696 0,-272 -110,-518 -288,-696 -179,-178 -425,-289 -696,-289zm-139 846l-459 -210c44,-12 82,-29 115,-51l-115 -116 82 -82 116 115c22,-33 39,-71 51,-115l210 459zm278 278l458 209c-44,13 -82,30 -115,52l116 115 -83 83 -115 -116c-22,33 -39,71 -52,115l-209 -458zm-346 166c-12,12 -45,0 -72,-27 -27,-27 -39,-59 -26,-72l511 -511c13,-13 45,-1 72,26 27,27 39,60 27,72l-512 512z"/>
 </g>
</svg>
