<?xml version="1.0" encoding="UTF-8"?>
<!DOCTYPE svg PUBLIC "-//W3C//DTD SVG 1.1//EN" "http://www.w3.org/Graphics/SVG/1.1/DTD/svg11.dtd">
<!-- Creator: CorelDRAW X7 -->
<svg xmlns="http://www.w3.org/2000/svg" xml:space="preserve" width="2.16535in" height="2.16535in" version="1.1" style="shape-rendering:geometricPrecision; text-rendering:geometricPrecision; image-rendering:optimizeQuality; fill-rule:evenodd; clip-rule:evenodd"
viewBox="0 0 2165 2165"
 xmlns:xlink="http://www.w3.org/1999/xlink">
 <defs>
  <style type="text/css">
   <![CDATA[
    .fil0 {fill:black}
   ]]>
  </style>
 </defs>
 <g id="Layer_x0020_1">
  <metadata id="CorelCorpID_0Corel-Layer"/>
  <path class="fil0" d="M1083 98c-544,0 -985,441 -985,985 0,543 441,984 985,984 543,0 984,-441 984,-984 0,-544 -441,-985 -984,-985zm293 394c82,0 156,33 210,87l0 0c54,54 87,128 87,210 0,41 -8,81 -24,117l-221 600c-3,8 -6,15 -9,22l0 0 0 0c-12,28 -29,54 -51,75 -43,43 -102,70 -168,70 -47,0 -92,-14 -129,-38l-483 -271c-7,-4 -14,-7 -20,-12 -10,-6 -19,-13 -27,-21l0 0c-30,-31 -49,-72 -49,-118 0,-46 19,-88 49,-118l0 0 5 -4 0 0c5,-5 10,-9 15,-13l605 -499c54,-54 128,-87 210,-87zm129 565c-39,19 -83,29 -129,29 -82,0 -156,-33 -210,-87 -53,-54 -87,-128 -87,-210 0,-11 1,-22 2,-33l-372 298c26,8 49,22 68,41l0 0c30,30 49,72 49,118 0,46 -19,87 -49,118l0 0c-10,10 -22,19 -34,26l224 126c-3,-15 -5,-31 -5,-48 0,-66 27,-125 70,-169 43,-43 103,-69 168,-69 66,0 125,26 168,69l1 1c15,16 29,33 40,53l96 -263zm-224 297c-21,-20 -49,-33 -81,-33 -32,0 -60,13 -81,33 -20,21 -33,49 -33,81 0,31 13,60 33,81 21,20 50,33 81,33 32,0 60,-13 81,-33 20,-21 33,-49 33,-81 0,-32 -13,-60 -33,-81l0 0zm-592 -171l0 0c-8,-8 -18,-13 -30,-13 -12,0 -23,5 -30,13l0 0c-8,7 -13,18 -13,30 0,12 5,22 13,30l0 0c7,8 18,12 30,12 12,0 22,-4 30,-12l0 0c8,-8 12,-18 12,-30 0,-12 -4,-23 -12,-30zm809 -516c-31,-31 -74,-51 -122,-51 -47,0 -91,20 -122,51 -31,31 -50,74 -50,122 0,48 19,91 50,122 31,32 75,51 122,51 48,0 91,-19 122,-51 32,-31 51,-74 51,-122 0,-48 -19,-91 -50,-122l-1 0z"/>
 </g>
</svg>
