<?xml version="1.0" encoding="UTF-8"?>
<!DOCTYPE svg PUBLIC "-//W3C//DTD SVG 1.1//EN" "http://www.w3.org/Graphics/SVG/1.1/DTD/svg11.dtd">
<!-- Creator: CorelDRAW X7 -->
<svg xmlns="http://www.w3.org/2000/svg" xml:space="preserve" width="2.16535in" height="2.16535in" version="1.1" style="shape-rendering:geometricPrecision; text-rendering:geometricPrecision; image-rendering:optimizeQuality; fill-rule:evenodd; clip-rule:evenodd"
viewBox="0 0 2165 2165"
 xmlns:xlink="http://www.w3.org/1999/xlink">
 <defs>
  <style type="text/css">
   <![CDATA[
    .fil0 {fill:black}
   ]]>
  </style>
 </defs>
 <g id="Layer_x0020_1">
  <metadata id="CorelCorpID_0Corel-Layer"/>
  <path class="fil0" d="M1083 98c-544,0 -985,441 -985,985 0,543 441,984 985,984 543,0 984,-441 984,-984 0,-544 -441,-985 -984,-985zm481 898l109 0 0 0c-1,5 -6,14 -9,18 -20,37 -48,90 -69,125 -14,22 -26,47 -40,70 -5,10 -37,66 -38,72 -6,-2 -9,-11 -12,-16 -3,-6 -6,-11 -10,-18l-129 -232c-3,-5 -8,-14 -10,-19l110 0c-3,-15 -5,-28 -9,-43 -18,-69 -49,-131 -91,-186 -7,-10 -21,-28 -30,-35l-26 -25c-23,-21 -48,-38 -74,-54 -33,-21 -70,-34 -108,-44 -92,-24 -204,-10 -284,33 -24,13 -48,27 -70,45l-30 26c-3,2 -4,4 -7,7 -3,2 -5,4 -8,7l-40 47c-8,11 -16,21 -23,34l-40 77c-6,14 -10,28 -15,43 -10,32 -17,65 -20,99 -2,18 -4,39 -4,57l4 56c5,48 18,99 36,141 29,69 54,103 103,158l15 14c3,3 4,4 7,7 18,16 36,30 56,43l37 20c25,15 54,24 81,32 106,29 232,11 324,-51 26,-17 56,-38 78,-62l37 -42c9,-12 18,-24 26,-37 12,3 74,46 86,50 -3,10 -29,43 -35,52 -7,10 -32,40 -41,47l-56 51c-74,62 -195,110 -291,110l-12 0c-53,0 -90,-2 -144,-17 -17,-5 -33,-10 -49,-16 -45,-19 -90,-41 -128,-73 -7,-5 -12,-10 -19,-15 -9,-8 -18,-15 -26,-24 -4,-4 -6,-5 -9,-9 -9,-8 -17,-17 -25,-26 -7,-10 -16,-18 -23,-28 -14,-20 -28,-39 -41,-61 -9,-14 -16,-30 -24,-45 -18,-33 -37,-89 -45,-128 -5,-20 -9,-38 -12,-60 -2,-19 -4,-39 -5,-59l0 -56c3,-60 13,-119 31,-174 6,-19 13,-34 19,-51 3,-7 7,-17 11,-23 4,-8 8,-15 12,-23 11,-22 25,-44 39,-64 10,-14 19,-27 30,-39l16 -19c3,-3 5,-4 8,-8l16 -16c29,-31 91,-76 128,-92 23,-10 46,-22 70,-30 72,-22 103,-25 179,-25 19,0 39,3 56,5 78,12 154,44 220,92l68 58c6,6 10,10 16,16l55 72c15,23 30,47 41,72l15 34c3,8 6,15 9,23 3,8 6,16 9,24 5,16 10,34 13,52 3,9 4,17 6,27 1,8 4,21 5,29z"/>
 </g>
</svg>
