<?xml version="1.0" encoding="UTF-8"?>
<!DOCTYPE svg PUBLIC "-//W3C//DTD SVG 1.1//EN" "http://www.w3.org/Graphics/SVG/1.1/DTD/svg11.dtd">
<!-- Creator: CorelDRAW X7 -->
<svg xmlns="http://www.w3.org/2000/svg" xml:space="preserve" width="2.16535in" height="2.16535in" version="1.1" style="shape-rendering:geometricPrecision; text-rendering:geometricPrecision; image-rendering:optimizeQuality; fill-rule:evenodd; clip-rule:evenodd"
viewBox="0 0 2165 2165"
 xmlns:xlink="http://www.w3.org/1999/xlink">
 <defs>
  <style type="text/css">
   <![CDATA[
    .fil0 {fill:black}
   ]]>
  </style>
 </defs>
 <g id="Layer_x0020_1">
  <metadata id="CorelCorpID_0Corel-Layer"/>
  <path class="fil0" d="M1083 98c-544,0 -985,441 -985,985 0,543 441,984 985,984 543,0 984,-441 984,-984 0,-544 -441,-985 -984,-985zm-404 1069c0,-38 30,-66 66,-66l675 0c37,0 67,28 67,66l0 411 -808 0 0 -411zm-187 -558l0 948c0,66 47,116 100,116l982 0c52,0 99,-49 99,-116l0 -660c0,-21 -6,-46 -13,-61l-154 -284c-25,-43 -20,-33 -117,-33 -9,0 -14,2 -20,5 -11,51 4,283 -5,313 -7,23 -28,47 -56,47l-450 0c-29,0 -53,-26 -58,-51 -3,-15 -1,-303 -1,-333 -5,-4 -7,-8 -13,-8l-194 0c-53,0 -100,50 -100,117zm417 -51l0 220c0,16 12,24 28,24l105 0c12,0 28,-7 28,-19l0 -227c0,-14 -11,-22 -23,-22l-110 0c-16,0 -28,8 -28,24zm-120 731l588 0 0 -71 -588 0 0 71zm0 186l588 0 0 -72 -588 0 0 72z"/>
 </g>
</svg>
