<?xml version="1.0" encoding="UTF-8"?>
<!DOCTYPE svg PUBLIC "-//W3C//DTD SVG 1.1//EN" "http://www.w3.org/Graphics/SVG/1.1/DTD/svg11.dtd">
<!-- Creator: CorelDRAW X7 -->
<svg xmlns="http://www.w3.org/2000/svg" xml:space="preserve" width="2.16535in" height="2.16535in" version="1.1" style="shape-rendering:geometricPrecision; text-rendering:geometricPrecision; image-rendering:optimizeQuality; fill-rule:evenodd; clip-rule:evenodd"
viewBox="0 0 2165 2165"
 xmlns:xlink="http://www.w3.org/1999/xlink">
 <defs>
  <style type="text/css">
   <![CDATA[
    .fil0 {fill:black}
   ]]>
  </style>
 </defs>
 <g id="Layer_x0020_1">
  <metadata id="CorelCorpID_0Corel-Layer"/>
  <path class="fil0" d="M1083 98c-544,0 -985,441 -985,985 0,543 441,984 985,984 543,0 984,-441 984,-984 0,-544 -441,-985 -984,-985zm80 1480l-1 0c-41,-1 -84,0 -126,0 -54,0 -111,-2 -164,0l0 0 -63 0c-28,0 -60,3 -84,-7 -22,-9 -39,-25 -48,-44 -14,-27 -11,-47 -11,-79l0 -728c0,-32 -3,-56 10,-82 10,-18 26,-34 47,-43 26,-11 55,-8 84,-8l228 0c17,0 28,-2 40,6 16,13 19,46 19,73 0,32 -4,158 4,178 11,25 33,26 65,26 37,0 151,-3 179,4 30,7 37,21 37,55l0 84 96 0 0 -67c0,-30 3,-80 -5,-105 -15,-44 -67,-94 -98,-125 -9,-9 -18,-20 -28,-28 -15,-11 -32,-27 -43,-40 -16,-19 -63,-67 -83,-84 -5,-5 -9,-10 -15,-14 -73,-59 -69,-58 -166,-58 -74,0 -149,0 -223,0 -38,0 -70,-2 -105,8 -27,7 -57,24 -73,39 -40,38 -65,77 -65,156l0 776c0,38 4,63 18,94 22,45 65,86 122,101 33,9 68,7 104,7 24,0 249,1 317,0l98 -1c36,0 71,3 105,-6 56,-16 100,-56 121,-101 15,-31 19,-56 19,-94l0 -10 -95 0c0,25 0,43 -11,66 -10,19 -26,35 -48,44 -25,10 -56,7 -85,7l-73 0zm-101 -535l612 0c43,0 78,34 78,77l0 233c0,43 -35,78 -78,78l-612 0c-43,0 -78,-35 -78,-78l0 -233c0,-43 35,-77 78,-77zm494 113l-41 0 0 163 41 0c7,0 12,-3 12,-8l0 -34 92 0c5,0 9,-2 9,-6l0 -61c0,-3 -4,-6 -9,-6l-92 0 0 -40c0,-4 -5,-8 -12,-8zm-376 0l41 0 0 163 -41 0c-7,0 -12,-3 -12,-8l0 -34 -92 0c-5,0 -9,-2 -9,-6l0 -61c0,-3 4,-6 9,-6l92 0 0 -40c0,-4 5,-8 12,-8zm70 -20l236 0c4,0 8,2 8,5l0 192c0,2 -4,5 -8,5l-236 0c-4,0 -8,-3 -8,-5l0 -192c0,-3 4,-5 8,-5z"/>
 </g>
</svg>
