<?xml version="1.0" encoding="UTF-8"?>
<!DOCTYPE svg PUBLIC "-//W3C//DTD SVG 1.1//EN" "http://www.w3.org/Graphics/SVG/1.1/DTD/svg11.dtd">
<!-- Creator: CorelDRAW X7 -->
<svg xmlns="http://www.w3.org/2000/svg" xml:space="preserve" width="2.16535in" height="2.16535in" version="1.1" style="shape-rendering:geometricPrecision; text-rendering:geometricPrecision; image-rendering:optimizeQuality; fill-rule:evenodd; clip-rule:evenodd"
viewBox="0 0 2165 2165"
 xmlns:xlink="http://www.w3.org/1999/xlink">
 <defs>
  <style type="text/css">
   <![CDATA[
    .fil0 {fill:black}
   ]]>
  </style>
 </defs>
 <g id="Layer_x0020_1">
  <metadata id="CorelCorpID_0Corel-Layer"/>
  <path class="fil0" d="M1083 98c-544,0 -985,441 -985,985 0,543 441,984 985,984 543,0 984,-441 984,-984 0,-544 -441,-985 -984,-985zm0 1575l202 -197c25,-26 55,-42 64,-79 -59,5 -102,33 -162,38l0 -171 67 0c0,-21 0,-38 0,-77l181 0c-5,60 -33,103 -38,162 39,-10 259,-241 276,-266l-197 -203c-26,-25 -42,-54 -79,-64 5,60 33,102 38,162l-181 0 0 -76c-22,0 -44,0 -67,0l0 -172c60,5 103,33 162,38 -10,-39 -241,-259 -266,-276l-203 198c-25,25 -54,42 -64,78 60,-5 102,-33 162,-38l0 172 -76 0 0 9 0 67 -172 0c5,-60 33,-102 38,-162 -36,10 -109,95 -140,126 -39,40 -108,99 -136,141l198 202c25,25 42,55 78,64 -5,-59 -33,-102 -38,-162l172 0 0 77 76 0 0 171c-60,-5 -102,-33 -162,-38 10,36 95,110 126,141 40,39 99,108 141,135z"/>
 </g>
</svg>
