<?xml version="1.0" encoding="UTF-8"?>
<!DOCTYPE svg PUBLIC "-//W3C//DTD SVG 1.1//EN" "http://www.w3.org/Graphics/SVG/1.1/DTD/svg11.dtd">
<!-- Creator: CorelDRAW X7 -->
<svg xmlns="http://www.w3.org/2000/svg" xml:space="preserve" width="2.16535in" height="2.16535in" version="1.1" style="shape-rendering:geometricPrecision; text-rendering:geometricPrecision; image-rendering:optimizeQuality; fill-rule:evenodd; clip-rule:evenodd"
viewBox="0 0 2165 2165"
 xmlns:xlink="http://www.w3.org/1999/xlink">
 <defs>
  <style type="text/css">
   <![CDATA[
    .fil0 {fill:black}
   ]]>
  </style>
 </defs>
 <g id="Layer_x0020_1">
  <metadata id="CorelCorpID_0Corel-Layer"/>
  <path class="fil0" d="M1083 98c-544,0 -985,441 -985,985 0,543 441,984 985,984 543,0 984,-441 984,-984 0,-544 -441,-985 -984,-985zm-550 394l469 0c23,0 41,19 41,41l0 469c0,23 -18,41 -41,41l-469 0c-22,0 -41,-18 -41,-41l0 -469c0,-22 19,-41 41,-41zm630 0l469 0c23,0 41,19 41,41l0 469c0,23 -18,41 -41,41l-469 0c-22,0 -41,-18 -41,-41l0 -469c0,-22 19,-41 41,-41zm-630 630l469 0c23,0 41,19 41,41l0 469c0,23 -18,41 -41,41l-469 0c-22,0 -41,-18 -41,-41l0 -469c0,-22 19,-41 41,-41zm630 0l469 0c23,0 41,19 41,41l0 469c0,23 -18,41 -41,41l-469 0c-22,0 -41,-18 -41,-41l0 -469c0,-22 19,-41 41,-41z"/>
 </g>
</svg>
