<?xml version="1.0" encoding="UTF-8"?>
<!DOCTYPE svg PUBLIC "-//W3C//DTD SVG 1.1//EN" "http://www.w3.org/Graphics/SVG/1.1/DTD/svg11.dtd">
<!-- Creator: CorelDRAW X7 -->
<svg xmlns="http://www.w3.org/2000/svg" xml:space="preserve" width="2.16535in" height="2.16535in" version="1.1" style="shape-rendering:geometricPrecision; text-rendering:geometricPrecision; image-rendering:optimizeQuality; fill-rule:evenodd; clip-rule:evenodd"
viewBox="0 0 2165 2165"
 xmlns:xlink="http://www.w3.org/1999/xlink">
 <defs>
  <style type="text/css">
   <![CDATA[
    .fil0 {fill:black}
   ]]>
  </style>
 </defs>
 <g id="Layer_x0020_1">
  <metadata id="CorelCorpID_0Corel-Layer"/>
  <path class="fil0" d="M1083 98c-544,0 -985,441 -985,985 0,543 441,984 985,984 543,0 984,-441 984,-984 0,-544 -441,-985 -984,-985zm495 949l95 0 -150 285c-4,7 -6,13 -10,20 -4,7 -9,14 -11,22 -12,-8 -56,-98 -67,-119l-87 -164c-4,-8 -6,-13 -10,-21 -5,-7 -10,-14 -11,-23l93 0c0,-76 -37,-162 -76,-217 -7,-11 -11,-17 -20,-27 -8,-9 -15,-16 -24,-26 -123,-134 -327,-154 -481,-42 -11,8 -18,13 -27,22 -83,70 -143,199 -143,313 0,45 2,47 5,86 -34,9 -73,15 -109,21 -40,7 -43,16 -47,-3 -25,-157 28,-360 124,-473l32 -37c45,-49 94,-86 155,-118 141,-73 307,-69 448,-3 64,30 91,58 138,97 67,58 141,186 164,284 4,21 8,37 12,59 2,13 7,49 7,64zm-770 379c-3,9 -38,60 -44,68 -9,13 -39,62 -46,67 -21,-12 -67,-57 -82,-78 -4,-6 -8,-9 -12,-15 -23,-29 -36,-47 -55,-82 -10,-18 -29,-54 -33,-75 27,-16 110,-47 142,-66 10,20 8,22 25,54 10,18 19,32 30,47 27,37 71,75 75,80zm213 78l16 0 0 169c-66,0 -123,-8 -182,-32 -14,-6 -31,-12 -45,-20 3,-13 61,-141 64,-155 27,7 65,38 147,38zm275 100l-74 35c-26,11 -55,18 -85,26 -3,-8 -29,-153 -29,-167l60 -19c20,-9 37,-15 54,-27 12,25 25,49 37,75 3,7 6,10 10,18 3,7 5,12 8,19 5,9 18,29 19,40z"/>
 </g>
</svg>
