<?xml version="1.0" encoding="UTF-8"?>
<!DOCTYPE svg PUBLIC "-//W3C//DTD SVG 1.1//EN" "http://www.w3.org/Graphics/SVG/1.1/DTD/svg11.dtd">
<!-- Creator: CorelDRAW X7 -->
<svg xmlns="http://www.w3.org/2000/svg" xml:space="preserve" width="2.16535in" height="2.16535in" version="1.1" style="shape-rendering:geometricPrecision; text-rendering:geometricPrecision; image-rendering:optimizeQuality; fill-rule:evenodd; clip-rule:evenodd"
viewBox="0 0 2165 2165"
 xmlns:xlink="http://www.w3.org/1999/xlink">
 <defs>
  <style type="text/css">
   <![CDATA[
    .fil0 {fill:black}
   ]]>
  </style>
 </defs>
 <g id="Layer_x0020_1">
  <metadata id="CorelCorpID_0Corel-Layer"/>
  <path class="fil0" d="M1083 98c-544,0 -985,441 -985,985 0,543 441,984 985,984 543,0 984,-441 984,-984 0,-544 -441,-985 -984,-985zm-42 1575c14,-3 128,-103 140,-113l380 -318c9,-8 29,-19 32,-30l-320 0c0,-102 8,-165 31,-256 33,-128 104,-246 206,-342l23 -20c33,-29 79,-63 119,-88l15 -10c3,-1 4,-3 6,-4 -45,0 -209,46 -251,60 -84,29 -149,59 -225,103l-78 50c-29,21 -55,45 -81,68 -43,37 -106,121 -130,161 -23,38 -48,88 -62,129 -8,24 -16,47 -22,71 -4,14 -6,25 -9,38 -3,11 -7,29 -8,40l-315 0c4,11 122,105 135,116 31,26 399,337 414,345z"/>
 </g>
</svg>
