<?xml version="1.0" encoding="UTF-8"?>
<!DOCTYPE svg PUBLIC "-//W3C//DTD SVG 1.1//EN" "http://www.w3.org/Graphics/SVG/1.1/DTD/svg11.dtd">
<!-- Creator: CorelDRAW X7 -->
<svg xmlns="http://www.w3.org/2000/svg" xml:space="preserve" width="2.16535in" height="2.16535in" version="1.1" style="shape-rendering:geometricPrecision; text-rendering:geometricPrecision; image-rendering:optimizeQuality; fill-rule:evenodd; clip-rule:evenodd"
viewBox="0 0 2165 2165"
 xmlns:xlink="http://www.w3.org/1999/xlink">
 <defs>
  <style type="text/css">
   <![CDATA[
    .fil0 {fill:black}
   ]]>
  </style>
 </defs>
 <g id="Layer_x0020_1">
  <metadata id="CorelCorpID_0Corel-Layer"/>
  <path class="fil0" d="M1121 1655c1,30 9,56 24,80 16,24 37,41 65,53 27,12 61,18 101,18 32,0 61,-6 86,-18 26,-11 45,-28 59,-49 14,-21 20,-43 20,-67 0,-24 -6,-45 -18,-63 -13,-19 -32,-34 -58,-46 -18,-8 -51,-17 -99,-28 -48,-11 -78,-22 -89,-32 -12,-10 -17,-24 -17,-40 0,-18 8,-34 24,-47 17,-13 43,-20 78,-20 35,0 61,7 78,22 18,14 28,35 31,64l57 -5c-1,-26 -8,-49 -22,-70 -13,-21 -33,-37 -58,-47 -25,-11 -55,-16 -88,-16 -30,0 -57,5 -82,15 -25,10 -43,25 -56,45 -13,19 -19,40 -19,63 0,21 5,39 15,56 11,16 27,30 48,42 17,8 45,18 86,27 42,10 68,18 80,22 19,7 32,16 40,27 8,10 13,22 13,36 0,14 -5,27 -13,39 -9,11 -21,21 -39,27 -17,7 -37,10 -59,10 -26,0 -49,-4 -69,-13 -20,-9 -35,-20 -45,-35 -10,-14 -16,-33 -19,-55l-55 5zm-373 91l96 0c29,0 52,-3 69,-8 17,-6 30,-13 40,-23 14,-15 25,-33 33,-57 8,-24 12,-53 12,-87 0,-46 -8,-82 -23,-108 -16,-25 -34,-42 -56,-50 -16,-6 -42,-9 -77,-9l-94 0 0 342zm-59 52l161 0c27,0 51,-2 72,-7 21,-5 39,-13 54,-23 14,-9 28,-23 41,-40 12,-17 22,-39 30,-65 8,-27 12,-57 12,-91 0,-39 -6,-75 -18,-106 -11,-31 -29,-56 -53,-76 -18,-16 -40,-27 -65,-33 -19,-4 -45,-6 -80,-6l-154 0 0 447zm394 269c-544,0 -985,-441 -985,-984 0,-544 441,-985 985,-985 543,0 984,441 984,985 0,543 -441,984 -984,984zm-401 -1328c18,-55 118,-146 153,-177 198,-174 427,-98 577,73 13,14 70,82 70,99 1,29 -180,270 -393,274 -186,4 -345,-160 -407,-269zm891 6c24,-47 -170,-256 -305,-317 -182,-82 -349,-37 -486,73 -50,40 -160,155 -190,227 -8,22 15,46 29,68 14,20 29,39 44,58 93,118 240,227 406,231 238,5 426,-197 502,-340zm-507 -85c44,-11 88,19 97,54 12,47 -19,88 -57,97 -108,24 -153,-123 -40,-151zm-10 -76c-220,39 -159,344 61,304 79,-15 150,-92 128,-185 -16,-72 -94,-137 -189,-119z"/>
 </g>
</svg>
