<?xml version="1.0" encoding="UTF-8"?>
<!DOCTYPE svg PUBLIC "-//W3C//DTD SVG 1.1//EN" "http://www.w3.org/Graphics/SVG/1.1/DTD/svg11.dtd">
<!-- Creator: CorelDRAW X7 -->
<svg xmlns="http://www.w3.org/2000/svg" xml:space="preserve" width="2.16535in" height="2.16535in" version="1.1" style="shape-rendering:geometricPrecision; text-rendering:geometricPrecision; image-rendering:optimizeQuality; fill-rule:evenodd; clip-rule:evenodd"
viewBox="0 0 2165 2165"
 xmlns:xlink="http://www.w3.org/1999/xlink">
 <defs>
  <style type="text/css">
   <![CDATA[
    .fil0 {fill:black}
   ]]>
  </style>
 </defs>
 <g id="Layer_x0020_1">
  <metadata id="CorelCorpID_0Corel-Layer"/>
  <path class="fil0" d="M1083 98c-544,0 -985,441 -985,985 0,543 441,984 985,984 543,0 984,-441 984,-984 0,-544 -441,-985 -984,-985zm-234 885c-8,-71 -8,-207 25,-261 82,-136 327,-149 420,3 35,59 28,185 24,259l-469 -1zm-150 0c-78,6 -116,-12 -169,29 -46,36 -37,78 -37,138 0,113 0,225 0,337 0,56 -8,110 24,149 33,38 85,37 157,37l812 0c191,0 186,-39 186,-181 0,-114 0,-228 0,-342 0,-68 11,-100 -39,-140 -49,-39 -98,-19 -166,-27 -7,-146 22,-241 -67,-351 -152,-190 -494,-184 -636,3 -91,120 -58,196 -65,348z"/>
 </g>
</svg>
