<?xml version="1.0" encoding="UTF-8"?>
<!DOCTYPE svg PUBLIC "-//W3C//DTD SVG 1.1//EN" "http://www.w3.org/Graphics/SVG/1.1/DTD/svg11.dtd">
<!-- Creator: CorelDRAW X7 -->
<svg xmlns="http://www.w3.org/2000/svg" xml:space="preserve" width="2.16535in" height="2.16535in" version="1.1" style="shape-rendering:geometricPrecision; text-rendering:geometricPrecision; image-rendering:optimizeQuality; fill-rule:evenodd; clip-rule:evenodd"
viewBox="0 0 2165 2165"
 xmlns:xlink="http://www.w3.org/1999/xlink">
 <defs>
  <style type="text/css">
   <![CDATA[
    .fil0 {fill:black}
   ]]>
  </style>
 </defs>
 <g id="Layer_x0020_1">
  <metadata id="CorelCorpID_0Corel-Layer"/>
  <path class="fil0" d="M1083 98c-544,0 -985,441 -985,985 0,543 441,984 985,984 543,0 984,-441 984,-984 0,-544 -441,-985 -984,-985zm-503 1568c-30,16 -66,4 -81,-28 -15,-31 -3,-69 26,-85 79,-41 168,-74 263,-95 94,-22 194,-33 295,-33 101,0 201,11 294,33 95,21 184,54 263,95 30,16 42,54 27,85 -15,32 -52,44 -82,28 -69,-36 -148,-65 -233,-84 -86,-20 -177,-30 -269,-30 -93,0 -184,10 -270,30 -84,19 -164,48 -233,84zm636 -1174l0 334c0,24 -20,43 -43,43l-172 0c-24,0 -43,-19 -43,-43l0 -334 258 0zm-58 406l0 320 -143 0 0 -320 143 0zm0 349l0 46c0,38 -31,70 -68,70l-6 0c-38,0 -69,-32 -69,-70l0 -46 143 0zm474 -118c9,61 -22,125 -63,157 -27,21 -55,34 -91,39 -105,13 -186,-65 -197,-155 -13,-104 65,-186 155,-197 55,-7 104,15 135,41 4,3 8,8 11,11 30,29 44,61 50,104zm-91 55c0,6 -2,12 -5,20 -2,7 -7,13 -14,20 -6,7 -14,12 -24,17 -10,4 -21,6 -34,6 -10,0 -20,-1 -28,-3 -8,-2 -15,-5 -22,-9 -7,-4 -13,-9 -18,-16 -5,-5 -10,-12 -13,-19 -4,-8 -6,-16 -8,-24 -2,-8 -3,-17 -3,-27 0,-15 2,-28 7,-40 4,-13 11,-23 19,-31 8,-9 18,-15 29,-20 11,-4 23,-7 35,-7 16,0 29,3 41,10 12,6 21,13 28,22 6,9 9,18 9,26 0,4 -1,8 -4,11 -3,4 -7,5 -11,5 -5,0 -9,-1 -11,-3 -3,-3 -6,-7 -9,-12 -5,-10 -11,-17 -17,-21 -7,-5 -15,-7 -25,-7 -16,0 -29,6 -38,18 -9,12 -14,29 -14,51 0,14 2,27 6,36 4,10 10,17 18,22 7,5 16,8 26,8 11,0 21,-3 28,-9 8,-5 14,-13 18,-24 1,-5 3,-9 6,-12 2,-3 6,-5 11,-5 5,0 9,2 12,5 3,3 5,7 5,12z"/>
 </g>
</svg>
