<?xml version="1.0" encoding="UTF-8"?>
<!DOCTYPE svg PUBLIC "-//W3C//DTD SVG 1.1//EN" "http://www.w3.org/Graphics/SVG/1.1/DTD/svg11.dtd">
<!-- Creator: CorelDRAW X7 -->
<svg xmlns="http://www.w3.org/2000/svg" xml:space="preserve" width="2.16535in" height="2.16535in" version="1.1" style="shape-rendering:geometricPrecision; text-rendering:geometricPrecision; image-rendering:optimizeQuality; fill-rule:evenodd; clip-rule:evenodd"
viewBox="0 0 2165 2165"
 xmlns:xlink="http://www.w3.org/1999/xlink">
 <defs>
  <style type="text/css">
   <![CDATA[
    .fil0 {fill:black}
   ]]>
  </style>
 </defs>
 <g id="Layer_x0020_1">
  <metadata id="CorelCorpID_0Corel-Layer"/>
  <path class="fil0" d="M1083 2067c543,0 984,-441 984,-984 0,-544 -441,-985 -984,-985 -544,0 -985,441 -985,985 0,543 441,984 985,984zm-250 -1105c6,84 36,164 76,217 35,45 104,107 199,88 215,-43 274,-418 132,-594 -23,-28 -42,-49 -78,-70 -33,-18 -79,-27 -122,-19 -77,15 -129,78 -160,135 -37,65 -54,156 -47,243zm213 -414c48,-7 97,4 134,25 38,21 64,47 88,77 106,138 112,364 25,513 -100,172 -294,193 -412,37 -164,-218 -79,-616 165,-652zm-238 699c9,15 28,31 41,44 45,42 93,78 157,94 102,25 193,-25 249,-71 8,-7 15,-14 23,-20 23,-18 42,-43 63,-64 19,-19 57,-70 73,-94 78,-116 122,-196 182,-323 6,-13 75,-170 79,-173 15,-8 23,6 19,19 -3,10 -9,19 -13,28 -52,127 -99,220 -165,339 -42,75 -88,140 -136,200 -171,212 -390,276 -586,46 -14,-17 -10,-7 -30,-13 -11,-3 -18,-10 -22,-18 -10,-18 -1,-26 -3,-37 -1,-3 -14,-21 -16,-23 -30,-45 -68,-112 -92,-160 -38,-76 -118,-265 -143,-362 -3,-13 4,-28 19,-19 6,4 9,21 12,29 22,78 86,236 118,303 22,48 88,173 123,213 46,-8 67,18 48,62zm-72 289c5,-8 4,-14 12,-21 22,-20 48,-16 65,11 274,-35 569,-8 836,63 21,6 37,6 27,29 -18,6 -75,-14 -98,-19 -98,-24 -208,-42 -308,-51 -205,-18 -260,-8 -456,4 -9,35 -55,40 -71,11 -50,3 -151,28 -204,42 -19,5 -48,18 -66,14l-2 -16c25,-26 215,-57 265,-67zm448 -469c8,-63 -39,-115 -93,-123 -64,-9 -117,38 -125,93 -10,66 39,117 94,125 65,9 116,-40 124,-95zm-135 -157c86,-16 157,47 169,118 15,88 -49,156 -119,168 -85,14 -154,-45 -167,-117 -15,-87 44,-155 117,-169z"/>
 </g>
</svg>
