<?xml version="1.0" encoding="UTF-8"?>
<!DOCTYPE svg PUBLIC "-//W3C//DTD SVG 1.1//EN" "http://www.w3.org/Graphics/SVG/1.1/DTD/svg11.dtd">
<!-- Creator: CorelDRAW X7 -->
<svg xmlns="http://www.w3.org/2000/svg" xml:space="preserve" width="2.16535in" height="2.16535in" version="1.1" style="shape-rendering:geometricPrecision; text-rendering:geometricPrecision; image-rendering:optimizeQuality; fill-rule:evenodd; clip-rule:evenodd"
viewBox="0 0 2165 2165"
 xmlns:xlink="http://www.w3.org/1999/xlink">
 <defs>
  <style type="text/css">
   <![CDATA[
    .fil0 {fill:black}
   ]]>
  </style>
 </defs>
 <g id="Layer_x0020_1">
  <metadata id="CorelCorpID_0Corel-Layer"/>
  <path class="fil0" d="M1083 98c-544,0 -985,441 -985,985 0,543 441,984 985,984 543,0 984,-441 984,-984 0,-544 -441,-985 -984,-985zm-156 767l44 2c22,3 15,2 15,75 0,35 -5,88 3,118 10,-1 11,-3 25,-15 7,-7 13,-11 21,-18l131 -105c15,-12 29,-23 44,-35l110 -87c39,-29 16,-26 -21,-59 -7,-7 -13,-11 -21,-18l-75 -62c-38,-33 -106,-82 -144,-116 -6,-5 -62,-53 -68,-53 -6,0 -8,2 -8,8l0 163c-81,2 -207,44 -275,89 -25,17 -44,33 -66,54 -81,77 -150,213 -150,328 8,-5 47,-57 58,-70 26,-32 56,-62 88,-88 25,-20 51,-37 78,-53 56,-32 141,-58 211,-58zm247 808c6,0 8,-2 8,-7l0 -164c23,-1 81,-11 104,-17 60,-14 120,-38 171,-71 73,-49 129,-116 167,-194 21,-44 49,-126 49,-188 -9,6 -13,12 -20,22 -20,29 -29,37 -48,60 -18,22 -57,60 -79,76 -22,17 -55,41 -78,54 -65,35 -186,68 -258,54 -14,-3 -11,-2 -11,-18 1,-40 4,-148 -2,-174 -10,0 -12,2 -25,14l-75 62c-6,5 -7,5 -12,9 -59,47 -145,112 -198,157 -44,37 -61,31 -13,67 5,4 6,4 12,10l142 115c5,4 6,6 11,10l75 61c6,4 7,4 12,9l43 36c5,4 20,17 25,17z"/>
 </g>
</svg>
