<?xml version="1.0" encoding="UTF-8"?>
<!DOCTYPE svg PUBLIC "-//W3C//DTD SVG 1.1//EN" "http://www.w3.org/Graphics/SVG/1.1/DTD/svg11.dtd">
<!-- Creator: CorelDRAW X7 -->
<svg xmlns="http://www.w3.org/2000/svg" xml:space="preserve" width="2.16535in" height="2.16535in" version="1.1" style="shape-rendering:geometricPrecision; text-rendering:geometricPrecision; image-rendering:optimizeQuality; fill-rule:evenodd; clip-rule:evenodd"
viewBox="0 0 2165 2165"
 xmlns:xlink="http://www.w3.org/1999/xlink">
 <defs>
  <style type="text/css">
   <![CDATA[
    .fil0 {fill:black}
   ]]>
  </style>
 </defs>
 <g id="Layer_x0020_1">
  <metadata id="CorelCorpID_0Corel-Layer"/>
  <path class="fil0" d="M1083 98c-544,0 -985,441 -985,985 0,543 441,984 985,984 543,0 984,-441 984,-984 0,-544 -441,-985 -984,-985zm520 758l-18 0 0 741 47 0c17,0 31,14 31,30l0 46 -305 0 0 -46c0,-16 14,-30 31,-30l46 0 0 -741 -19 0 0 -40 187 0 0 40zm70 -172l0 107 -1181 1 0 -47c0,-34 27,-61 60,-61l1121 0zm-89 -131l0 64 18 0 0 40 -187 0 0 -40 19 0 0 -64c0,-34 27,-61 60,-61l29 0c34,0 61,27 61,61z"/>
 </g>
</svg>
