<?xml version="1.0" encoding="UTF-8"?>
<!DOCTYPE svg PUBLIC "-//W3C//DTD SVG 1.1//EN" "http://www.w3.org/Graphics/SVG/1.1/DTD/svg11.dtd">
<!-- Creator: CorelDRAW X7 -->
<svg xmlns="http://www.w3.org/2000/svg" xml:space="preserve" width="2.16535in" height="2.16535in" version="1.1" style="shape-rendering:geometricPrecision; text-rendering:geometricPrecision; image-rendering:optimizeQuality; fill-rule:evenodd; clip-rule:evenodd"
viewBox="0 0 2165 2165"
 xmlns:xlink="http://www.w3.org/1999/xlink">
 <defs>
  <style type="text/css">
   <![CDATA[
    .fil0 {fill:black}
   ]]>
  </style>
 </defs>
 <g id="Layer_x0020_1">
  <metadata id="CorelCorpID_0Corel-Layer"/>
  <path class="fil0" d="M1083 98c-544,0 -985,441 -985,985 0,543 441,984 985,984 543,0 984,-441 984,-984 0,-544 -441,-985 -984,-985zm-42 394c14,3 128,103 140,114l380 317c9,8 29,20 32,31l-320 0c0,101 8,165 31,255 33,129 104,246 206,343l23 19c33,30 79,64 119,88l15 10c3,2 4,3 6,4 -45,0 -209,-46 -251,-60 -84,-29 -149,-58 -225,-102l-78 -51c-29,-20 -55,-44 -81,-68 -43,-36 -106,-120 -130,-161 -23,-37 -48,-88 -62,-129 -8,-23 -16,-47 -22,-71 -4,-13 -6,-25 -9,-38 -3,-11 -7,-29 -8,-39l-315 0c4,-12 122,-106 135,-116 31,-27 399,-338 414,-346z"/>
 </g>
</svg>
