<?xml version="1.0" encoding="UTF-8"?>
<!DOCTYPE svg PUBLIC "-//W3C//DTD SVG 1.1//EN" "http://www.w3.org/Graphics/SVG/1.1/DTD/svg11.dtd">
<!-- Creator: CorelDRAW X7 -->
<svg xmlns="http://www.w3.org/2000/svg" xml:space="preserve" width="2.16535in" height="2.16535in" version="1.1" style="shape-rendering:geometricPrecision; text-rendering:geometricPrecision; image-rendering:optimizeQuality; fill-rule:evenodd; clip-rule:evenodd"
viewBox="0 0 2165 2165"
 xmlns:xlink="http://www.w3.org/1999/xlink">
 <defs>
  <style type="text/css">
   <![CDATA[
    .fil0 {fill:black}
   ]]>
  </style>
 </defs>
 <g id="Layer_x0020_1">
  <metadata id="CorelCorpID_0Corel-Layer"/>
  <path class="fil0" d="M1083 98c-544,0 -985,441 -985,985 0,543 441,984 985,984 543,0 984,-441 984,-984 0,-544 -441,-985 -984,-985zm269 691c-6,-79 95,-167 213,4 214,309 89,687 -194,834 -452,235 -963,-132 -867,-622 16,-82 52,-151 95,-212 120,-169 221,-85 215,-6 -3,41 -17,44 -38,67 -168,178 -128,438 38,578 192,162 467,101 589,-54 245,-308 -46,-530 -51,-589zm-362 272c-14,-111 0,-318 -1,-439 0,-71 0,-131 65,-152 62,-20 116,28 122,84 12,118 0,311 0,437 0,78 -4,131 -67,149 -64,18 -113,-25 -119,-79z"/>
 </g>
</svg>
