<?xml version="1.0" encoding="UTF-8"?>
<!DOCTYPE svg PUBLIC "-//W3C//DTD SVG 1.1//EN" "http://www.w3.org/Graphics/SVG/1.1/DTD/svg11.dtd">
<!-- Creator: CorelDRAW X7 -->
<svg xmlns="http://www.w3.org/2000/svg" xml:space="preserve" width="2.16535in" height="2.16535in" version="1.1" style="shape-rendering:geometricPrecision; text-rendering:geometricPrecision; image-rendering:optimizeQuality; fill-rule:evenodd; clip-rule:evenodd"
viewBox="0 0 2165 2165"
 xmlns:xlink="http://www.w3.org/1999/xlink">
 <defs>
  <style type="text/css">
   <![CDATA[
    .fil0 {fill:black}
   ]]>
  </style>
 </defs>
 <g id="Layer_x0020_1">
  <metadata id="CorelCorpID_0Corel-Layer"/>
  <path class="fil0" d="M1083 98c-544,0 -985,441 -985,985 0,543 441,984 985,984 543,0 984,-441 984,-984 0,-544 -441,-985 -984,-985zm-3 1319c-15,0 -28,-5 -40,-15 -11,-10 -17,-24 -17,-42 0,-15 6,-29 17,-40 11,-10 24,-16 40,-16 16,0 29,6 40,16 11,11 17,25 17,40 0,18 -6,32 -17,42 -11,10 -24,15 -40,15zm-41 -248l-12 -181c-2,-35 -4,-60 -4,-75 0,-21 6,-37 17,-49 11,-12 25,-18 43,-18 21,0 36,8 43,23 7,15 11,36 11,64 0,17 -1,34 -3,51l-16 186c-2,22 -5,39 -11,51 -6,11 -15,17 -29,17 -13,0 -23,-5 -28,-17 -5,-11 -9,-29 -11,-52zm632 358l-591 -1181 -590 1181 1181 0z"/>
 </g>
</svg>
