<?xml version="1.0" encoding="UTF-8"?>
<!DOCTYPE svg PUBLIC "-//W3C//DTD SVG 1.1//EN" "http://www.w3.org/Graphics/SVG/1.1/DTD/svg11.dtd">
<!-- Creator: CorelDRAW X7 -->
<svg xmlns="http://www.w3.org/2000/svg" xml:space="preserve" width="2.16535in" height="2.16535in" version="1.1" style="shape-rendering:geometricPrecision; text-rendering:geometricPrecision; image-rendering:optimizeQuality; fill-rule:evenodd; clip-rule:evenodd"
viewBox="0 0 2165 2165"
 xmlns:xlink="http://www.w3.org/1999/xlink">
 <defs>
  <style type="text/css">
   <![CDATA[
    .fil0 {fill:black}
   ]]>
  </style>
 </defs>
 <g id="Layer_x0020_1">
  <metadata id="CorelCorpID_0Corel-Layer"/>
  <path class="fil0" d="M1083 98c-544,0 -985,441 -985,985 0,543 441,984 985,984 543,0 984,-441 984,-984 0,-544 -441,-985 -984,-985zm36 1114c-104,19 -165,-55 -150,-170l150 170zm-515 -129c64,-120 102,-162 181,-246l124 136c-10,45 -29,95 -19,156 27,154 181,208 290,147l114 131c-77,28 -116,66 -221,64 -85,-2 -149,-33 -208,-70 -86,-55 -233,-227 -261,-318zm-50 -500l156 170 -90 110c-34,44 -88,135 -116,193 -20,41 -13,39 8,76 142,255 395,548 734,418 47,-18 90,-51 124,-64l167 187c24,-12 70,-63 81,-88 -83,-69 -942,-1062 -991,-1093 -23,19 -61,57 -73,91zm327 50l72 87c171,-45 256,-29 382,72 48,38 98,83 130,130 26,38 85,113 102,163l-119 188c29,21 41,51 72,70 176,-276 200,-223 73,-421 -48,-73 -143,-182 -211,-230 -43,-31 -87,-58 -141,-78 -154,-58 -234,-22 -360,19zm403 449c-7,-129 -80,-214 -198,-221 21,40 67,80 98,115 26,29 73,88 100,106z"/>
 </g>
</svg>
