<?xml version="1.0" encoding="UTF-8"?>
<!DOCTYPE svg PUBLIC "-//W3C//DTD SVG 1.1//EN" "http://www.w3.org/Graphics/SVG/1.1/DTD/svg11.dtd">
<!-- Creator: CorelDRAW X7 -->
<svg xmlns="http://www.w3.org/2000/svg" xml:space="preserve" width="2.16535in" height="2.16535in" version="1.1" style="shape-rendering:geometricPrecision; text-rendering:geometricPrecision; image-rendering:optimizeQuality; fill-rule:evenodd; clip-rule:evenodd"
viewBox="0 0 2165 2165"
 xmlns:xlink="http://www.w3.org/1999/xlink">
 <defs>
  <style type="text/css">
   <![CDATA[
    .fil0 {fill:black}
   ]]>
  </style>
 </defs>
 <g id="Layer_x0020_1">
  <metadata id="CorelCorpID_0Corel-Layer"/>
  <path class="fil0" d="M1083 98c-544,0 -985,441 -985,985 0,543 441,984 985,984 543,0 984,-441 984,-984 0,-544 -441,-985 -984,-985zm41 394c-13,3 -128,103 -140,114l-379 317c-10,8 -29,20 -33,31l320 0c0,101 -8,165 -31,255 -32,129 -104,246 -205,343l-23 19c-34,30 -80,64 -119,88l-16 10c-2,2 -4,3 -6,4 46,0 209,-46 251,-60 85,-29 149,-58 225,-102l78 -51c30,-20 55,-44 82,-68 42,-36 105,-120 129,-161 23,-37 48,-88 62,-129 8,-23 16,-47 22,-71 4,-13 6,-25 10,-38 2,-11 7,-29 8,-39l314 0c-3,-12 -122,-106 -134,-116 -32,-27 -400,-338 -415,-346z"/>
 </g>
</svg>
