<?xml version="1.0" encoding="UTF-8"?>
<!DOCTYPE svg PUBLIC "-//W3C//DTD SVG 1.1//EN" "http://www.w3.org/Graphics/SVG/1.1/DTD/svg11.dtd">
<!-- Creator: CorelDRAW X7 -->
<svg xmlns="http://www.w3.org/2000/svg" xml:space="preserve" width="2.16535in" height="2.16535in" version="1.1" style="shape-rendering:geometricPrecision; text-rendering:geometricPrecision; image-rendering:optimizeQuality; fill-rule:evenodd; clip-rule:evenodd"
viewBox="0 0 2165 2165"
 xmlns:xlink="http://www.w3.org/1999/xlink">
 <defs>
  <style type="text/css">
   <![CDATA[
    .fil0 {fill:black}
   ]]>
  </style>
 </defs>
 <g id="Layer_x0020_1">
  <metadata id="CorelCorpID_0Corel-Layer"/>
  <path class="fil0" d="M1083 98c-544,0 -985,441 -985,985 0,543 441,984 985,984 543,0 984,-441 984,-984 0,-544 -441,-985 -984,-985zm-566 1009c-14,14 -36,14 -49,0 -14,-13 -14,-35 0,-49 106,-106 211,-212 379,-156 79,27 168,90 256,152 84,61 168,121 237,143 63,21 115,11 163,-15 50,-28 98,-76 146,-124 13,-13 35,-13 49,0 13,14 13,36 0,49 -51,51 -102,102 -162,135 -63,35 -134,49 -218,21 -79,-26 -167,-89 -255,-152 -84,-60 -169,-120 -237,-143 -127,-43 -218,48 -309,139z"/>
 </g>
</svg>
