<?xml version="1.0" encoding="UTF-8"?>
<!DOCTYPE svg PUBLIC "-//W3C//DTD SVG 1.1//EN" "http://www.w3.org/Graphics/SVG/1.1/DTD/svg11.dtd">
<!-- Creator: CorelDRAW X7 -->
<svg xmlns="http://www.w3.org/2000/svg" xml:space="preserve" width="2.16535in" height="2.16535in" version="1.1" style="shape-rendering:geometricPrecision; text-rendering:geometricPrecision; image-rendering:optimizeQuality; fill-rule:evenodd; clip-rule:evenodd"
viewBox="0 0 2165 2165"
 xmlns:xlink="http://www.w3.org/1999/xlink">
 <defs>
  <style type="text/css">
   <![CDATA[
    .fil0 {fill:black}
   ]]>
  </style>
 </defs>
 <g id="Layer_x0020_1">
  <metadata id="CorelCorpID_0Corel-Layer"/>
  <path class="fil0" d="M1083 98c-544,0 -985,441 -985,985 0,543 441,984 985,984 543,0 984,-441 984,-984 0,-544 -441,-985 -984,-985zm-159 985l599 -441c-28,99 -47,197 -57,295l207 0 0 292 -207 0c10,97 29,195 57,295l-599 -441zm590 497c22,17 27,49 11,72 -16,23 -47,28 -69,11l-699 -539c-22,-16 -27,-49 -11,-72 3,-4 7,-8 11,-11l699 -539c22,-17 53,-12 69,11 16,23 11,56 -11,73l-645 497 645 497zm-454 -162c22,17 26,49 10,72 -16,23 -47,28 -68,12l-490 -378c-22,-17 -26,-49 -10,-72 3,-4 7,-8 11,-11l489 -377c21,-17 52,-12 68,11 16,23 12,55 -10,72l-436 336 436 335z"/>
 </g>
</svg>
