<?xml version="1.0" encoding="UTF-8"?>
<!DOCTYPE svg PUBLIC "-//W3C//DTD SVG 1.1//EN" "http://www.w3.org/Graphics/SVG/1.1/DTD/svg11.dtd">
<!-- Creator: CorelDRAW X7 -->
<svg xmlns="http://www.w3.org/2000/svg" xml:space="preserve" width="2.16535in" height="2.16535in" version="1.1" style="shape-rendering:geometricPrecision; text-rendering:geometricPrecision; image-rendering:optimizeQuality; fill-rule:evenodd; clip-rule:evenodd"
viewBox="0 0 2165 2165"
 xmlns:xlink="http://www.w3.org/1999/xlink">
 <defs>
  <style type="text/css">
   <![CDATA[
    .fil0 {fill:black;fill-rule:nonzero}
   ]]>
  </style>
 </defs>
 <g id="Layer_x0020_1">
  <metadata id="CorelCorpID_0Corel-Layer"/>
  <path class="fil0" d="M1083 98c-272,0 -518,111 -696,289 -178,178 -289,424 -289,696 0,271 111,517 289,696 178,178 424,288 696,288 271,0 517,-110 696,-288 178,-179 288,-425 288,-696 0,-272 -110,-518 -288,-696 -179,-178 -425,-289 -696,-289zm324 807l-199 211c-15,15 -38,15 -53,1l-109 -105c-15,-15 -16,-39 -2,-54l200 -210 163 157zm-279 221l-191 202 -91 -88 191 -201 91 87zm-208 220l-28 29c-23,24 -61,25 -85,2l-4 -3c-24,-23 -25,-62 -2,-86l28 -30 91 88zm-11 -945c-6,1 -13,5 -19,8 -6,4 -12,5 -18,9 -14,7 -25,13 -37,20 -29,18 -39,27 -65,48l-36 32c-11,10 -15,17 -21,23 -23,23 -32,36 -52,61l-35 49c-5,7 -7,11 -12,18 -24,38 -60,109 -75,150 -5,12 -27,73 -28,85 21,6 53,6 76,10 9,1 17,2 26,2 -6,12 -134,137 -149,153 -6,6 -46,47 -53,49 -6,-11 -115,-227 -116,-236l0 0c10,2 102,13 118,13 3,-15 10,-32 15,-47 5,-16 11,-30 17,-45 6,-14 13,-28 20,-42 32,-66 94,-151 146,-197 4,-3 5,-3 9,-7 78,-73 164,-119 266,-153 6,-2 22,-9 23,-3zm961 879c-18,0 -71,-9 -100,-9 -5,9 -12,34 -16,45 -22,67 -73,164 -122,220l-76 78c-21,19 -47,40 -70,55 -3,3 -5,5 -8,7 -24,15 -44,26 -70,39 -15,7 -28,14 -43,21 -26,12 -60,25 -91,32 1,-6 4,-6 16,-11 8,-3 13,-6 20,-10 68,-34 107,-68 160,-122l26 -30c3,-3 3,-4 6,-7l19 -24c64,-87 100,-156 137,-259 3,-9 13,-34 13,-44 -9,-1 -19,-3 -29,-4 -8,-1 -21,-3 -29,-4 -10,-1 -56,-5 -59,-7 1,-6 6,-9 10,-13 5,-4 9,-8 13,-13 24,-28 116,-119 149,-151 9,-9 16,-19 27,-25 10,19 19,37 29,58 11,22 87,168 88,178zm-594 -879c21,1 130,50 152,63 44,25 80,47 119,82l42 38c31,31 56,67 82,103 30,41 98,181 98,214 -9,-5 -30,-55 -41,-72 -20,-33 -23,-36 -47,-66 -11,-15 -42,-45 -55,-58 -21,-21 -38,-34 -60,-53l-32 -24c-64,-44 -110,-70 -183,-100 -13,-5 -71,-27 -85,-29 -1,9 -3,19 -4,29l-11 88c-16,-11 -36,-34 -51,-49 -17,-17 -33,-34 -50,-51 -14,-13 -77,-76 -88,-90 -4,-5 -10,-7 -11,-14 7,-2 108,-54 117,-58 16,-9 107,-58 117,-59l-9 106zm-360 1265l14 -115c10,2 43,39 52,48 12,12 146,144 149,154 -38,21 -78,40 -117,59 -15,8 -110,57 -118,58l0 0c4,-7 10,-86 10,-102 -10,-1 -83,-29 -91,-33 -42,-18 -48,-23 -83,-43 -32,-17 -63,-41 -91,-64 -4,-2 -5,-4 -9,-7 -24,-20 -49,-46 -70,-70 -3,-3 -4,-4 -7,-8 -3,-4 -4,-5 -7,-9 -27,-33 -58,-74 -77,-112l-30 -63c-6,-15 -30,-78 -32,-95 8,2 6,5 11,17 40,83 84,139 153,201l40 32c32,24 67,49 102,68 53,29 97,51 156,71 10,3 34,13 45,13z"/>
 </g>
</svg>
