<?xml version="1.0" encoding="UTF-8"?>
<!DOCTYPE svg PUBLIC "-//W3C//DTD SVG 1.1//EN" "http://www.w3.org/Graphics/SVG/1.1/DTD/svg11.dtd">
<!-- Creator: CorelDRAW X7 -->
<svg xmlns="http://www.w3.org/2000/svg" xml:space="preserve" width="2.16535in" height="2.16535in" version="1.1" style="shape-rendering:geometricPrecision; text-rendering:geometricPrecision; image-rendering:optimizeQuality; fill-rule:evenodd; clip-rule:evenodd"
viewBox="0 0 2165 2165"
 xmlns:xlink="http://www.w3.org/1999/xlink">
 <defs>
  <style type="text/css">
   <![CDATA[
    .fil0 {fill:black;fill-rule:nonzero}
   ]]>
  </style>
 </defs>
 <g id="Layer_x0020_1">
  <metadata id="CorelCorpID_0Corel-Layer"/>
  <path class="fil0" d="M1083 98c271,0 517,111 696,289 178,178 288,424 288,696 0,271 -110,517 -288,696 -179,178 -425,288 -696,288 -272,0 -518,-110 -696,-288 -178,-179 -289,-425 -289,-696 0,-272 111,-518 289,-696 178,-178 424,-289 696,-289zm-534 934l1068 0c31,0 56,-25 56,-56 0,-17 -7,-32 -19,-42l-407 -425c-22,-22 -58,-23 -80,-1 -23,21 -23,57 -2,80l319 331 -935 0c-32,0 -57,26 -57,57 0,31 25,56 57,56zm1068 101l-1068 0c-32,0 -57,25 -57,57 0,16 7,31 19,42l408 424c21,22 57,23 80,1 22,-21 23,-57 1,-79l-319 -332 936 0c31,0 56,-25 56,-56 0,-32 -25,-57 -56,-57z"/>
 </g>
</svg>
