<?xml version="1.0" encoding="UTF-8"?>
<!DOCTYPE svg PUBLIC "-//W3C//DTD SVG 1.1//EN" "http://www.w3.org/Graphics/SVG/1.1/DTD/svg11.dtd">
<!-- Creator: CorelDRAW X7 -->
<svg xmlns="http://www.w3.org/2000/svg" xml:space="preserve" width="2.16535in" height="2.16535in" version="1.1" style="shape-rendering:geometricPrecision; text-rendering:geometricPrecision; image-rendering:optimizeQuality; fill-rule:evenodd; clip-rule:evenodd"
viewBox="0 0 2165 2165"
 xmlns:xlink="http://www.w3.org/1999/xlink">
 <defs>
  <style type="text/css">
   <![CDATA[
    .fil0 {fill:black}
   ]]>
  </style>
 </defs>
 <g id="Layer_x0020_1">
  <metadata id="CorelCorpID_0Corel-Layer"/>
  <path class="fil0" d="M1083 98c-544,0 -985,441 -985,985 0,543 441,984 985,984 543,0 984,-441 984,-984 0,-544 -441,-985 -984,-985zm41 1575c-13,-3 -128,-103 -140,-113l-379 -318c-10,-8 -29,-19 -33,-30l320 0c0,-102 -8,-165 -31,-256 -32,-128 -104,-246 -205,-342l-23 -20c-34,-29 -80,-63 -119,-88l-16 -10c-2,-1 -4,-3 -6,-4 46,0 209,46 251,60 85,29 149,59 225,103l78 50c30,21 55,45 82,68 42,37 105,121 129,161 23,38 48,88 62,129 8,24 16,47 22,71 4,14 6,25 10,38 2,11 7,29 8,40l314 0c-3,11 -122,105 -134,116 -32,26 -400,337 -415,345z"/>
 </g>
</svg>
