<?xml version="1.0" encoding="UTF-8"?>
<!DOCTYPE svg PUBLIC "-//W3C//DTD SVG 1.1//EN" "http://www.w3.org/Graphics/SVG/1.1/DTD/svg11.dtd">
<!-- Creator: CorelDRAW X7 -->
<svg xmlns="http://www.w3.org/2000/svg" xml:space="preserve" width="2.16535in" height="2.16535in" version="1.1" style="shape-rendering:geometricPrecision; text-rendering:geometricPrecision; image-rendering:optimizeQuality; fill-rule:evenodd; clip-rule:evenodd"
viewBox="0 0 2165 2165"
 xmlns:xlink="http://www.w3.org/1999/xlink">
 <defs>
  <style type="text/css">
   <![CDATA[
    .fil0 {fill:black}
   ]]>
  </style>
 </defs>
 <g id="Layer_x0020_1">
  <metadata id="CorelCorpID_0Corel-Layer"/>
  <path class="fil0" d="M1083 98c-544,0 -985,441 -985,985 0,543 441,984 985,984 543,0 984,-441 984,-984 0,-544 -441,-985 -984,-985zm332 961c0,-109 -58,-205 -146,-260l-113 239c3,7 4,14 4,22 0,15 -6,29 -16,39l14 263c146,-26 257,-151 257,-303zm-306 346l-16 -292c-25,-5 -44,-27 -44,-53 0,-30 25,-55 56,-55 3,0 6,1 9,1l126 -265c-20,-9 -40,-15 -61,-19 -25,-6 -50,-9 -76,-9 -97,0 -185,39 -248,102 -64,62 -103,149 -103,244 0,96 39,182 102,245 64,63 152,101 249,101l6 0zm-3 -376c18,0 32,14 32,31 0,18 -14,32 -32,32 -18,0 -33,-14 -33,-32 0,-17 15,-31 33,-31zm-155 -485c30,-13 113,-15 147,-15 149,2 316,93 406,218 64,88 108,220 101,322l-8 86c-2,9 -4,10 -5,20 -10,61 -46,134 -80,185 -12,20 -44,62 -65,77l-66 -91c-10,11 -15,29 -20,42l-38 91c-9,24 -90,216 -90,227l339 -20c15,-2 35,-1 49,-7l-75 -104c67,-48 150,-180 181,-263 21,-59 19,-67 32,-112 12,-38 15,-134 14,-175 -2,-32 -9,-86 -17,-120 -10,-41 -21,-81 -41,-124 -49,-108 -125,-211 -221,-280l-73 -48c-8,-4 -11,-7 -19,-11 -8,-5 -10,-5 -19,-9 -56,-27 -135,-54 -194,-64 -15,-2 -24,-1 -39,-3 -24,-5 -119,-7 -123,-3 -10,6 -17,29 -23,44 -8,21 -53,123 -53,137zm-350 2c-65,46 -136,159 -169,235 -28,65 -27,77 -45,140 -5,19 -7,38 -8,58 -3,52 -7,50 -5,117 7,197 117,408 279,525 12,9 22,16 35,24l95 53c25,12 108,41 135,45 16,2 25,6 40,9 15,2 23,1 39,4 13,2 27,3 40,4 9,0 81,0 83,-1 12,-9 53,-118 60,-136 5,-13 16,-33 16,-45 -30,12 -113,15 -147,14 -27,0 -80,-9 -108,-16 -12,-3 -23,-7 -35,-11 -48,-15 -93,-38 -134,-66 -133,-91 -224,-250 -229,-401 -1,-14 -2,-29 -1,-44 6,-83 5,-89 30,-170 12,-37 39,-87 61,-121 13,-19 45,-63 67,-79l66 92c12,-15 148,-356 148,-360 -9,-3 -316,18 -339,20 -15,1 -36,0 -49,6l75 104z"/>
 </g>
</svg>
