<?xml version="1.0" encoding="UTF-8"?>
<!DOCTYPE svg PUBLIC "-//W3C//DTD SVG 1.1//EN" "http://www.w3.org/Graphics/SVG/1.1/DTD/svg11.dtd">
<!-- Creator: CorelDRAW X7 -->
<svg xmlns="http://www.w3.org/2000/svg" xml:space="preserve" width="2.16535in" height="2.16535in" version="1.1" style="shape-rendering:geometricPrecision; text-rendering:geometricPrecision; image-rendering:optimizeQuality; fill-rule:evenodd; clip-rule:evenodd"
viewBox="0 0 2165 2165"
 xmlns:xlink="http://www.w3.org/1999/xlink">
 <defs>
  <style type="text/css">
   <![CDATA[
    .fil0 {fill:black}
   ]]>
  </style>
 </defs>
 <g id="Layer_x0020_1">
  <metadata id="CorelCorpID_0Corel-Layer"/>
  <path class="fil0" d="M1083 98c-544,0 -985,441 -985,985 0,543 441,984 985,984 543,0 984,-441 984,-984 0,-544 -441,-985 -984,-985zm-373 1476l214 0 0 99 -214 0 0 -99zm0 -199l214 0 0 149 -214 0 0 -149zm107 -644l325 476c-73,-23 -146,-38 -218,-46l0 165 -214 0 0 -165c-72,8 -145,23 -218,46l325 -476zm797 -239c33,0 59,28 59,62 0,35 -26,63 -59,63l-1003 0c-33,0 -60,-28 -60,-63 0,-34 27,-62 60,-62l1003 0zm3 236c31,0 56,28 56,62 0,34 -25,62 -56,62l-423 0c-30,0 -55,-28 -55,-62 0,-34 25,-62 55,-62l423 0zm0 235c31,0 56,28 56,63 0,34 -25,62 -56,62l-423 0c-31,0 -56,-28 -56,-62 0,-35 25,-63 56,-63l423 0z"/>
 </g>
</svg>
