<?xml version="1.0" encoding="UTF-8"?>
<!DOCTYPE svg PUBLIC "-//W3C//DTD SVG 1.1//EN" "http://www.w3.org/Graphics/SVG/1.1/DTD/svg11.dtd">
<!-- Creator: CorelDRAW X7 -->
<svg xmlns="http://www.w3.org/2000/svg" xml:space="preserve" width="2.16535in" height="2.16535in" version="1.1" style="shape-rendering:geometricPrecision; text-rendering:geometricPrecision; image-rendering:optimizeQuality; fill-rule:evenodd; clip-rule:evenodd"
viewBox="0 0 2165 2165"
 xmlns:xlink="http://www.w3.org/1999/xlink">
 <defs>
  <style type="text/css">
   <![CDATA[
    .fil0 {fill:black}
   ]]>
  </style>
 </defs>
 <g id="Layer_x0020_1">
  <metadata id="CorelCorpID_0Corel-Layer"/>
  <path class="fil0" d="M1083 98c-544,0 -985,441 -985,985 0,543 441,984 985,984 543,0 984,-441 984,-984 0,-544 -441,-985 -984,-985zm-102 1502c0,-149 204,-149 204,0 0,124 -204,124 -204,0zm255 -68c0,-149 204,-149 204,0 0,124 -204,124 -204,0zm-511 0c0,-149 205,-149 205,0 0,124 -205,124 -205,0zm698 -187c0,-148 204,-148 204,0 0,125 -204,125 -204,0zm-885 0c0,-148 204,-148 204,0 0,125 -204,125 -204,0zm953 -254c0,-149 204,-149 204,0 0,124 -204,124 -204,0zm-1021 0c0,-149 204,-149 204,0 0,124 -204,124 -204,0zm953 -254c0,-149 204,-149 204,0 0,124 -204,124 -204,0zm-885 0c0,-149 204,-149 204,0 0,124 -204,124 -204,0zm247 -51c100,24 171,-32 187,-102 36,10 46,43 111,43 64,0 74,-33 110,-43 17,70 87,125 187,102 -24,100 33,170 103,186 -89,167 -23,138 0,221 -71,16 -126,86 -103,186 -100,-24 -170,32 -187,102 -111,-59 -109,-59 -221,0 -16,-70 -87,-125 -187,-102 24,-100 -32,-170 -102,-186 10,-36 42,-46 42,-110 0,-64 -32,-75 -42,-111 85,-19 130,-123 102,-186zm451 -136c0,-148 204,-148 204,0 0,125 -204,125 -204,0zm-511 0c0,-148 205,-148 205,0 0,125 -205,125 -205,0zm256 -67c0,-149 204,-149 204,0 0,124 -204,124 -204,0zm-43 -51c-22,-6 -67,-43 -102,-43 -98,0 -181,75 -153,195 -135,-32 -232,87 -180,205 16,35 18,15 27,50 -149,34 -141,255 0,288 -10,36 -43,46 -43,110 0,79 74,172 196,144 -34,140 96,227 205,179 35,-15 16,-17 50,-26 35,148 257,140 289,0 33,8 118,94 217,-5 51,-51 52,-90 39,-148 84,20 149,-20 177,-78 47,-97 -14,-139 -24,-176 140,-33 149,-254 0,-288 9,-35 11,-15 26,-50 49,-111 -41,-237 -179,-205 28,-119 -59,-195 -145,-195 -64,0 -75,33 -111,43 -34,-145 -255,-145 -289,0zm-536 551c0,-313 228,-587 530,-660 312,-74 631,90 769,383 120,255 58,556 -140,753 -90,90 -200,152 -327,183 -358,85 -725,-143 -813,-509 -8,-33 -19,-115 -19,-150zm-85 -43c0,240 53,413 223,583 60,59 131,112 208,149 520,253 1100,-159 1100,-647 0,-239 -55,-416 -223,-583 -229,-228 -575,-288 -871,-152 -238,110 -437,383 -437,650zm476 60c0,-188 118,-306 307,-306 139,0 272,133 272,272 0,186 -119,305 -306,305 -140,0 -273,-133 -273,-271zm-51 -17c0,84 44,182 101,239 257,257 701,-27 549,-378 -140,-321 -650,-232 -650,139z"/>
 </g>
</svg>
