<?xml version="1.0" encoding="UTF-8"?>
<!DOCTYPE svg PUBLIC "-//W3C//DTD SVG 1.1//EN" "http://www.w3.org/Graphics/SVG/1.1/DTD/svg11.dtd">
<!-- Creator: CorelDRAW X7 -->
<svg xmlns="http://www.w3.org/2000/svg" xml:space="preserve" width="2.16535in" height="2.16535in" version="1.1" style="shape-rendering:geometricPrecision; text-rendering:geometricPrecision; image-rendering:optimizeQuality; fill-rule:evenodd; clip-rule:evenodd"
viewBox="0 0 2165 2165"
 xmlns:xlink="http://www.w3.org/1999/xlink">
 <defs>
  <style type="text/css">
   <![CDATA[
    .fil0 {fill:black}
   ]]>
  </style>
 </defs>
 <g id="Layer_x0020_1">
  <metadata id="CorelCorpID_0Corel-Layer"/>
  <path class="fil0" d="M1083 98c-544,0 -985,441 -985,985 0,543 441,984 985,984 543,0 984,-441 984,-984 0,-544 -441,-985 -984,-985zm80 1480l-1 0c-41,-1 -84,0 -126,0 -54,0 -111,-2 -164,0l0 0 -63 0c-28,0 -60,3 -84,-7 -22,-9 -39,-25 -48,-44 -14,-27 -11,-47 -11,-79l0 -728c0,-32 -3,-56 10,-82 10,-18 26,-34 47,-43 26,-11 55,-8 84,-8l228 0c17,0 28,-2 40,6 16,13 19,46 19,73 0,32 -4,158 4,178 11,25 33,26 65,26 37,0 151,-3 179,4 30,7 37,21 37,55l0 76 96 0 0 -59c0,-30 3,-80 -5,-105 -15,-44 -67,-94 -98,-125 -9,-9 -18,-20 -28,-28 -15,-11 -32,-27 -43,-40 -16,-19 -63,-67 -83,-84 -5,-5 -9,-10 -15,-14 -73,-59 -69,-58 -166,-58 -74,0 -149,0 -223,0 -38,0 -70,-2 -105,8 -27,7 -57,24 -73,39 -40,38 -65,77 -65,156l0 776c0,38 4,63 18,94 22,45 65,86 122,101 33,9 68,7 104,7 24,0 249,1 317,0l98 0c36,0 71,2 105,-7 56,-16 100,-56 121,-101 15,-31 19,-56 19,-94l0 -3 -95 0c0,21 -1,38 -11,59 -10,19 -26,35 -48,44 -25,10 -56,7 -85,7l-73 0zm-101 -535l612 0c43,0 78,34 78,77l0 233c0,43 -35,78 -78,78l-612 0c-43,0 -78,-35 -78,-78l0 -233c0,-43 35,-77 78,-77zm110 222l0 -36 94 0 0 85c-9,9 -22,17 -40,24 -17,6 -35,10 -52,10 -23,0 -42,-5 -59,-14 -17,-10 -29,-23 -38,-41 -8,-17 -13,-37 -13,-57 0,-22 5,-42 15,-60 9,-17 23,-30 41,-40 14,-7 31,-10 51,-10 27,0 48,5 63,16 15,12 25,27 29,47l-43 8c-3,-11 -9,-19 -17,-25 -9,-6 -19,-9 -32,-9 -19,0 -34,6 -45,18 -11,12 -17,30 -17,53 0,26 6,45 17,57 12,13 27,20 45,20 9,0 18,-2 27,-6 9,-3 17,-8 24,-13l0 -27 -50 0zm112 79l75 -112 -68 -102 51 0 42 63 43 -63 51 0 -68 102 74 112 -52 0 -48 -73 -47 73 -53 0zm223 0l0 -214 70 0c26,0 43,1 51,3 13,3 23,10 31,21 9,11 13,24 13,42 0,13 -3,24 -7,33 -5,9 -11,16 -19,21 -7,5 -15,8 -22,10 -11,2 -26,3 -45,3l-29 0 0 81 -43 0zm43 -178l0 61 24 0c17,0 29,-1 34,-4 6,-2 11,-5 14,-10 3,-5 5,-10 5,-17 0,-8 -2,-14 -7,-19 -5,-5 -10,-8 -17,-10 -6,-1 -16,-1 -32,-1l-21 0z"/>
 </g>
</svg>
