<?xml version="1.0" encoding="UTF-8"?>
<!DOCTYPE svg PUBLIC "-//W3C//DTD SVG 1.1//EN" "http://www.w3.org/Graphics/SVG/1.1/DTD/svg11.dtd">
<!-- Creator: CorelDRAW X7 -->
<svg xmlns="http://www.w3.org/2000/svg" xml:space="preserve" width="2.16535in" height="2.16535in" version="1.1" style="shape-rendering:geometricPrecision; text-rendering:geometricPrecision; image-rendering:optimizeQuality; fill-rule:evenodd; clip-rule:evenodd"
viewBox="0 0 2165 2165"
 xmlns:xlink="http://www.w3.org/1999/xlink">
 <defs>
  <style type="text/css">
   <![CDATA[
    .fil0 {fill:black}
   ]]>
  </style>
 </defs>
 <g id="Layer_x0020_1">
  <metadata id="CorelCorpID_0Corel-Layer"/>
  <path class="fil0" d="M1083 98c-544,0 -985,441 -985,985 0,543 441,984 985,984 543,0 984,-441 984,-984 0,-544 -441,-985 -984,-985zm-457 1449c-21,0 -31,-2 -46,-22l-9 -13c0,41 -4,59 13,86 10,17 32,36 59,36l826 0c43,0 61,-45 74,-73 6,-13 11,-23 17,-36 11,-23 22,-44 32,-67l98 -206c10,-21 20,-47 32,-67 11,-19 30,-54 30,-78 0,-23 -19,-43 -40,-43l-769 0c-30,0 -48,18 -61,37l-205 397c-6,11 -12,20 -19,30 -6,7 -21,19 -32,19zm-55 -773l0 662c0,40 49,69 70,36 9,-12 7,-15 7,-34l-1 -476c0,-27 -6,-61 20,-61l438 0 0 -81 -153 0 0 -46c0,-39 -34,-76 -71,-76l-238 0c-37,0 -72,37 -72,76zm495 -66c0,18 10,31 24,31l91 0 0 203c0,23 16,41 38,41l76 0c21,0 38,-18 38,-41l0 -203 91 0c13,0 23,-13 23,-31 0,-13 -33,-55 -42,-67l-127 -176c-27,-35 -52,15 -64,30 -4,6 -7,9 -11,16l-116 161c-7,9 -21,23 -21,36zm343 193c91,0 76,-19 76,123l77 0 0 -128c0,-39 -35,-76 -72,-76l-81 0 0 81z"/>
 </g>
</svg>
