<?xml version="1.0" encoding="UTF-8"?>
<!DOCTYPE svg PUBLIC "-//W3C//DTD SVG 1.1//EN" "http://www.w3.org/Graphics/SVG/1.1/DTD/svg11.dtd">
<!-- Creator: CorelDRAW X7 -->
<svg xmlns="http://www.w3.org/2000/svg" xml:space="preserve" width="2.16535in" height="2.16535in" version="1.1" style="shape-rendering:geometricPrecision; text-rendering:geometricPrecision; image-rendering:optimizeQuality; fill-rule:evenodd; clip-rule:evenodd"
viewBox="0 0 2165 2165"
 xmlns:xlink="http://www.w3.org/1999/xlink">
 <defs>
  <style type="text/css">
   <![CDATA[
    .fil0 {fill:black}
   ]]>
  </style>
 </defs>
 <g id="Layer_x0020_1">
  <metadata id="CorelCorpID_0Corel-Layer"/>
  <path class="fil0" d="M1083 2067c543,0 984,-441 984,-984 0,-544 -441,-985 -984,-985 -544,0 -985,441 -985,985 0,543 441,984 985,984zm0 -1289c-84,0 -161,34 -216,89 -55,55 -89,131 -89,216 0,84 34,160 89,215 55,55 132,89 216,89 84,0 160,-34 215,-89 55,-55 89,-131 89,-215 0,-84 -34,-161 -89,-216 -55,-55 -131,-89 -215,-89zm0 -37c94,0 179,38 241,100 62,62 100,147 100,242l0 4 249 -498c5,-9 16,-13 25,-8 9,4 13,15 8,24l-485 971c-5,10 -16,13 -25,9 -9,-5 -13,-16 -8,-25l103 -206c-58,44 -130,70 -208,70 -95,0 -180,-38 -242,-100 -62,-62 -100,-147 -100,-241l0 -4 -249 497c-4,10 -15,13 -24,9 -10,-5 -13,-16 -9,-25l486 -971c4,-9 15,-13 25,-8 9,4 12,15 8,24l-103 207c57,-45 129,-71 208,-71z"/>
 </g>
</svg>
