<?xml version="1.0" encoding="UTF-8"?>
<!DOCTYPE svg PUBLIC "-//W3C//DTD SVG 1.1//EN" "http://www.w3.org/Graphics/SVG/1.1/DTD/svg11.dtd">
<!-- Creator: CorelDRAW X7 -->
<svg xmlns="http://www.w3.org/2000/svg" xml:space="preserve" width="2.16535in" height="2.16535in" version="1.1" style="shape-rendering:geometricPrecision; text-rendering:geometricPrecision; image-rendering:optimizeQuality; fill-rule:evenodd; clip-rule:evenodd"
viewBox="0 0 2165 2165"
 xmlns:xlink="http://www.w3.org/1999/xlink">
 <defs>
  <style type="text/css">
   <![CDATA[
    .fil0 {fill:black}
   ]]>
  </style>
 </defs>
 <g id="Layer_x0020_1">
  <metadata id="CorelCorpID_0Corel-Layer"/>
  <path class="fil0" d="M1083 98c-544,0 -985,441 -985,985 0,543 441,984 985,984 543,0 984,-441 984,-984 0,-544 -441,-985 -984,-985zm-591 1026c3,-13 103,-128 114,-140l317 -379c8,-10 20,-29 31,-33l0 320c101,0 165,-8 255,-31 129,-32 246,-104 343,-205l19 -23c30,-34 64,-80 88,-119l10 -16c2,-2 3,-4 4,-6 0,46 -46,209 -60,251 -29,85 -58,149 -102,225l-51 78c-20,30 -44,55 -68,82 -36,42 -120,105 -161,129 -37,23 -88,48 -129,62 -23,8 -47,16 -71,22 -13,4 -25,6 -38,10 -11,2 -29,7 -39,8l0 314c-12,-3 -106,-122 -116,-134 -27,-32 -338,-400 -346,-415z"/>
 </g>
</svg>
