<?xml version="1.0" encoding="UTF-8"?>
<!DOCTYPE svg PUBLIC "-//W3C//DTD SVG 1.1//EN" "http://www.w3.org/Graphics/SVG/1.1/DTD/svg11.dtd">
<!-- Creator: CorelDRAW X7 -->
<svg xmlns="http://www.w3.org/2000/svg" xml:space="preserve" width="2.16535in" height="2.16535in" version="1.1" style="shape-rendering:geometricPrecision; text-rendering:geometricPrecision; image-rendering:optimizeQuality; fill-rule:evenodd; clip-rule:evenodd"
viewBox="0 0 2165 2165"
 xmlns:xlink="http://www.w3.org/1999/xlink">
 <defs>
  <style type="text/css">
   <![CDATA[
    .fil0 {fill:black}
   ]]>
  </style>
 </defs>
 <g id="Layer_x0020_1">
  <metadata id="CorelCorpID_0Corel-Layer"/>
  <path class="fil0" d="M1083 98c-544,0 -985,441 -985,985 0,543 441,984 985,984 543,0 984,-441 984,-984 0,-544 -441,-985 -984,-985zm-685 745l931 931c30,30 72,38 111,22 40,-16 64,-52 64,-95l0 -350c0,-28 -10,-53 -30,-73l-581 -580c-19,-20 -44,-30 -72,-30l-351 0c-42,0 -78,24 -94,63 -16,40 -8,82 22,112zm593 -130c-24,0 -45,-20 -45,-45 0,-25 21,-45 45,-45l129 0c24,0 45,20 45,45 0,25 -21,45 -45,45l-129 0zm257 0c-25,0 -46,-20 -46,-45 0,-25 21,-45 46,-45l128 0c25,0 45,20 45,45 0,25 -20,45 -45,45l-128 0zm301 467c0,25 -20,46 -45,46 -25,0 -45,-21 -45,-46l0 -128c0,-25 20,-45 45,-45 25,0 45,20 45,45l0 128zm0 -256c0,25 -20,45 -45,45 -25,0 -45,-20 -45,-45l0 -128c0,-25 20,-45 45,-45 25,0 45,20 45,45l0 128z"/>
 </g>
</svg>
