<?xml version="1.0" encoding="UTF-8"?>
<!DOCTYPE svg PUBLIC "-//W3C//DTD SVG 1.1//EN" "http://www.w3.org/Graphics/SVG/1.1/DTD/svg11.dtd">
<!-- Creator: CorelDRAW X7 -->
<svg xmlns="http://www.w3.org/2000/svg" xml:space="preserve" width="2.16535in" height="2.16535in" version="1.1" style="shape-rendering:geometricPrecision; text-rendering:geometricPrecision; image-rendering:optimizeQuality; fill-rule:evenodd; clip-rule:evenodd"
viewBox="0 0 2165 2165"
 xmlns:xlink="http://www.w3.org/1999/xlink">
 <defs>
  <style type="text/css">
   <![CDATA[
    .fil0 {fill:black}
   ]]>
  </style>
 </defs>
 <g id="Layer_x0020_1">
  <metadata id="CorelCorpID_0Corel-Layer"/>
  <path class="fil0" d="M1083 98c-544,0 -985,441 -985,985 0,543 441,984 985,984 543,0 984,-441 984,-984 0,-544 -441,-985 -984,-985zm-288 856l-138 -369c31,17 62,29 92,35l0 -128 91 0 0 128c31,-6 61,-18 92,-35l-137 369zm-81 188l81 0 0 478 -81 0c-13,0 -24,-11 -24,-25l0 -99 -181 0c-9,0 -17,-7 -17,-16l0 -180c0,-9 8,-17 17,-17l181 0 0 -117c0,-13 11,-24 24,-24zm137 -59l464 0c8,0 14,6 14,14l0 561c0,9 -6,15 -14,15l-464 0c-8,0 -15,-6 -15,-15l0 -561c0,-8 7,-14 15,-14zm600 59c14,0 25,11 25,24l0 117 181 0c9,0 16,8 16,17l0 180c0,9 -7,16 -16,16l-181 0 0 99c0,14 -11,25 -25,25l-80 0 0 -478 80 0z"/>
 </g>
</svg>
