<?xml version="1.0" encoding="UTF-8"?>
<!DOCTYPE svg PUBLIC "-//W3C//DTD SVG 1.1//EN" "http://www.w3.org/Graphics/SVG/1.1/DTD/svg11.dtd">
<!-- Creator: CorelDRAW X7 -->
<svg xmlns="http://www.w3.org/2000/svg" xml:space="preserve" width="2.16535in" height="2.16535in" version="1.1" style="shape-rendering:geometricPrecision; text-rendering:geometricPrecision; image-rendering:optimizeQuality; fill-rule:evenodd; clip-rule:evenodd"
viewBox="0 0 2165 2165"
 xmlns:xlink="http://www.w3.org/1999/xlink">
 <defs>
  <style type="text/css">
   <![CDATA[
    .fil0 {fill:black}
   ]]>
  </style>
 </defs>
 <g id="Layer_x0020_1">
  <metadata id="CorelCorpID_0Corel-Layer"/>
  <path class="fil0" d="M1083 98c-544,0 -985,441 -985,985 0,543 441,984 985,984 543,0 984,-441 984,-984 0,-544 -441,-985 -984,-985zm450 1138c60,0 115,24 155,64 39,39 64,94 64,154 0,61 -25,116 -64,155 -40,40 -95,64 -155,64 -61,0 -116,-24 -155,-64 -40,-39 -65,-94 -65,-155 0,-60 25,-115 65,-154 39,-40 94,-64 155,-64zm-266 304c-109,0 -253,1 -291,1 -59,0 -117,0 -176,0 -27,0 -58,3 -81,-7 -21,-9 -37,-24 -46,-43 -13,-25 -11,-45 -11,-76l0 -703c0,-30 -2,-54 10,-79 10,-18 25,-33 45,-42 25,-10 53,-8 81,-8l220 0c16,0 26,-2 37,7 16,12 19,44 19,70 0,31 -4,153 4,172 10,24 32,25 63,25 35,0 145,-3 172,4 29,7 36,20 36,53 -1,85 -1,220 -1,332 27,-23 58,-42 92,-54l0 -262c0,-28 3,-77 -5,-101 -14,-43 -64,-91 -94,-121 -8,-8 -17,-19 -26,-26 -15,-12 -31,-27 -42,-40 -16,-17 -61,-64 -79,-81 -5,-4 -10,-9 -15,-13 -70,-57 -67,-56 -160,-56 -71,0 -143,0 -215,0 -35,0 -67,-2 -100,7 -27,8 -55,24 -70,38 -39,37 -63,74 -63,151l0 749c0,37 4,61 18,91 20,43 62,82 117,97 31,9 65,7 100,7 20,0 343,1 513,1 -23,-27 -40,-59 -52,-93zm-114 -400l-32 0 0 159 32 0c5,0 10,-3 10,-8l0 -33 72 0c3,0 6,-2 6,-6l0 -59c0,-3 -3,-6 -6,-6l-72 0 0 -39c0,-4 -5,-8 -10,-8zm-240 -20l185 0c4,0 6,3 6,5l0 187c0,3 -2,5 -6,5l-185 0c-3,0 -6,-2 -6,-5l0 -187c0,-2 3,-5 6,-5zm-54 20l32 0 0 159 -32 0c-6,0 -10,-3 -10,-8l0 -33 -72 0c-4,0 -7,-2 -7,-6l0 -59c0,-3 3,-6 7,-6l72 0 0 -39c0,-4 4,-8 10,-8zm649 190l49 0 0 101 98 0 0 47 -98 0 0 101 -49 0 0 -101 -97 0 0 -47 97 0 0 -101z"/>
 </g>
</svg>
