<?xml version="1.0" encoding="UTF-8"?>
<!DOCTYPE svg PUBLIC "-//W3C//DTD SVG 1.1//EN" "http://www.w3.org/Graphics/SVG/1.1/DTD/svg11.dtd">
<!-- Creator: CorelDRAW X7 -->
<svg xmlns="http://www.w3.org/2000/svg" xml:space="preserve" width="2.16535in" height="2.16535in" version="1.1" style="shape-rendering:geometricPrecision; text-rendering:geometricPrecision; image-rendering:optimizeQuality; fill-rule:evenodd; clip-rule:evenodd"
viewBox="0 0 2165 2165"
 xmlns:xlink="http://www.w3.org/1999/xlink">
 <defs>
  <style type="text/css">
   <![CDATA[
    .fil0 {fill:black}
   ]]>
  </style>
 </defs>
 <g id="Layer_x0020_1">
  <metadata id="CorelCorpID_0Corel-Layer"/>
  <path class="fil0" d="M1083 98c-544,0 -985,441 -985,985 0,543 441,984 985,984 543,0 984,-441 984,-984 0,-544 -441,-985 -984,-985zm-309 475l-31 0 0 144 31 0 0 -144zm817 14l-818 0 0 116 874 0 0 -60c0,-31 -26,-56 -56,-56zm-1002 -13l30 0 0 144 -30 0 0 -144zm-50 14l50 0 0 116 -50 0c-26,0 -47,-21 -47,-47l0 -22c0,-26 21,-47 47,-47zm86 621l116 0 0 41 -116 0 0 -41zm33 -329l49 0 0 329 -49 0 0 -329zm-33 -42l115 0 0 41 -115 0 0 -41zm15 -346l84 0 0 346 -84 0 0 -346zm140 852c-11,0 -21,-10 -21,-21 0,-12 10,-21 21,-21l53 0c9,0 16,5 19,13l69 0c2,0 5,3 5,8l0 0c0,4 -3,8 -5,8l-69 0c-3,8 -10,13 -19,13l-53 0zm-98 -75c30,0 53,24 53,54 0,30 -23,54 -53,54 -29,0 -53,-24 -53,-54 0,-30 24,-54 53,-54zm907 79l-242 0 0 241c64,-6 121,-34 164,-77 43,-43 72,-100 78,-164zm-534 -50l242 0 0 -241c-64,6 -122,34 -165,77 -43,43 -71,100 -77,164zm292 -291c77,6 147,40 199,92 52,52 87,122 93,199l34 0 0 50 -34 0c-6,77 -41,147 -93,199 -52,52 -122,86 -199,92l0 34 -50 0 0 -34c-78,-6 -148,-40 -200,-92 -52,-52 -86,-122 -92,-199l-35 0 0 -50 35 0c6,-77 40,-147 92,-199 52,-52 122,-86 200,-92l0 -34 50 0 0 34z"/>
 </g>
</svg>
