<?xml version="1.0" encoding="UTF-8"?>
<!DOCTYPE svg PUBLIC "-//W3C//DTD SVG 1.1//EN" "http://www.w3.org/Graphics/SVG/1.1/DTD/svg11.dtd">
<!-- Creator: CorelDRAW X7 -->
<svg xmlns="http://www.w3.org/2000/svg" xml:space="preserve" width="2.16535in" height="2.16535in" version="1.1" style="shape-rendering:geometricPrecision; text-rendering:geometricPrecision; image-rendering:optimizeQuality; fill-rule:evenodd; clip-rule:evenodd"
viewBox="0 0 2165 2165"
 xmlns:xlink="http://www.w3.org/1999/xlink">
 <defs>
  <style type="text/css">
   <![CDATA[
    .fil0 {fill:black}
   ]]>
  </style>
 </defs>
 <g id="Layer_x0020_1">
  <metadata id="CorelCorpID_0Corel-Layer"/>
  <path class="fil0" d="M1083 98c-544,0 -985,441 -985,985 0,543 441,984 985,984 543,0 984,-441 984,-984 0,-544 -441,-985 -984,-985zm-120 1307l-19 -360c-45,-8 -80,-47 -80,-95 0,-52 43,-95 95,-95 8,0 15,1 22,2l155 -329c-26,-11 -52,-19 -80,-25 -32,-7 -66,-11 -100,-11 -128,0 -244,51 -328,134 -84,82 -136,197 -136,323 0,126 52,240 136,323 84,82 200,134 328,134l7 -1zm644 -572l0 285 2 0c22,-4 43,-12 64,-24l-95 251 -96 -251c22,12 43,20 64,24l3 0 0 -285 -3 0c-21,4 -42,12 -64,24l96 -252 95 252c-21,-12 -42,-20 -64,-24l-2 0zm-325 726c0,22 3,39 9,49 8,14 21,21 36,21 12,0 23,-5 31,-16 9,-11 13,-27 13,-49 0,-24 -4,-41 -12,-52 -9,-11 -19,-16 -32,-16 -13,0 -24,5 -32,16 -9,10 -13,26 -13,47zm143 109l-50 0 0 -31c-8,12 -18,21 -29,27 -11,6 -23,9 -34,9 -24,0 -43,-9 -60,-29 -17,-19 -25,-47 -25,-81 0,-36 8,-63 24,-82 16,-18 37,-27 62,-27 22,0 42,9 58,29l0 -105 54 0 0 290zm-396 -711l-63 0 0 63c16,-2 31,-9 43,-20 11,-12 18,-27 20,-43zm-139 -13l63 0 0 -63c-17,1 -32,9 -43,20 -11,11 -19,26 -20,43zm76 -76c20,1 38,10 52,24 13,13 22,32 24,52l0 13c-2,20 -11,38 -24,52 -14,13 -32,22 -52,24l-13 0c-20,-2 -39,-11 -52,-24 -14,-14 -23,-32 -24,-52l0 -13c1,-20 10,-39 24,-52 13,-14 32,-23 52,-24l13 0zm401 81c0,-145 -77,-272 -192,-344l-138 290c11,16 18,35 18,55 0,34 -18,64 -44,81l17 317c193,-34 339,-200 339,-399z"/>
 </g>
</svg>
