<?xml version="1.0" encoding="UTF-8"?>
<!DOCTYPE svg PUBLIC "-//W3C//DTD SVG 1.1//EN" "http://www.w3.org/Graphics/SVG/1.1/DTD/svg11.dtd">
<!-- Creator: CorelDRAW X7 -->
<svg xmlns="http://www.w3.org/2000/svg" xml:space="preserve" width="2.16535in" height="2.16535in" version="1.1" style="shape-rendering:geometricPrecision; text-rendering:geometricPrecision; image-rendering:optimizeQuality; fill-rule:evenodd; clip-rule:evenodd"
viewBox="0 0 2165 2165"
 xmlns:xlink="http://www.w3.org/1999/xlink">
 <defs>
  <style type="text/css">
   <![CDATA[
    .fil0 {fill:black}
   ]]>
  </style>
 </defs>
 <g id="Layer_x0020_1">
  <metadata id="CorelCorpID_0Corel-Layer"/>
  <path class="fil0" d="M1083 98c-544,0 -985,441 -985,985 0,543 441,984 985,984 543,0 984,-441 984,-984 0,-544 -441,-985 -984,-985zm-478 994c52,9 100,80 180,144l0 -135 0 -67 0 -367c0,-31 33,-57 75,-57l8 0c41,0 75,26 75,57l0 367 32 0 0 -485c0,-32 34,-57 75,-57l8 0c42,0 75,25 75,57l0 485 26 0 0 -412c0,-31 33,-57 75,-57l8 0c41,0 75,26 75,57l0 412 20 0 0 -302c0,-31 34,-56 75,-56l9 0c41,0 75,25 75,56l0 302 0 0 0 400c0,0 0,239 -356,239 -222,0 -316,-78 -345,-131 0,0 -220,-290 -266,-357 -46,-66 10,-105 76,-93z"/>
 </g>
</svg>
