<?xml version="1.0" encoding="UTF-8"?>
<!DOCTYPE svg PUBLIC "-//W3C//DTD SVG 1.1//EN" "http://www.w3.org/Graphics/SVG/1.1/DTD/svg11.dtd">
<!-- Creator: CorelDRAW X7 -->
<svg xmlns="http://www.w3.org/2000/svg" xml:space="preserve" width="2.16535in" height="2.16535in" version="1.1" style="shape-rendering:geometricPrecision; text-rendering:geometricPrecision; image-rendering:optimizeQuality; fill-rule:evenodd; clip-rule:evenodd"
viewBox="0 0 2165 2165"
 xmlns:xlink="http://www.w3.org/1999/xlink">
 <defs>
  <style type="text/css">
   <![CDATA[
    .fil0 {fill:black}
   ]]>
  </style>
 </defs>
 <g id="Layer_x0020_1">
  <metadata id="CorelCorpID_0Corel-Layer"/>
  <path class="fil0" d="M1083 98c-544,0 -985,441 -985,985 0,543 441,984 985,984 543,0 984,-441 984,-984 0,-544 -441,-985 -984,-985zm311 1086c0,-149 -79,-280 -198,-354l-154 325c4,9 6,19 6,30 0,20 -9,39 -23,53l19 357c199,-34 350,-205 350,-411zm-416 470l-21 -397c-34,-7 -60,-37 -60,-72 0,-41 34,-74 76,-74 4,0 8,0 12,1l171 -362c-27,-11 -54,-19 -82,-26 -34,-7 -69,-11 -104,-11 -132,0 -251,53 -338,138 -86,85 -140,203 -140,333 0,130 54,247 140,333 87,85 206,137 338,137l8 0zm-4 -512c24,0 44,19 44,43 0,24 -20,44 -44,44 -25,0 -44,-20 -44,-44 0,-24 19,-43 44,-43zm489 -21l90 0 0 -502 120 0 0 1054 -120 0 0 -426 -90 0 0 -126zm-54 -351l-83 -222c19,10 37,17 56,21l0 -77 54 0 0 77c19,-4 37,-11 56,-21l-83 222z"/>
 </g>
</svg>
