<?xml version="1.0" encoding="UTF-8"?>
<!DOCTYPE svg PUBLIC "-//W3C//DTD SVG 1.1//EN" "http://www.w3.org/Graphics/SVG/1.1/DTD/svg11.dtd">
<!-- Creator: CorelDRAW X7 -->
<svg xmlns="http://www.w3.org/2000/svg" xml:space="preserve" width="2.16535in" height="2.16535in" version="1.1" style="shape-rendering:geometricPrecision; text-rendering:geometricPrecision; image-rendering:optimizeQuality; fill-rule:evenodd; clip-rule:evenodd"
viewBox="0 0 2165 2165"
 xmlns:xlink="http://www.w3.org/1999/xlink">
 <defs>
  <style type="text/css">
   <![CDATA[
    .fil0 {fill:black}
   ]]>
  </style>
 </defs>
 <g id="Layer_x0020_1">
  <metadata id="CorelCorpID_0Corel-Layer"/>
  <path class="fil0" d="M1083 98c-544,0 -985,441 -985,985 0,543 441,984 985,984 543,0 984,-441 984,-984 0,-544 -441,-985 -984,-985zm85 1021l1 6 -201 199 -81 -251 201 -199 80 245zm-264 -99l-9 9 -42 -90 354 -350 29 -29 245 243 -290 286 -88 -266 -199 197zm701 356l0 229 -1045 0 0 -280 372 0 0 33 673 0 0 18zm-487 -89l20 -20 8 9 -20 19 -8 -8zm87 17l-24 17 -8 -11 25 -17 7 11zm-114 -50l19 -23 10 8 -19 24 -10 -9zm-250 -30l-8 8 -20 -20 8 -8 20 20zm-54 43l8 -10 24 17 -7 11 -25 -18zm99 -65l-10 9 -20 -24 10 -8 20 23z"/>
 </g>
</svg>
