<?xml version="1.0" encoding="UTF-8"?>
<!DOCTYPE svg PUBLIC "-//W3C//DTD SVG 1.1//EN" "http://www.w3.org/Graphics/SVG/1.1/DTD/svg11.dtd">
<!-- Creator: CorelDRAW X7 -->
<svg xmlns="http://www.w3.org/2000/svg" xml:space="preserve" width="2.16535in" height="2.16535in" version="1.1" style="shape-rendering:geometricPrecision; text-rendering:geometricPrecision; image-rendering:optimizeQuality; fill-rule:evenodd; clip-rule:evenodd"
viewBox="0 0 2165 2165"
 xmlns:xlink="http://www.w3.org/1999/xlink">
 <defs>
  <style type="text/css">
   <![CDATA[
    .fil0 {fill:black}
   ]]>
  </style>
 </defs>
 <g id="Layer_x0020_1">
  <metadata id="CorelCorpID_0Corel-Layer"/>
  <path class="fil0" d="M1083 98c543,0 984,441 984,985 0,543 -441,984 -984,984 -544,0 -985,-441 -985,-984 0,-544 441,-985 985,-985zm583 1487c16,30 4,67 -28,82 -31,15 -69,3 -85,-27 -41,-79 -74,-168 -95,-263 -22,-93 -33,-193 -33,-294 0,-101 11,-201 33,-295 21,-95 54,-184 95,-263 16,-29 54,-41 85,-26 32,15 44,51 28,81 -36,69 -65,149 -84,233 -20,86 -30,177 -30,270 0,92 10,183 30,269 19,85 48,164 84,233zm-1174 -635l334 0c24,0 43,19 43,43l0 172c0,23 -19,43 -43,43l-334 0 0 -258zm406 57l320 0 0 143 -320 0 0 -143zm349 0l46 0c38,0 70,31 70,69l0 6c0,37 -32,68 -70,68l-46 0 0 -143zm-118 -474c61,-8 125,23 157,63 21,27 34,55 39,92 13,104 -65,185 -155,196 -104,13 -186,-65 -197,-154 -7,-56 15,-105 41,-136 3,-4 8,-8 11,-11 29,-29 61,-44 104,-50zm67 249l-9 -24 -77 0 -9 24c-4,10 -7,16 -9,20 -3,3 -7,4 -12,4 -5,0 -9,-1 -13,-5 -4,-3 -6,-7 -6,-12 0,-2 1,-5 2,-8 1,-3 2,-6 4,-11l48 -123c2,-4 3,-8 5,-13 2,-5 4,-9 6,-12 3,-3 6,-6 9,-8 4,-2 8,-3 13,-3 6,0 10,1 14,3 3,2 6,5 8,8 3,3 4,6 6,10 1,4 3,9 6,15l49 122c4,9 6,16 6,20 0,4 -2,8 -6,12 -3,4 -8,5 -13,5 -3,0 -5,0 -8,-1 -2,-1 -4,-3 -5,-4 -1,-2 -3,-5 -5,-9 -1,-4 -3,-7 -4,-10zm-76 -53l28 -78 29 78 -57 0z"/>
 </g>
</svg>
