<?xml version="1.0" encoding="UTF-8"?>
<!DOCTYPE svg PUBLIC "-//W3C//DTD SVG 1.1//EN" "http://www.w3.org/Graphics/SVG/1.1/DTD/svg11.dtd">
<!-- Creator: CorelDRAW X7 -->
<svg xmlns="http://www.w3.org/2000/svg" xml:space="preserve" width="2.16535in" height="2.16535in" version="1.1" style="shape-rendering:geometricPrecision; text-rendering:geometricPrecision; image-rendering:optimizeQuality; fill-rule:evenodd; clip-rule:evenodd"
viewBox="0 0 2165 2165"
 xmlns:xlink="http://www.w3.org/1999/xlink">
 <defs>
  <style type="text/css">
   <![CDATA[
    .fil0 {fill:black}
   ]]>
  </style>
 </defs>
 <g id="Layer_x0020_1">
  <metadata id="CorelCorpID_0Corel-Layer"/>
  <path class="fil0" d="M1083 98c-544,0 -985,441 -985,985 0,543 441,984 985,984 543,0 984,-441 984,-984 0,-544 -441,-985 -984,-985zm23 1138l0 -237c-45,34 -74,51 -90,51 -7,0 -13,-3 -19,-9 -6,-6 -8,-13 -8,-20 0,-9 2,-16 8,-20 5,-4 15,-10 29,-16 21,-10 38,-21 51,-31 12,-11 24,-24 33,-37 10,-14 17,-22 20,-25 2,-3 8,-5 16,-5 9,0 17,4 22,11 6,7 9,17 9,29l0 299c0,35 -12,52 -36,52 -11,0 -19,-3 -26,-10 -6,-7 -9,-18 -9,-32zm-614 -213c0,29 3,72 17,95 10,16 29,30 49,36 19,4 40,5 58,-3 13,-6 15,-7 25,-15l10 -10c27,-34 11,-68 11,-104 0,-39 14,-86 32,-114 13,-22 19,-32 39,-51 20,-19 36,-31 62,-43 30,-14 73,-25 114,-25l332 0c16,0 28,6 35,15 10,13 10,21 10,41 0,17 0,33 0,50 -1,15 4,29 24,29 9,0 15,-6 21,-10l239 -168c7,-5 12,-8 17,-14 10,-14 10,-33 1,-47 -7,-11 -41,-32 -53,-40 -25,-18 -48,-34 -73,-52l-128 -90c-13,-10 -15,-11 -25,-11l-4 0 0 0c-8,0 -19,9 -20,22 0,15 2,71 0,80 -3,25 -22,36 -48,36l-302 0c-13,0 -30,-1 -42,0 -13,1 -28,2 -40,3 -44,5 -94,20 -132,37 -27,13 -43,22 -67,38 -4,4 -8,6 -12,9 -18,14 -39,34 -54,50 -4,4 -7,8 -10,12 -6,7 -12,15 -18,23l-16 26c-33,61 -52,118 -52,194l0 1zm1007 60c0,27 5,33 5,60 0,57 -28,124 -72,165 -47,44 -106,69 -176,69l-331 0c-17,0 -29,-7 -36,-16 -10,-13 -9,-20 -9,-41 0,-16 0,-33 0,-49 0,-16 -4,-29 -25,-29 -10,0 -27,14 -39,22l-183 129c-13,9 -25,17 -37,26 -14,9 -23,16 -25,36 -1,8 3,19 6,24 9,13 39,31 53,41l201 142c16,11 13,11 30,11 7,0 19,-8 19,-21 0,-16 -1,-72 0,-81 4,-24 23,-35 49,-35l301 0c41,0 41,0 82,-4 84,-8 178,-50 235,-104 25,-24 39,-37 59,-65 43,-63 67,-145 67,-221 0,-27 -3,-73 -16,-94 -21,-34 -70,-50 -108,-34 -12,6 -21,11 -30,21 -11,13 -20,28 -20,48z"/>
 </g>
</svg>
