<?xml version="1.0" encoding="UTF-8"?>
<!DOCTYPE svg PUBLIC "-//W3C//DTD SVG 1.1//EN" "http://www.w3.org/Graphics/SVG/1.1/DTD/svg11.dtd">
<!-- Creator: CorelDRAW X7 -->
<svg xmlns="http://www.w3.org/2000/svg" xml:space="preserve" width="2.16535in" height="2.16535in" version="1.1" style="shape-rendering:geometricPrecision; text-rendering:geometricPrecision; image-rendering:optimizeQuality; fill-rule:evenodd; clip-rule:evenodd"
viewBox="0 0 2165 2165"
 xmlns:xlink="http://www.w3.org/1999/xlink">
 <defs>
  <style type="text/css">
   <![CDATA[
    .fil0 {fill:black}
   ]]>
  </style>
 </defs>
 <g id="Layer_x0020_1">
  <metadata id="CorelCorpID_0Corel-Layer"/>
  <path class="fil0" d="M1083 98c-544,0 -985,441 -985,985 0,543 441,984 985,984 543,0 984,-441 984,-984 0,-544 -441,-985 -984,-985zm-553 1177c13,1 19,-10 27,-18l77 -69c25,-23 50,-49 78,-68l37 -35c6,-7 8,-6 14,-11 7,-6 5,-7 12,-13l116 -101c13,-13 39,-39 52,-47l125 171c-11,15 -25,24 -38,36 -6,5 -6,7 -11,13l-15 13c-33,30 -87,74 -113,102 -46,50 -103,91 -151,139l-18 18c-1,1 -3,2 -3,3 0,0 -1,1 -2,1l-28 27c-9,7 -21,12 -23,27 9,4 23,30 33,40 23,22 61,33 92,24l139 -52c11,-4 20,-5 30,-9 9,-4 18,-9 27,-12l112 -41c37,-14 72,-25 99,-61 4,4 13,13 17,17 3,6 3,7 5,11 5,8 4,5 9,11l43 61c13,22 21,52 24,79 4,34 15,79 38,100 6,6 12,10 18,15 21,17 55,24 83,27 4,-11 5,-6 14,-14 7,-5 8,-9 14,-14l106 -92c10,-12 33,-27 44,-41 8,-9 8,-6 16,-12 10,-9 2,-8 14,-17 9,-7 23,-17 30,-27 -2,-12 -11,-20 -17,-29 -8,-11 -14,-19 -22,-30l-246 -344c-11,-15 -35,-44 -42,-59 15,-19 116,-105 142,-129 8,-7 16,-10 19,-24 -18,-7 -27,-30 -50,-35 -25,-6 -47,-8 -68,2 -43,19 -75,67 -108,88 -9,6 -7,2 -17,10 -11,10 -19,20 -31,27 -13,-28 -48,-67 -67,-94 -8,-11 -19,-21 -21,-35 9,-2 60,-52 70,-61l33 -31c27,-25 53,-49 57,-93 2,-29 -8,-77 -28,-86l-159 142c-12,-24 -78,-110 -98,-138 -6,-8 -11,-14 -16,-23 -7,-8 -10,-18 -20,-22 -4,2 -274,241 -288,258l-151 281c-9,16 -48,85 -49,98l-3 36c-2,24 -1,47 11,69 7,13 24,29 26,41z"/>
 </g>
</svg>
