<?xml version="1.0" encoding="UTF-8"?>
<!DOCTYPE svg PUBLIC "-//W3C//DTD SVG 1.1//EN" "http://www.w3.org/Graphics/SVG/1.1/DTD/svg11.dtd">
<!-- Creator: CorelDRAW X7 -->
<svg xmlns="http://www.w3.org/2000/svg" xml:space="preserve" width="2.16535in" height="2.16535in" version="1.1" style="shape-rendering:geometricPrecision; text-rendering:geometricPrecision; image-rendering:optimizeQuality; fill-rule:evenodd; clip-rule:evenodd"
viewBox="0 0 2165 2165"
 xmlns:xlink="http://www.w3.org/1999/xlink">
 <defs>
  <style type="text/css">
   <![CDATA[
    .fil0 {fill:black}
   ]]>
  </style>
 </defs>
 <g id="Layer_x0020_1">
  <metadata id="CorelCorpID_0Corel-Layer"/>
  <path class="fil0" d="M1083 2067c543,0 984,-441 984,-984 0,-544 -441,-985 -984,-985 -544,0 -985,441 -985,985 0,543 441,984 985,984zm-229 -269l0 -394 -147 0 0 -53 354 0 0 53 -147 0 0 394 -60 0zm249 -143l56 -5c2,22 8,41 18,55 10,15 25,26 45,35 20,9 43,13 69,13 22,0 42,-3 59,-10 18,-6 30,-16 39,-27 8,-12 13,-25 13,-39 0,-14 -4,-26 -13,-36 -8,-11 -21,-20 -40,-27 -12,-4 -38,-12 -80,-22 -41,-9 -69,-19 -86,-27 -21,-12 -37,-26 -47,-42 -11,-17 -16,-35 -16,-56 0,-23 6,-44 19,-63 13,-20 32,-35 56,-45 25,-10 52,-15 82,-15 33,0 63,5 88,16 25,10 45,26 58,47 14,21 21,44 22,70l-56 5c-4,-29 -14,-50 -31,-64 -18,-15 -44,-22 -78,-22 -36,0 -62,7 -79,20 -16,13 -24,29 -24,47 0,16 6,30 17,40 12,10 41,21 89,32 48,11 81,20 99,28 26,12 46,27 58,46 12,18 18,39 18,63 0,24 -6,46 -20,67 -14,21 -33,38 -59,49 -25,12 -54,18 -86,18 -40,0 -74,-6 -101,-18 -28,-12 -49,-29 -64,-53 -16,-24 -24,-50 -25,-80zm-47 -1071c-220,39 -159,344 61,304 79,-15 150,-92 128,-185 -16,-72 -94,-137 -189,-119zm10 76c-113,28 -68,175 40,151 38,-9 69,-50 57,-97 -9,-35 -53,-65 -97,-54zm507 85c-76,143 -264,345 -502,340 -166,-4 -313,-113 -406,-231 -15,-19 -30,-38 -44,-58 -14,-22 -37,-46 -29,-68 30,-72 140,-187 190,-227 137,-110 304,-155 486,-73 135,61 329,270 305,317zm-891 -6c18,-55 118,-146 153,-177 198,-174 427,-98 577,73 13,14 70,82 70,99 1,29 -180,270 -393,274 -186,4 -345,-160 -407,-269z"/>
 </g>
</svg>
