<?xml version="1.0" encoding="UTF-8"?>
<!DOCTYPE svg PUBLIC "-//W3C//DTD SVG 1.1//EN" "http://www.w3.org/Graphics/SVG/1.1/DTD/svg11.dtd">
<!-- Creator: CorelDRAW X7 -->
<svg xmlns="http://www.w3.org/2000/svg" xml:space="preserve" width="2.16535in" height="2.16535in" version="1.1" style="shape-rendering:geometricPrecision; text-rendering:geometricPrecision; image-rendering:optimizeQuality; fill-rule:evenodd; clip-rule:evenodd"
viewBox="0 0 2165 2165"
 xmlns:xlink="http://www.w3.org/1999/xlink">
 <defs>
  <style type="text/css">
   <![CDATA[
    .fil0 {fill:black;fill-rule:nonzero}
   ]]>
  </style>
 </defs>
 <g id="Layer_x0020_1">
  <metadata id="CorelCorpID_0Corel-Layer"/>
  <path class="fil0" d="M1083 98c271,0 517,111 696,289 178,178 288,424 288,696 0,271 -110,517 -288,696 -179,178 -425,288 -696,288 -272,0 -518,-110 -696,-288 -178,-179 -289,-425 -289,-696 0,-272 111,-518 289,-696 178,-178 424,-289 696,-289zm375 1130l215 -589c-48,29 -96,47 -144,57l0 -204 -142 0 0 204c-48,-10 -96,-28 -144,-57l215 589zm51 177c13,14 21,32 21,52 0,20 -8,39 -21,52 -13,13 -31,21 -51,21 -20,0 -38,-8 -51,-21 -13,-13 -21,-32 -21,-52 0,-20 8,-38 21,-52 13,-13 31,-21 51,-21 20,0 38,8 51,21zm-51 -104c-43,0 -82,18 -110,46 -28,28 -45,67 -45,110 0,43 17,82 45,110 28,29 67,46 110,46 43,0 82,-17 110,-46 28,-28 46,-67 46,-110 0,-43 -18,-82 -46,-110 -28,-28 -67,-46 -110,-46zm-227 156l-591 -216c28,49 47,97 56,145l-204 0 0 143 204 0c-9,47 -28,96 -56,144l591 -216z"/>
 </g>
</svg>
