<?xml version="1.0" encoding="UTF-8"?>
<!DOCTYPE svg PUBLIC "-//W3C//DTD SVG 1.1//EN" "http://www.w3.org/Graphics/SVG/1.1/DTD/svg11.dtd">
<!-- Creator: CorelDRAW X7 -->
<svg xmlns="http://www.w3.org/2000/svg" xml:space="preserve" width="2.16535in" height="2.16535in" version="1.1" style="shape-rendering:geometricPrecision; text-rendering:geometricPrecision; image-rendering:optimizeQuality; fill-rule:evenodd; clip-rule:evenodd"
viewBox="0 0 2165 2165"
 xmlns:xlink="http://www.w3.org/1999/xlink">
 <defs>
  <style type="text/css">
   <![CDATA[
    .fil0 {fill:black}
   ]]>
  </style>
 </defs>
 <g id="Layer_x0020_1">
  <metadata id="CorelCorpID_0Corel-Layer"/>
  <path class="fil0" d="M1083 2067c-544,0 -985,-441 -985,-984 0,-544 441,-985 985,-985 543,0 984,441 984,985 0,543 -441,984 -984,984zm-229 -269l60 0 0 -394 147 0 0 -53 -354 0 0 53 147 0 0 394zm249 -143c1,30 9,56 25,80 15,24 36,41 64,53 27,12 61,18 101,18 32,0 61,-6 86,-18 26,-11 45,-28 59,-49 14,-21 20,-43 20,-67 0,-24 -6,-45 -18,-63 -12,-19 -32,-34 -58,-46 -18,-8 -51,-17 -99,-28 -48,-11 -77,-22 -89,-32 -11,-10 -17,-24 -17,-40 0,-18 8,-34 24,-47 17,-13 43,-20 79,-20 34,0 60,7 78,22 17,14 27,35 31,64l56 -5c-1,-26 -8,-49 -22,-70 -13,-21 -33,-37 -58,-47 -25,-11 -55,-16 -88,-16 -30,0 -57,5 -82,15 -24,10 -43,25 -56,45 -13,19 -19,40 -19,63 0,21 5,39 16,56 10,16 26,30 47,42 17,8 45,18 86,27 42,10 68,18 80,22 19,7 32,16 40,27 9,10 13,22 13,36 0,14 -5,27 -13,39 -9,11 -21,21 -39,27 -17,7 -37,10 -59,10 -26,0 -49,-4 -69,-13 -20,-9 -35,-20 -45,-35 -10,-14 -16,-33 -18,-55l-56 5zm10 -825c-87,14 -138,-40 -125,-124l125 124zm-429 -94c53,-88 85,-119 150,-180l104 99c-8,33 -25,70 -16,114 23,113 151,153 242,108l95 95c-64,21 -97,49 -184,47 -71,-1 -124,-24 -173,-51 -72,-40 -195,-166 -218,-232zm-42 -366l130 125 -74 80c-30,32 -74,98 -98,141 -16,30 -10,28 7,56 119,186 329,400 611,305 40,-13 76,-37 104,-46l139 136c20,-9 59,-46 67,-64 -68,-51 -784,-777 -825,-799 -19,14 -51,41 -61,66zm273 36l60 64c142,-33 213,-21 318,53 40,28 81,60 108,95 22,28 71,82 85,119l-99 137c24,16 34,38 60,52 147,-202 167,-163 61,-308 -40,-54 -119,-133 -176,-168 -36,-23 -73,-43 -118,-58 -127,-42 -195,-15 -299,14zm335 329c-6,-94 -66,-156 -164,-161 17,29 55,58 81,83 22,21 61,64 83,78z"/>
 </g>
</svg>
