<?xml version="1.0" encoding="UTF-8"?>
<!DOCTYPE svg PUBLIC "-//W3C//DTD SVG 1.1//EN" "http://www.w3.org/Graphics/SVG/1.1/DTD/svg11.dtd">
<!-- Creator: CorelDRAW X7 -->
<svg xmlns="http://www.w3.org/2000/svg" xml:space="preserve" width="2.16535in" height="2.16535in" version="1.1" style="shape-rendering:geometricPrecision; text-rendering:geometricPrecision; image-rendering:optimizeQuality; fill-rule:evenodd; clip-rule:evenodd"
viewBox="0 0 2165 2165"
 xmlns:xlink="http://www.w3.org/1999/xlink">
 <defs>
  <style type="text/css">
   <![CDATA[
    .fil0 {fill:black}
   ]]>
  </style>
 </defs>
 <g id="Layer_x0020_1">
  <metadata id="CorelCorpID_0Corel-Layer"/>
  <path class="fil0" d="M1083 98c-544,0 -985,441 -985,985 0,543 441,984 985,984 543,0 984,-441 984,-984 0,-544 -441,-985 -984,-985zm590 852l-333 0c-24,0 -44,19 -44,43l0 172c0,23 20,43 44,43l333 0 0 -258zm-406 57l-319 0 0 143 319 0 0 -143zm-348 0l-47 0c-38,0 -69,31 -69,69l0 6c0,37 31,68 69,68l47 0 0 -143zm-420 578c-16,30 -3,67 28,82 31,15 69,3 85,-27 42,-79 74,-168 95,-263 22,-93 33,-193 33,-294 0,-101 -11,-201 -33,-295 -21,-95 -53,-184 -95,-263 -16,-29 -54,-41 -85,-26 -31,15 -44,51 -28,81 37,69 65,149 84,233 20,86 30,177 30,270 0,92 -10,183 -30,269 -19,85 -47,164 -84,233zm538 -1052c-62,-8 -126,23 -158,63 -21,27 -34,55 -39,92 -12,104 65,185 155,196 105,13 186,-65 197,-154 7,-56 -15,-105 -40,-136 -3,-4 -8,-8 -12,-11 -29,-29 -60,-44 -103,-50zm-18 270c10,0 18,0 26,-1 7,-1 14,-3 20,-5 9,-4 16,-11 22,-19 5,-8 8,-18 8,-29 0,-23 -13,-38 -37,-46 18,-9 28,-22 28,-41 0,-6 -1,-11 -3,-16 -2,-5 -4,-10 -8,-14 -3,-4 -7,-7 -11,-10 -6,-3 -12,-5 -18,-6 -7,-1 -15,-2 -24,-2l-61 0c-8,0 -14,2 -18,6 -4,3 -5,9 -5,18l0 142c0,8 1,14 5,18 4,3 10,5 18,5l58 0zm-3 -84l-40 0 0 56 41 0c26,0 39,-10 39,-28 0,-10 -3,-17 -10,-21 -7,-5 -17,-7 -30,-7zm-40 -76l0 49 35 0c10,0 17,-1 22,-3 5,-2 9,-5 12,-10 2,-4 3,-8 3,-12 0,-10 -3,-16 -10,-19 -7,-3 -17,-5 -31,-5l-31 0z"/>
 </g>
</svg>
