<?xml version="1.0" encoding="UTF-8"?>
<!DOCTYPE svg PUBLIC "-//W3C//DTD SVG 1.1//EN" "http://www.w3.org/Graphics/SVG/1.1/DTD/svg11.dtd">
<!-- Creator: CorelDRAW X7 -->
<svg xmlns="http://www.w3.org/2000/svg" xml:space="preserve" width="2.16535in" height="2.16535in" version="1.1" style="shape-rendering:geometricPrecision; text-rendering:geometricPrecision; image-rendering:optimizeQuality; fill-rule:evenodd; clip-rule:evenodd"
viewBox="0 0 2165 2165"
 xmlns:xlink="http://www.w3.org/1999/xlink">
 <defs>
  <style type="text/css">
   <![CDATA[
    .fil0 {fill:black}
   ]]>
  </style>
 </defs>
 <g id="Layer_x0020_1">
  <metadata id="CorelCorpID_0Corel-Layer"/>
  <path class="fil0" d="M1083 98c-544,0 -985,441 -985,985 0,543 441,984 985,984 543,0 984,-441 984,-984 0,-544 -441,-985 -984,-985zm-516 474l72 0 0 131 -72 0 0 -109 0 -22zm-75 0l0 126c0,40 40,83 77,83l810 0c31,0 72,-44 72,-78l0 -131c0,-37 -41,-80 -77,-80l-807 0c-33,0 -75,44 -75,80zm147 340l0 132 -72 0 0 -129 72 -3zm-147 0l0 132c0,12 5,22 9,30 9,17 22,29 39,39 8,5 17,8 29,8l584 0c4,0 23,-19 27,-23 44,-41 119,-74 178,-79 31,-2 65,-2 93,5 0,-37 6,-105 -4,-132 -9,-27 -39,-59 -73,-59l-807 0c-33,0 -75,44 -75,79zm75 455l0 -114 72 0 0 131 -72 1 0 -18zm-75 -114l0 132c0,25 23,56 47,68 10,5 17,9 30,9l500 0c-1,-21 -10,-37 -10,-105 0,-72 29,-141 56,-184l-523 0c-34,0 -49,1 -68,20 -13,12 -32,34 -32,60zm714 102l0 -23 147 0 0 -159 75 0 0 159 147 0 0 77 -147 0 0 160 -75 0 1 -160 -148 0 0 -54zm-100 15c0,237 256,402 462,236 7,-6 12,-11 18,-18 51,-48 87,-130 87,-203 0,-81 -12,-126 -52,-189 -12,-20 -24,-33 -40,-48 -4,-4 -5,-6 -9,-9l-40 -30c-145,-83 -309,-34 -389,114 -4,8 -8,14 -12,24 -13,32 -25,78 -25,123z"/>
 </g>
</svg>
