<?xml version="1.0" encoding="UTF-8"?>
<!DOCTYPE svg PUBLIC "-//W3C//DTD SVG 1.1//EN" "http://www.w3.org/Graphics/SVG/1.1/DTD/svg11.dtd">
<!-- Creator: CorelDRAW X7 -->
<svg xmlns="http://www.w3.org/2000/svg" xml:space="preserve" width="2.16535in" height="2.16535in" version="1.1" style="shape-rendering:geometricPrecision; text-rendering:geometricPrecision; image-rendering:optimizeQuality; fill-rule:evenodd; clip-rule:evenodd"
viewBox="0 0 2165 2165"
 xmlns:xlink="http://www.w3.org/1999/xlink">
 <defs>
  <style type="text/css">
   <![CDATA[
    .fil0 {fill:black}
   ]]>
  </style>
 </defs>
 <g id="Layer_x0020_1">
  <metadata id="CorelCorpID_0Corel-Layer"/>
  <path class="fil0" d="M1083 98c-544,0 -985,441 -985,985 0,543 441,984 985,984 543,0 984,-441 984,-984 0,-544 -441,-985 -984,-985zm-412 1181c0,76 62,137 138,137 76,0 137,-61 137,-137 0,-76 -61,-138 -137,-138 -76,0 -138,62 -138,138zm509 295c6,0 8,-2 8,-8l0 -163c23,-1 81,-11 104,-17 60,-14 120,-38 171,-72 73,-48 129,-115 167,-193 7,-13 90,-253 29,-167 -20,30 -29,37 -48,61 -18,22 -57,60 -79,76 -22,17 -55,41 -78,54 -65,35 -186,68 -258,54 -13,-3 -11,-2 -11,-18 1,-40 4,-148 -2,-174 -10,0 -12,2 -25,14l-75 62c-6,5 -7,4 -12,9 -31,24 -69,54 -106,83 22,29 36,65 36,105 0,44 -17,84 -45,114l58 47c5,3 6,6 11,10l75 61c6,4 7,4 12,9l43 36c5,4 20,17 25,17zm-247 -808l44 2c22,3 15,2 15,75 0,35 -5,88 3,118 10,-1 11,-3 25,-15 7,-7 13,-11 21,-18l132 -105c14,-12 28,-23 43,-35l110 -87c39,-29 16,-26 -20,-59 -8,-7 -14,-11 -22,-18l-75 -62c-38,-33 -106,-82 -144,-116 -6,-5 -62,-53 -68,-53 -6,0 -8,2 -8,8l0 163c-81,2 -207,44 -275,89 -25,17 -44,33 -66,54 -81,77 -150,213 -150,328 8,-6 47,-58 58,-70 26,-32 56,-62 88,-88 25,-20 51,-37 78,-53 56,-32 141,-58 211,-58z"/>
 </g>
</svg>
