<?xml version="1.0" encoding="UTF-8"?>
<!DOCTYPE svg PUBLIC "-//W3C//DTD SVG 1.1//EN" "http://www.w3.org/Graphics/SVG/1.1/DTD/svg11.dtd">
<!-- Creator: CorelDRAW X7 -->
<svg xmlns="http://www.w3.org/2000/svg" xml:space="preserve" width="2.16535in" height="2.16535in" version="1.1" style="shape-rendering:geometricPrecision; text-rendering:geometricPrecision; image-rendering:optimizeQuality; fill-rule:evenodd; clip-rule:evenodd"
viewBox="0 0 2165 2165"
 xmlns:xlink="http://www.w3.org/1999/xlink">
 <defs>
  <style type="text/css">
   <![CDATA[
    .fil0 {fill:black}
   ]]>
  </style>
 </defs>
 <g id="Layer_x0020_1">
  <metadata id="CorelCorpID_0Corel-Layer"/>
  <path class="fil0" d="M1083 98c-544,0 -985,441 -985,985 0,543 441,984 985,984 543,0 984,-441 984,-984 0,-544 -441,-985 -984,-985zm158 1575c12,0 135,-40 162,-47 8,-3 10,-2 15,-6l139 -139c11,-11 82,-80 85,-85 -3,-6 -62,-64 -72,-74 -11,-10 -66,-69 -73,-73 -28,31 -58,61 -87,92l-125 133c-4,3 -3,2 -7,4 -5,5 -19,56 -22,68 -8,24 -24,82 -32,103 -5,14 3,24 17,24zm-383 -533l32 0 0 159 -32 0c-5,0 -10,-3 -10,-8l0 -33 -72 0c-3,0 -6,-2 -6,-6l0 -59c0,-3 3,-6 6,-6l72 0 0 -39c0,-4 5,-8 10,-8zm54 -20l185 0c3,0 6,3 6,5l0 187c0,3 -3,5 -6,5l-185 0c-3,0 -6,-2 -6,-5l0 -187c0,-2 3,-5 6,-5zm239 20l-32 0 0 159 32 0c6,0 10,-3 10,-8l0 -33 72 0c4,0 7,-2 7,-6l0 -59c0,-3 -3,-6 -7,-6l-72 0 0 -39c0,-4 -4,-8 -10,-8zm-24 491c0,-14 7,-32 10,-45 3,-10 12,-37 12,-45 -56,-2 -117,0 -174,0 -59,0 -117,0 -176,0 -27,0 -57,3 -81,-7 -21,-9 -36,-24 -46,-43 -13,-25 -10,-45 -10,-76l0 -703c0,-30 -3,-54 10,-79 9,-18 25,-33 45,-42 24,-10 52,-8 81,-8l218 0c17,0 27,-2 38,7 16,12 18,44 19,70 0,31 -4,153 4,172 10,24 31,25 62,25 35,0 145,-3 172,4 29,7 35,20 35,53 0,117 -1,235 0,352 6,-4 70,-69 81,-79 14,-15 11,-9 11,-43 0,-71 0,-142 0,-214 0,-28 3,-77 -5,-101 -14,-43 -64,-91 -94,-121 -8,-8 -17,-19 -26,-26 -15,-12 -31,-27 -42,-40 -15,-17 -60,-64 -79,-81 -5,-4 -9,-9 -15,-13 -70,-57 -66,-56 -159,-56 -71,0 -143,0 -214,0 -36,0 -67,-2 -100,7 -27,8 -55,24 -70,38 -39,37 -63,74 -63,151l0 749c0,37 4,61 18,91 20,43 62,82 116,97 32,9 66,7 100,7 27,0 309,1 322,-1zm421 -427l135 135c4,-2 60,-55 66,-69 8,-19 -1,-40 -10,-53 -8,-10 -24,-24 -34,-34 -24,-23 -49,-59 -86,-45 -15,6 -43,35 -54,48 -5,6 -12,11 -17,18z"/>
 </g>
</svg>
