<?xml version="1.0" encoding="UTF-8"?>
<!DOCTYPE svg PUBLIC "-//W3C//DTD SVG 1.1//EN" "http://www.w3.org/Graphics/SVG/1.1/DTD/svg11.dtd">
<!-- Creator: CorelDRAW X7 -->
<svg xmlns="http://www.w3.org/2000/svg" xml:space="preserve" width="2.16535in" height="2.16535in" version="1.1" style="shape-rendering:geometricPrecision; text-rendering:geometricPrecision; image-rendering:optimizeQuality; fill-rule:evenodd; clip-rule:evenodd"
viewBox="0 0 2165 2165"
 xmlns:xlink="http://www.w3.org/1999/xlink">
 <defs>
  <style type="text/css">
   <![CDATA[
    .fil0 {fill:black}
   ]]>
  </style>
 </defs>
 <g id="Layer_x0020_1">
  <metadata id="CorelCorpID_0Corel-Layer"/>
  <path class="fil0" d="M1083 98c-544,0 -985,441 -985,985 0,543 441,984 985,984 543,0 984,-441 984,-984 0,-544 -441,-985 -984,-985zm-591 1218c0,22 11,23 29,33 14,9 104,65 112,65 14,0 28,-12 28,-27 0,-22 -37,-36 -64,-52 -13,-8 -24,-15 -37,-23 -15,-9 -29,-20 -44,-20 -13,0 -24,11 -24,24zm0 -152c0,20 9,22 27,32 28,16 195,118 208,121 13,3 29,-8 29,-27 0,-16 -11,-21 -21,-26 -23,-14 -203,-124 -214,-124 -16,0 -29,7 -29,24zm0 -153c0,14 2,17 13,25l105 62c24,14 203,123 213,123 32,0 39,-34 15,-49l-104 -62c-15,-9 -28,-16 -42,-24 -18,-11 -161,-99 -171,-99 -16,0 -29,7 -29,24zm931 -307c-15,-8 -27,-15 -42,-24l-259 -153c-58,-35 -39,-32 -158,39l-240 142c-7,4 -11,7 -19,11l-147 87c-35,21 -66,30 -66,58 0,19 32,31 46,39 19,11 36,21 54,32 37,22 73,43 110,64 15,10 205,127 219,127 27,0 35,-31 17,-46 -18,-16 -139,-83 -158,-95l-159 -94c-17,-10 -38,-19 -53,-32 16,-4 419,-245 443,-260 10,-6 57,-37 65,-38 5,0 32,18 38,22l271 159c-9,14 -42,43 -55,57 -19,19 -37,36 -56,56l-757 757c-11,10 -25,21 -25,37 0,17 14,24 29,24 14,0 44,-36 55,-47 24,-24 138,-142 154,-153 34,22 72,43 106,63l213 126c32,19 34,11 67,-8l74 -43c6,-3 11,-6 18,-10l423 -251c11,-7 30,-14 30,-29 0,-19 -11,-29 -28,-29 -10,0 -28,14 -37,18 -53,30 -119,70 -172,102 -24,14 -46,27 -70,42 -38,22 -270,162 -278,162 -8,0 -67,-38 -77,-44 -13,-8 -25,-16 -38,-23 -13,-7 -25,-15 -39,-23 -37,-20 -120,-68 -154,-91l57 -58 215 127c49,26 34,24 114,-24l402 -238c6,-4 12,-6 19,-10 7,-5 10,-7 19,-12 15,-8 67,-35 67,-52 0,-32 -27,-33 -47,-21 -86,54 -174,102 -260,154 -46,28 -93,54 -138,82 -23,13 -46,26 -69,40 -11,7 -62,41 -71,41 -4,0 -46,-26 -54,-31l-158 -93 56 -58c15,5 63,36 76,44l56 33c32,20 36,8 102,-32l441 -260c24,-15 66,-33 66,-53 0,-17 -13,-27 -28,-27 -12,0 -128,72 -140,79 -25,16 -409,245 -417,245 -13,0 -95,-60 -117,-66l58 -59c63,41 56,36 99,11 13,-7 25,-14 38,-22l146 -87c26,-15 50,-29 75,-44l258 -152c13,-8 28,-14 28,-33 0,-18 -27,-30 -41,-38l-149 -88c11,-17 130,-131 154,-156 11,-11 48,-42 48,-56 0,-18 -9,-29 -28,-29 -15,0 -47,38 -58,50 -25,24 -147,151 -164,162zm-367 445c3,-11 83,-86 93,-95 23,-23 272,-275 284,-283l112 66c6,4 11,7 18,11 7,5 12,7 20,11 -6,7 -52,32 -63,39l-428 253c-18,11 -19,7 -36,-2z"/>
 </g>
</svg>
