<?xml version="1.0" encoding="UTF-8"?>
<!DOCTYPE svg PUBLIC "-//W3C//DTD SVG 1.1//EN" "http://www.w3.org/Graphics/SVG/1.1/DTD/svg11.dtd">
<!-- Creator: CorelDRAW X7 -->
<svg xmlns="http://www.w3.org/2000/svg" xml:space="preserve" width="2.16535in" height="2.16535in" version="1.1" style="shape-rendering:geometricPrecision; text-rendering:geometricPrecision; image-rendering:optimizeQuality; fill-rule:evenodd; clip-rule:evenodd"
viewBox="0 0 2165 2165"
 xmlns:xlink="http://www.w3.org/1999/xlink">
 <defs>
  <style type="text/css">
   <![CDATA[
    .fil0 {fill:black}
   ]]>
  </style>
 </defs>
 <g id="Layer_x0020_1">
  <metadata id="CorelCorpID_0Corel-Layer"/>
  <path class="fil0" d="M1083 98c-544,0 -985,441 -985,985 0,543 441,984 985,984 543,0 984,-441 984,-984 0,-544 -441,-985 -984,-985zm-290 1562l826 -502c26,-16 42,-44 42,-75 0,-32 -16,-59 -42,-75l-826 -503c-27,-17 -59,-17 -87,-1 -28,16 -44,44 -44,76l0 1005c0,33 16,61 44,76 28,17 60,16 87,-1z"/>
 </g>
</svg>
