<?xml version="1.0" encoding="UTF-8"?>
<!DOCTYPE svg PUBLIC "-//W3C//DTD SVG 1.1//EN" "http://www.w3.org/Graphics/SVG/1.1/DTD/svg11.dtd">
<!-- Creator: CorelDRAW X7 -->
<svg xmlns="http://www.w3.org/2000/svg" xml:space="preserve" width="2.16535in" height="2.16535in" version="1.1" style="shape-rendering:geometricPrecision; text-rendering:geometricPrecision; image-rendering:optimizeQuality; fill-rule:evenodd; clip-rule:evenodd"
viewBox="0 0 2165 2165"
 xmlns:xlink="http://www.w3.org/1999/xlink">
 <defs>
  <style type="text/css">
   <![CDATA[
    .fil0 {fill:black}
   ]]>
  </style>
 </defs>
 <g id="Layer_x0020_1">
  <metadata id="CorelCorpID_0Corel-Layer"/>
  <path class="fil0" d="M1083 98c-544,0 -985,441 -985,985 0,543 441,984 985,984 543,0 984,-441 984,-984 0,-544 -441,-985 -984,-985zm-573 407l548 0 0 564 -548 0 0 -564zm-25 -13l0 591c0,7 5,12 12,12l574 0c7,0 12,-5 12,-12l0 -593c0,-4 -6,-10 -10,-10l-579 0c-5,0 -9,7 -9,12zm63 554l42 0c20,0 21,-26 0,-26l-32 0c0,-60 17,-128 40,-181l8 -19c18,-31 40,-74 66,-100l13 -16c9,6 24,29 35,29 9,0 12,-7 12,-14 0,-7 -9,-14 -13,-18 -5,-5 -11,-10 -15,-16 4,-4 10,-9 14,-13 20,-20 70,-53 97,-67 31,-16 65,-28 99,-37 15,-4 30,-6 46,-9 14,-2 34,-4 50,-4 0,26 -5,49 13,49 8,0 12,-7 12,-16l0 -45c0,-8 -6,-14 -12,-14 -51,0 -114,10 -161,27 -8,3 -15,6 -22,9 -29,12 -58,27 -83,44 -4,3 -7,5 -10,7 -29,20 -54,43 -78,67 -5,6 -10,11 -15,17 -12,14 -32,42 -41,56 -41,62 -68,137 -77,213 -1,9 -2,21 -3,30l-1 31c1,11 5,16 16,16zm380 -70c0,-58 69,-47 69,-7l0 7c0,18 -16,32 -37,32 -16,0 -32,-17 -32,-32zm-181 -211l0 45c0,10 5,15 14,15 13,0 12,-15 12,-29l139 142c-7,14 -9,18 -9,35 0,63 85,86 114,26 12,-24 6,-51 -10,-70 -2,-3 -4,-4 -7,-6 -14,-12 -25,-13 -42,-13 -12,0 -20,5 -28,10l-139 -143c22,-1 29,0 29,-17 0,-5 -6,-10 -12,-10l-49 0c-8,0 -12,7 -12,15zm-155 -186l2 0c1,7 7,16 8,23l-19 0c2,-8 7,-15 9,-23zm-48 99c7,0 10,-2 12,-7l17 -42 40 0 10 27c6,13 6,22 20,22 8,0 9,-10 9,-16l-46 -122c-6,-14 -15,-14 -23,-7 -4,4 -25,61 -27,69l-23 60c-2,8 3,16 11,16zm1122 675c0,-98 -51,-183 -127,-232l-98 213c3,6 4,13 4,20 0,13 -5,25 -14,34l12 234c127,-22 223,-134 223,-269zm-265 308l-14 -260c-21,-5 -37,-24 -37,-47 0,-27 21,-49 47,-49 3,0 6,0 8,1l109 -237c-17,-7 -34,-13 -52,-17 -22,-5 -44,-7 -66,-7 -84,0 -160,34 -215,90 -55,56 -89,133 -89,218 0,85 34,162 89,218 55,56 131,90 215,90l5 0zm-3 -335c16,0 28,12 28,28 0,16 -12,28 -28,28 -15,0 -28,-12 -28,-28 0,-16 13,-28 28,-28z"/>
 </g>
</svg>
