<?xml version="1.0" encoding="UTF-8"?>
<!DOCTYPE svg PUBLIC "-//W3C//DTD SVG 1.1//EN" "http://www.w3.org/Graphics/SVG/1.1/DTD/svg11.dtd">
<!-- Creator: CorelDRAW X7 -->
<svg xmlns="http://www.w3.org/2000/svg" xml:space="preserve" width="2.16535in" height="2.16535in" version="1.1" style="shape-rendering:geometricPrecision; text-rendering:geometricPrecision; image-rendering:optimizeQuality; fill-rule:evenodd; clip-rule:evenodd"
viewBox="0 0 2165 2165"
 xmlns:xlink="http://www.w3.org/1999/xlink">
 <defs>
  <style type="text/css">
   <![CDATA[
    .fil0 {fill:black}
   ]]>
  </style>
 </defs>
 <g id="Layer_x0020_1">
  <metadata id="CorelCorpID_0Corel-Layer"/>
  <path class="fil0" d="M1083 98c-544,0 -985,441 -985,985 0,543 441,984 985,984 543,0 984,-441 984,-984 0,-544 -441,-985 -984,-985zm-94 1312l8 -65c6,1 24,22 29,27 7,7 82,81 84,87 -22,11 -44,22 -66,33 -8,4 -61,32 -66,32l0 0c2,-4 6,-48 6,-57 -6,-1 -47,-17 -51,-19 -24,-10 -27,-13 -47,-24 -18,-9 -35,-23 -51,-35 -2,-2 -3,-3 -5,-5 -13,-11 -28,-25 -39,-39 -2,-2 -2,-2 -4,-4 -2,-2 -2,-3 -4,-5 -15,-19 -32,-42 -43,-63l-17 -36c-3,-8 -17,-43 -18,-53 4,2 3,3 6,10 23,47 48,78 86,112l22 18c18,14 38,28 57,38 30,17 55,29 88,40 6,2 19,7 25,8zm202 -710c12,1 73,29 85,36 25,14 45,26 67,46l23 21c18,18 32,38 47,58 16,23 54,101 54,120 -5,-3 -16,-31 -22,-41 -12,-18 -14,-20 -27,-37 -6,-8 -23,-25 -31,-32 -11,-12 -21,-19 -33,-30l-18 -13c-36,-25 -62,-39 -103,-56 -7,-3 -40,-16 -48,-16 0,4 -1,10 -2,16l-6 49c-9,-6 -20,-19 -28,-27 -10,-10 -19,-19 -29,-29 -7,-7 -43,-43 -49,-50 -2,-3 -5,-4 -6,-8 4,-1 60,-30 65,-33 9,-5 61,-32 66,-33l-5 59zm333 493c-10,0 -40,-5 -56,-5 -3,5 -7,19 -9,25 -12,38 -41,92 -69,124l-42 44c-12,10 -26,22 -39,31 -2,1 -3,2 -5,3 -13,9 -25,15 -39,22 -8,4 -16,8 -24,12 -15,6 -34,14 -51,18 1,-4 2,-4 9,-6 4,-2 7,-4 11,-6 38,-19 60,-38 90,-68l14 -17c2,-2 2,-2 4,-4l10 -14c36,-48 56,-87 77,-145 2,-5 7,-19 7,-24 -4,-1 -10,-2 -16,-2 -4,-1 -12,-2 -16,-3 -6,0 -31,-3 -33,-4 1,-3 3,-5 6,-7 2,-3 5,-5 7,-7 13,-16 65,-67 83,-85 5,-5 9,-11 15,-14 6,11 11,21 17,32 6,13 49,95 49,100zm-539 -493c-3,1 -7,4 -10,5 -4,2 -7,3 -11,5 -7,4 -13,7 -20,11 -17,10 -22,16 -37,27l-20 18c-6,6 -8,10 -12,13 -12,13 -17,20 -29,34l-19 28c-3,3 -4,6 -7,10 -14,21 -34,61 -42,84 -3,7 -15,41 -16,48 12,3 30,3 43,5 5,1 9,1 15,1 -4,7 -75,77 -84,86 -4,4 -26,27 -30,28 -3,-7 -64,-128 -65,-133l0 0c6,1 58,7 66,7 2,-8 6,-17 9,-26 3,-9 6,-17 9,-25 3,-8 7,-16 11,-24 19,-37 53,-84 83,-110 2,-2 2,-2 4,-4 44,-41 92,-67 150,-86 3,-1 12,-5 12,-2zm98 -208c163,0 310,66 417,173 107,107 173,255 173,418 0,163 -66,310 -173,417 -107,107 -254,173 -417,173 -163,0 -311,-66 -418,-173 -107,-107 -173,-254 -173,-417 0,-163 66,-311 173,-418 107,-107 255,-173 418,-173zm362 228c-93,-93 -221,-150 -362,-150 -142,0 -270,57 -363,150 -93,93 -150,221 -150,363 0,141 57,270 150,362 93,93 221,150 363,150 141,0 269,-57 362,-150 93,-92 150,-221 150,-362 0,-142 -57,-270 -150,-363z"/>
 </g>
</svg>
