<?xml version="1.0" encoding="UTF-8"?>
<!DOCTYPE svg PUBLIC "-//W3C//DTD SVG 1.1//EN" "http://www.w3.org/Graphics/SVG/1.1/DTD/svg11.dtd">
<!-- Creator: CorelDRAW X7 -->
<svg xmlns="http://www.w3.org/2000/svg" xml:space="preserve" width="2.16535in" height="2.16535in" version="1.1" style="shape-rendering:geometricPrecision; text-rendering:geometricPrecision; image-rendering:optimizeQuality; fill-rule:evenodd; clip-rule:evenodd"
viewBox="0 0 2165 2165"
 xmlns:xlink="http://www.w3.org/1999/xlink">
 <defs>
  <style type="text/css">
   <![CDATA[
    .fil0 {fill:black}
   ]]>
  </style>
 </defs>
 <g id="Layer_x0020_1">
  <metadata id="CorelCorpID_0Corel-Layer"/>
  <path class="fil0" d="M1083 2067c-544,0 -985,-441 -985,-984 0,-544 441,-985 985,-985 543,0 984,441 984,985 0,543 -441,984 -984,984zm405 -687l-105 284c23,-13 47,-22 70,-27l0 98 71 0 0 -98c23,5 47,14 70,27l-106 -284zm-754 -536l106 -284c-24,13 -48,22 -71,27l0 -98 -70 0 0 98c-24,-5 -47,-14 -71,-27l106 284zm-13 121c41,-7 37,-52 12,-66 -2,-1 -5,-2 -9,-3 -28,-5 -67,12 -86,19 -44,19 -17,79 21,66l62 -16zm234 88c41,25 74,-36 37,-59 -20,-12 -40,-26 -61,-37 -38,-23 -73,37 -34,61 17,11 40,24 58,35zm492 281c47,0 51,-62 6,-69 -18,-2 -42,-7 -60,-14 -41,-16 -65,49 -22,66 26,8 49,15 76,17zm271 -122c36,-36 -17,-81 -46,-52 -17,15 -34,29 -52,42 -13,9 -17,31 -9,45 12,20 32,22 51,11 19,-14 39,-30 56,-46zm-1232 -104c6,-5 12,-11 18,-16 35,-35 -17,-81 -47,-51 -12,10 -23,21 -34,32 -7,1 -13,5 -18,10 -15,15 -15,40 0,56 120,120 241,240 431,176 85,-28 179,-94 274,-161 2,7 6,14 13,18 18,14 39,28 58,41 44,26 74,-37 39,-58l-56 -39 0 0c82,-59 163,-113 230,-135 71,-24 131,-12 185,18 57,31 111,86 165,140 16,15 41,15 56,0 16,-16 16,-41 0,-56 -57,-58 -115,-115 -183,-153 -72,-40 -152,-56 -248,-24 -89,30 -189,101 -289,173 -95,68 -191,136 -269,162 -132,44 -230,-39 -325,-133z"/>
 </g>
</svg>
