<?xml version="1.0" encoding="UTF-8"?>
<!DOCTYPE svg PUBLIC "-//W3C//DTD SVG 1.1//EN" "http://www.w3.org/Graphics/SVG/1.1/DTD/svg11.dtd">
<!-- Creator: CorelDRAW X7 -->
<svg xmlns="http://www.w3.org/2000/svg" xml:space="preserve" width="2.16535in" height="2.16535in" version="1.1" style="shape-rendering:geometricPrecision; text-rendering:geometricPrecision; image-rendering:optimizeQuality; fill-rule:evenodd; clip-rule:evenodd"
viewBox="0 0 2165 2165"
 xmlns:xlink="http://www.w3.org/1999/xlink">
 <defs>
  <style type="text/css">
   <![CDATA[
    .fil0 {fill:black}
   ]]>
  </style>
 </defs>
 <g id="Layer_x0020_1">
  <metadata id="CorelCorpID_0Corel-Layer"/>
  <path class="fil0" d="M1083 2067c-544,0 -985,-441 -985,-984 0,-544 441,-985 985,-985 543,0 984,441 984,985 0,543 -441,984 -984,984zm-59 -425c-8,37 -24,66 -47,85 -23,19 -50,28 -84,28 -27,0 -52,-7 -75,-21 -24,-14 -41,-35 -52,-63 -11,-29 -16,-62 -16,-100 0,-29 4,-58 14,-86 9,-27 25,-50 48,-66 23,-17 52,-25 86,-25 30,0 55,8 75,22 19,15 34,39 45,72l58 -14c-12,-41 -33,-73 -64,-96 -30,-23 -68,-34 -113,-34 -39,0 -75,9 -108,27 -33,18 -58,44 -76,79 -18,34 -27,75 -27,121 0,43 8,83 24,120 16,38 39,66 69,85 30,20 69,30 117,30 47,0 86,-13 118,-38 33,-26 55,-63 67,-111l-59 -15zm246 156l60 0 0 -394 147 0 0 -53 -354 0 0 53 147 0 0 394zm-20 -1066c-6,-95 -66,-156 -164,-162 17,30 55,59 81,84 22,21 61,64 83,78zm-335 -329l60 64c142,-33 213,-21 318,52 40,29 81,61 108,96 22,28 71,82 85,119l-99 137c24,16 34,38 60,52 147,-202 167,-164 61,-308 -40,-54 -119,-133 -176,-169 -36,-22 -73,-42 -118,-57 -127,-42 -195,-15 -299,14zm-273 -36l130 125 -74 80c-30,31 -74,98 -98,141 -16,29 -10,28 7,56 119,186 329,400 611,305 40,-13 76,-37 104,-47l139 137c20,-9 59,-46 67,-64 -68,-51 -784,-777 -825,-800 -19,14 -51,42 -61,67zm42 366c53,-88 85,-119 150,-180l104 99c-8,33 -25,70 -16,114 23,113 151,152 242,108l95 95c-64,21 -97,48 -184,47 -71,-1 -124,-24 -173,-51 -72,-40 -195,-166 -218,-232zm429 94c-87,14 -138,-40 -125,-125l125 125z"/>
 </g>
</svg>
