<?xml version="1.0" encoding="UTF-8"?>
<!DOCTYPE svg PUBLIC "-//W3C//DTD SVG 1.1//EN" "http://www.w3.org/Graphics/SVG/1.1/DTD/svg11.dtd">
<!-- Creator: CorelDRAW X7 -->
<svg xmlns="http://www.w3.org/2000/svg" xml:space="preserve" width="2.16535in" height="2.16535in" version="1.1" style="shape-rendering:geometricPrecision; text-rendering:geometricPrecision; image-rendering:optimizeQuality; fill-rule:evenodd; clip-rule:evenodd"
viewBox="0 0 2165 2165"
 xmlns:xlink="http://www.w3.org/1999/xlink">
 <defs>
  <style type="text/css">
   <![CDATA[
    .fil0 {fill:black}
   ]]>
  </style>
 </defs>
 <g id="Layer_x0020_1">
  <metadata id="CorelCorpID_0Corel-Layer"/>
  <path class="fil0" d="M1083 98c-544,0 -985,441 -985,985 0,543 441,984 985,984 543,0 984,-441 984,-984 0,-544 -441,-985 -984,-985zm-496 949l-95 0 150 285c4,7 7,13 11,20 4,7 9,14 11,22 11,-8 56,-98 67,-119l86 -164c4,-8 7,-13 11,-21 4,-7 9,-14 10,-23l-92 0c0,-76 37,-162 75,-217 8,-11 11,-17 20,-27 9,-9 15,-16 24,-26 124,-134 327,-154 481,-42 11,8 18,13 28,22 83,70 142,199 142,313 0,45 -2,47 -5,86 34,9 73,15 110,21 39,7 43,16 46,-3 25,-157 -28,-360 -124,-473l-31 -37c-46,-49 -94,-86 -156,-118 -140,-73 -306,-69 -448,-3 -64,30 -90,58 -137,97 -68,58 -142,186 -164,284 -5,21 -9,37 -13,59 -2,13 -7,49 -7,64zm771 379c2,9 38,60 43,68 9,13 39,62 47,67 21,-12 66,-57 81,-78 4,-6 8,-9 13,-15 23,-29 35,-47 54,-82 10,-18 29,-54 34,-75 -28,-16 -111,-47 -143,-66 -10,20 -8,22 -25,54 -9,18 -18,32 -30,47 -27,37 -71,75 -74,80zm-214 78l-16 0 0 169c66,0 123,-8 182,-32 14,-6 32,-12 45,-20 -3,-13 -60,-141 -63,-155 -27,7 -66,38 -148,38zm-274 100l73 35c26,11 56,18 85,26 3,-8 29,-153 29,-167l-59 -19c-21,-9 -38,-15 -55,-27 -12,25 -24,49 -36,75 -4,7 -6,10 -10,18 -4,7 -6,12 -9,19 -5,9 -18,29 -18,40z"/>
 </g>
</svg>
