<?xml version="1.0" encoding="UTF-8"?>
<!DOCTYPE svg PUBLIC "-//W3C//DTD SVG 1.1//EN" "http://www.w3.org/Graphics/SVG/1.1/DTD/svg11.dtd">
<!-- Creator: CorelDRAW X7 -->
<svg xmlns="http://www.w3.org/2000/svg" xml:space="preserve" width="2.16535in" height="2.16535in" version="1.1" style="shape-rendering:geometricPrecision; text-rendering:geometricPrecision; image-rendering:optimizeQuality; fill-rule:evenodd; clip-rule:evenodd"
viewBox="0 0 2165 2165"
 xmlns:xlink="http://www.w3.org/1999/xlink">
 <defs>
  <style type="text/css">
   <![CDATA[
    .fil0 {fill:black}
   ]]>
  </style>
 </defs>
 <g id="Layer_x0020_1">
  <metadata id="CorelCorpID_0Corel-Layer"/>
  <path class="fil0" d="M1083 98c-544,0 -985,441 -985,985 0,543 441,984 985,984 543,0 984,-441 984,-984 0,-544 -441,-985 -984,-985zm-158 1346c18,-20 48,-69 65,-96 139,-215 352,-512 478,-716 21,-34 43,-66 66,-98 27,-36 69,-62 112,-21 75,71 -26,180 -56,227 -90,140 -178,269 -274,410l-270 405c-137,206 -114,123 -344,-96 -59,-56 -105,-110 -162,-170 -102,-107 -19,-203 50,-180 21,7 147,143 167,165 21,23 21,23 42,43 36,33 81,97 126,127z"/>
 </g>
</svg>
