<?xml version="1.0" encoding="UTF-8"?>
<!DOCTYPE svg PUBLIC "-//W3C//DTD SVG 1.1//EN" "http://www.w3.org/Graphics/SVG/1.1/DTD/svg11.dtd">
<!-- Creator: CorelDRAW X7 -->
<svg xmlns="http://www.w3.org/2000/svg" xml:space="preserve" width="2.16535in" height="2.16535in" version="1.1" style="shape-rendering:geometricPrecision; text-rendering:geometricPrecision; image-rendering:optimizeQuality; fill-rule:evenodd; clip-rule:evenodd"
viewBox="0 0 2165 2165"
 xmlns:xlink="http://www.w3.org/1999/xlink">
 <defs>
  <style type="text/css">
   <![CDATA[
    .fil0 {fill:black}
   ]]>
  </style>
 </defs>
 <g id="Layer_x0020_1">
  <metadata id="CorelCorpID_0Corel-Layer"/>
  <path class="fil0" d="M1083 98c-544,0 -985,441 -985,985 0,543 441,984 985,984 543,0 984,-441 984,-984 0,-544 -441,-985 -984,-985zm60 1297c0,74 10,111 48,168 9,13 18,22 29,33 5,6 9,10 15,15 7,5 11,10 18,15 54,36 102,47 168,47 64,0 130,-31 174,-76 12,-12 19,-19 29,-33 41,-60 49,-94 49,-169 0,-99 -68,-191 -157,-231 -113,-51 -246,-15 -322,86 -10,13 -16,24 -25,40 -14,25 -26,74 -26,105zm130 -32l90 0 0 -90 90 0 0 83c0,5 2,7 7,7l84 0 0 90 -84 0c-5,0 -7,2 -7,7l0 84 -90 0 0 -91 -90 0 0 -90zm-781 -757l0 752c0,37 13,74 37,98 18,20 54,44 90,44l443 0 -7 -44c-2,-15 -5,-35 -5,-49 -42,0 -416,3 -436,-4 -16,-5 -29,-25 -29,-47l0 -558c0,-33 0,-48 15,-63 14,-14 44,-14 66,-14l771 0c9,0 19,0 28,0 12,1 13,3 25,3 23,0 33,1 44,14 15,18 10,73 10,106 0,77 0,155 0,232 14,9 31,16 47,26 16,10 29,21 45,29 0,-95 0,-191 0,-287 0,-44 5,-103 -10,-133 -13,-29 -42,-60 -72,-72 -34,-14 -86,-10 -133,-10 -44,0 -401,5 -426,-7 0,-26 -5,-37 -13,-54 -23,-46 -68,-76 -129,-76l-231 0c-37,0 -64,18 -85,36 -19,15 -45,60 -45,78z"/>
 </g>
</svg>
