<?xml version="1.0" encoding="UTF-8"?>
<!DOCTYPE svg PUBLIC "-//W3C//DTD SVG 1.1//EN" "http://www.w3.org/Graphics/SVG/1.1/DTD/svg11.dtd">
<!-- Creator: CorelDRAW X7 -->
<svg xmlns="http://www.w3.org/2000/svg" xml:space="preserve" width="2.16535in" height="2.16535in" version="1.1" style="shape-rendering:geometricPrecision; text-rendering:geometricPrecision; image-rendering:optimizeQuality; fill-rule:evenodd; clip-rule:evenodd"
viewBox="0 0 2165 2165"
 xmlns:xlink="http://www.w3.org/1999/xlink">
 <defs>
  <style type="text/css">
   <![CDATA[
    .fil0 {fill:black}
   ]]>
  </style>
 </defs>
 <g id="Layer_x0020_1">
  <metadata id="CorelCorpID_0Corel-Layer"/>
  <path class="fil0" d="M1083 98c-544,0 -985,441 -985,985 0,543 441,984 985,984 543,0 984,-441 984,-984 0,-544 -441,-985 -984,-985zm411 1383c0,-57 92,-70 92,0 0,63 -92,47 -92,0zm-830 -977c35,51 161,126 161,175 0,37 -78,128 -149,128 -25,0 -142,-131 -174,-152 -49,201 89,326 236,326 142,1 146,55 261,156l279 256c79,74 184,210 271,210 64,0 124,-53 124,-122 0,-62 -62,-101 -97,-135l-487 -456c-45,-44 -79,-67 -79,-153 1,-141 -128,-244 -229,-244 -89,0 -46,-4 -117,11zm-106 1006c0,83 93,163 180,163 56,0 64,-38 110,-83l139 -149c16,-18 31,-31 45,-50l71 -125 -141 -135c-22,14 -39,25 -62,37 -18,11 -46,24 -61,36 -41,30 -111,115 -146,148l-95 97c-17,20 -40,34 -40,61zm936 -855c20,40 -6,50 -48,89l-244 220 58 57c18,-11 34,-28 48,-46l156 -149c18,-17 32,-30 50,-47 43,-40 27,-35 60,-42 30,-5 19,6 56,-47 14,-20 29,-38 43,-58 -16,-23 -31,-31 -56,-46 -27,22 -93,54 -123,69z"/>
 </g>
</svg>
