<?xml version="1.0" encoding="UTF-8"?>
<!DOCTYPE svg PUBLIC "-//W3C//DTD SVG 1.1//EN" "http://www.w3.org/Graphics/SVG/1.1/DTD/svg11.dtd">
<!-- Creator: CorelDRAW X7 -->
<svg xmlns="http://www.w3.org/2000/svg" xml:space="preserve" width="2.16535in" height="2.16535in" version="1.1" style="shape-rendering:geometricPrecision; text-rendering:geometricPrecision; image-rendering:optimizeQuality; fill-rule:evenodd; clip-rule:evenodd"
viewBox="0 0 2165 2165"
 xmlns:xlink="http://www.w3.org/1999/xlink">
 <defs>
  <style type="text/css">
   <![CDATA[
    .fil0 {fill:black}
   ]]>
  </style>
 </defs>
 <g id="Layer_x0020_1">
  <metadata id="CorelCorpID_0Corel-Layer"/>
  <path class="fil0" d="M1121 1655l55 -5c3,22 9,41 19,55 10,15 25,26 45,35 20,9 43,13 69,13 22,0 42,-3 59,-10 18,-6 30,-16 39,-27 8,-12 13,-25 13,-39 0,-14 -5,-26 -13,-36 -8,-11 -21,-20 -40,-27 -12,-4 -38,-12 -80,-22 -41,-9 -69,-19 -86,-27 -21,-12 -37,-26 -48,-42 -10,-17 -15,-35 -15,-56 0,-23 6,-44 19,-63 13,-20 31,-35 56,-45 25,-10 52,-15 82,-15 33,0 63,5 88,16 25,10 45,26 58,47 14,21 21,44 22,70l-57 5c-3,-29 -13,-50 -31,-64 -17,-15 -43,-22 -78,-22 -35,0 -61,7 -78,20 -16,13 -24,29 -24,47 0,16 5,30 17,40 11,10 41,21 89,32 48,11 81,20 99,28 26,12 45,27 58,46 12,18 18,39 18,63 0,24 -6,46 -20,67 -14,21 -33,38 -59,49 -25,12 -54,18 -86,18 -40,0 -74,-6 -101,-18 -28,-12 -49,-29 -65,-53 -15,-24 -23,-50 -24,-80zm-373 91l96 0c29,0 52,-3 69,-8 17,-6 30,-13 40,-23 14,-15 25,-33 33,-57 8,-24 12,-53 12,-87 0,-46 -8,-82 -23,-108 -16,-25 -34,-42 -56,-50 -16,-6 -42,-9 -77,-9l-94 0 0 342zm-59 52l0 -447 154 0c35,0 61,2 80,6 25,6 47,17 65,33 24,20 42,45 53,76 12,31 18,67 18,106 0,34 -4,64 -12,91 -8,26 -18,48 -30,65 -13,17 -27,31 -41,40 -15,10 -33,18 -54,23 -21,5 -45,7 -72,7l-161 0zm394 269c-544,0 -985,-441 -985,-984 0,-544 441,-985 985,-985 543,0 984,441 984,985 0,543 -441,984 -984,984zm30 -1237c-87,14 -138,-40 -125,-124l125 124zm-429 -94c53,-88 85,-119 150,-180l104 99c-8,33 -25,70 -16,114 23,113 151,153 242,108l95 95c-64,21 -97,49 -184,47 -71,-1 -124,-24 -173,-51 -72,-40 -195,-166 -218,-232zm-42 -366l130 125 -74 80c-30,32 -74,98 -98,141 -16,30 -10,28 7,56 119,186 329,400 611,305 40,-13 76,-37 104,-46l139 136c20,-9 59,-46 67,-64 -68,-51 -784,-777 -825,-799 -19,14 -51,41 -61,66zm273 36l60 64c142,-33 213,-21 318,53 40,28 81,60 108,95 22,28 71,82 85,119l-99 137c24,16 34,38 60,52 147,-202 167,-163 61,-308 -40,-54 -119,-133 -176,-168 -35,-23 -73,-43 -118,-58 -127,-42 -195,-15 -299,14zm335 329c-6,-94 -66,-156 -164,-161 17,29 55,58 81,83 22,21 61,64 83,78z"/>
 </g>
</svg>
